M48
;DRILL file {KiCad (5.0.1)-3} date 09.01.2019 08:56:31
;FORMAT={-:-/ absolute / metric / decimal}
FMAT,2
METRIC,TZ
T1C0.900
T2C1.000
T3C1.200
T4C1.400
%
G90
G05
M71
T1
X91.534Y-110.49
X96.734Y-81.09
X101.734Y-81.09
X106.934Y-110.49
X133.464Y-110.44
X138.664Y-81.04
X143.664Y-81.04
X148.864Y-110.44
T2
X116.586Y-98.806
X116.596Y-93.726
X123.19Y-100.584
X127.19Y-93.084
T3
X113.538Y-110.49
X116.078Y-110.49
X125.476Y-110.49
X128.016Y-110.49
T4
X114.046Y-67.564
X114.046Y-73.064
X118.246Y-67.564
X118.246Y-73.064
X122.446Y-67.564
X122.446Y-73.064
X126.646Y-67.564
X126.646Y-73.064
X98.298Y-67.564
X98.298Y-73.064
X102.498Y-67.564
X102.498Y-73.064
X106.698Y-67.564
X106.698Y-73.064
X117.856Y-83.82
X123.356Y-83.82
X134.366Y-67.564
X134.366Y-73.064
X138.566Y-67.564
X138.566Y-73.064
X142.766Y-67.564
X142.766Y-73.064
T0
M30
