M48
;DRILL file {KiCad (5.0.2)-1} date 12.01.2019 13:13:36
;FORMAT={-:-/ absolute / metric / decimal}
FMAT,2
METRIC,TZ
T1C0.900
T2C1.000
T3C1.200
T4C1.240
T5C1.400
T6C1.520
%
G90
G05
T1
X91.534Y-110.49
X96.734Y-81.09
X101.734Y-81.09
X106.934Y-110.49
X133.464Y-110.44
X138.664Y-81.04
X143.664Y-81.04
X148.864Y-110.44
T2
X116.586Y-98.806
X116.596Y-93.726
X123.19Y-100.584
X127.19Y-93.084
T3
X113.538Y-110.49
X116.078Y-110.49
X123.19Y-110.49
X125.73Y-110.49
T4
X133.625Y-75.365
X133.625Y-113.865
X141.625Y-113.865
X144.375Y-75.365
T5
X113.665Y-72.39
X113.665Y-77.89
X117.865Y-72.39
X117.865Y-77.89
X122.065Y-72.39
X122.065Y-77.89
X126.265Y-72.39
X126.265Y-77.89
X117.856Y-85.09
X123.356Y-85.09
T6
X92.71Y-63.5
X97.79Y-63.5
X102.87Y-63.5
X107.95Y-63.5
X113.03Y-63.5
X118.11Y-63.5
X124.46Y-63.5
X129.54Y-63.5
X134.62Y-63.5
X139.7Y-63.5
X144.78Y-63.5
X149.86Y-63.5
T0
M30
