G04 #@! TF.GenerationSoftware,KiCad,Pcbnew,(5.0.2)-1*
G04 #@! TF.CreationDate,2019-01-12T13:13:32+01:00*
G04 #@! TF.ProjectId,P300_HiVolt,50333030-5f48-4695-966f-6c742e6b6963,rev?*
G04 #@! TF.SameCoordinates,Original*
G04 #@! TF.FileFunction,Copper,L2,Bot*
G04 #@! TF.FilePolarity,Positive*
%FSLAX46Y46*%
G04 Gerber Fmt 4.6, Leading zero omitted, Abs format (unit mm)*
G04 Created by KiCad (PCBNEW (5.0.2)-1) date 12.01.2019 13:13:32*
%MOMM*%
%LPD*%
G01*
G04 APERTURE LIST*
G04 #@! TA.AperFunction,ComponentPad*
%ADD10C,3.000000*%
G04 #@! TD*
G04 #@! TA.AperFunction,ComponentPad*
%ADD11R,3.000000X3.000000*%
G04 #@! TD*
G04 #@! TA.AperFunction,ComponentPad*
%ADD12C,1.700000*%
G04 #@! TD*
G04 #@! TA.AperFunction,ComponentPad*
%ADD13R,3.300000X2.700000*%
G04 #@! TD*
G04 #@! TA.AperFunction,ComponentPad*
%ADD14O,3.300000X2.700000*%
G04 #@! TD*
G04 #@! TA.AperFunction,ComponentPad*
%ADD15R,2.700000X3.300000*%
G04 #@! TD*
G04 #@! TA.AperFunction,ComponentPad*
%ADD16O,2.700000X3.300000*%
G04 #@! TD*
G04 #@! TA.AperFunction,ComponentPad*
%ADD17R,1.740000X2.200000*%
G04 #@! TD*
G04 #@! TA.AperFunction,ComponentPad*
%ADD18O,1.740000X2.200000*%
G04 #@! TD*
G04 #@! TA.AperFunction,ComponentPad*
%ADD19C,1.800000*%
G04 #@! TD*
G04 #@! TA.AperFunction,ComponentPad*
%ADD20C,2.000000*%
G04 #@! TD*
G04 #@! TA.AperFunction,ComponentPad*
%ADD21C,1.860000*%
G04 #@! TD*
G04 #@! TA.AperFunction,Conductor*
%ADD22C,1.000000*%
G04 #@! TD*
G04 #@! TA.AperFunction,Conductor*
%ADD23C,2.000000*%
G04 #@! TD*
G04 APERTURE END LIST*
D10*
G04 #@! TO.P,J3,2*
G04 #@! TO.N,Net-(J3-Pad2)*
X129540000Y-63500000D03*
G04 #@! TO.P,J3,3*
G04 #@! TO.N,BP_Z*
X134620000Y-63500000D03*
D11*
G04 #@! TO.P,J3,1*
G04 #@! TO.N,BP_A*
X124460000Y-63500000D03*
D10*
G04 #@! TO.P,J3,4*
G04 #@! TO.N,Net-(J3-Pad2)*
X139700000Y-63500000D03*
G04 #@! TO.P,J3,5*
G04 #@! TO.N,L*
X144780000Y-63500000D03*
G04 #@! TO.P,J3,6*
G04 #@! TO.N,Net-(J3-Pad6)*
X149860000Y-63500000D03*
G04 #@! TD*
G04 #@! TO.P,J4,2*
G04 #@! TO.N,L*
X97790000Y-63500000D03*
G04 #@! TO.P,J4,3*
G04 #@! TO.N,Net-(J4-Pad3)*
X102870000Y-63500000D03*
D11*
G04 #@! TO.P,J4,1*
G04 #@! TO.N,L2_L*
X92710000Y-63500000D03*
D10*
G04 #@! TO.P,J4,4*
G04 #@! TO.N,L1_L*
X107950000Y-63500000D03*
G04 #@! TO.P,J4,5*
G04 #@! TO.N,L*
X113030000Y-63500000D03*
G04 #@! TO.P,J4,6*
G04 #@! TO.N,Net-(J4-Pad6)*
X118110000Y-63500000D03*
G04 #@! TD*
D12*
G04 #@! TO.P,T1,1*
G04 #@! TO.N,L*
X101734000Y-81090000D03*
G04 #@! TO.P,T1,2*
G04 #@! TO.N,N*
X96734000Y-81090000D03*
G04 #@! TO.P,T1,3*
G04 #@! TO.N,/V-*
X106934000Y-110490000D03*
G04 #@! TO.P,T1,4*
G04 #@! TO.N,/V+*
X91534000Y-110490000D03*
G04 #@! TD*
G04 #@! TO.P,T2,1*
G04 #@! TO.N,L*
X143664000Y-81040000D03*
G04 #@! TO.P,T2,2*
G04 #@! TO.N,N*
X138664000Y-81040000D03*
G04 #@! TO.P,T2,3*
G04 #@! TO.N,/5V-*
X148864000Y-110440000D03*
G04 #@! TO.P,T2,4*
G04 #@! TO.N,/5V+*
X133464000Y-110440000D03*
G04 #@! TD*
D13*
G04 #@! TO.P,J1,1*
G04 #@! TO.N,L*
X117856000Y-85090000D03*
D14*
G04 #@! TO.P,J1,2*
G04 #@! TO.N,N*
X123356000Y-85090000D03*
G04 #@! TD*
D15*
G04 #@! TO.P,J2,1*
G04 #@! TO.N,L2_L*
X113665000Y-72390000D03*
D16*
G04 #@! TO.P,J2,2*
G04 #@! TO.N,L1_L*
X117865000Y-72390000D03*
G04 #@! TO.P,J2,3*
G04 #@! TO.N,BP_A*
X122065000Y-72390000D03*
G04 #@! TO.P,J2,4*
G04 #@! TO.N,BP_Z*
X126265000Y-72390000D03*
G04 #@! TO.P,J2,5*
G04 #@! TO.N,N*
X113665000Y-77890000D03*
G04 #@! TO.P,J2,6*
X117865000Y-77890000D03*
G04 #@! TO.P,J2,7*
X122065000Y-77890000D03*
G04 #@! TO.P,J2,8*
G04 #@! TO.N,Net-(J2-Pad8)*
X126265000Y-77890000D03*
G04 #@! TD*
D17*
G04 #@! TO.P,J6,1*
G04 #@! TO.N,/5V-*
X123190000Y-110490000D03*
D18*
G04 #@! TO.P,J6,2*
G04 #@! TO.N,/5V+*
X125730000Y-110490000D03*
G04 #@! TD*
D17*
G04 #@! TO.P,J5,1*
G04 #@! TO.N,/V-*
X113538000Y-110490000D03*
D18*
G04 #@! TO.P,J5,2*
G04 #@! TO.N,/V+*
X116078000Y-110490000D03*
G04 #@! TD*
D19*
G04 #@! TO.P,RV1,1*
G04 #@! TO.N,L*
X123190000Y-100584000D03*
G04 #@! TO.P,RV1,2*
G04 #@! TO.N,N*
X127190000Y-93084000D03*
G04 #@! TD*
D20*
G04 #@! TO.P,F1,1*
G04 #@! TO.N,L*
X116586000Y-98806000D03*
G04 #@! TO.P,F1,2*
X116596000Y-93726000D03*
G04 #@! TD*
D21*
G04 #@! TO.P,Meanwell IRM-05-5,VPOS*
G04 #@! TO.N,N/C*
X141625000Y-113865000D03*
G04 #@! TO.P,Meanwell IRM-05-5,VNEG*
X133625000Y-113865000D03*
G04 #@! TO.P,Meanwell IRM-05-5,N*
X144375000Y-75365000D03*
G04 #@! TO.P,Meanwell IRM-05-5,L*
X133625000Y-75365000D03*
G04 #@! TD*
D22*
G04 #@! TO.N,/V-*
X106934000Y-110490000D02*
X113538000Y-110490000D01*
G04 #@! TO.N,/V+*
X116078000Y-112590000D02*
X116078000Y-110490000D01*
X116078000Y-112620002D02*
X116078000Y-112590000D01*
X115608001Y-113090001D02*
X116078000Y-112620002D01*
X94134001Y-113090001D02*
X115608001Y-113090001D01*
X91534000Y-110490000D02*
X94134001Y-113090001D01*
G04 #@! TO.N,L*
X121412000Y-98806000D02*
X123190000Y-100584000D01*
X116586000Y-98806000D02*
X121412000Y-98806000D01*
X134366000Y-98806000D02*
X121412000Y-98806000D01*
X143664000Y-81040000D02*
X143664000Y-82242081D01*
X143664000Y-89508000D02*
X142494000Y-90678000D01*
X143664000Y-81040000D02*
X143664000Y-89508000D01*
X142494000Y-90678000D02*
X134366000Y-98806000D01*
X148082000Y-85090000D02*
X142494000Y-90678000D01*
G04 #@! TO.N,N*
X114300000Y-78190000D02*
X114300000Y-77890000D01*
X134614000Y-85090000D02*
X138664000Y-81040000D01*
X123356000Y-85090000D02*
X134614000Y-85090000D01*
X122065000Y-77890000D02*
X117865000Y-77890000D01*
X117865000Y-77890000D02*
X113665000Y-77890000D01*
X99934000Y-77890000D02*
X96734000Y-81090000D01*
X113665000Y-77890000D02*
X99934000Y-77890000D01*
G04 #@! TO.N,L2_L*
X92710000Y-66000000D02*
X92710000Y-63500000D01*
X99100000Y-72390000D02*
X92710000Y-66000000D01*
X113665000Y-72390000D02*
X99100000Y-72390000D01*
G04 #@! TO.N,L1_L*
X118246000Y-73364000D02*
X118246000Y-73064000D01*
X109449999Y-64999999D02*
X107950000Y-63500000D01*
X111450001Y-67000001D02*
X109449999Y-64999999D01*
X115125001Y-67000001D02*
X111450001Y-67000001D01*
X117865000Y-69740000D02*
X115125001Y-67000001D01*
X117865000Y-72390000D02*
X117865000Y-69740000D01*
G04 #@! TO.N,BP_Z*
X126265000Y-71855000D02*
X126265000Y-72390000D01*
X134620000Y-63500000D02*
X126265000Y-71855000D01*
G04 #@! TO.N,BP_A*
X124460000Y-63500000D02*
X122700000Y-65260000D01*
X122065000Y-65895000D02*
X124460000Y-63500000D01*
X122065000Y-72390000D02*
X122065000Y-65895000D01*
G04 #@! TO.N,*
X133625000Y-113865000D02*
X126565000Y-113865000D01*
G04 #@! TO.N,L*
X144780000Y-64210000D02*
X133625000Y-75365000D01*
X144780000Y-63500000D02*
X144780000Y-64210000D01*
X114180000Y-98806000D02*
X101734000Y-86360000D01*
X116586000Y-98806000D02*
X114180000Y-98806000D01*
X101734000Y-81090000D02*
X101734000Y-86360000D01*
D23*
X117856000Y-92466000D02*
X116596000Y-93726000D01*
X117856000Y-85090000D02*
X117856000Y-92466000D01*
X134366000Y-98806000D02*
X148082000Y-85090000D01*
X116586000Y-98806000D02*
X134366000Y-98806000D01*
X148082000Y-68923320D02*
X146468680Y-67310000D01*
X148082000Y-85090000D02*
X148082000Y-68923320D01*
D22*
X144780000Y-65621320D02*
X146468680Y-67310000D01*
D23*
X144780000Y-65621320D02*
X148082000Y-68923320D01*
X144780000Y-63500000D02*
X144780000Y-65621320D01*
X144780000Y-61378680D02*
X140551320Y-57150000D01*
X144780000Y-63500000D02*
X144780000Y-61378680D01*
X140551320Y-57150000D02*
X115570000Y-57150000D01*
X113030000Y-59690000D02*
X115570000Y-57150000D01*
X113030000Y-63500000D02*
X113030000Y-59690000D01*
X97790000Y-59690000D02*
X100330000Y-57150000D01*
X97790000Y-63500000D02*
X97790000Y-59690000D01*
X100330000Y-57150000D02*
X115570000Y-57150000D01*
D22*
G04 #@! TO.N,N*
X138700000Y-81040000D02*
X144375000Y-75365000D01*
X138664000Y-81040000D02*
X138700000Y-81040000D01*
D23*
X122065000Y-77890000D02*
X113665000Y-77890000D01*
X123356000Y-85090000D02*
X123356000Y-83351000D01*
X122065000Y-82060000D02*
X122065000Y-77890000D01*
X123356000Y-83351000D02*
X122065000Y-82060000D01*
X123356000Y-89250000D02*
X127190000Y-93084000D01*
X123356000Y-85090000D02*
X123356000Y-89250000D01*
D22*
G04 #@! TO.N,/5V-*
X123190000Y-110490000D02*
X123190000Y-113030000D01*
X124025000Y-113865000D02*
X126565000Y-113865000D01*
X123190000Y-113030000D02*
X124025000Y-113865000D01*
X123190000Y-110490000D02*
X123190000Y-109220000D01*
X123190000Y-109220000D02*
X124460000Y-107950000D01*
X146374000Y-107950000D02*
X148864000Y-110440000D01*
X124460000Y-107950000D02*
X146374000Y-107950000D01*
G04 #@! TO.N,/5V+*
X133414000Y-110490000D02*
X133464000Y-110440000D01*
X130048000Y-110490000D02*
X125730000Y-110490000D01*
X128016000Y-110490000D02*
X130048000Y-110490000D01*
X130048000Y-110490000D02*
X133414000Y-110490000D01*
X138200000Y-110440000D02*
X141625000Y-113865000D01*
X133464000Y-110440000D02*
X138200000Y-110440000D01*
G04 #@! TO.N,Net-(J3-Pad2)*
X130500001Y-59999999D02*
X129540000Y-60960000D01*
X138321319Y-59999999D02*
X130500001Y-59999999D01*
X139700000Y-61378680D02*
X138321319Y-59999999D01*
X139700000Y-63500000D02*
X139700000Y-61378680D01*
X129540000Y-63500000D02*
X129540000Y-60960000D01*
G04 #@! TD*
M02*
