G04 #@! TF.GenerationSoftware,KiCad,Pcbnew,(5.0.2)-1*
G04 #@! TF.CreationDate,2019-01-12T13:13:32+01:00*
G04 #@! TF.ProjectId,P300_HiVolt,50333030-5f48-4695-966f-6c742e6b6963,rev?*
G04 #@! TF.SameCoordinates,Original*
G04 #@! TF.FileFunction,Soldermask,Bot*
G04 #@! TF.FilePolarity,Negative*
%FSLAX46Y46*%
G04 Gerber Fmt 4.6, Leading zero omitted, Abs format (unit mm)*
G04 Created by KiCad (PCBNEW (5.0.2)-1) date 12.01.2019 13:13:32*
%MOMM*%
%LPD*%
G01*
G04 APERTURE LIST*
%ADD10C,0.100000*%
G04 APERTURE END LIST*
D10*
G36*
X119789122Y-113816115D02*
X119905041Y-113839173D01*
X120232620Y-113974861D01*
X120412630Y-114095140D01*
X120527436Y-114171851D01*
X120778149Y-114422564D01*
X120975140Y-114717382D01*
X121110827Y-115044960D01*
X121180000Y-115392714D01*
X121180000Y-115747286D01*
X121110827Y-116095040D01*
X120975140Y-116422618D01*
X120778149Y-116717436D01*
X120527436Y-116968149D01*
X120527433Y-116968151D01*
X120232620Y-117165139D01*
X119905041Y-117300827D01*
X119789122Y-117323885D01*
X119557286Y-117370000D01*
X119202714Y-117370000D01*
X118970878Y-117323885D01*
X118854959Y-117300827D01*
X118527380Y-117165139D01*
X118232567Y-116968151D01*
X118232564Y-116968149D01*
X117981851Y-116717436D01*
X117784860Y-116422618D01*
X117649173Y-116095040D01*
X117580000Y-115747286D01*
X117580000Y-115392714D01*
X117649173Y-115044960D01*
X117784860Y-114717382D01*
X117981851Y-114422564D01*
X118232564Y-114171851D01*
X118347370Y-114095140D01*
X118527380Y-113974861D01*
X118854959Y-113839173D01*
X118970878Y-113816115D01*
X119202714Y-113770000D01*
X119557286Y-113770000D01*
X119789122Y-113816115D01*
X119789122Y-113816115D01*
G37*
G36*
X141823621Y-112752370D02*
X141954609Y-112778425D01*
X142160256Y-112863607D01*
X142345333Y-112987271D01*
X142502729Y-113144667D01*
X142626393Y-113329744D01*
X142711575Y-113535391D01*
X142755000Y-113753705D01*
X142755000Y-113976295D01*
X142711575Y-114194609D01*
X142626393Y-114400256D01*
X142502729Y-114585333D01*
X142345333Y-114742729D01*
X142160256Y-114866393D01*
X141954609Y-114951575D01*
X141823621Y-114977630D01*
X141736297Y-114995000D01*
X141513703Y-114995000D01*
X141426379Y-114977630D01*
X141295391Y-114951575D01*
X141089744Y-114866393D01*
X140904667Y-114742729D01*
X140747271Y-114585333D01*
X140623607Y-114400256D01*
X140538425Y-114194609D01*
X140495000Y-113976295D01*
X140495000Y-113753705D01*
X140538425Y-113535391D01*
X140623607Y-113329744D01*
X140747271Y-113144667D01*
X140904667Y-112987271D01*
X141089744Y-112863607D01*
X141295391Y-112778425D01*
X141426379Y-112752370D01*
X141513703Y-112735000D01*
X141736297Y-112735000D01*
X141823621Y-112752370D01*
X141823621Y-112752370D01*
G37*
G36*
X133823621Y-112752370D02*
X133954609Y-112778425D01*
X134160256Y-112863607D01*
X134345333Y-112987271D01*
X134502729Y-113144667D01*
X134626393Y-113329744D01*
X134711575Y-113535391D01*
X134755000Y-113753705D01*
X134755000Y-113976295D01*
X134711575Y-114194609D01*
X134626393Y-114400256D01*
X134502729Y-114585333D01*
X134345333Y-114742729D01*
X134160256Y-114866393D01*
X133954609Y-114951575D01*
X133823621Y-114977630D01*
X133736297Y-114995000D01*
X133513703Y-114995000D01*
X133426379Y-114977630D01*
X133295391Y-114951575D01*
X133089744Y-114866393D01*
X132904667Y-114742729D01*
X132747271Y-114585333D01*
X132623607Y-114400256D01*
X132538425Y-114194609D01*
X132495000Y-113976295D01*
X132495000Y-113753705D01*
X132538425Y-113535391D01*
X132623607Y-113329744D01*
X132747271Y-113144667D01*
X132904667Y-112987271D01*
X133089744Y-112863607D01*
X133295391Y-112778425D01*
X133426379Y-112752370D01*
X133513703Y-112735000D01*
X133736297Y-112735000D01*
X133823621Y-112752370D01*
X133823621Y-112752370D01*
G37*
G36*
X154909122Y-110746115D02*
X155025041Y-110769173D01*
X155352620Y-110904861D01*
X155389875Y-110929754D01*
X155647436Y-111101851D01*
X155898149Y-111352564D01*
X156095140Y-111647382D01*
X156230827Y-111974960D01*
X156300000Y-112322714D01*
X156300000Y-112677286D01*
X156230827Y-113025040D01*
X156095140Y-113352618D01*
X155898149Y-113647436D01*
X155647436Y-113898149D01*
X155647433Y-113898151D01*
X155352620Y-114095139D01*
X155025041Y-114230827D01*
X154909122Y-114253885D01*
X154677286Y-114300000D01*
X154322714Y-114300000D01*
X154090878Y-114253885D01*
X153974959Y-114230827D01*
X153647380Y-114095139D01*
X153352567Y-113898151D01*
X153352564Y-113898149D01*
X153101851Y-113647436D01*
X152904860Y-113352618D01*
X152769173Y-113025040D01*
X152700000Y-112677286D01*
X152700000Y-112322714D01*
X152769173Y-111974960D01*
X152904860Y-111647382D01*
X153101851Y-111352564D01*
X153352564Y-111101851D01*
X153610125Y-110929754D01*
X153647380Y-110904861D01*
X153974959Y-110769173D01*
X154090878Y-110746115D01*
X154322714Y-110700000D01*
X154677286Y-110700000D01*
X154909122Y-110746115D01*
X154909122Y-110746115D01*
G37*
G36*
X86909122Y-110746115D02*
X87025041Y-110769173D01*
X87352620Y-110904861D01*
X87389875Y-110929754D01*
X87647436Y-111101851D01*
X87898149Y-111352564D01*
X88095140Y-111647382D01*
X88230827Y-111974960D01*
X88300000Y-112322714D01*
X88300000Y-112677286D01*
X88230827Y-113025040D01*
X88095140Y-113352618D01*
X87898149Y-113647436D01*
X87647436Y-113898149D01*
X87647433Y-113898151D01*
X87352620Y-114095139D01*
X87025041Y-114230827D01*
X86909122Y-114253885D01*
X86677286Y-114300000D01*
X86322714Y-114300000D01*
X86090878Y-114253885D01*
X85974959Y-114230827D01*
X85647380Y-114095139D01*
X85352567Y-113898151D01*
X85352564Y-113898149D01*
X85101851Y-113647436D01*
X84904860Y-113352618D01*
X84769173Y-113025040D01*
X84700000Y-112677286D01*
X84700000Y-112322714D01*
X84769173Y-111974960D01*
X84904860Y-111647382D01*
X85101851Y-111352564D01*
X85352564Y-111101851D01*
X85610125Y-110929754D01*
X85647380Y-110904861D01*
X85974959Y-110769173D01*
X86090878Y-110746115D01*
X86322714Y-110700000D01*
X86677286Y-110700000D01*
X86909122Y-110746115D01*
X86909122Y-110746115D01*
G37*
G36*
X125939756Y-109205482D02*
X126088970Y-109250746D01*
X126141455Y-109266667D01*
X126327336Y-109366022D01*
X126490265Y-109499735D01*
X126623978Y-109662663D01*
X126723333Y-109848544D01*
X126739254Y-109901029D01*
X126784518Y-110050243D01*
X126800000Y-110207436D01*
X126800000Y-110772563D01*
X126784518Y-110929756D01*
X126767043Y-110987362D01*
X126723333Y-111131455D01*
X126623978Y-111317337D01*
X126490265Y-111480265D01*
X126327337Y-111613978D01*
X126141456Y-111713333D01*
X126088971Y-111729254D01*
X125939757Y-111774518D01*
X125730000Y-111795177D01*
X125520244Y-111774518D01*
X125371030Y-111729254D01*
X125318545Y-111713333D01*
X125132664Y-111613978D01*
X124969736Y-111480265D01*
X124836024Y-111317338D01*
X124736666Y-111131453D01*
X124716271Y-111064220D01*
X124675482Y-110929757D01*
X124660000Y-110772564D01*
X124660000Y-110207437D01*
X124675482Y-110050244D01*
X124736666Y-109848549D01*
X124736667Y-109848545D01*
X124836022Y-109662664D01*
X124969735Y-109499735D01*
X125132663Y-109366022D01*
X125318544Y-109266667D01*
X125371029Y-109250746D01*
X125520243Y-109205482D01*
X125730000Y-109184823D01*
X125939756Y-109205482D01*
X125939756Y-109205482D01*
G37*
G36*
X116287756Y-109205482D02*
X116436970Y-109250746D01*
X116489455Y-109266667D01*
X116675336Y-109366022D01*
X116838265Y-109499735D01*
X116971978Y-109662663D01*
X117071333Y-109848544D01*
X117087254Y-109901029D01*
X117132518Y-110050243D01*
X117148000Y-110207436D01*
X117148000Y-110772563D01*
X117132518Y-110929756D01*
X117115043Y-110987362D01*
X117071333Y-111131455D01*
X116971978Y-111317337D01*
X116838265Y-111480265D01*
X116675337Y-111613978D01*
X116489456Y-111713333D01*
X116436971Y-111729254D01*
X116287757Y-111774518D01*
X116078000Y-111795177D01*
X115868244Y-111774518D01*
X115719030Y-111729254D01*
X115666545Y-111713333D01*
X115480664Y-111613978D01*
X115317736Y-111480265D01*
X115184024Y-111317338D01*
X115084666Y-111131453D01*
X115064271Y-111064220D01*
X115023482Y-110929757D01*
X115008000Y-110772564D01*
X115008000Y-110207437D01*
X115023482Y-110050244D01*
X115084666Y-109848549D01*
X115084667Y-109848545D01*
X115184022Y-109662664D01*
X115317735Y-109499735D01*
X115480663Y-109366022D01*
X115666544Y-109266667D01*
X115719029Y-109250746D01*
X115868243Y-109205482D01*
X116078000Y-109184823D01*
X116287756Y-109205482D01*
X116287756Y-109205482D01*
G37*
G36*
X124260000Y-111790000D02*
X122120000Y-111790000D01*
X122120000Y-109190000D01*
X124260000Y-109190000D01*
X124260000Y-111790000D01*
X124260000Y-111790000D01*
G37*
G36*
X114608000Y-111790000D02*
X112468000Y-111790000D01*
X112468000Y-109190000D01*
X114608000Y-109190000D01*
X114608000Y-111790000D01*
X114608000Y-111790000D01*
G37*
G36*
X107059888Y-109444470D02*
X107240274Y-109480350D01*
X107431362Y-109559502D01*
X107603336Y-109674411D01*
X107749589Y-109820664D01*
X107864498Y-109992638D01*
X107943650Y-110183726D01*
X107984000Y-110386584D01*
X107984000Y-110593416D01*
X107943650Y-110796274D01*
X107864498Y-110987362D01*
X107749589Y-111159336D01*
X107603336Y-111305589D01*
X107431362Y-111420498D01*
X107240274Y-111499650D01*
X107059888Y-111535530D01*
X107037417Y-111540000D01*
X106830583Y-111540000D01*
X106808112Y-111535530D01*
X106627726Y-111499650D01*
X106436638Y-111420498D01*
X106264664Y-111305589D01*
X106118411Y-111159336D01*
X106003502Y-110987362D01*
X105924350Y-110796274D01*
X105884000Y-110593416D01*
X105884000Y-110386584D01*
X105924350Y-110183726D01*
X106003502Y-109992638D01*
X106118411Y-109820664D01*
X106264664Y-109674411D01*
X106436638Y-109559502D01*
X106627726Y-109480350D01*
X106808112Y-109444470D01*
X106830583Y-109440000D01*
X107037417Y-109440000D01*
X107059888Y-109444470D01*
X107059888Y-109444470D01*
G37*
G36*
X91659888Y-109444470D02*
X91840274Y-109480350D01*
X92031362Y-109559502D01*
X92203336Y-109674411D01*
X92349589Y-109820664D01*
X92464498Y-109992638D01*
X92543650Y-110183726D01*
X92584000Y-110386584D01*
X92584000Y-110593416D01*
X92543650Y-110796274D01*
X92464498Y-110987362D01*
X92349589Y-111159336D01*
X92203336Y-111305589D01*
X92031362Y-111420498D01*
X91840274Y-111499650D01*
X91659888Y-111535530D01*
X91637417Y-111540000D01*
X91430583Y-111540000D01*
X91408112Y-111535530D01*
X91227726Y-111499650D01*
X91036638Y-111420498D01*
X90864664Y-111305589D01*
X90718411Y-111159336D01*
X90603502Y-110987362D01*
X90524350Y-110796274D01*
X90484000Y-110593416D01*
X90484000Y-110386584D01*
X90524350Y-110183726D01*
X90603502Y-109992638D01*
X90718411Y-109820664D01*
X90864664Y-109674411D01*
X91036638Y-109559502D01*
X91227726Y-109480350D01*
X91408112Y-109444470D01*
X91430583Y-109440000D01*
X91637417Y-109440000D01*
X91659888Y-109444470D01*
X91659888Y-109444470D01*
G37*
G36*
X148989888Y-109394470D02*
X149170274Y-109430350D01*
X149361362Y-109509502D01*
X149533336Y-109624411D01*
X149679589Y-109770664D01*
X149794498Y-109942638D01*
X149873650Y-110133726D01*
X149914000Y-110336584D01*
X149914000Y-110543416D01*
X149873650Y-110746274D01*
X149794498Y-110937362D01*
X149679589Y-111109336D01*
X149533336Y-111255589D01*
X149361362Y-111370498D01*
X149170274Y-111449650D01*
X148989888Y-111485530D01*
X148967417Y-111490000D01*
X148760583Y-111490000D01*
X148738112Y-111485530D01*
X148557726Y-111449650D01*
X148366638Y-111370498D01*
X148194664Y-111255589D01*
X148048411Y-111109336D01*
X147933502Y-110937362D01*
X147854350Y-110746274D01*
X147814000Y-110543416D01*
X147814000Y-110336584D01*
X147854350Y-110133726D01*
X147933502Y-109942638D01*
X148048411Y-109770664D01*
X148194664Y-109624411D01*
X148366638Y-109509502D01*
X148557726Y-109430350D01*
X148738112Y-109394470D01*
X148760583Y-109390000D01*
X148967417Y-109390000D01*
X148989888Y-109394470D01*
X148989888Y-109394470D01*
G37*
G36*
X133589888Y-109394470D02*
X133770274Y-109430350D01*
X133961362Y-109509502D01*
X134133336Y-109624411D01*
X134279589Y-109770664D01*
X134394498Y-109942638D01*
X134473650Y-110133726D01*
X134514000Y-110336584D01*
X134514000Y-110543416D01*
X134473650Y-110746274D01*
X134394498Y-110937362D01*
X134279589Y-111109336D01*
X134133336Y-111255589D01*
X133961362Y-111370498D01*
X133770274Y-111449650D01*
X133589888Y-111485530D01*
X133567417Y-111490000D01*
X133360583Y-111490000D01*
X133338112Y-111485530D01*
X133157726Y-111449650D01*
X132966638Y-111370498D01*
X132794664Y-111255589D01*
X132648411Y-111109336D01*
X132533502Y-110937362D01*
X132454350Y-110746274D01*
X132414000Y-110543416D01*
X132414000Y-110336584D01*
X132454350Y-110133726D01*
X132533502Y-109942638D01*
X132648411Y-109770664D01*
X132794664Y-109624411D01*
X132966638Y-109509502D01*
X133157726Y-109430350D01*
X133338112Y-109394470D01*
X133360583Y-109390000D01*
X133567417Y-109390000D01*
X133589888Y-109394470D01*
X133589888Y-109394470D01*
G37*
G36*
X123510857Y-99526272D02*
X123711042Y-99609191D01*
X123891213Y-99729578D01*
X124044422Y-99882787D01*
X124044424Y-99882790D01*
X124044425Y-99882791D01*
X124126751Y-100006000D01*
X124164809Y-100062958D01*
X124247728Y-100263143D01*
X124290000Y-100475658D01*
X124290000Y-100692342D01*
X124247728Y-100904857D01*
X124164809Y-101105042D01*
X124044422Y-101285213D01*
X123891213Y-101438422D01*
X123711042Y-101558809D01*
X123510857Y-101641728D01*
X123298342Y-101684000D01*
X123081658Y-101684000D01*
X122869143Y-101641728D01*
X122668958Y-101558809D01*
X122488787Y-101438422D01*
X122335578Y-101285213D01*
X122215191Y-101105042D01*
X122132272Y-100904857D01*
X122090000Y-100692342D01*
X122090000Y-100475658D01*
X122132272Y-100263143D01*
X122215191Y-100062958D01*
X122253249Y-100006000D01*
X122335575Y-99882791D01*
X122335576Y-99882790D01*
X122335578Y-99882787D01*
X122488787Y-99729578D01*
X122668958Y-99609191D01*
X122869143Y-99526272D01*
X123081658Y-99484000D01*
X123298342Y-99484000D01*
X123510857Y-99526272D01*
X123510857Y-99526272D01*
G37*
G36*
X116936026Y-97652115D02*
X117154412Y-97742573D01*
X117350958Y-97873901D01*
X117518099Y-98041042D01*
X117649427Y-98237588D01*
X117739885Y-98455974D01*
X117786000Y-98687809D01*
X117786000Y-98924191D01*
X117739885Y-99156026D01*
X117649427Y-99374412D01*
X117518099Y-99570958D01*
X117350958Y-99738099D01*
X117154412Y-99869427D01*
X116936026Y-99959885D01*
X116704191Y-100006000D01*
X116467809Y-100006000D01*
X116235974Y-99959885D01*
X116017588Y-99869427D01*
X115821042Y-99738099D01*
X115653901Y-99570958D01*
X115522573Y-99374412D01*
X115432115Y-99156026D01*
X115386000Y-98924191D01*
X115386000Y-98687809D01*
X115432115Y-98455974D01*
X115522573Y-98237588D01*
X115653901Y-98041042D01*
X115821042Y-97873901D01*
X116017588Y-97742573D01*
X116235974Y-97652115D01*
X116467809Y-97606000D01*
X116704191Y-97606000D01*
X116936026Y-97652115D01*
X116936026Y-97652115D01*
G37*
G36*
X116946026Y-92572115D02*
X117164412Y-92662573D01*
X117360958Y-92793901D01*
X117528099Y-92961042D01*
X117659427Y-93157588D01*
X117749885Y-93375974D01*
X117796000Y-93607809D01*
X117796000Y-93844191D01*
X117749885Y-94076026D01*
X117659427Y-94294412D01*
X117528099Y-94490958D01*
X117360958Y-94658099D01*
X117164412Y-94789427D01*
X116946026Y-94879885D01*
X116714191Y-94926000D01*
X116477809Y-94926000D01*
X116245974Y-94879885D01*
X116027588Y-94789427D01*
X115831042Y-94658099D01*
X115663901Y-94490958D01*
X115532573Y-94294412D01*
X115442115Y-94076026D01*
X115396000Y-93844191D01*
X115396000Y-93607809D01*
X115442115Y-93375974D01*
X115532573Y-93157588D01*
X115663901Y-92961042D01*
X115831042Y-92793901D01*
X116027588Y-92662573D01*
X116245974Y-92572115D01*
X116477809Y-92526000D01*
X116714191Y-92526000D01*
X116946026Y-92572115D01*
X116946026Y-92572115D01*
G37*
G36*
X127510857Y-92026272D02*
X127711042Y-92109191D01*
X127891213Y-92229578D01*
X128044422Y-92382787D01*
X128164809Y-92562958D01*
X128247728Y-92763143D01*
X128290000Y-92975658D01*
X128290000Y-93192342D01*
X128247728Y-93404857D01*
X128164809Y-93605042D01*
X128044422Y-93785213D01*
X127891213Y-93938422D01*
X127711042Y-94058809D01*
X127510857Y-94141728D01*
X127298342Y-94184000D01*
X127081658Y-94184000D01*
X126869143Y-94141728D01*
X126668958Y-94058809D01*
X126488787Y-93938422D01*
X126335578Y-93785213D01*
X126215191Y-93605042D01*
X126132272Y-93404857D01*
X126090000Y-93192342D01*
X126090000Y-92975658D01*
X126132272Y-92763143D01*
X126215191Y-92562958D01*
X126335578Y-92382787D01*
X126488787Y-92229578D01*
X126668958Y-92109191D01*
X126869143Y-92026272D01*
X127081658Y-91984000D01*
X127298342Y-91984000D01*
X127510857Y-92026272D01*
X127510857Y-92026272D01*
G37*
G36*
X119706000Y-86640000D02*
X116006000Y-86640000D01*
X116006000Y-83540000D01*
X119706000Y-83540000D01*
X119706000Y-86640000D01*
X119706000Y-86640000D01*
G37*
G36*
X123959854Y-83562427D02*
X124252027Y-83651058D01*
X124252029Y-83651059D01*
X124521300Y-83794987D01*
X124521302Y-83794988D01*
X124521301Y-83794988D01*
X124757318Y-83988682D01*
X124951012Y-84224699D01*
X125094942Y-84493973D01*
X125183573Y-84786146D01*
X125213499Y-85090000D01*
X125183573Y-85393854D01*
X125094942Y-85686027D01*
X125094941Y-85686029D01*
X124951013Y-85955300D01*
X124757318Y-86191318D01*
X124521300Y-86385013D01*
X124252029Y-86528941D01*
X124252027Y-86528942D01*
X123959854Y-86617573D01*
X123732142Y-86640000D01*
X122979858Y-86640000D01*
X122752146Y-86617573D01*
X122459973Y-86528942D01*
X122459971Y-86528941D01*
X122190700Y-86385013D01*
X121954682Y-86191318D01*
X121760987Y-85955300D01*
X121617059Y-85686029D01*
X121617058Y-85686027D01*
X121528427Y-85393854D01*
X121498501Y-85090000D01*
X121528427Y-84786146D01*
X121617058Y-84493973D01*
X121760988Y-84224699D01*
X121954682Y-83988682D01*
X122190699Y-83794988D01*
X122190698Y-83794988D01*
X122190700Y-83794987D01*
X122459971Y-83651059D01*
X122459973Y-83651058D01*
X122752146Y-83562427D01*
X122979858Y-83540000D01*
X123732142Y-83540000D01*
X123959854Y-83562427D01*
X123959854Y-83562427D01*
G37*
G36*
X101859888Y-80044470D02*
X102040274Y-80080350D01*
X102231362Y-80159502D01*
X102403336Y-80274411D01*
X102549589Y-80420664D01*
X102664498Y-80592638D01*
X102743650Y-80783726D01*
X102784000Y-80986584D01*
X102784000Y-81193416D01*
X102743650Y-81396274D01*
X102664498Y-81587362D01*
X102549589Y-81759336D01*
X102403336Y-81905589D01*
X102231362Y-82020498D01*
X102040274Y-82099650D01*
X101859888Y-82135530D01*
X101837417Y-82140000D01*
X101630583Y-82140000D01*
X101608112Y-82135530D01*
X101427726Y-82099650D01*
X101236638Y-82020498D01*
X101064664Y-81905589D01*
X100918411Y-81759336D01*
X100803502Y-81587362D01*
X100724350Y-81396274D01*
X100684000Y-81193416D01*
X100684000Y-80986584D01*
X100724350Y-80783726D01*
X100803502Y-80592638D01*
X100918411Y-80420664D01*
X101064664Y-80274411D01*
X101236638Y-80159502D01*
X101427726Y-80080350D01*
X101608112Y-80044470D01*
X101630583Y-80040000D01*
X101837417Y-80040000D01*
X101859888Y-80044470D01*
X101859888Y-80044470D01*
G37*
G36*
X96859888Y-80044470D02*
X97040274Y-80080350D01*
X97231362Y-80159502D01*
X97403336Y-80274411D01*
X97549589Y-80420664D01*
X97664498Y-80592638D01*
X97743650Y-80783726D01*
X97784000Y-80986584D01*
X97784000Y-81193416D01*
X97743650Y-81396274D01*
X97664498Y-81587362D01*
X97549589Y-81759336D01*
X97403336Y-81905589D01*
X97231362Y-82020498D01*
X97040274Y-82099650D01*
X96859888Y-82135530D01*
X96837417Y-82140000D01*
X96630583Y-82140000D01*
X96608112Y-82135530D01*
X96427726Y-82099650D01*
X96236638Y-82020498D01*
X96064664Y-81905589D01*
X95918411Y-81759336D01*
X95803502Y-81587362D01*
X95724350Y-81396274D01*
X95684000Y-81193416D01*
X95684000Y-80986584D01*
X95724350Y-80783726D01*
X95803502Y-80592638D01*
X95918411Y-80420664D01*
X96064664Y-80274411D01*
X96236638Y-80159502D01*
X96427726Y-80080350D01*
X96608112Y-80044470D01*
X96630583Y-80040000D01*
X96837417Y-80040000D01*
X96859888Y-80044470D01*
X96859888Y-80044470D01*
G37*
G36*
X143789888Y-79994470D02*
X143970274Y-80030350D01*
X144161362Y-80109502D01*
X144333336Y-80224411D01*
X144479589Y-80370664D01*
X144594498Y-80542638D01*
X144673650Y-80733726D01*
X144714000Y-80936584D01*
X144714000Y-81143416D01*
X144673650Y-81346274D01*
X144594498Y-81537362D01*
X144479589Y-81709336D01*
X144333336Y-81855589D01*
X144161362Y-81970498D01*
X143970274Y-82049650D01*
X143789888Y-82085530D01*
X143767417Y-82090000D01*
X143560583Y-82090000D01*
X143538112Y-82085530D01*
X143357726Y-82049650D01*
X143166638Y-81970498D01*
X142994664Y-81855589D01*
X142848411Y-81709336D01*
X142733502Y-81537362D01*
X142654350Y-81346274D01*
X142614000Y-81143416D01*
X142614000Y-80936584D01*
X142654350Y-80733726D01*
X142733502Y-80542638D01*
X142848411Y-80370664D01*
X142994664Y-80224411D01*
X143166638Y-80109502D01*
X143357726Y-80030350D01*
X143538112Y-79994470D01*
X143560583Y-79990000D01*
X143767417Y-79990000D01*
X143789888Y-79994470D01*
X143789888Y-79994470D01*
G37*
G36*
X138789888Y-79994470D02*
X138970274Y-80030350D01*
X139161362Y-80109502D01*
X139333336Y-80224411D01*
X139479589Y-80370664D01*
X139594498Y-80542638D01*
X139673650Y-80733726D01*
X139714000Y-80936584D01*
X139714000Y-81143416D01*
X139673650Y-81346274D01*
X139594498Y-81537362D01*
X139479589Y-81709336D01*
X139333336Y-81855589D01*
X139161362Y-81970498D01*
X138970274Y-82049650D01*
X138789888Y-82085530D01*
X138767417Y-82090000D01*
X138560583Y-82090000D01*
X138538112Y-82085530D01*
X138357726Y-82049650D01*
X138166638Y-81970498D01*
X137994664Y-81855589D01*
X137848411Y-81709336D01*
X137733502Y-81537362D01*
X137654350Y-81346274D01*
X137614000Y-81143416D01*
X137614000Y-80936584D01*
X137654350Y-80733726D01*
X137733502Y-80542638D01*
X137848411Y-80370664D01*
X137994664Y-80224411D01*
X138166638Y-80109502D01*
X138357726Y-80030350D01*
X138538112Y-79994470D01*
X138560583Y-79990000D01*
X138767417Y-79990000D01*
X138789888Y-79994470D01*
X138789888Y-79994470D01*
G37*
G36*
X113968853Y-76062427D02*
X114261026Y-76151058D01*
X114530301Y-76294988D01*
X114617307Y-76366392D01*
X114766318Y-76488682D01*
X114960013Y-76724700D01*
X115103941Y-76993971D01*
X115103942Y-76993973D01*
X115192573Y-77286146D01*
X115215000Y-77513858D01*
X115215000Y-78266141D01*
X115192573Y-78493848D01*
X115192572Y-78493851D01*
X115192572Y-78493852D01*
X115103941Y-78786029D01*
X114960013Y-79055300D01*
X114766318Y-79291318D01*
X114530300Y-79485013D01*
X114261029Y-79628941D01*
X114261027Y-79628942D01*
X113968854Y-79717573D01*
X113665000Y-79747499D01*
X113361147Y-79717573D01*
X113068974Y-79628942D01*
X112799699Y-79485012D01*
X112563682Y-79291318D01*
X112369988Y-79055301D01*
X112226058Y-78786027D01*
X112137427Y-78493854D01*
X112115000Y-78266142D01*
X112115000Y-77513859D01*
X112137427Y-77286147D01*
X112226058Y-76993974D01*
X112369988Y-76724699D01*
X112563682Y-76488682D01*
X112799699Y-76294988D01*
X112799698Y-76294988D01*
X112799700Y-76294987D01*
X113068971Y-76151059D01*
X113068973Y-76151058D01*
X113361146Y-76062427D01*
X113665000Y-76032501D01*
X113968853Y-76062427D01*
X113968853Y-76062427D01*
G37*
G36*
X118168853Y-76062427D02*
X118461026Y-76151058D01*
X118730301Y-76294988D01*
X118817307Y-76366392D01*
X118966318Y-76488682D01*
X119160013Y-76724700D01*
X119303941Y-76993971D01*
X119303942Y-76993973D01*
X119392573Y-77286146D01*
X119415000Y-77513858D01*
X119415000Y-78266141D01*
X119392573Y-78493848D01*
X119392572Y-78493851D01*
X119392572Y-78493852D01*
X119303941Y-78786029D01*
X119160013Y-79055300D01*
X118966318Y-79291318D01*
X118730300Y-79485013D01*
X118461029Y-79628941D01*
X118461027Y-79628942D01*
X118168854Y-79717573D01*
X117865000Y-79747499D01*
X117561147Y-79717573D01*
X117268974Y-79628942D01*
X116999699Y-79485012D01*
X116763682Y-79291318D01*
X116569988Y-79055301D01*
X116426058Y-78786027D01*
X116337427Y-78493854D01*
X116315000Y-78266142D01*
X116315000Y-77513859D01*
X116337427Y-77286147D01*
X116426058Y-76993974D01*
X116569988Y-76724699D01*
X116763682Y-76488682D01*
X116999699Y-76294988D01*
X116999698Y-76294988D01*
X116999700Y-76294987D01*
X117268971Y-76151059D01*
X117268973Y-76151058D01*
X117561146Y-76062427D01*
X117865000Y-76032501D01*
X118168853Y-76062427D01*
X118168853Y-76062427D01*
G37*
G36*
X126568853Y-76062427D02*
X126861026Y-76151058D01*
X127130301Y-76294988D01*
X127217307Y-76366392D01*
X127366318Y-76488682D01*
X127560013Y-76724700D01*
X127703941Y-76993971D01*
X127703942Y-76993973D01*
X127792573Y-77286146D01*
X127815000Y-77513858D01*
X127815000Y-78266141D01*
X127792573Y-78493848D01*
X127792572Y-78493851D01*
X127792572Y-78493852D01*
X127703941Y-78786029D01*
X127560013Y-79055300D01*
X127366318Y-79291318D01*
X127130300Y-79485013D01*
X126861029Y-79628941D01*
X126861027Y-79628942D01*
X126568854Y-79717573D01*
X126265000Y-79747499D01*
X125961147Y-79717573D01*
X125668974Y-79628942D01*
X125399699Y-79485012D01*
X125163682Y-79291318D01*
X124969988Y-79055301D01*
X124826058Y-78786027D01*
X124737427Y-78493854D01*
X124715000Y-78266142D01*
X124715000Y-77513859D01*
X124737427Y-77286147D01*
X124826058Y-76993974D01*
X124969988Y-76724699D01*
X125163682Y-76488682D01*
X125399699Y-76294988D01*
X125399698Y-76294988D01*
X125399700Y-76294987D01*
X125668971Y-76151059D01*
X125668973Y-76151058D01*
X125961146Y-76062427D01*
X126265000Y-76032501D01*
X126568853Y-76062427D01*
X126568853Y-76062427D01*
G37*
G36*
X122368853Y-76062427D02*
X122661026Y-76151058D01*
X122930301Y-76294988D01*
X123017307Y-76366392D01*
X123166318Y-76488682D01*
X123360013Y-76724700D01*
X123503941Y-76993971D01*
X123503942Y-76993973D01*
X123592573Y-77286146D01*
X123615000Y-77513858D01*
X123615000Y-78266141D01*
X123592573Y-78493848D01*
X123592572Y-78493851D01*
X123592572Y-78493852D01*
X123503941Y-78786029D01*
X123360013Y-79055300D01*
X123166318Y-79291318D01*
X122930300Y-79485013D01*
X122661029Y-79628941D01*
X122661027Y-79628942D01*
X122368854Y-79717573D01*
X122065000Y-79747499D01*
X121761147Y-79717573D01*
X121468974Y-79628942D01*
X121199699Y-79485012D01*
X120963682Y-79291318D01*
X120769988Y-79055301D01*
X120626058Y-78786027D01*
X120537427Y-78493854D01*
X120515000Y-78266142D01*
X120515000Y-77513859D01*
X120537427Y-77286147D01*
X120626058Y-76993974D01*
X120769988Y-76724699D01*
X120963682Y-76488682D01*
X121199699Y-76294988D01*
X121199698Y-76294988D01*
X121199700Y-76294987D01*
X121468971Y-76151059D01*
X121468973Y-76151058D01*
X121761146Y-76062427D01*
X122065000Y-76032501D01*
X122368853Y-76062427D01*
X122368853Y-76062427D01*
G37*
G36*
X133823621Y-74252370D02*
X133954609Y-74278425D01*
X134160256Y-74363607D01*
X134345333Y-74487271D01*
X134502729Y-74644667D01*
X134626393Y-74829744D01*
X134711575Y-75035391D01*
X134755000Y-75253705D01*
X134755000Y-75476295D01*
X134711575Y-75694609D01*
X134626393Y-75900256D01*
X134502729Y-76085333D01*
X134345333Y-76242729D01*
X134160256Y-76366393D01*
X133954609Y-76451575D01*
X133823621Y-76477630D01*
X133736297Y-76495000D01*
X133513703Y-76495000D01*
X133426379Y-76477630D01*
X133295391Y-76451575D01*
X133089744Y-76366393D01*
X132904667Y-76242729D01*
X132747271Y-76085333D01*
X132623607Y-75900256D01*
X132538425Y-75694609D01*
X132495000Y-75476295D01*
X132495000Y-75253705D01*
X132538425Y-75035391D01*
X132623607Y-74829744D01*
X132747271Y-74644667D01*
X132904667Y-74487271D01*
X133089744Y-74363607D01*
X133295391Y-74278425D01*
X133426379Y-74252370D01*
X133513703Y-74235000D01*
X133736297Y-74235000D01*
X133823621Y-74252370D01*
X133823621Y-74252370D01*
G37*
G36*
X144573621Y-74252370D02*
X144704609Y-74278425D01*
X144910256Y-74363607D01*
X145095333Y-74487271D01*
X145252729Y-74644667D01*
X145376393Y-74829744D01*
X145461575Y-75035391D01*
X145505000Y-75253705D01*
X145505000Y-75476295D01*
X145461575Y-75694609D01*
X145376393Y-75900256D01*
X145252729Y-76085333D01*
X145095333Y-76242729D01*
X144910256Y-76366393D01*
X144704609Y-76451575D01*
X144573621Y-76477630D01*
X144486297Y-76495000D01*
X144263703Y-76495000D01*
X144176379Y-76477630D01*
X144045391Y-76451575D01*
X143839744Y-76366393D01*
X143654667Y-76242729D01*
X143497271Y-76085333D01*
X143373607Y-75900256D01*
X143288425Y-75694609D01*
X143245000Y-75476295D01*
X143245000Y-75253705D01*
X143288425Y-75035391D01*
X143373607Y-74829744D01*
X143497271Y-74644667D01*
X143654667Y-74487271D01*
X143839744Y-74363607D01*
X144045391Y-74278425D01*
X144176379Y-74252370D01*
X144263703Y-74235000D01*
X144486297Y-74235000D01*
X144573621Y-74252370D01*
X144573621Y-74252370D01*
G37*
G36*
X126568853Y-70562427D02*
X126861026Y-70651058D01*
X127130301Y-70794988D01*
X127366318Y-70988682D01*
X127560013Y-71224700D01*
X127703941Y-71493971D01*
X127703942Y-71493973D01*
X127792573Y-71786146D01*
X127815000Y-72013858D01*
X127815000Y-72766141D01*
X127792573Y-72993848D01*
X127792572Y-72993851D01*
X127792572Y-72993852D01*
X127703941Y-73286029D01*
X127560013Y-73555300D01*
X127366318Y-73791318D01*
X127130300Y-73985013D01*
X126861029Y-74128941D01*
X126861027Y-74128942D01*
X126568854Y-74217573D01*
X126265000Y-74247499D01*
X125961147Y-74217573D01*
X125668974Y-74128942D01*
X125399699Y-73985012D01*
X125163682Y-73791318D01*
X124969988Y-73555301D01*
X124826058Y-73286027D01*
X124737427Y-72993854D01*
X124715000Y-72766142D01*
X124715000Y-72013859D01*
X124737427Y-71786147D01*
X124826058Y-71493974D01*
X124969988Y-71224699D01*
X125163682Y-70988682D01*
X125399699Y-70794988D01*
X125399698Y-70794988D01*
X125399700Y-70794987D01*
X125668971Y-70651059D01*
X125668973Y-70651058D01*
X125961146Y-70562427D01*
X126265000Y-70532501D01*
X126568853Y-70562427D01*
X126568853Y-70562427D01*
G37*
G36*
X122368853Y-70562427D02*
X122661026Y-70651058D01*
X122930301Y-70794988D01*
X123166318Y-70988682D01*
X123360013Y-71224700D01*
X123503941Y-71493971D01*
X123503942Y-71493973D01*
X123592573Y-71786146D01*
X123615000Y-72013858D01*
X123615000Y-72766141D01*
X123592573Y-72993848D01*
X123592572Y-72993851D01*
X123592572Y-72993852D01*
X123503941Y-73286029D01*
X123360013Y-73555300D01*
X123166318Y-73791318D01*
X122930300Y-73985013D01*
X122661029Y-74128941D01*
X122661027Y-74128942D01*
X122368854Y-74217573D01*
X122065000Y-74247499D01*
X121761147Y-74217573D01*
X121468974Y-74128942D01*
X121199699Y-73985012D01*
X120963682Y-73791318D01*
X120769988Y-73555301D01*
X120626058Y-73286027D01*
X120537427Y-72993854D01*
X120515000Y-72766142D01*
X120515000Y-72013859D01*
X120537427Y-71786147D01*
X120626058Y-71493974D01*
X120769988Y-71224699D01*
X120963682Y-70988682D01*
X121199699Y-70794988D01*
X121199698Y-70794988D01*
X121199700Y-70794987D01*
X121468971Y-70651059D01*
X121468973Y-70651058D01*
X121761146Y-70562427D01*
X122065000Y-70532501D01*
X122368853Y-70562427D01*
X122368853Y-70562427D01*
G37*
G36*
X118168853Y-70562427D02*
X118461026Y-70651058D01*
X118730301Y-70794988D01*
X118966318Y-70988682D01*
X119160013Y-71224700D01*
X119303941Y-71493971D01*
X119303942Y-71493973D01*
X119392573Y-71786146D01*
X119415000Y-72013858D01*
X119415000Y-72766141D01*
X119392573Y-72993848D01*
X119392572Y-72993851D01*
X119392572Y-72993852D01*
X119303941Y-73286029D01*
X119160013Y-73555300D01*
X118966318Y-73791318D01*
X118730300Y-73985013D01*
X118461029Y-74128941D01*
X118461027Y-74128942D01*
X118168854Y-74217573D01*
X117865000Y-74247499D01*
X117561147Y-74217573D01*
X117268974Y-74128942D01*
X116999699Y-73985012D01*
X116763682Y-73791318D01*
X116569988Y-73555301D01*
X116426058Y-73286027D01*
X116337427Y-72993854D01*
X116315000Y-72766142D01*
X116315000Y-72013859D01*
X116337427Y-71786147D01*
X116426058Y-71493974D01*
X116569988Y-71224699D01*
X116763682Y-70988682D01*
X116999699Y-70794988D01*
X116999698Y-70794988D01*
X116999700Y-70794987D01*
X117268971Y-70651059D01*
X117268973Y-70651058D01*
X117561146Y-70562427D01*
X117865000Y-70532501D01*
X118168853Y-70562427D01*
X118168853Y-70562427D01*
G37*
G36*
X115215000Y-74240000D02*
X112115000Y-74240000D01*
X112115000Y-70540000D01*
X115215000Y-70540000D01*
X115215000Y-74240000D01*
X115215000Y-74240000D01*
G37*
G36*
X154909122Y-62746115D02*
X155025041Y-62769173D01*
X155352620Y-62904861D01*
X155501183Y-63004128D01*
X155647436Y-63101851D01*
X155898149Y-63352564D01*
X155898151Y-63352567D01*
X156095139Y-63647380D01*
X156230827Y-63974959D01*
X156234987Y-63995872D01*
X156300000Y-64322714D01*
X156300000Y-64677286D01*
X156230827Y-65025040D01*
X156095140Y-65352618D01*
X155898149Y-65647436D01*
X155647436Y-65898149D01*
X155647433Y-65898151D01*
X155352620Y-66095139D01*
X155025041Y-66230827D01*
X154909122Y-66253885D01*
X154677286Y-66300000D01*
X154322714Y-66300000D01*
X154090878Y-66253885D01*
X153974959Y-66230827D01*
X153647380Y-66095139D01*
X153352567Y-65898151D01*
X153352564Y-65898149D01*
X153101851Y-65647436D01*
X152904860Y-65352618D01*
X152769173Y-65025040D01*
X152700000Y-64677286D01*
X152700000Y-64322714D01*
X152765013Y-63995872D01*
X152769173Y-63974959D01*
X152904861Y-63647380D01*
X153101849Y-63352567D01*
X153101851Y-63352564D01*
X153352564Y-63101851D01*
X153498817Y-63004128D01*
X153647380Y-62904861D01*
X153974959Y-62769173D01*
X154090878Y-62746115D01*
X154322714Y-62700000D01*
X154677286Y-62700000D01*
X154909122Y-62746115D01*
X154909122Y-62746115D01*
G37*
G36*
X86909122Y-62746115D02*
X87025041Y-62769173D01*
X87352620Y-62904861D01*
X87501183Y-63004128D01*
X87647436Y-63101851D01*
X87898149Y-63352564D01*
X87898151Y-63352567D01*
X88095139Y-63647380D01*
X88230827Y-63974959D01*
X88234987Y-63995872D01*
X88300000Y-64322714D01*
X88300000Y-64677286D01*
X88230827Y-65025040D01*
X88095140Y-65352618D01*
X87898149Y-65647436D01*
X87647436Y-65898149D01*
X87647433Y-65898151D01*
X87352620Y-66095139D01*
X87025041Y-66230827D01*
X86909122Y-66253885D01*
X86677286Y-66300000D01*
X86322714Y-66300000D01*
X86090878Y-66253885D01*
X85974959Y-66230827D01*
X85647380Y-66095139D01*
X85352567Y-65898151D01*
X85352564Y-65898149D01*
X85101851Y-65647436D01*
X84904860Y-65352618D01*
X84769173Y-65025040D01*
X84700000Y-64677286D01*
X84700000Y-64322714D01*
X84765013Y-63995872D01*
X84769173Y-63974959D01*
X84904861Y-63647380D01*
X85101849Y-63352567D01*
X85101851Y-63352564D01*
X85352564Y-63101851D01*
X85498817Y-63004128D01*
X85647380Y-62904861D01*
X85974959Y-62769173D01*
X86090878Y-62746115D01*
X86322714Y-62700000D01*
X86677286Y-62700000D01*
X86909122Y-62746115D01*
X86909122Y-62746115D01*
G37*
G36*
X94410000Y-65200000D02*
X91010000Y-65200000D01*
X91010000Y-61800000D01*
X94410000Y-61800000D01*
X94410000Y-65200000D01*
X94410000Y-65200000D01*
G37*
G36*
X98176393Y-61843553D02*
X98285872Y-61865330D01*
X98595252Y-61993479D01*
X98873687Y-62179523D01*
X99110477Y-62416313D01*
X99296521Y-62694748D01*
X99424670Y-63004128D01*
X99490000Y-63332565D01*
X99490000Y-63667435D01*
X99424670Y-63995872D01*
X99296521Y-64305252D01*
X99110477Y-64583687D01*
X98873687Y-64820477D01*
X98595252Y-65006521D01*
X98285872Y-65134670D01*
X98176393Y-65156447D01*
X97957437Y-65200000D01*
X97622563Y-65200000D01*
X97403607Y-65156447D01*
X97294128Y-65134670D01*
X96984748Y-65006521D01*
X96706313Y-64820477D01*
X96469523Y-64583687D01*
X96283479Y-64305252D01*
X96155330Y-63995872D01*
X96090000Y-63667435D01*
X96090000Y-63332565D01*
X96155330Y-63004128D01*
X96283479Y-62694748D01*
X96469523Y-62416313D01*
X96706313Y-62179523D01*
X96984748Y-61993479D01*
X97294128Y-61865330D01*
X97403607Y-61843553D01*
X97622563Y-61800000D01*
X97957437Y-61800000D01*
X98176393Y-61843553D01*
X98176393Y-61843553D01*
G37*
G36*
X103256393Y-61843553D02*
X103365872Y-61865330D01*
X103675252Y-61993479D01*
X103953687Y-62179523D01*
X104190477Y-62416313D01*
X104376521Y-62694748D01*
X104504670Y-63004128D01*
X104570000Y-63332565D01*
X104570000Y-63667435D01*
X104504670Y-63995872D01*
X104376521Y-64305252D01*
X104190477Y-64583687D01*
X103953687Y-64820477D01*
X103675252Y-65006521D01*
X103365872Y-65134670D01*
X103256393Y-65156447D01*
X103037437Y-65200000D01*
X102702563Y-65200000D01*
X102483607Y-65156447D01*
X102374128Y-65134670D01*
X102064748Y-65006521D01*
X101786313Y-64820477D01*
X101549523Y-64583687D01*
X101363479Y-64305252D01*
X101235330Y-63995872D01*
X101170000Y-63667435D01*
X101170000Y-63332565D01*
X101235330Y-63004128D01*
X101363479Y-62694748D01*
X101549523Y-62416313D01*
X101786313Y-62179523D01*
X102064748Y-61993479D01*
X102374128Y-61865330D01*
X102483607Y-61843553D01*
X102702563Y-61800000D01*
X103037437Y-61800000D01*
X103256393Y-61843553D01*
X103256393Y-61843553D01*
G37*
G36*
X150246393Y-61843553D02*
X150355872Y-61865330D01*
X150665252Y-61993479D01*
X150943687Y-62179523D01*
X151180477Y-62416313D01*
X151366521Y-62694748D01*
X151494670Y-63004128D01*
X151560000Y-63332565D01*
X151560000Y-63667435D01*
X151494670Y-63995872D01*
X151366521Y-64305252D01*
X151180477Y-64583687D01*
X150943687Y-64820477D01*
X150665252Y-65006521D01*
X150355872Y-65134670D01*
X150246393Y-65156447D01*
X150027437Y-65200000D01*
X149692563Y-65200000D01*
X149473607Y-65156447D01*
X149364128Y-65134670D01*
X149054748Y-65006521D01*
X148776313Y-64820477D01*
X148539523Y-64583687D01*
X148353479Y-64305252D01*
X148225330Y-63995872D01*
X148160000Y-63667435D01*
X148160000Y-63332565D01*
X148225330Y-63004128D01*
X148353479Y-62694748D01*
X148539523Y-62416313D01*
X148776313Y-62179523D01*
X149054748Y-61993479D01*
X149364128Y-61865330D01*
X149473607Y-61843553D01*
X149692563Y-61800000D01*
X150027437Y-61800000D01*
X150246393Y-61843553D01*
X150246393Y-61843553D01*
G37*
G36*
X145166393Y-61843553D02*
X145275872Y-61865330D01*
X145585252Y-61993479D01*
X145863687Y-62179523D01*
X146100477Y-62416313D01*
X146286521Y-62694748D01*
X146414670Y-63004128D01*
X146480000Y-63332565D01*
X146480000Y-63667435D01*
X146414670Y-63995872D01*
X146286521Y-64305252D01*
X146100477Y-64583687D01*
X145863687Y-64820477D01*
X145585252Y-65006521D01*
X145275872Y-65134670D01*
X145166393Y-65156447D01*
X144947437Y-65200000D01*
X144612563Y-65200000D01*
X144393607Y-65156447D01*
X144284128Y-65134670D01*
X143974748Y-65006521D01*
X143696313Y-64820477D01*
X143459523Y-64583687D01*
X143273479Y-64305252D01*
X143145330Y-63995872D01*
X143080000Y-63667435D01*
X143080000Y-63332565D01*
X143145330Y-63004128D01*
X143273479Y-62694748D01*
X143459523Y-62416313D01*
X143696313Y-62179523D01*
X143974748Y-61993479D01*
X144284128Y-61865330D01*
X144393607Y-61843553D01*
X144612563Y-61800000D01*
X144947437Y-61800000D01*
X145166393Y-61843553D01*
X145166393Y-61843553D01*
G37*
G36*
X140086393Y-61843553D02*
X140195872Y-61865330D01*
X140505252Y-61993479D01*
X140783687Y-62179523D01*
X141020477Y-62416313D01*
X141206521Y-62694748D01*
X141334670Y-63004128D01*
X141400000Y-63332565D01*
X141400000Y-63667435D01*
X141334670Y-63995872D01*
X141206521Y-64305252D01*
X141020477Y-64583687D01*
X140783687Y-64820477D01*
X140505252Y-65006521D01*
X140195872Y-65134670D01*
X140086393Y-65156447D01*
X139867437Y-65200000D01*
X139532563Y-65200000D01*
X139313607Y-65156447D01*
X139204128Y-65134670D01*
X138894748Y-65006521D01*
X138616313Y-64820477D01*
X138379523Y-64583687D01*
X138193479Y-64305252D01*
X138065330Y-63995872D01*
X138000000Y-63667435D01*
X138000000Y-63332565D01*
X138065330Y-63004128D01*
X138193479Y-62694748D01*
X138379523Y-62416313D01*
X138616313Y-62179523D01*
X138894748Y-61993479D01*
X139204128Y-61865330D01*
X139313607Y-61843553D01*
X139532563Y-61800000D01*
X139867437Y-61800000D01*
X140086393Y-61843553D01*
X140086393Y-61843553D01*
G37*
G36*
X135006393Y-61843553D02*
X135115872Y-61865330D01*
X135425252Y-61993479D01*
X135703687Y-62179523D01*
X135940477Y-62416313D01*
X136126521Y-62694748D01*
X136254670Y-63004128D01*
X136320000Y-63332565D01*
X136320000Y-63667435D01*
X136254670Y-63995872D01*
X136126521Y-64305252D01*
X135940477Y-64583687D01*
X135703687Y-64820477D01*
X135425252Y-65006521D01*
X135115872Y-65134670D01*
X135006393Y-65156447D01*
X134787437Y-65200000D01*
X134452563Y-65200000D01*
X134233607Y-65156447D01*
X134124128Y-65134670D01*
X133814748Y-65006521D01*
X133536313Y-64820477D01*
X133299523Y-64583687D01*
X133113479Y-64305252D01*
X132985330Y-63995872D01*
X132920000Y-63667435D01*
X132920000Y-63332565D01*
X132985330Y-63004128D01*
X133113479Y-62694748D01*
X133299523Y-62416313D01*
X133536313Y-62179523D01*
X133814748Y-61993479D01*
X134124128Y-61865330D01*
X134233607Y-61843553D01*
X134452563Y-61800000D01*
X134787437Y-61800000D01*
X135006393Y-61843553D01*
X135006393Y-61843553D01*
G37*
G36*
X108336393Y-61843553D02*
X108445872Y-61865330D01*
X108755252Y-61993479D01*
X109033687Y-62179523D01*
X109270477Y-62416313D01*
X109456521Y-62694748D01*
X109584670Y-63004128D01*
X109650000Y-63332565D01*
X109650000Y-63667435D01*
X109584670Y-63995872D01*
X109456521Y-64305252D01*
X109270477Y-64583687D01*
X109033687Y-64820477D01*
X108755252Y-65006521D01*
X108445872Y-65134670D01*
X108336393Y-65156447D01*
X108117437Y-65200000D01*
X107782563Y-65200000D01*
X107563607Y-65156447D01*
X107454128Y-65134670D01*
X107144748Y-65006521D01*
X106866313Y-64820477D01*
X106629523Y-64583687D01*
X106443479Y-64305252D01*
X106315330Y-63995872D01*
X106250000Y-63667435D01*
X106250000Y-63332565D01*
X106315330Y-63004128D01*
X106443479Y-62694748D01*
X106629523Y-62416313D01*
X106866313Y-62179523D01*
X107144748Y-61993479D01*
X107454128Y-61865330D01*
X107563607Y-61843553D01*
X107782563Y-61800000D01*
X108117437Y-61800000D01*
X108336393Y-61843553D01*
X108336393Y-61843553D01*
G37*
G36*
X126160000Y-65200000D02*
X122760000Y-65200000D01*
X122760000Y-61800000D01*
X126160000Y-61800000D01*
X126160000Y-65200000D01*
X126160000Y-65200000D01*
G37*
G36*
X118496393Y-61843553D02*
X118605872Y-61865330D01*
X118915252Y-61993479D01*
X119193687Y-62179523D01*
X119430477Y-62416313D01*
X119616521Y-62694748D01*
X119744670Y-63004128D01*
X119810000Y-63332565D01*
X119810000Y-63667435D01*
X119744670Y-63995872D01*
X119616521Y-64305252D01*
X119430477Y-64583687D01*
X119193687Y-64820477D01*
X118915252Y-65006521D01*
X118605872Y-65134670D01*
X118496393Y-65156447D01*
X118277437Y-65200000D01*
X117942563Y-65200000D01*
X117723607Y-65156447D01*
X117614128Y-65134670D01*
X117304748Y-65006521D01*
X117026313Y-64820477D01*
X116789523Y-64583687D01*
X116603479Y-64305252D01*
X116475330Y-63995872D01*
X116410000Y-63667435D01*
X116410000Y-63332565D01*
X116475330Y-63004128D01*
X116603479Y-62694748D01*
X116789523Y-62416313D01*
X117026313Y-62179523D01*
X117304748Y-61993479D01*
X117614128Y-61865330D01*
X117723607Y-61843553D01*
X117942563Y-61800000D01*
X118277437Y-61800000D01*
X118496393Y-61843553D01*
X118496393Y-61843553D01*
G37*
G36*
X113416393Y-61843553D02*
X113525872Y-61865330D01*
X113835252Y-61993479D01*
X114113687Y-62179523D01*
X114350477Y-62416313D01*
X114536521Y-62694748D01*
X114664670Y-63004128D01*
X114730000Y-63332565D01*
X114730000Y-63667435D01*
X114664670Y-63995872D01*
X114536521Y-64305252D01*
X114350477Y-64583687D01*
X114113687Y-64820477D01*
X113835252Y-65006521D01*
X113525872Y-65134670D01*
X113416393Y-65156447D01*
X113197437Y-65200000D01*
X112862563Y-65200000D01*
X112643607Y-65156447D01*
X112534128Y-65134670D01*
X112224748Y-65006521D01*
X111946313Y-64820477D01*
X111709523Y-64583687D01*
X111523479Y-64305252D01*
X111395330Y-63995872D01*
X111330000Y-63667435D01*
X111330000Y-63332565D01*
X111395330Y-63004128D01*
X111523479Y-62694748D01*
X111709523Y-62416313D01*
X111946313Y-62179523D01*
X112224748Y-61993479D01*
X112534128Y-61865330D01*
X112643607Y-61843553D01*
X112862563Y-61800000D01*
X113197437Y-61800000D01*
X113416393Y-61843553D01*
X113416393Y-61843553D01*
G37*
G36*
X129926393Y-61843553D02*
X130035872Y-61865330D01*
X130345252Y-61993479D01*
X130623687Y-62179523D01*
X130860477Y-62416313D01*
X131046521Y-62694748D01*
X131174670Y-63004128D01*
X131240000Y-63332565D01*
X131240000Y-63667435D01*
X131174670Y-63995872D01*
X131046521Y-64305252D01*
X130860477Y-64583687D01*
X130623687Y-64820477D01*
X130345252Y-65006521D01*
X130035872Y-65134670D01*
X129926393Y-65156447D01*
X129707437Y-65200000D01*
X129372563Y-65200000D01*
X129153607Y-65156447D01*
X129044128Y-65134670D01*
X128734748Y-65006521D01*
X128456313Y-64820477D01*
X128219523Y-64583687D01*
X128033479Y-64305252D01*
X127905330Y-63995872D01*
X127840000Y-63667435D01*
X127840000Y-63332565D01*
X127905330Y-63004128D01*
X128033479Y-62694748D01*
X128219523Y-62416313D01*
X128456313Y-62179523D01*
X128734748Y-61993479D01*
X129044128Y-61865330D01*
X129153607Y-61843553D01*
X129372563Y-61800000D01*
X129707437Y-61800000D01*
X129926393Y-61843553D01*
X129926393Y-61843553D01*
G37*
M02*
