G04 #@! TF.GenerationSoftware,KiCad,Pcbnew,(5.0.2)-1*
G04 #@! TF.CreationDate,2019-01-05T13:37:38+01:00*
G04 #@! TF.ProjectId,P300_HiVolt,50333030-5f48-4695-966f-6c742e6b6963,rev?*
G04 #@! TF.SameCoordinates,Original*
G04 #@! TF.FileFunction,Soldermask,Bot*
G04 #@! TF.FilePolarity,Negative*
%FSLAX46Y46*%
G04 Gerber Fmt 4.6, Leading zero omitted, Abs format (unit mm)*
G04 Created by KiCad (PCBNEW (5.0.2)-1) date 05.01.2019 13:37:38*
%MOMM*%
%LPD*%
G01*
G04 APERTURE LIST*
%ADD10C,0.100000*%
G04 APERTURE END LIST*
D10*
G36*
X154909122Y-110746115D02*
X155025041Y-110769173D01*
X155352620Y-110904861D01*
X155389875Y-110929754D01*
X155647436Y-111101851D01*
X155898149Y-111352564D01*
X156095140Y-111647382D01*
X156230827Y-111974960D01*
X156300000Y-112322714D01*
X156300000Y-112677286D01*
X156230827Y-113025040D01*
X156095140Y-113352618D01*
X155898149Y-113647436D01*
X155647436Y-113898149D01*
X155647433Y-113898151D01*
X155352620Y-114095139D01*
X155025041Y-114230827D01*
X154909122Y-114253885D01*
X154677286Y-114300000D01*
X154322714Y-114300000D01*
X154090878Y-114253885D01*
X153974959Y-114230827D01*
X153647380Y-114095139D01*
X153352567Y-113898151D01*
X153352564Y-113898149D01*
X153101851Y-113647436D01*
X152904860Y-113352618D01*
X152769173Y-113025040D01*
X152700000Y-112677286D01*
X152700000Y-112322714D01*
X152769173Y-111974960D01*
X152904860Y-111647382D01*
X153101851Y-111352564D01*
X153352564Y-111101851D01*
X153610125Y-110929754D01*
X153647380Y-110904861D01*
X153974959Y-110769173D01*
X154090878Y-110746115D01*
X154322714Y-110700000D01*
X154677286Y-110700000D01*
X154909122Y-110746115D01*
X154909122Y-110746115D01*
G37*
G36*
X86909122Y-110746115D02*
X87025041Y-110769173D01*
X87352620Y-110904861D01*
X87389875Y-110929754D01*
X87647436Y-111101851D01*
X87898149Y-111352564D01*
X88095140Y-111647382D01*
X88230827Y-111974960D01*
X88300000Y-112322714D01*
X88300000Y-112677286D01*
X88230827Y-113025040D01*
X88095140Y-113352618D01*
X87898149Y-113647436D01*
X87647436Y-113898149D01*
X87647433Y-113898151D01*
X87352620Y-114095139D01*
X87025041Y-114230827D01*
X86909122Y-114253885D01*
X86677286Y-114300000D01*
X86322714Y-114300000D01*
X86090878Y-114253885D01*
X85974959Y-114230827D01*
X85647380Y-114095139D01*
X85352567Y-113898151D01*
X85352564Y-113898149D01*
X85101851Y-113647436D01*
X84904860Y-113352618D01*
X84769173Y-113025040D01*
X84700000Y-112677286D01*
X84700000Y-112322714D01*
X84769173Y-111974960D01*
X84904860Y-111647382D01*
X85101851Y-111352564D01*
X85352564Y-111101851D01*
X85610125Y-110929754D01*
X85647380Y-110904861D01*
X85974959Y-110769173D01*
X86090878Y-110746115D01*
X86322714Y-110700000D01*
X86677286Y-110700000D01*
X86909122Y-110746115D01*
X86909122Y-110746115D01*
G37*
G36*
X128225756Y-109205482D02*
X128374970Y-109250746D01*
X128427455Y-109266667D01*
X128613336Y-109366022D01*
X128776265Y-109499735D01*
X128909978Y-109662663D01*
X129009333Y-109848544D01*
X129025254Y-109901029D01*
X129070518Y-110050243D01*
X129086000Y-110207436D01*
X129086000Y-110772563D01*
X129070518Y-110929756D01*
X129053043Y-110987362D01*
X129009333Y-111131455D01*
X128909978Y-111317337D01*
X128776265Y-111480265D01*
X128613337Y-111613978D01*
X128427456Y-111713333D01*
X128374971Y-111729254D01*
X128225757Y-111774518D01*
X128016000Y-111795177D01*
X127806244Y-111774518D01*
X127657030Y-111729254D01*
X127604545Y-111713333D01*
X127418664Y-111613978D01*
X127255736Y-111480265D01*
X127122024Y-111317338D01*
X127022666Y-111131453D01*
X127002271Y-111064220D01*
X126961482Y-110929757D01*
X126946000Y-110772564D01*
X126946000Y-110207437D01*
X126961482Y-110050244D01*
X127022666Y-109848549D01*
X127022667Y-109848545D01*
X127122022Y-109662664D01*
X127255735Y-109499735D01*
X127418663Y-109366022D01*
X127604544Y-109266667D01*
X127657029Y-109250746D01*
X127806243Y-109205482D01*
X128016000Y-109184823D01*
X128225756Y-109205482D01*
X128225756Y-109205482D01*
G37*
G36*
X116287756Y-109205482D02*
X116436970Y-109250746D01*
X116489455Y-109266667D01*
X116675336Y-109366022D01*
X116838265Y-109499735D01*
X116971978Y-109662663D01*
X117071333Y-109848544D01*
X117087254Y-109901029D01*
X117132518Y-110050243D01*
X117148000Y-110207436D01*
X117148000Y-110772563D01*
X117132518Y-110929756D01*
X117115043Y-110987362D01*
X117071333Y-111131455D01*
X116971978Y-111317337D01*
X116838265Y-111480265D01*
X116675337Y-111613978D01*
X116489456Y-111713333D01*
X116436971Y-111729254D01*
X116287757Y-111774518D01*
X116078000Y-111795177D01*
X115868244Y-111774518D01*
X115719030Y-111729254D01*
X115666545Y-111713333D01*
X115480664Y-111613978D01*
X115317736Y-111480265D01*
X115184024Y-111317338D01*
X115084666Y-111131453D01*
X115064271Y-111064220D01*
X115023482Y-110929757D01*
X115008000Y-110772564D01*
X115008000Y-110207437D01*
X115023482Y-110050244D01*
X115084666Y-109848549D01*
X115084667Y-109848545D01*
X115184022Y-109662664D01*
X115317735Y-109499735D01*
X115480663Y-109366022D01*
X115666544Y-109266667D01*
X115719029Y-109250746D01*
X115868243Y-109205482D01*
X116078000Y-109184823D01*
X116287756Y-109205482D01*
X116287756Y-109205482D01*
G37*
G36*
X114608000Y-111790000D02*
X112468000Y-111790000D01*
X112468000Y-109190000D01*
X114608000Y-109190000D01*
X114608000Y-111790000D01*
X114608000Y-111790000D01*
G37*
G36*
X126546000Y-111790000D02*
X124406000Y-111790000D01*
X124406000Y-109190000D01*
X126546000Y-109190000D01*
X126546000Y-111790000D01*
X126546000Y-111790000D01*
G37*
G36*
X107059888Y-109444470D02*
X107240274Y-109480350D01*
X107431362Y-109559502D01*
X107603336Y-109674411D01*
X107749589Y-109820664D01*
X107864498Y-109992638D01*
X107943650Y-110183726D01*
X107984000Y-110386584D01*
X107984000Y-110593416D01*
X107943650Y-110796274D01*
X107864498Y-110987362D01*
X107749589Y-111159336D01*
X107603336Y-111305589D01*
X107431362Y-111420498D01*
X107240274Y-111499650D01*
X107059888Y-111535530D01*
X107037417Y-111540000D01*
X106830583Y-111540000D01*
X106808112Y-111535530D01*
X106627726Y-111499650D01*
X106436638Y-111420498D01*
X106264664Y-111305589D01*
X106118411Y-111159336D01*
X106003502Y-110987362D01*
X105924350Y-110796274D01*
X105884000Y-110593416D01*
X105884000Y-110386584D01*
X105924350Y-110183726D01*
X106003502Y-109992638D01*
X106118411Y-109820664D01*
X106264664Y-109674411D01*
X106436638Y-109559502D01*
X106627726Y-109480350D01*
X106808112Y-109444470D01*
X106830583Y-109440000D01*
X107037417Y-109440000D01*
X107059888Y-109444470D01*
X107059888Y-109444470D01*
G37*
G36*
X91659888Y-109444470D02*
X91840274Y-109480350D01*
X92031362Y-109559502D01*
X92203336Y-109674411D01*
X92349589Y-109820664D01*
X92464498Y-109992638D01*
X92543650Y-110183726D01*
X92584000Y-110386584D01*
X92584000Y-110593416D01*
X92543650Y-110796274D01*
X92464498Y-110987362D01*
X92349589Y-111159336D01*
X92203336Y-111305589D01*
X92031362Y-111420498D01*
X91840274Y-111499650D01*
X91659888Y-111535530D01*
X91637417Y-111540000D01*
X91430583Y-111540000D01*
X91408112Y-111535530D01*
X91227726Y-111499650D01*
X91036638Y-111420498D01*
X90864664Y-111305589D01*
X90718411Y-111159336D01*
X90603502Y-110987362D01*
X90524350Y-110796274D01*
X90484000Y-110593416D01*
X90484000Y-110386584D01*
X90524350Y-110183726D01*
X90603502Y-109992638D01*
X90718411Y-109820664D01*
X90864664Y-109674411D01*
X91036638Y-109559502D01*
X91227726Y-109480350D01*
X91408112Y-109444470D01*
X91430583Y-109440000D01*
X91637417Y-109440000D01*
X91659888Y-109444470D01*
X91659888Y-109444470D01*
G37*
G36*
X133589888Y-109394470D02*
X133770274Y-109430350D01*
X133961362Y-109509502D01*
X134133336Y-109624411D01*
X134279589Y-109770664D01*
X134394498Y-109942638D01*
X134473650Y-110133726D01*
X134514000Y-110336584D01*
X134514000Y-110543416D01*
X134473650Y-110746274D01*
X134394498Y-110937362D01*
X134279589Y-111109336D01*
X134133336Y-111255589D01*
X133961362Y-111370498D01*
X133770274Y-111449650D01*
X133589888Y-111485530D01*
X133567417Y-111490000D01*
X133360583Y-111490000D01*
X133338112Y-111485530D01*
X133157726Y-111449650D01*
X132966638Y-111370498D01*
X132794664Y-111255589D01*
X132648411Y-111109336D01*
X132533502Y-110937362D01*
X132454350Y-110746274D01*
X132414000Y-110543416D01*
X132414000Y-110336584D01*
X132454350Y-110133726D01*
X132533502Y-109942638D01*
X132648411Y-109770664D01*
X132794664Y-109624411D01*
X132966638Y-109509502D01*
X133157726Y-109430350D01*
X133338112Y-109394470D01*
X133360583Y-109390000D01*
X133567417Y-109390000D01*
X133589888Y-109394470D01*
X133589888Y-109394470D01*
G37*
G36*
X148989888Y-109394470D02*
X149170274Y-109430350D01*
X149361362Y-109509502D01*
X149533336Y-109624411D01*
X149679589Y-109770664D01*
X149794498Y-109942638D01*
X149873650Y-110133726D01*
X149914000Y-110336584D01*
X149914000Y-110543416D01*
X149873650Y-110746274D01*
X149794498Y-110937362D01*
X149679589Y-111109336D01*
X149533336Y-111255589D01*
X149361362Y-111370498D01*
X149170274Y-111449650D01*
X148989888Y-111485530D01*
X148967417Y-111490000D01*
X148760583Y-111490000D01*
X148738112Y-111485530D01*
X148557726Y-111449650D01*
X148366638Y-111370498D01*
X148194664Y-111255589D01*
X148048411Y-111109336D01*
X147933502Y-110937362D01*
X147854350Y-110746274D01*
X147814000Y-110543416D01*
X147814000Y-110336584D01*
X147854350Y-110133726D01*
X147933502Y-109942638D01*
X148048411Y-109770664D01*
X148194664Y-109624411D01*
X148366638Y-109509502D01*
X148557726Y-109430350D01*
X148738112Y-109394470D01*
X148760583Y-109390000D01*
X148967417Y-109390000D01*
X148989888Y-109394470D01*
X148989888Y-109394470D01*
G37*
G36*
X123510857Y-99526272D02*
X123711042Y-99609191D01*
X123891213Y-99729578D01*
X124044422Y-99882787D01*
X124044424Y-99882790D01*
X124044425Y-99882791D01*
X124126751Y-100006000D01*
X124164809Y-100062958D01*
X124247728Y-100263143D01*
X124290000Y-100475658D01*
X124290000Y-100692342D01*
X124247728Y-100904857D01*
X124164809Y-101105042D01*
X124044422Y-101285213D01*
X123891213Y-101438422D01*
X123711042Y-101558809D01*
X123510857Y-101641728D01*
X123298342Y-101684000D01*
X123081658Y-101684000D01*
X122869143Y-101641728D01*
X122668958Y-101558809D01*
X122488787Y-101438422D01*
X122335578Y-101285213D01*
X122215191Y-101105042D01*
X122132272Y-100904857D01*
X122090000Y-100692342D01*
X122090000Y-100475658D01*
X122132272Y-100263143D01*
X122215191Y-100062958D01*
X122253249Y-100006000D01*
X122335575Y-99882791D01*
X122335576Y-99882790D01*
X122335578Y-99882787D01*
X122488787Y-99729578D01*
X122668958Y-99609191D01*
X122869143Y-99526272D01*
X123081658Y-99484000D01*
X123298342Y-99484000D01*
X123510857Y-99526272D01*
X123510857Y-99526272D01*
G37*
G36*
X116936026Y-97652115D02*
X117154412Y-97742573D01*
X117350958Y-97873901D01*
X117518099Y-98041042D01*
X117649427Y-98237588D01*
X117739885Y-98455974D01*
X117786000Y-98687809D01*
X117786000Y-98924191D01*
X117739885Y-99156026D01*
X117649427Y-99374412D01*
X117518099Y-99570958D01*
X117350958Y-99738099D01*
X117154412Y-99869427D01*
X116936026Y-99959885D01*
X116704191Y-100006000D01*
X116467809Y-100006000D01*
X116235974Y-99959885D01*
X116017588Y-99869427D01*
X115821042Y-99738099D01*
X115653901Y-99570958D01*
X115522573Y-99374412D01*
X115432115Y-99156026D01*
X115386000Y-98924191D01*
X115386000Y-98687809D01*
X115432115Y-98455974D01*
X115522573Y-98237588D01*
X115653901Y-98041042D01*
X115821042Y-97873901D01*
X116017588Y-97742573D01*
X116235974Y-97652115D01*
X116467809Y-97606000D01*
X116704191Y-97606000D01*
X116936026Y-97652115D01*
X116936026Y-97652115D01*
G37*
G36*
X116946026Y-92572115D02*
X117164412Y-92662573D01*
X117360958Y-92793901D01*
X117528099Y-92961042D01*
X117659427Y-93157588D01*
X117749885Y-93375974D01*
X117796000Y-93607809D01*
X117796000Y-93844191D01*
X117749885Y-94076026D01*
X117659427Y-94294412D01*
X117528099Y-94490958D01*
X117360958Y-94658099D01*
X117164412Y-94789427D01*
X116946026Y-94879885D01*
X116714191Y-94926000D01*
X116477809Y-94926000D01*
X116245974Y-94879885D01*
X116027588Y-94789427D01*
X115831042Y-94658099D01*
X115663901Y-94490958D01*
X115532573Y-94294412D01*
X115442115Y-94076026D01*
X115396000Y-93844191D01*
X115396000Y-93607809D01*
X115442115Y-93375974D01*
X115532573Y-93157588D01*
X115663901Y-92961042D01*
X115831042Y-92793901D01*
X116027588Y-92662573D01*
X116245974Y-92572115D01*
X116477809Y-92526000D01*
X116714191Y-92526000D01*
X116946026Y-92572115D01*
X116946026Y-92572115D01*
G37*
G36*
X127510857Y-92026272D02*
X127711042Y-92109191D01*
X127891213Y-92229578D01*
X128044422Y-92382787D01*
X128164809Y-92562958D01*
X128247728Y-92763143D01*
X128290000Y-92975658D01*
X128290000Y-93192342D01*
X128247728Y-93404857D01*
X128164809Y-93605042D01*
X128044422Y-93785213D01*
X127891213Y-93938422D01*
X127711042Y-94058809D01*
X127510857Y-94141728D01*
X127298342Y-94184000D01*
X127081658Y-94184000D01*
X126869143Y-94141728D01*
X126668958Y-94058809D01*
X126488787Y-93938422D01*
X126335578Y-93785213D01*
X126215191Y-93605042D01*
X126132272Y-93404857D01*
X126090000Y-93192342D01*
X126090000Y-92975658D01*
X126132272Y-92763143D01*
X126215191Y-92562958D01*
X126335578Y-92382787D01*
X126488787Y-92229578D01*
X126668958Y-92109191D01*
X126869143Y-92026272D01*
X127081658Y-91984000D01*
X127298342Y-91984000D01*
X127510857Y-92026272D01*
X127510857Y-92026272D01*
G37*
G36*
X123959854Y-82292427D02*
X124252027Y-82381058D01*
X124252029Y-82381059D01*
X124521300Y-82524987D01*
X124521302Y-82524988D01*
X124521301Y-82524988D01*
X124757318Y-82718682D01*
X124951012Y-82954699D01*
X125094942Y-83223973D01*
X125183573Y-83516146D01*
X125213499Y-83820000D01*
X125183573Y-84123854D01*
X125094942Y-84416027D01*
X125094941Y-84416029D01*
X124951013Y-84685300D01*
X124757318Y-84921318D01*
X124521300Y-85115013D01*
X124252029Y-85258941D01*
X124252027Y-85258942D01*
X123959854Y-85347573D01*
X123732142Y-85370000D01*
X122979858Y-85370000D01*
X122752146Y-85347573D01*
X122459973Y-85258942D01*
X122459971Y-85258941D01*
X122190700Y-85115013D01*
X121954682Y-84921318D01*
X121760987Y-84685300D01*
X121617059Y-84416029D01*
X121617058Y-84416027D01*
X121528427Y-84123854D01*
X121498501Y-83820000D01*
X121528427Y-83516146D01*
X121617058Y-83223973D01*
X121760988Y-82954699D01*
X121954682Y-82718682D01*
X122190699Y-82524988D01*
X122190698Y-82524988D01*
X122190700Y-82524987D01*
X122459971Y-82381059D01*
X122459973Y-82381058D01*
X122752146Y-82292427D01*
X122979858Y-82270000D01*
X123732142Y-82270000D01*
X123959854Y-82292427D01*
X123959854Y-82292427D01*
G37*
G36*
X119706000Y-85370000D02*
X116006000Y-85370000D01*
X116006000Y-82270000D01*
X119706000Y-82270000D01*
X119706000Y-85370000D01*
X119706000Y-85370000D01*
G37*
G36*
X101859888Y-80044470D02*
X102040274Y-80080350D01*
X102231362Y-80159502D01*
X102403336Y-80274411D01*
X102549589Y-80420664D01*
X102664498Y-80592638D01*
X102743650Y-80783726D01*
X102784000Y-80986584D01*
X102784000Y-81193416D01*
X102743650Y-81396274D01*
X102664498Y-81587362D01*
X102549589Y-81759336D01*
X102403336Y-81905589D01*
X102231362Y-82020498D01*
X102040274Y-82099650D01*
X101859888Y-82135530D01*
X101837417Y-82140000D01*
X101630583Y-82140000D01*
X101608112Y-82135530D01*
X101427726Y-82099650D01*
X101236638Y-82020498D01*
X101064664Y-81905589D01*
X100918411Y-81759336D01*
X100803502Y-81587362D01*
X100724350Y-81396274D01*
X100684000Y-81193416D01*
X100684000Y-80986584D01*
X100724350Y-80783726D01*
X100803502Y-80592638D01*
X100918411Y-80420664D01*
X101064664Y-80274411D01*
X101236638Y-80159502D01*
X101427726Y-80080350D01*
X101608112Y-80044470D01*
X101630583Y-80040000D01*
X101837417Y-80040000D01*
X101859888Y-80044470D01*
X101859888Y-80044470D01*
G37*
G36*
X96859888Y-80044470D02*
X97040274Y-80080350D01*
X97231362Y-80159502D01*
X97403336Y-80274411D01*
X97549589Y-80420664D01*
X97664498Y-80592638D01*
X97743650Y-80783726D01*
X97784000Y-80986584D01*
X97784000Y-81193416D01*
X97743650Y-81396274D01*
X97664498Y-81587362D01*
X97549589Y-81759336D01*
X97403336Y-81905589D01*
X97231362Y-82020498D01*
X97040274Y-82099650D01*
X96859888Y-82135530D01*
X96837417Y-82140000D01*
X96630583Y-82140000D01*
X96608112Y-82135530D01*
X96427726Y-82099650D01*
X96236638Y-82020498D01*
X96064664Y-81905589D01*
X95918411Y-81759336D01*
X95803502Y-81587362D01*
X95724350Y-81396274D01*
X95684000Y-81193416D01*
X95684000Y-80986584D01*
X95724350Y-80783726D01*
X95803502Y-80592638D01*
X95918411Y-80420664D01*
X96064664Y-80274411D01*
X96236638Y-80159502D01*
X96427726Y-80080350D01*
X96608112Y-80044470D01*
X96630583Y-80040000D01*
X96837417Y-80040000D01*
X96859888Y-80044470D01*
X96859888Y-80044470D01*
G37*
G36*
X143789888Y-79994470D02*
X143970274Y-80030350D01*
X144161362Y-80109502D01*
X144333336Y-80224411D01*
X144479589Y-80370664D01*
X144594498Y-80542638D01*
X144673650Y-80733726D01*
X144714000Y-80936584D01*
X144714000Y-81143416D01*
X144673650Y-81346274D01*
X144594498Y-81537362D01*
X144479589Y-81709336D01*
X144333336Y-81855589D01*
X144161362Y-81970498D01*
X143970274Y-82049650D01*
X143789888Y-82085530D01*
X143767417Y-82090000D01*
X143560583Y-82090000D01*
X143538112Y-82085530D01*
X143357726Y-82049650D01*
X143166638Y-81970498D01*
X142994664Y-81855589D01*
X142848411Y-81709336D01*
X142733502Y-81537362D01*
X142654350Y-81346274D01*
X142614000Y-81143416D01*
X142614000Y-80936584D01*
X142654350Y-80733726D01*
X142733502Y-80542638D01*
X142848411Y-80370664D01*
X142994664Y-80224411D01*
X143166638Y-80109502D01*
X143357726Y-80030350D01*
X143538112Y-79994470D01*
X143560583Y-79990000D01*
X143767417Y-79990000D01*
X143789888Y-79994470D01*
X143789888Y-79994470D01*
G37*
G36*
X138789888Y-79994470D02*
X138970274Y-80030350D01*
X139161362Y-80109502D01*
X139333336Y-80224411D01*
X139479589Y-80370664D01*
X139594498Y-80542638D01*
X139673650Y-80733726D01*
X139714000Y-80936584D01*
X139714000Y-81143416D01*
X139673650Y-81346274D01*
X139594498Y-81537362D01*
X139479589Y-81709336D01*
X139333336Y-81855589D01*
X139161362Y-81970498D01*
X138970274Y-82049650D01*
X138789888Y-82085530D01*
X138767417Y-82090000D01*
X138560583Y-82090000D01*
X138538112Y-82085530D01*
X138357726Y-82049650D01*
X138166638Y-81970498D01*
X137994664Y-81855589D01*
X137848411Y-81709336D01*
X137733502Y-81537362D01*
X137654350Y-81346274D01*
X137614000Y-81143416D01*
X137614000Y-80936584D01*
X137654350Y-80733726D01*
X137733502Y-80542638D01*
X137848411Y-80370664D01*
X137994664Y-80224411D01*
X138166638Y-80109502D01*
X138357726Y-80030350D01*
X138538112Y-79994470D01*
X138560583Y-79990000D01*
X138767417Y-79990000D01*
X138789888Y-79994470D01*
X138789888Y-79994470D01*
G37*
G36*
X126949853Y-71236427D02*
X127242026Y-71325058D01*
X127511301Y-71468988D01*
X127580144Y-71525486D01*
X127747318Y-71662682D01*
X127941013Y-71898700D01*
X128018707Y-72044056D01*
X128084942Y-72167973D01*
X128173573Y-72460146D01*
X128196000Y-72687858D01*
X128196000Y-73440141D01*
X128173573Y-73667848D01*
X128173572Y-73667851D01*
X128173572Y-73667852D01*
X128084941Y-73960029D01*
X127941013Y-74229300D01*
X127747318Y-74465318D01*
X127511300Y-74659013D01*
X127242029Y-74802941D01*
X127242027Y-74802942D01*
X126949854Y-74891573D01*
X126646000Y-74921499D01*
X126342147Y-74891573D01*
X126049974Y-74802942D01*
X125780699Y-74659012D01*
X125544682Y-74465318D01*
X125350987Y-74229300D01*
X125207059Y-73960029D01*
X125207058Y-73960027D01*
X125118427Y-73667854D01*
X125096000Y-73440142D01*
X125096000Y-72687859D01*
X125118427Y-72460147D01*
X125207058Y-72167974D01*
X125350988Y-71898699D01*
X125544682Y-71662682D01*
X125780699Y-71468988D01*
X125780698Y-71468988D01*
X125780700Y-71468987D01*
X126049971Y-71325059D01*
X126049973Y-71325058D01*
X126342146Y-71236427D01*
X126646000Y-71206501D01*
X126949853Y-71236427D01*
X126949853Y-71236427D01*
G37*
G36*
X114349853Y-71236427D02*
X114642026Y-71325058D01*
X114911301Y-71468988D01*
X114980144Y-71525486D01*
X115147318Y-71662682D01*
X115341013Y-71898700D01*
X115418707Y-72044056D01*
X115484942Y-72167973D01*
X115573573Y-72460146D01*
X115596000Y-72687858D01*
X115596000Y-73440141D01*
X115573573Y-73667848D01*
X115573572Y-73667851D01*
X115573572Y-73667852D01*
X115484941Y-73960029D01*
X115341013Y-74229300D01*
X115147318Y-74465318D01*
X114911300Y-74659013D01*
X114642029Y-74802941D01*
X114642027Y-74802942D01*
X114349854Y-74891573D01*
X114046000Y-74921499D01*
X113742147Y-74891573D01*
X113449974Y-74802942D01*
X113180699Y-74659012D01*
X112944682Y-74465318D01*
X112750987Y-74229300D01*
X112607059Y-73960029D01*
X112607058Y-73960027D01*
X112518427Y-73667854D01*
X112496000Y-73440142D01*
X112496000Y-72687859D01*
X112518427Y-72460147D01*
X112607058Y-72167974D01*
X112750988Y-71898699D01*
X112944682Y-71662682D01*
X113180699Y-71468988D01*
X113180698Y-71468988D01*
X113180700Y-71468987D01*
X113449971Y-71325059D01*
X113449973Y-71325058D01*
X113742146Y-71236427D01*
X114046000Y-71206501D01*
X114349853Y-71236427D01*
X114349853Y-71236427D01*
G37*
G36*
X122749853Y-71236427D02*
X123042026Y-71325058D01*
X123311301Y-71468988D01*
X123380144Y-71525486D01*
X123547318Y-71662682D01*
X123741013Y-71898700D01*
X123818707Y-72044056D01*
X123884942Y-72167973D01*
X123973573Y-72460146D01*
X123996000Y-72687858D01*
X123996000Y-73440141D01*
X123973573Y-73667848D01*
X123973572Y-73667851D01*
X123973572Y-73667852D01*
X123884941Y-73960029D01*
X123741013Y-74229300D01*
X123547318Y-74465318D01*
X123311300Y-74659013D01*
X123042029Y-74802941D01*
X123042027Y-74802942D01*
X122749854Y-74891573D01*
X122446000Y-74921499D01*
X122142147Y-74891573D01*
X121849974Y-74802942D01*
X121580699Y-74659012D01*
X121344682Y-74465318D01*
X121150987Y-74229300D01*
X121007059Y-73960029D01*
X121007058Y-73960027D01*
X120918427Y-73667854D01*
X120896000Y-73440142D01*
X120896000Y-72687859D01*
X120918427Y-72460147D01*
X121007058Y-72167974D01*
X121150988Y-71898699D01*
X121344682Y-71662682D01*
X121580699Y-71468988D01*
X121580698Y-71468988D01*
X121580700Y-71468987D01*
X121849971Y-71325059D01*
X121849973Y-71325058D01*
X122142146Y-71236427D01*
X122446000Y-71206501D01*
X122749853Y-71236427D01*
X122749853Y-71236427D01*
G37*
G36*
X118549853Y-71236427D02*
X118842026Y-71325058D01*
X119111301Y-71468988D01*
X119180144Y-71525486D01*
X119347318Y-71662682D01*
X119541013Y-71898700D01*
X119618707Y-72044056D01*
X119684942Y-72167973D01*
X119773573Y-72460146D01*
X119796000Y-72687858D01*
X119796000Y-73440141D01*
X119773573Y-73667848D01*
X119773572Y-73667851D01*
X119773572Y-73667852D01*
X119684941Y-73960029D01*
X119541013Y-74229300D01*
X119347318Y-74465318D01*
X119111300Y-74659013D01*
X118842029Y-74802941D01*
X118842027Y-74802942D01*
X118549854Y-74891573D01*
X118246000Y-74921499D01*
X117942147Y-74891573D01*
X117649974Y-74802942D01*
X117380699Y-74659012D01*
X117144682Y-74465318D01*
X116950987Y-74229300D01*
X116807059Y-73960029D01*
X116807058Y-73960027D01*
X116718427Y-73667854D01*
X116696000Y-73440142D01*
X116696000Y-72687859D01*
X116718427Y-72460147D01*
X116807058Y-72167974D01*
X116950988Y-71898699D01*
X117144682Y-71662682D01*
X117380699Y-71468988D01*
X117380698Y-71468988D01*
X117380700Y-71468987D01*
X117649971Y-71325059D01*
X117649973Y-71325058D01*
X117942146Y-71236427D01*
X118246000Y-71206501D01*
X118549853Y-71236427D01*
X118549853Y-71236427D01*
G37*
G36*
X107164703Y-71525486D02*
X107455883Y-71646097D01*
X107717944Y-71821201D01*
X107940799Y-72044056D01*
X108115903Y-72306117D01*
X108236514Y-72597297D01*
X108298000Y-72906412D01*
X108298000Y-73221588D01*
X108236514Y-73530703D01*
X108115903Y-73821883D01*
X107940799Y-74083944D01*
X107717944Y-74306799D01*
X107455883Y-74481903D01*
X107164703Y-74602514D01*
X106855588Y-74664000D01*
X106540412Y-74664000D01*
X106231297Y-74602514D01*
X105940117Y-74481903D01*
X105678056Y-74306799D01*
X105455201Y-74083944D01*
X105280097Y-73821883D01*
X105159486Y-73530703D01*
X105098000Y-73221588D01*
X105098000Y-72906412D01*
X105159486Y-72597297D01*
X105280097Y-72306117D01*
X105455201Y-72044056D01*
X105678056Y-71821201D01*
X105940117Y-71646097D01*
X106231297Y-71525486D01*
X106540412Y-71464000D01*
X106855588Y-71464000D01*
X107164703Y-71525486D01*
X107164703Y-71525486D01*
G37*
G36*
X134832703Y-71525486D02*
X135123883Y-71646097D01*
X135385944Y-71821201D01*
X135608799Y-72044056D01*
X135783903Y-72306117D01*
X135904514Y-72597297D01*
X135966000Y-72906412D01*
X135966000Y-73221588D01*
X135904514Y-73530703D01*
X135783903Y-73821883D01*
X135608799Y-74083944D01*
X135385944Y-74306799D01*
X135123883Y-74481903D01*
X134832703Y-74602514D01*
X134523588Y-74664000D01*
X134208412Y-74664000D01*
X133899297Y-74602514D01*
X133608117Y-74481903D01*
X133346056Y-74306799D01*
X133123201Y-74083944D01*
X132948097Y-73821883D01*
X132827486Y-73530703D01*
X132766000Y-73221588D01*
X132766000Y-72906412D01*
X132827486Y-72597297D01*
X132948097Y-72306117D01*
X133123201Y-72044056D01*
X133346056Y-71821201D01*
X133608117Y-71646097D01*
X133899297Y-71525486D01*
X134208412Y-71464000D01*
X134523588Y-71464000D01*
X134832703Y-71525486D01*
X134832703Y-71525486D01*
G37*
G36*
X102964703Y-71525486D02*
X103255883Y-71646097D01*
X103517944Y-71821201D01*
X103740799Y-72044056D01*
X103915903Y-72306117D01*
X104036514Y-72597297D01*
X104098000Y-72906412D01*
X104098000Y-73221588D01*
X104036514Y-73530703D01*
X103915903Y-73821883D01*
X103740799Y-74083944D01*
X103517944Y-74306799D01*
X103255883Y-74481903D01*
X102964703Y-74602514D01*
X102655588Y-74664000D01*
X102340412Y-74664000D01*
X102031297Y-74602514D01*
X101740117Y-74481903D01*
X101478056Y-74306799D01*
X101255201Y-74083944D01*
X101080097Y-73821883D01*
X100959486Y-73530703D01*
X100898000Y-73221588D01*
X100898000Y-72906412D01*
X100959486Y-72597297D01*
X101080097Y-72306117D01*
X101255201Y-72044056D01*
X101478056Y-71821201D01*
X101740117Y-71646097D01*
X102031297Y-71525486D01*
X102340412Y-71464000D01*
X102655588Y-71464000D01*
X102964703Y-71525486D01*
X102964703Y-71525486D01*
G37*
G36*
X143232703Y-71525486D02*
X143523883Y-71646097D01*
X143785944Y-71821201D01*
X144008799Y-72044056D01*
X144183903Y-72306117D01*
X144304514Y-72597297D01*
X144366000Y-72906412D01*
X144366000Y-73221588D01*
X144304514Y-73530703D01*
X144183903Y-73821883D01*
X144008799Y-74083944D01*
X143785944Y-74306799D01*
X143523883Y-74481903D01*
X143232703Y-74602514D01*
X142923588Y-74664000D01*
X142608412Y-74664000D01*
X142299297Y-74602514D01*
X142008117Y-74481903D01*
X141746056Y-74306799D01*
X141523201Y-74083944D01*
X141348097Y-73821883D01*
X141227486Y-73530703D01*
X141166000Y-73221588D01*
X141166000Y-72906412D01*
X141227486Y-72597297D01*
X141348097Y-72306117D01*
X141523201Y-72044056D01*
X141746056Y-71821201D01*
X142008117Y-71646097D01*
X142299297Y-71525486D01*
X142608412Y-71464000D01*
X142923588Y-71464000D01*
X143232703Y-71525486D01*
X143232703Y-71525486D01*
G37*
G36*
X139032703Y-71525486D02*
X139323883Y-71646097D01*
X139585944Y-71821201D01*
X139808799Y-72044056D01*
X139983903Y-72306117D01*
X140104514Y-72597297D01*
X140166000Y-72906412D01*
X140166000Y-73221588D01*
X140104514Y-73530703D01*
X139983903Y-73821883D01*
X139808799Y-74083944D01*
X139585944Y-74306799D01*
X139323883Y-74481903D01*
X139032703Y-74602514D01*
X138723588Y-74664000D01*
X138408412Y-74664000D01*
X138099297Y-74602514D01*
X137808117Y-74481903D01*
X137546056Y-74306799D01*
X137323201Y-74083944D01*
X137148097Y-73821883D01*
X137027486Y-73530703D01*
X136966000Y-73221588D01*
X136966000Y-72906412D01*
X137027486Y-72597297D01*
X137148097Y-72306117D01*
X137323201Y-72044056D01*
X137546056Y-71821201D01*
X137808117Y-71646097D01*
X138099297Y-71525486D01*
X138408412Y-71464000D01*
X138723588Y-71464000D01*
X139032703Y-71525486D01*
X139032703Y-71525486D01*
G37*
G36*
X98764703Y-71525486D02*
X99055883Y-71646097D01*
X99317944Y-71821201D01*
X99540799Y-72044056D01*
X99715903Y-72306117D01*
X99836514Y-72597297D01*
X99898000Y-72906412D01*
X99898000Y-73221588D01*
X99836514Y-73530703D01*
X99715903Y-73821883D01*
X99540799Y-74083944D01*
X99317944Y-74306799D01*
X99055883Y-74481903D01*
X98764703Y-74602514D01*
X98455588Y-74664000D01*
X98140412Y-74664000D01*
X97831297Y-74602514D01*
X97540117Y-74481903D01*
X97278056Y-74306799D01*
X97055201Y-74083944D01*
X96880097Y-73821883D01*
X96759486Y-73530703D01*
X96698000Y-73221588D01*
X96698000Y-72906412D01*
X96759486Y-72597297D01*
X96880097Y-72306117D01*
X97055201Y-72044056D01*
X97278056Y-71821201D01*
X97540117Y-71646097D01*
X97831297Y-71525486D01*
X98140412Y-71464000D01*
X98455588Y-71464000D01*
X98764703Y-71525486D01*
X98764703Y-71525486D01*
G37*
G36*
X122749853Y-65736427D02*
X123042026Y-65825058D01*
X123311301Y-65968988D01*
X123465018Y-66095140D01*
X123547318Y-66162682D01*
X123741013Y-66398700D01*
X123818707Y-66544056D01*
X123884942Y-66667973D01*
X123973573Y-66960146D01*
X123996000Y-67187858D01*
X123996000Y-67940141D01*
X123973573Y-68167848D01*
X123973572Y-68167851D01*
X123973572Y-68167852D01*
X123884941Y-68460029D01*
X123741013Y-68729300D01*
X123547318Y-68965318D01*
X123311300Y-69159013D01*
X123042029Y-69302941D01*
X123042027Y-69302942D01*
X122749854Y-69391573D01*
X122446000Y-69421499D01*
X122142147Y-69391573D01*
X121849974Y-69302942D01*
X121580699Y-69159012D01*
X121344682Y-68965318D01*
X121150987Y-68729300D01*
X121007059Y-68460029D01*
X121007058Y-68460027D01*
X120918427Y-68167854D01*
X120896000Y-67940142D01*
X120896000Y-67187859D01*
X120918427Y-66960147D01*
X121007058Y-66667974D01*
X121150988Y-66398699D01*
X121344682Y-66162682D01*
X121580699Y-65968988D01*
X121580698Y-65968988D01*
X121580700Y-65968987D01*
X121849971Y-65825059D01*
X121849973Y-65825058D01*
X122142146Y-65736427D01*
X122446000Y-65706501D01*
X122749853Y-65736427D01*
X122749853Y-65736427D01*
G37*
G36*
X118549853Y-65736427D02*
X118842026Y-65825058D01*
X119111301Y-65968988D01*
X119265018Y-66095140D01*
X119347318Y-66162682D01*
X119541013Y-66398700D01*
X119618707Y-66544056D01*
X119684942Y-66667973D01*
X119773573Y-66960146D01*
X119796000Y-67187858D01*
X119796000Y-67940141D01*
X119773573Y-68167848D01*
X119773572Y-68167851D01*
X119773572Y-68167852D01*
X119684941Y-68460029D01*
X119541013Y-68729300D01*
X119347318Y-68965318D01*
X119111300Y-69159013D01*
X118842029Y-69302941D01*
X118842027Y-69302942D01*
X118549854Y-69391573D01*
X118246000Y-69421499D01*
X117942147Y-69391573D01*
X117649974Y-69302942D01*
X117380699Y-69159012D01*
X117144682Y-68965318D01*
X116950987Y-68729300D01*
X116807059Y-68460029D01*
X116807058Y-68460027D01*
X116718427Y-68167854D01*
X116696000Y-67940142D01*
X116696000Y-67187859D01*
X116718427Y-66960147D01*
X116807058Y-66667974D01*
X116950988Y-66398699D01*
X117144682Y-66162682D01*
X117380699Y-65968988D01*
X117380698Y-65968988D01*
X117380700Y-65968987D01*
X117649971Y-65825059D01*
X117649973Y-65825058D01*
X117942146Y-65736427D01*
X118246000Y-65706501D01*
X118549853Y-65736427D01*
X118549853Y-65736427D01*
G37*
G36*
X126949853Y-65736427D02*
X127242026Y-65825058D01*
X127511301Y-65968988D01*
X127665018Y-66095140D01*
X127747318Y-66162682D01*
X127941013Y-66398700D01*
X128018707Y-66544056D01*
X128084942Y-66667973D01*
X128173573Y-66960146D01*
X128196000Y-67187858D01*
X128196000Y-67940141D01*
X128173573Y-68167848D01*
X128173572Y-68167851D01*
X128173572Y-68167852D01*
X128084941Y-68460029D01*
X127941013Y-68729300D01*
X127747318Y-68965318D01*
X127511300Y-69159013D01*
X127242029Y-69302941D01*
X127242027Y-69302942D01*
X126949854Y-69391573D01*
X126646000Y-69421499D01*
X126342147Y-69391573D01*
X126049974Y-69302942D01*
X125780699Y-69159012D01*
X125544682Y-68965318D01*
X125350987Y-68729300D01*
X125207059Y-68460029D01*
X125207058Y-68460027D01*
X125118427Y-68167854D01*
X125096000Y-67940142D01*
X125096000Y-67187859D01*
X125118427Y-66960147D01*
X125207058Y-66667974D01*
X125350988Y-66398699D01*
X125544682Y-66162682D01*
X125780699Y-65968988D01*
X125780698Y-65968988D01*
X125780700Y-65968987D01*
X126049971Y-65825059D01*
X126049973Y-65825058D01*
X126342146Y-65736427D01*
X126646000Y-65706501D01*
X126949853Y-65736427D01*
X126949853Y-65736427D01*
G37*
G36*
X115596000Y-69414000D02*
X112496000Y-69414000D01*
X112496000Y-65714000D01*
X115596000Y-65714000D01*
X115596000Y-69414000D01*
X115596000Y-69414000D01*
G37*
G36*
X135966000Y-69164000D02*
X132766000Y-69164000D01*
X132766000Y-65964000D01*
X135966000Y-65964000D01*
X135966000Y-69164000D01*
X135966000Y-69164000D01*
G37*
G36*
X107164703Y-66025486D02*
X107455883Y-66146097D01*
X107717944Y-66321201D01*
X107940799Y-66544056D01*
X108115903Y-66806117D01*
X108236514Y-67097297D01*
X108298000Y-67406412D01*
X108298000Y-67721588D01*
X108236514Y-68030703D01*
X108115903Y-68321883D01*
X107940799Y-68583944D01*
X107717944Y-68806799D01*
X107455883Y-68981903D01*
X107164703Y-69102514D01*
X106855588Y-69164000D01*
X106540412Y-69164000D01*
X106231297Y-69102514D01*
X105940117Y-68981903D01*
X105678056Y-68806799D01*
X105455201Y-68583944D01*
X105280097Y-68321883D01*
X105159486Y-68030703D01*
X105098000Y-67721588D01*
X105098000Y-67406412D01*
X105159486Y-67097297D01*
X105280097Y-66806117D01*
X105455201Y-66544056D01*
X105678056Y-66321201D01*
X105940117Y-66146097D01*
X106231297Y-66025486D01*
X106540412Y-65964000D01*
X106855588Y-65964000D01*
X107164703Y-66025486D01*
X107164703Y-66025486D01*
G37*
G36*
X102964703Y-66025486D02*
X103255883Y-66146097D01*
X103517944Y-66321201D01*
X103740799Y-66544056D01*
X103915903Y-66806117D01*
X104036514Y-67097297D01*
X104098000Y-67406412D01*
X104098000Y-67721588D01*
X104036514Y-68030703D01*
X103915903Y-68321883D01*
X103740799Y-68583944D01*
X103517944Y-68806799D01*
X103255883Y-68981903D01*
X102964703Y-69102514D01*
X102655588Y-69164000D01*
X102340412Y-69164000D01*
X102031297Y-69102514D01*
X101740117Y-68981903D01*
X101478056Y-68806799D01*
X101255201Y-68583944D01*
X101080097Y-68321883D01*
X100959486Y-68030703D01*
X100898000Y-67721588D01*
X100898000Y-67406412D01*
X100959486Y-67097297D01*
X101080097Y-66806117D01*
X101255201Y-66544056D01*
X101478056Y-66321201D01*
X101740117Y-66146097D01*
X102031297Y-66025486D01*
X102340412Y-65964000D01*
X102655588Y-65964000D01*
X102964703Y-66025486D01*
X102964703Y-66025486D01*
G37*
G36*
X99898000Y-69164000D02*
X96698000Y-69164000D01*
X96698000Y-65964000D01*
X99898000Y-65964000D01*
X99898000Y-69164000D01*
X99898000Y-69164000D01*
G37*
G36*
X143232703Y-66025486D02*
X143523883Y-66146097D01*
X143785944Y-66321201D01*
X144008799Y-66544056D01*
X144183903Y-66806117D01*
X144304514Y-67097297D01*
X144366000Y-67406412D01*
X144366000Y-67721588D01*
X144304514Y-68030703D01*
X144183903Y-68321883D01*
X144008799Y-68583944D01*
X143785944Y-68806799D01*
X143523883Y-68981903D01*
X143232703Y-69102514D01*
X142923588Y-69164000D01*
X142608412Y-69164000D01*
X142299297Y-69102514D01*
X142008117Y-68981903D01*
X141746056Y-68806799D01*
X141523201Y-68583944D01*
X141348097Y-68321883D01*
X141227486Y-68030703D01*
X141166000Y-67721588D01*
X141166000Y-67406412D01*
X141227486Y-67097297D01*
X141348097Y-66806117D01*
X141523201Y-66544056D01*
X141746056Y-66321201D01*
X142008117Y-66146097D01*
X142299297Y-66025486D01*
X142608412Y-65964000D01*
X142923588Y-65964000D01*
X143232703Y-66025486D01*
X143232703Y-66025486D01*
G37*
G36*
X139032703Y-66025486D02*
X139323883Y-66146097D01*
X139585944Y-66321201D01*
X139808799Y-66544056D01*
X139983903Y-66806117D01*
X140104514Y-67097297D01*
X140166000Y-67406412D01*
X140166000Y-67721588D01*
X140104514Y-68030703D01*
X139983903Y-68321883D01*
X139808799Y-68583944D01*
X139585944Y-68806799D01*
X139323883Y-68981903D01*
X139032703Y-69102514D01*
X138723588Y-69164000D01*
X138408412Y-69164000D01*
X138099297Y-69102514D01*
X137808117Y-68981903D01*
X137546056Y-68806799D01*
X137323201Y-68583944D01*
X137148097Y-68321883D01*
X137027486Y-68030703D01*
X136966000Y-67721588D01*
X136966000Y-67406412D01*
X137027486Y-67097297D01*
X137148097Y-66806117D01*
X137323201Y-66544056D01*
X137546056Y-66321201D01*
X137808117Y-66146097D01*
X138099297Y-66025486D01*
X138408412Y-65964000D01*
X138723588Y-65964000D01*
X139032703Y-66025486D01*
X139032703Y-66025486D01*
G37*
G36*
X154909122Y-62746115D02*
X155025041Y-62769173D01*
X155352620Y-62904861D01*
X155643511Y-63099228D01*
X155647436Y-63101851D01*
X155898149Y-63352564D01*
X156095140Y-63647382D01*
X156230827Y-63974960D01*
X156300000Y-64322714D01*
X156300000Y-64677286D01*
X156230827Y-65025040D01*
X156095140Y-65352618D01*
X155898149Y-65647436D01*
X155647436Y-65898149D01*
X155647433Y-65898151D01*
X155352620Y-66095139D01*
X155025041Y-66230827D01*
X154909122Y-66253885D01*
X154677286Y-66300000D01*
X154322714Y-66300000D01*
X154090878Y-66253885D01*
X153974959Y-66230827D01*
X153647380Y-66095139D01*
X153352567Y-65898151D01*
X153352564Y-65898149D01*
X153101851Y-65647436D01*
X152904860Y-65352618D01*
X152769173Y-65025040D01*
X152700000Y-64677286D01*
X152700000Y-64322714D01*
X152769173Y-63974960D01*
X152904860Y-63647382D01*
X153101851Y-63352564D01*
X153352564Y-63101851D01*
X153356489Y-63099228D01*
X153647380Y-62904861D01*
X153974959Y-62769173D01*
X154090878Y-62746115D01*
X154322714Y-62700000D01*
X154677286Y-62700000D01*
X154909122Y-62746115D01*
X154909122Y-62746115D01*
G37*
G36*
X86909122Y-62746115D02*
X87025041Y-62769173D01*
X87352620Y-62904861D01*
X87643511Y-63099228D01*
X87647436Y-63101851D01*
X87898149Y-63352564D01*
X88095140Y-63647382D01*
X88230827Y-63974960D01*
X88300000Y-64322714D01*
X88300000Y-64677286D01*
X88230827Y-65025040D01*
X88095140Y-65352618D01*
X87898149Y-65647436D01*
X87647436Y-65898149D01*
X87647433Y-65898151D01*
X87352620Y-66095139D01*
X87025041Y-66230827D01*
X86909122Y-66253885D01*
X86677286Y-66300000D01*
X86322714Y-66300000D01*
X86090878Y-66253885D01*
X85974959Y-66230827D01*
X85647380Y-66095139D01*
X85352567Y-65898151D01*
X85352564Y-65898149D01*
X85101851Y-65647436D01*
X84904860Y-65352618D01*
X84769173Y-65025040D01*
X84700000Y-64677286D01*
X84700000Y-64322714D01*
X84769173Y-63974960D01*
X84904860Y-63647382D01*
X85101851Y-63352564D01*
X85352564Y-63101851D01*
X85356489Y-63099228D01*
X85647380Y-62904861D01*
X85974959Y-62769173D01*
X86090878Y-62746115D01*
X86322714Y-62700000D01*
X86677286Y-62700000D01*
X86909122Y-62746115D01*
X86909122Y-62746115D01*
G37*
M02*
