G04 #@! TF.GenerationSoftware,KiCad,Pcbnew,(5.0.2)-1*
G04 #@! TF.CreationDate,2019-01-05T13:37:38+01:00*
G04 #@! TF.ProjectId,P300_HiVolt,50333030-5f48-4695-966f-6c742e6b6963,rev?*
G04 #@! TF.SameCoordinates,Original*
G04 #@! TF.FileFunction,Copper,L1,Top*
G04 #@! TF.FilePolarity,Positive*
%FSLAX46Y46*%
G04 Gerber Fmt 4.6, Leading zero omitted, Abs format (unit mm)*
G04 Created by KiCad (PCBNEW (5.0.2)-1) date 05.01.2019 13:37:38*
%MOMM*%
%LPD*%
G01*
G04 APERTURE LIST*
G04 #@! TA.AperFunction,ComponentPad*
%ADD10R,2.800000X2.800000*%
G04 #@! TD*
G04 #@! TA.AperFunction,ComponentPad*
%ADD11C,2.800000*%
G04 #@! TD*
G04 #@! TA.AperFunction,ComponentPad*
%ADD12C,1.700000*%
G04 #@! TD*
G04 #@! TA.AperFunction,ComponentPad*
%ADD13R,3.300000X2.700000*%
G04 #@! TD*
G04 #@! TA.AperFunction,ComponentPad*
%ADD14O,3.300000X2.700000*%
G04 #@! TD*
G04 #@! TA.AperFunction,ComponentPad*
%ADD15R,2.700000X3.300000*%
G04 #@! TD*
G04 #@! TA.AperFunction,ComponentPad*
%ADD16O,2.700000X3.300000*%
G04 #@! TD*
G04 #@! TA.AperFunction,ComponentPad*
%ADD17R,1.740000X2.200000*%
G04 #@! TD*
G04 #@! TA.AperFunction,ComponentPad*
%ADD18O,1.740000X2.200000*%
G04 #@! TD*
G04 #@! TA.AperFunction,ComponentPad*
%ADD19C,1.800000*%
G04 #@! TD*
G04 #@! TA.AperFunction,ComponentPad*
%ADD20C,2.000000*%
G04 #@! TD*
G04 #@! TA.AperFunction,Conductor*
%ADD21C,1.000000*%
G04 #@! TD*
G04 APERTURE END LIST*
D10*
G04 #@! TO.P,J3,1*
G04 #@! TO.N,BP_A*
X134366000Y-67564000D03*
D11*
G04 #@! TO.P,J3,2*
G04 #@! TO.N,Net-(J3-Pad2)*
X138566000Y-67564000D03*
G04 #@! TO.P,J3,3*
G04 #@! TO.N,BP_Z*
X142766000Y-67564000D03*
G04 #@! TO.P,J3,4*
G04 #@! TO.N,Net-(J3-Pad2)*
X134366000Y-73064000D03*
G04 #@! TO.P,J3,5*
G04 #@! TO.N,L*
X138566000Y-73064000D03*
G04 #@! TO.P,J3,6*
G04 #@! TO.N,Net-(J3-Pad6)*
X142766000Y-73064000D03*
G04 #@! TD*
D10*
G04 #@! TO.P,J4,1*
G04 #@! TO.N,L2_L*
X98298000Y-67564000D03*
D11*
G04 #@! TO.P,J4,2*
G04 #@! TO.N,L*
X102498000Y-67564000D03*
G04 #@! TO.P,J4,3*
G04 #@! TO.N,Net-(J4-Pad3)*
X106698000Y-67564000D03*
G04 #@! TO.P,J4,4*
G04 #@! TO.N,L1_L*
X98298000Y-73064000D03*
G04 #@! TO.P,J4,5*
G04 #@! TO.N,L*
X102498000Y-73064000D03*
G04 #@! TO.P,J4,6*
G04 #@! TO.N,Net-(J4-Pad6)*
X106698000Y-73064000D03*
G04 #@! TD*
D12*
G04 #@! TO.P,T1,1*
G04 #@! TO.N,L*
X101734000Y-81090000D03*
G04 #@! TO.P,T1,2*
G04 #@! TO.N,N*
X96734000Y-81090000D03*
G04 #@! TO.P,T1,3*
G04 #@! TO.N,/V-*
X106934000Y-110490000D03*
G04 #@! TO.P,T1,4*
G04 #@! TO.N,/V+*
X91534000Y-110490000D03*
G04 #@! TD*
G04 #@! TO.P,T2,1*
G04 #@! TO.N,L*
X143664000Y-81040000D03*
G04 #@! TO.P,T2,2*
G04 #@! TO.N,N*
X138664000Y-81040000D03*
G04 #@! TO.P,T2,3*
G04 #@! TO.N,/5V-*
X148864000Y-110440000D03*
G04 #@! TO.P,T2,4*
G04 #@! TO.N,/5V+*
X133464000Y-110440000D03*
G04 #@! TD*
D13*
G04 #@! TO.P,J1,1*
G04 #@! TO.N,L*
X117856000Y-83820000D03*
D14*
G04 #@! TO.P,J1,2*
G04 #@! TO.N,N*
X123356000Y-83820000D03*
G04 #@! TD*
D15*
G04 #@! TO.P,J2,1*
G04 #@! TO.N,L2_L*
X114046000Y-67564000D03*
D16*
G04 #@! TO.P,J2,2*
G04 #@! TO.N,L1_L*
X118246000Y-67564000D03*
G04 #@! TO.P,J2,3*
G04 #@! TO.N,BP_A*
X122446000Y-67564000D03*
G04 #@! TO.P,J2,4*
G04 #@! TO.N,BP_Z*
X126646000Y-67564000D03*
G04 #@! TO.P,J2,5*
G04 #@! TO.N,N*
X114046000Y-73064000D03*
G04 #@! TO.P,J2,6*
X118246000Y-73064000D03*
G04 #@! TO.P,J2,7*
X122446000Y-73064000D03*
G04 #@! TO.P,J2,8*
G04 #@! TO.N,Net-(J2-Pad8)*
X126646000Y-73064000D03*
G04 #@! TD*
D17*
G04 #@! TO.P,J6,1*
G04 #@! TO.N,/5V-*
X125476000Y-110490000D03*
D18*
G04 #@! TO.P,J6,2*
G04 #@! TO.N,/5V+*
X128016000Y-110490000D03*
G04 #@! TD*
D17*
G04 #@! TO.P,J5,1*
G04 #@! TO.N,/V-*
X113538000Y-110490000D03*
D18*
G04 #@! TO.P,J5,2*
G04 #@! TO.N,/V+*
X116078000Y-110490000D03*
G04 #@! TD*
D19*
G04 #@! TO.P,RV1,1*
G04 #@! TO.N,L*
X123190000Y-100584000D03*
G04 #@! TO.P,RV1,2*
G04 #@! TO.N,N*
X127190000Y-93084000D03*
G04 #@! TD*
D20*
G04 #@! TO.P,F1,1*
G04 #@! TO.N,L*
X116586000Y-98806000D03*
G04 #@! TO.P,F1,2*
X116596000Y-93726000D03*
G04 #@! TD*
D21*
G04 #@! TO.N,BP_A*
X134366000Y-64770000D02*
X134366000Y-67564000D01*
X133096000Y-63500000D02*
X134366000Y-64770000D01*
X123860000Y-63500000D02*
X133096000Y-63500000D01*
X122446000Y-67564000D02*
X122446000Y-64914000D01*
X122446000Y-64914000D02*
X123860000Y-63500000D01*
G04 #@! TO.N,Net-(J3-Pad2)*
X134366000Y-75043898D02*
X134366000Y-73064000D01*
X135786103Y-76464001D02*
X134366000Y-75043898D01*
X144398001Y-76464001D02*
X135786103Y-76464001D01*
X138566000Y-67564000D02*
X138566000Y-64634000D01*
X138566000Y-64634000D02*
X139700000Y-63500000D01*
X139700000Y-63500000D02*
X143734002Y-63500000D01*
X143734002Y-63500000D02*
X146166001Y-65931999D01*
X146166001Y-65931999D02*
X146166001Y-74696001D01*
X146166001Y-74696001D02*
X144398001Y-76464001D01*
G04 #@! TD*
M02*
