M48
;DRILL file {KiCad (5.0.2)-1} date 05.01.2019 13:37:45
;FORMAT={-:-/ absolute / inch / decimal}
FMAT,2
INCH,TZ
T1C0.0315
T2C0.0354
T3C0.0394
T4C0.0472
T5C0.0551
%
G90
G05
T1
X4.85Y-3.96
X5.0075Y-3.6647
T2
X3.6037Y-4.35
X3.8084Y-3.1925
X4.0053Y-3.1925
X4.21Y-4.35
X5.2545Y-4.348
X5.4592Y-3.1906
X5.6561Y-3.1906
X5.8608Y-4.348
T3
X4.59Y-3.89
X4.5904Y-3.69
T4
X4.47Y-4.35
X4.57Y-4.35
X4.94Y-4.35
X5.04Y-4.35
T5
X5.29Y-2.66
X5.29Y-2.8765
X5.4554Y-2.66
X5.4554Y-2.8765
X5.6207Y-2.66
X5.6207Y-2.8765
X4.49Y-2.66
X4.49Y-2.8765
X4.6554Y-2.66
X4.6554Y-2.8765
X4.8207Y-2.66
X4.8207Y-2.8765
X4.9861Y-2.66
X4.9861Y-2.8765
X3.87Y-2.66
X3.87Y-2.8765
X4.0354Y-2.66
X4.0354Y-2.8765
X4.2007Y-2.66
X4.2007Y-2.8765
X4.64Y-3.3
X4.8565Y-3.3
T0
M30
