G04 #@! TF.GenerationSoftware,KiCad,Pcbnew,(5.0.2)-1*
G04 #@! TF.CreationDate,2019-01-05T13:36:49+01:00*
G04 #@! TF.ProjectId,P300_Display_IF,50333030-5f44-4697-9370-6c61795f4946,rev?*
G04 #@! TF.SameCoordinates,Original*
G04 #@! TF.FileFunction,Soldermask,Bot*
G04 #@! TF.FilePolarity,Negative*
%FSLAX46Y46*%
G04 Gerber Fmt 4.6, Leading zero omitted, Abs format (unit mm)*
G04 Created by KiCad (PCBNEW (5.0.2)-1) date 05.01.2019 13:36:49*
%MOMM*%
%LPD*%
G01*
G04 APERTURE LIST*
%ADD10C,0.100000*%
G04 APERTURE END LIST*
D10*
G36*
X173071163Y-117614587D02*
X173245041Y-117649173D01*
X173572620Y-117784861D01*
X173808152Y-117942238D01*
X173867435Y-117981850D01*
X174118150Y-118232565D01*
X174118151Y-118232567D01*
X174315139Y-118527380D01*
X174422361Y-118786237D01*
X174450827Y-118854960D01*
X174520000Y-119202715D01*
X174520000Y-119557285D01*
X174485414Y-119731162D01*
X174450827Y-119905041D01*
X174315139Y-120232620D01*
X174225086Y-120367393D01*
X174118150Y-120527435D01*
X173867435Y-120778150D01*
X173808152Y-120817762D01*
X173572620Y-120975139D01*
X173245041Y-121110827D01*
X173071162Y-121145414D01*
X172897285Y-121180000D01*
X172542715Y-121180000D01*
X172368838Y-121145414D01*
X172194959Y-121110827D01*
X171867380Y-120975139D01*
X171631848Y-120817762D01*
X171572565Y-120778150D01*
X171321850Y-120527435D01*
X171214914Y-120367393D01*
X171124861Y-120232620D01*
X170989173Y-119905041D01*
X170954586Y-119731162D01*
X170920000Y-119557285D01*
X170920000Y-119202715D01*
X170989173Y-118854960D01*
X171017639Y-118786237D01*
X171124861Y-118527380D01*
X171321849Y-118232567D01*
X171321850Y-118232565D01*
X171572565Y-117981850D01*
X171631848Y-117942238D01*
X171867380Y-117784861D01*
X172194959Y-117649173D01*
X172368837Y-117614587D01*
X172542715Y-117580000D01*
X172897285Y-117580000D01*
X173071163Y-117614587D01*
X173071163Y-117614587D01*
G37*
G36*
X90521163Y-117614587D02*
X90695041Y-117649173D01*
X91022620Y-117784861D01*
X91258152Y-117942238D01*
X91317435Y-117981850D01*
X91568150Y-118232565D01*
X91568151Y-118232567D01*
X91765139Y-118527380D01*
X91872361Y-118786237D01*
X91900827Y-118854960D01*
X91970000Y-119202715D01*
X91970000Y-119557285D01*
X91935414Y-119731162D01*
X91900827Y-119905041D01*
X91765139Y-120232620D01*
X91675086Y-120367393D01*
X91568150Y-120527435D01*
X91317435Y-120778150D01*
X91258152Y-120817762D01*
X91022620Y-120975139D01*
X90695041Y-121110827D01*
X90521162Y-121145414D01*
X90347285Y-121180000D01*
X89992715Y-121180000D01*
X89818838Y-121145414D01*
X89644959Y-121110827D01*
X89317380Y-120975139D01*
X89081848Y-120817762D01*
X89022565Y-120778150D01*
X88771850Y-120527435D01*
X88664914Y-120367393D01*
X88574861Y-120232620D01*
X88439173Y-119905041D01*
X88404586Y-119731162D01*
X88370000Y-119557285D01*
X88370000Y-119202715D01*
X88439173Y-118854960D01*
X88467639Y-118786237D01*
X88574861Y-118527380D01*
X88771849Y-118232567D01*
X88771850Y-118232565D01*
X89022565Y-117981850D01*
X89081848Y-117942238D01*
X89317380Y-117784861D01*
X89644959Y-117649173D01*
X89818837Y-117614587D01*
X89992715Y-117580000D01*
X90347285Y-117580000D01*
X90521163Y-117614587D01*
X90521163Y-117614587D01*
G37*
G36*
X162768502Y-118331789D02*
X162968991Y-118392607D01*
X163153761Y-118491368D01*
X163153763Y-118491370D01*
X163315718Y-118624282D01*
X163426758Y-118759586D01*
X163448632Y-118786239D01*
X163547393Y-118971009D01*
X163608211Y-119171498D01*
X163628746Y-119380000D01*
X163608211Y-119588502D01*
X163547393Y-119788991D01*
X163448632Y-119973761D01*
X163448630Y-119973763D01*
X163315718Y-120135718D01*
X163180414Y-120246758D01*
X163153761Y-120268632D01*
X162968991Y-120367393D01*
X162768502Y-120428211D01*
X162612251Y-120443600D01*
X162507749Y-120443600D01*
X162351498Y-120428211D01*
X162151009Y-120367393D01*
X161966239Y-120268632D01*
X161939586Y-120246758D01*
X161804282Y-120135718D01*
X161671370Y-119973763D01*
X161671368Y-119973761D01*
X161572607Y-119788991D01*
X161511789Y-119588502D01*
X161491254Y-119380000D01*
X161511789Y-119171498D01*
X161572607Y-118971009D01*
X161671368Y-118786239D01*
X161693242Y-118759586D01*
X161804282Y-118624282D01*
X161966237Y-118491370D01*
X161966239Y-118491368D01*
X162151009Y-118392607D01*
X162351498Y-118331789D01*
X162507749Y-118316400D01*
X162612251Y-118316400D01*
X162768502Y-118331789D01*
X162768502Y-118331789D01*
G37*
G36*
X129748502Y-118331789D02*
X129948991Y-118392607D01*
X130133761Y-118491368D01*
X130133763Y-118491370D01*
X130295718Y-118624282D01*
X130406758Y-118759586D01*
X130428632Y-118786239D01*
X130527393Y-118971009D01*
X130588211Y-119171498D01*
X130608746Y-119380000D01*
X130588211Y-119588502D01*
X130527393Y-119788991D01*
X130428632Y-119973761D01*
X130428630Y-119973763D01*
X130295718Y-120135718D01*
X130160414Y-120246758D01*
X130133761Y-120268632D01*
X129948991Y-120367393D01*
X129748502Y-120428211D01*
X129592251Y-120443600D01*
X129487749Y-120443600D01*
X129331498Y-120428211D01*
X129131009Y-120367393D01*
X128946239Y-120268632D01*
X128919586Y-120246758D01*
X128784282Y-120135718D01*
X128651370Y-119973763D01*
X128651368Y-119973761D01*
X128552607Y-119788991D01*
X128491789Y-119588502D01*
X128471254Y-119380000D01*
X128491789Y-119171498D01*
X128552607Y-118971009D01*
X128651368Y-118786239D01*
X128673242Y-118759586D01*
X128784282Y-118624282D01*
X128946237Y-118491370D01*
X128946239Y-118491368D01*
X129131009Y-118392607D01*
X129331498Y-118331789D01*
X129487749Y-118316400D01*
X129592251Y-118316400D01*
X129748502Y-118331789D01*
X129748502Y-118331789D01*
G37*
G36*
X160228502Y-118331789D02*
X160428991Y-118392607D01*
X160613761Y-118491368D01*
X160613763Y-118491370D01*
X160775718Y-118624282D01*
X160886758Y-118759586D01*
X160908632Y-118786239D01*
X161007393Y-118971009D01*
X161068211Y-119171498D01*
X161088746Y-119380000D01*
X161068211Y-119588502D01*
X161007393Y-119788991D01*
X160908632Y-119973761D01*
X160908630Y-119973763D01*
X160775718Y-120135718D01*
X160640414Y-120246758D01*
X160613761Y-120268632D01*
X160428991Y-120367393D01*
X160228502Y-120428211D01*
X160072251Y-120443600D01*
X159967749Y-120443600D01*
X159811498Y-120428211D01*
X159611009Y-120367393D01*
X159426239Y-120268632D01*
X159399586Y-120246758D01*
X159264282Y-120135718D01*
X159131370Y-119973763D01*
X159131368Y-119973761D01*
X159032607Y-119788991D01*
X158971789Y-119588502D01*
X158951254Y-119380000D01*
X158971789Y-119171498D01*
X159032607Y-118971009D01*
X159131368Y-118786239D01*
X159153242Y-118759586D01*
X159264282Y-118624282D01*
X159426237Y-118491370D01*
X159426239Y-118491368D01*
X159611009Y-118392607D01*
X159811498Y-118331789D01*
X159967749Y-118316400D01*
X160072251Y-118316400D01*
X160228502Y-118331789D01*
X160228502Y-118331789D01*
G37*
G36*
X157688502Y-118331789D02*
X157888991Y-118392607D01*
X158073761Y-118491368D01*
X158073763Y-118491370D01*
X158235718Y-118624282D01*
X158346758Y-118759586D01*
X158368632Y-118786239D01*
X158467393Y-118971009D01*
X158528211Y-119171498D01*
X158548746Y-119380000D01*
X158528211Y-119588502D01*
X158467393Y-119788991D01*
X158368632Y-119973761D01*
X158368630Y-119973763D01*
X158235718Y-120135718D01*
X158100414Y-120246758D01*
X158073761Y-120268632D01*
X157888991Y-120367393D01*
X157688502Y-120428211D01*
X157532251Y-120443600D01*
X157427749Y-120443600D01*
X157271498Y-120428211D01*
X157071009Y-120367393D01*
X156886239Y-120268632D01*
X156859586Y-120246758D01*
X156724282Y-120135718D01*
X156591370Y-119973763D01*
X156591368Y-119973761D01*
X156492607Y-119788991D01*
X156431789Y-119588502D01*
X156411254Y-119380000D01*
X156431789Y-119171498D01*
X156492607Y-118971009D01*
X156591368Y-118786239D01*
X156613242Y-118759586D01*
X156724282Y-118624282D01*
X156886237Y-118491370D01*
X156886239Y-118491368D01*
X157071009Y-118392607D01*
X157271498Y-118331789D01*
X157427749Y-118316400D01*
X157532251Y-118316400D01*
X157688502Y-118331789D01*
X157688502Y-118331789D01*
G37*
G36*
X155148502Y-118331789D02*
X155348991Y-118392607D01*
X155533761Y-118491368D01*
X155533763Y-118491370D01*
X155695718Y-118624282D01*
X155806758Y-118759586D01*
X155828632Y-118786239D01*
X155927393Y-118971009D01*
X155988211Y-119171498D01*
X156008746Y-119380000D01*
X155988211Y-119588502D01*
X155927393Y-119788991D01*
X155828632Y-119973761D01*
X155828630Y-119973763D01*
X155695718Y-120135718D01*
X155560414Y-120246758D01*
X155533761Y-120268632D01*
X155348991Y-120367393D01*
X155148502Y-120428211D01*
X154992251Y-120443600D01*
X154887749Y-120443600D01*
X154731498Y-120428211D01*
X154531009Y-120367393D01*
X154346239Y-120268632D01*
X154319586Y-120246758D01*
X154184282Y-120135718D01*
X154051370Y-119973763D01*
X154051368Y-119973761D01*
X153952607Y-119788991D01*
X153891789Y-119588502D01*
X153871254Y-119380000D01*
X153891789Y-119171498D01*
X153952607Y-118971009D01*
X154051368Y-118786239D01*
X154073242Y-118759586D01*
X154184282Y-118624282D01*
X154346237Y-118491370D01*
X154346239Y-118491368D01*
X154531009Y-118392607D01*
X154731498Y-118331789D01*
X154887749Y-118316400D01*
X154992251Y-118316400D01*
X155148502Y-118331789D01*
X155148502Y-118331789D01*
G37*
G36*
X152608502Y-118331789D02*
X152808991Y-118392607D01*
X152993761Y-118491368D01*
X152993763Y-118491370D01*
X153155718Y-118624282D01*
X153266758Y-118759586D01*
X153288632Y-118786239D01*
X153387393Y-118971009D01*
X153448211Y-119171498D01*
X153468746Y-119380000D01*
X153448211Y-119588502D01*
X153387393Y-119788991D01*
X153288632Y-119973761D01*
X153288630Y-119973763D01*
X153155718Y-120135718D01*
X153020414Y-120246758D01*
X152993761Y-120268632D01*
X152808991Y-120367393D01*
X152608502Y-120428211D01*
X152452251Y-120443600D01*
X152347749Y-120443600D01*
X152191498Y-120428211D01*
X151991009Y-120367393D01*
X151806239Y-120268632D01*
X151779586Y-120246758D01*
X151644282Y-120135718D01*
X151511370Y-119973763D01*
X151511368Y-119973761D01*
X151412607Y-119788991D01*
X151351789Y-119588502D01*
X151331254Y-119380000D01*
X151351789Y-119171498D01*
X151412607Y-118971009D01*
X151511368Y-118786239D01*
X151533242Y-118759586D01*
X151644282Y-118624282D01*
X151806237Y-118491370D01*
X151806239Y-118491368D01*
X151991009Y-118392607D01*
X152191498Y-118331789D01*
X152347749Y-118316400D01*
X152452251Y-118316400D01*
X152608502Y-118331789D01*
X152608502Y-118331789D01*
G37*
G36*
X150068502Y-118331789D02*
X150268991Y-118392607D01*
X150453761Y-118491368D01*
X150453763Y-118491370D01*
X150615718Y-118624282D01*
X150726758Y-118759586D01*
X150748632Y-118786239D01*
X150847393Y-118971009D01*
X150908211Y-119171498D01*
X150928746Y-119380000D01*
X150908211Y-119588502D01*
X150847393Y-119788991D01*
X150748632Y-119973761D01*
X150748630Y-119973763D01*
X150615718Y-120135718D01*
X150480414Y-120246758D01*
X150453761Y-120268632D01*
X150268991Y-120367393D01*
X150068502Y-120428211D01*
X149912251Y-120443600D01*
X149807749Y-120443600D01*
X149651498Y-120428211D01*
X149451009Y-120367393D01*
X149266239Y-120268632D01*
X149239586Y-120246758D01*
X149104282Y-120135718D01*
X148971370Y-119973763D01*
X148971368Y-119973761D01*
X148872607Y-119788991D01*
X148811789Y-119588502D01*
X148791254Y-119380000D01*
X148811789Y-119171498D01*
X148872607Y-118971009D01*
X148971368Y-118786239D01*
X148993242Y-118759586D01*
X149104282Y-118624282D01*
X149266237Y-118491370D01*
X149266239Y-118491368D01*
X149451009Y-118392607D01*
X149651498Y-118331789D01*
X149807749Y-118316400D01*
X149912251Y-118316400D01*
X150068502Y-118331789D01*
X150068502Y-118331789D01*
G37*
G36*
X144988502Y-118331789D02*
X145188991Y-118392607D01*
X145373761Y-118491368D01*
X145373763Y-118491370D01*
X145535718Y-118624282D01*
X145646758Y-118759586D01*
X145668632Y-118786239D01*
X145767393Y-118971009D01*
X145828211Y-119171498D01*
X145848746Y-119380000D01*
X145828211Y-119588502D01*
X145767393Y-119788991D01*
X145668632Y-119973761D01*
X145668630Y-119973763D01*
X145535718Y-120135718D01*
X145400414Y-120246758D01*
X145373761Y-120268632D01*
X145188991Y-120367393D01*
X144988502Y-120428211D01*
X144832251Y-120443600D01*
X144727749Y-120443600D01*
X144571498Y-120428211D01*
X144371009Y-120367393D01*
X144186239Y-120268632D01*
X144159586Y-120246758D01*
X144024282Y-120135718D01*
X143891370Y-119973763D01*
X143891368Y-119973761D01*
X143792607Y-119788991D01*
X143731789Y-119588502D01*
X143711254Y-119380000D01*
X143731789Y-119171498D01*
X143792607Y-118971009D01*
X143891368Y-118786239D01*
X143913242Y-118759586D01*
X144024282Y-118624282D01*
X144186237Y-118491370D01*
X144186239Y-118491368D01*
X144371009Y-118392607D01*
X144571498Y-118331789D01*
X144727749Y-118316400D01*
X144832251Y-118316400D01*
X144988502Y-118331789D01*
X144988502Y-118331789D01*
G37*
G36*
X142448502Y-118331789D02*
X142648991Y-118392607D01*
X142833761Y-118491368D01*
X142833763Y-118491370D01*
X142995718Y-118624282D01*
X143106758Y-118759586D01*
X143128632Y-118786239D01*
X143227393Y-118971009D01*
X143288211Y-119171498D01*
X143308746Y-119380000D01*
X143288211Y-119588502D01*
X143227393Y-119788991D01*
X143128632Y-119973761D01*
X143128630Y-119973763D01*
X142995718Y-120135718D01*
X142860414Y-120246758D01*
X142833761Y-120268632D01*
X142648991Y-120367393D01*
X142448502Y-120428211D01*
X142292251Y-120443600D01*
X142187749Y-120443600D01*
X142031498Y-120428211D01*
X141831009Y-120367393D01*
X141646239Y-120268632D01*
X141619586Y-120246758D01*
X141484282Y-120135718D01*
X141351370Y-119973763D01*
X141351368Y-119973761D01*
X141252607Y-119788991D01*
X141191789Y-119588502D01*
X141171254Y-119380000D01*
X141191789Y-119171498D01*
X141252607Y-118971009D01*
X141351368Y-118786239D01*
X141373242Y-118759586D01*
X141484282Y-118624282D01*
X141646237Y-118491370D01*
X141646239Y-118491368D01*
X141831009Y-118392607D01*
X142031498Y-118331789D01*
X142187749Y-118316400D01*
X142292251Y-118316400D01*
X142448502Y-118331789D01*
X142448502Y-118331789D01*
G37*
G36*
X139908502Y-118331789D02*
X140108991Y-118392607D01*
X140293761Y-118491368D01*
X140293763Y-118491370D01*
X140455718Y-118624282D01*
X140566758Y-118759586D01*
X140588632Y-118786239D01*
X140687393Y-118971009D01*
X140748211Y-119171498D01*
X140768746Y-119380000D01*
X140748211Y-119588502D01*
X140687393Y-119788991D01*
X140588632Y-119973761D01*
X140588630Y-119973763D01*
X140455718Y-120135718D01*
X140320414Y-120246758D01*
X140293761Y-120268632D01*
X140108991Y-120367393D01*
X139908502Y-120428211D01*
X139752251Y-120443600D01*
X139647749Y-120443600D01*
X139491498Y-120428211D01*
X139291009Y-120367393D01*
X139106239Y-120268632D01*
X139079586Y-120246758D01*
X138944282Y-120135718D01*
X138811370Y-119973763D01*
X138811368Y-119973761D01*
X138712607Y-119788991D01*
X138651789Y-119588502D01*
X138631254Y-119380000D01*
X138651789Y-119171498D01*
X138712607Y-118971009D01*
X138811368Y-118786239D01*
X138833242Y-118759586D01*
X138944282Y-118624282D01*
X139106237Y-118491370D01*
X139106239Y-118491368D01*
X139291009Y-118392607D01*
X139491498Y-118331789D01*
X139647749Y-118316400D01*
X139752251Y-118316400D01*
X139908502Y-118331789D01*
X139908502Y-118331789D01*
G37*
G36*
X137368502Y-118331789D02*
X137568991Y-118392607D01*
X137753761Y-118491368D01*
X137753763Y-118491370D01*
X137915718Y-118624282D01*
X138026758Y-118759586D01*
X138048632Y-118786239D01*
X138147393Y-118971009D01*
X138208211Y-119171498D01*
X138228746Y-119380000D01*
X138208211Y-119588502D01*
X138147393Y-119788991D01*
X138048632Y-119973761D01*
X138048630Y-119973763D01*
X137915718Y-120135718D01*
X137780414Y-120246758D01*
X137753761Y-120268632D01*
X137568991Y-120367393D01*
X137368502Y-120428211D01*
X137212251Y-120443600D01*
X137107749Y-120443600D01*
X136951498Y-120428211D01*
X136751009Y-120367393D01*
X136566239Y-120268632D01*
X136539586Y-120246758D01*
X136404282Y-120135718D01*
X136271370Y-119973763D01*
X136271368Y-119973761D01*
X136172607Y-119788991D01*
X136111789Y-119588502D01*
X136091254Y-119380000D01*
X136111789Y-119171498D01*
X136172607Y-118971009D01*
X136271368Y-118786239D01*
X136293242Y-118759586D01*
X136404282Y-118624282D01*
X136566237Y-118491370D01*
X136566239Y-118491368D01*
X136751009Y-118392607D01*
X136951498Y-118331789D01*
X137107749Y-118316400D01*
X137212251Y-118316400D01*
X137368502Y-118331789D01*
X137368502Y-118331789D01*
G37*
G36*
X134828502Y-118331789D02*
X135028991Y-118392607D01*
X135213761Y-118491368D01*
X135213763Y-118491370D01*
X135375718Y-118624282D01*
X135486758Y-118759586D01*
X135508632Y-118786239D01*
X135607393Y-118971009D01*
X135668211Y-119171498D01*
X135688746Y-119380000D01*
X135668211Y-119588502D01*
X135607393Y-119788991D01*
X135508632Y-119973761D01*
X135508630Y-119973763D01*
X135375718Y-120135718D01*
X135240414Y-120246758D01*
X135213761Y-120268632D01*
X135028991Y-120367393D01*
X134828502Y-120428211D01*
X134672251Y-120443600D01*
X134567749Y-120443600D01*
X134411498Y-120428211D01*
X134211009Y-120367393D01*
X134026239Y-120268632D01*
X133999586Y-120246758D01*
X133864282Y-120135718D01*
X133731370Y-119973763D01*
X133731368Y-119973761D01*
X133632607Y-119788991D01*
X133571789Y-119588502D01*
X133551254Y-119380000D01*
X133571789Y-119171498D01*
X133632607Y-118971009D01*
X133731368Y-118786239D01*
X133753242Y-118759586D01*
X133864282Y-118624282D01*
X134026237Y-118491370D01*
X134026239Y-118491368D01*
X134211009Y-118392607D01*
X134411498Y-118331789D01*
X134567749Y-118316400D01*
X134672251Y-118316400D01*
X134828502Y-118331789D01*
X134828502Y-118331789D01*
G37*
G36*
X132288502Y-118331789D02*
X132488991Y-118392607D01*
X132673761Y-118491368D01*
X132673763Y-118491370D01*
X132835718Y-118624282D01*
X132946758Y-118759586D01*
X132968632Y-118786239D01*
X133067393Y-118971009D01*
X133128211Y-119171498D01*
X133148746Y-119380000D01*
X133128211Y-119588502D01*
X133067393Y-119788991D01*
X132968632Y-119973761D01*
X132968630Y-119973763D01*
X132835718Y-120135718D01*
X132700414Y-120246758D01*
X132673761Y-120268632D01*
X132488991Y-120367393D01*
X132288502Y-120428211D01*
X132132251Y-120443600D01*
X132027749Y-120443600D01*
X131871498Y-120428211D01*
X131671009Y-120367393D01*
X131486239Y-120268632D01*
X131459586Y-120246758D01*
X131324282Y-120135718D01*
X131191370Y-119973763D01*
X131191368Y-119973761D01*
X131092607Y-119788991D01*
X131031789Y-119588502D01*
X131011254Y-119380000D01*
X131031789Y-119171498D01*
X131092607Y-118971009D01*
X131191368Y-118786239D01*
X131213242Y-118759586D01*
X131324282Y-118624282D01*
X131486237Y-118491370D01*
X131486239Y-118491368D01*
X131671009Y-118392607D01*
X131871498Y-118331789D01*
X132027749Y-118316400D01*
X132132251Y-118316400D01*
X132288502Y-118331789D01*
X132288502Y-118331789D01*
G37*
G36*
X104348502Y-118331789D02*
X104548991Y-118392607D01*
X104733761Y-118491368D01*
X104733763Y-118491370D01*
X104895718Y-118624282D01*
X105006758Y-118759586D01*
X105028632Y-118786239D01*
X105127393Y-118971009D01*
X105188211Y-119171498D01*
X105208746Y-119380000D01*
X105188211Y-119588502D01*
X105127393Y-119788991D01*
X105028632Y-119973761D01*
X105028630Y-119973763D01*
X104895718Y-120135718D01*
X104760414Y-120246758D01*
X104733761Y-120268632D01*
X104548991Y-120367393D01*
X104348502Y-120428211D01*
X104192251Y-120443600D01*
X104087749Y-120443600D01*
X103931498Y-120428211D01*
X103731009Y-120367393D01*
X103546239Y-120268632D01*
X103519586Y-120246758D01*
X103384282Y-120135718D01*
X103251370Y-119973763D01*
X103251368Y-119973761D01*
X103152607Y-119788991D01*
X103091789Y-119588502D01*
X103071254Y-119380000D01*
X103091789Y-119171498D01*
X103152607Y-118971009D01*
X103251368Y-118786239D01*
X103273242Y-118759586D01*
X103384282Y-118624282D01*
X103546237Y-118491370D01*
X103546239Y-118491368D01*
X103731009Y-118392607D01*
X103931498Y-118331789D01*
X104087749Y-118316400D01*
X104192251Y-118316400D01*
X104348502Y-118331789D01*
X104348502Y-118331789D01*
G37*
G36*
X165308502Y-118331789D02*
X165508991Y-118392607D01*
X165693761Y-118491368D01*
X165693763Y-118491370D01*
X165855718Y-118624282D01*
X165966758Y-118759586D01*
X165988632Y-118786239D01*
X166087393Y-118971009D01*
X166148211Y-119171498D01*
X166168746Y-119380000D01*
X166148211Y-119588502D01*
X166087393Y-119788991D01*
X165988632Y-119973761D01*
X165988630Y-119973763D01*
X165855718Y-120135718D01*
X165720414Y-120246758D01*
X165693761Y-120268632D01*
X165508991Y-120367393D01*
X165308502Y-120428211D01*
X165152251Y-120443600D01*
X165047749Y-120443600D01*
X164891498Y-120428211D01*
X164691009Y-120367393D01*
X164506239Y-120268632D01*
X164479586Y-120246758D01*
X164344282Y-120135718D01*
X164211370Y-119973763D01*
X164211368Y-119973761D01*
X164112607Y-119788991D01*
X164051789Y-119588502D01*
X164031254Y-119380000D01*
X164051789Y-119171498D01*
X164112607Y-118971009D01*
X164211368Y-118786239D01*
X164233242Y-118759586D01*
X164344282Y-118624282D01*
X164506237Y-118491370D01*
X164506239Y-118491368D01*
X164691009Y-118392607D01*
X164891498Y-118331789D01*
X165047749Y-118316400D01*
X165152251Y-118316400D01*
X165308502Y-118331789D01*
X165308502Y-118331789D01*
G37*
G36*
X167848502Y-118331789D02*
X168048991Y-118392607D01*
X168233761Y-118491368D01*
X168233763Y-118491370D01*
X168395718Y-118624282D01*
X168506758Y-118759586D01*
X168528632Y-118786239D01*
X168627393Y-118971009D01*
X168688211Y-119171498D01*
X168708746Y-119380000D01*
X168688211Y-119588502D01*
X168627393Y-119788991D01*
X168528632Y-119973761D01*
X168528630Y-119973763D01*
X168395718Y-120135718D01*
X168260414Y-120246758D01*
X168233761Y-120268632D01*
X168048991Y-120367393D01*
X167848502Y-120428211D01*
X167692251Y-120443600D01*
X167587749Y-120443600D01*
X167431498Y-120428211D01*
X167231009Y-120367393D01*
X167046239Y-120268632D01*
X167019586Y-120246758D01*
X166884282Y-120135718D01*
X166751370Y-119973763D01*
X166751368Y-119973761D01*
X166652607Y-119788991D01*
X166591789Y-119588502D01*
X166571254Y-119380000D01*
X166591789Y-119171498D01*
X166652607Y-118971009D01*
X166751368Y-118786239D01*
X166773242Y-118759586D01*
X166884282Y-118624282D01*
X167046237Y-118491370D01*
X167046239Y-118491368D01*
X167231009Y-118392607D01*
X167431498Y-118331789D01*
X167587749Y-118316400D01*
X167692251Y-118316400D01*
X167848502Y-118331789D01*
X167848502Y-118331789D01*
G37*
G36*
X106888502Y-118331789D02*
X107088991Y-118392607D01*
X107273761Y-118491368D01*
X107273763Y-118491370D01*
X107435718Y-118624282D01*
X107546758Y-118759586D01*
X107568632Y-118786239D01*
X107667393Y-118971009D01*
X107728211Y-119171498D01*
X107748746Y-119380000D01*
X107728211Y-119588502D01*
X107667393Y-119788991D01*
X107568632Y-119973761D01*
X107568630Y-119973763D01*
X107435718Y-120135718D01*
X107300414Y-120246758D01*
X107273761Y-120268632D01*
X107088991Y-120367393D01*
X106888502Y-120428211D01*
X106732251Y-120443600D01*
X106627749Y-120443600D01*
X106471498Y-120428211D01*
X106271009Y-120367393D01*
X106086239Y-120268632D01*
X106059586Y-120246758D01*
X105924282Y-120135718D01*
X105791370Y-119973763D01*
X105791368Y-119973761D01*
X105692607Y-119788991D01*
X105631789Y-119588502D01*
X105611254Y-119380000D01*
X105631789Y-119171498D01*
X105692607Y-118971009D01*
X105791368Y-118786239D01*
X105813242Y-118759586D01*
X105924282Y-118624282D01*
X106086237Y-118491370D01*
X106086239Y-118491368D01*
X106271009Y-118392607D01*
X106471498Y-118331789D01*
X106627749Y-118316400D01*
X106732251Y-118316400D01*
X106888502Y-118331789D01*
X106888502Y-118331789D01*
G37*
G36*
X109428502Y-118331789D02*
X109628991Y-118392607D01*
X109813761Y-118491368D01*
X109813763Y-118491370D01*
X109975718Y-118624282D01*
X110086758Y-118759586D01*
X110108632Y-118786239D01*
X110207393Y-118971009D01*
X110268211Y-119171498D01*
X110288746Y-119380000D01*
X110268211Y-119588502D01*
X110207393Y-119788991D01*
X110108632Y-119973761D01*
X110108630Y-119973763D01*
X109975718Y-120135718D01*
X109840414Y-120246758D01*
X109813761Y-120268632D01*
X109628991Y-120367393D01*
X109428502Y-120428211D01*
X109272251Y-120443600D01*
X109167749Y-120443600D01*
X109011498Y-120428211D01*
X108811009Y-120367393D01*
X108626239Y-120268632D01*
X108599586Y-120246758D01*
X108464282Y-120135718D01*
X108331370Y-119973763D01*
X108331368Y-119973761D01*
X108232607Y-119788991D01*
X108171789Y-119588502D01*
X108151254Y-119380000D01*
X108171789Y-119171498D01*
X108232607Y-118971009D01*
X108331368Y-118786239D01*
X108353242Y-118759586D01*
X108464282Y-118624282D01*
X108626237Y-118491370D01*
X108626239Y-118491368D01*
X108811009Y-118392607D01*
X109011498Y-118331789D01*
X109167749Y-118316400D01*
X109272251Y-118316400D01*
X109428502Y-118331789D01*
X109428502Y-118331789D01*
G37*
G36*
X111968502Y-118331789D02*
X112168991Y-118392607D01*
X112353761Y-118491368D01*
X112353763Y-118491370D01*
X112515718Y-118624282D01*
X112626758Y-118759586D01*
X112648632Y-118786239D01*
X112747393Y-118971009D01*
X112808211Y-119171498D01*
X112828746Y-119380000D01*
X112808211Y-119588502D01*
X112747393Y-119788991D01*
X112648632Y-119973761D01*
X112648630Y-119973763D01*
X112515718Y-120135718D01*
X112380414Y-120246758D01*
X112353761Y-120268632D01*
X112168991Y-120367393D01*
X111968502Y-120428211D01*
X111812251Y-120443600D01*
X111707749Y-120443600D01*
X111551498Y-120428211D01*
X111351009Y-120367393D01*
X111166239Y-120268632D01*
X111139586Y-120246758D01*
X111004282Y-120135718D01*
X110871370Y-119973763D01*
X110871368Y-119973761D01*
X110772607Y-119788991D01*
X110711789Y-119588502D01*
X110691254Y-119380000D01*
X110711789Y-119171498D01*
X110772607Y-118971009D01*
X110871368Y-118786239D01*
X110893242Y-118759586D01*
X111004282Y-118624282D01*
X111166237Y-118491370D01*
X111166239Y-118491368D01*
X111351009Y-118392607D01*
X111551498Y-118331789D01*
X111707749Y-118316400D01*
X111812251Y-118316400D01*
X111968502Y-118331789D01*
X111968502Y-118331789D01*
G37*
G36*
X114508502Y-118331789D02*
X114708991Y-118392607D01*
X114893761Y-118491368D01*
X114893763Y-118491370D01*
X115055718Y-118624282D01*
X115166758Y-118759586D01*
X115188632Y-118786239D01*
X115287393Y-118971009D01*
X115348211Y-119171498D01*
X115368746Y-119380000D01*
X115348211Y-119588502D01*
X115287393Y-119788991D01*
X115188632Y-119973761D01*
X115188630Y-119973763D01*
X115055718Y-120135718D01*
X114920414Y-120246758D01*
X114893761Y-120268632D01*
X114708991Y-120367393D01*
X114508502Y-120428211D01*
X114352251Y-120443600D01*
X114247749Y-120443600D01*
X114091498Y-120428211D01*
X113891009Y-120367393D01*
X113706239Y-120268632D01*
X113679586Y-120246758D01*
X113544282Y-120135718D01*
X113411370Y-119973763D01*
X113411368Y-119973761D01*
X113312607Y-119788991D01*
X113251789Y-119588502D01*
X113231254Y-119380000D01*
X113251789Y-119171498D01*
X113312607Y-118971009D01*
X113411368Y-118786239D01*
X113433242Y-118759586D01*
X113544282Y-118624282D01*
X113706237Y-118491370D01*
X113706239Y-118491368D01*
X113891009Y-118392607D01*
X114091498Y-118331789D01*
X114247749Y-118316400D01*
X114352251Y-118316400D01*
X114508502Y-118331789D01*
X114508502Y-118331789D01*
G37*
G36*
X117048502Y-118331789D02*
X117248991Y-118392607D01*
X117433761Y-118491368D01*
X117433763Y-118491370D01*
X117595718Y-118624282D01*
X117706758Y-118759586D01*
X117728632Y-118786239D01*
X117827393Y-118971009D01*
X117888211Y-119171498D01*
X117908746Y-119380000D01*
X117888211Y-119588502D01*
X117827393Y-119788991D01*
X117728632Y-119973761D01*
X117728630Y-119973763D01*
X117595718Y-120135718D01*
X117460414Y-120246758D01*
X117433761Y-120268632D01*
X117248991Y-120367393D01*
X117048502Y-120428211D01*
X116892251Y-120443600D01*
X116787749Y-120443600D01*
X116631498Y-120428211D01*
X116431009Y-120367393D01*
X116246239Y-120268632D01*
X116219586Y-120246758D01*
X116084282Y-120135718D01*
X115951370Y-119973763D01*
X115951368Y-119973761D01*
X115852607Y-119788991D01*
X115791789Y-119588502D01*
X115771254Y-119380000D01*
X115791789Y-119171498D01*
X115852607Y-118971009D01*
X115951368Y-118786239D01*
X115973242Y-118759586D01*
X116084282Y-118624282D01*
X116246237Y-118491370D01*
X116246239Y-118491368D01*
X116431009Y-118392607D01*
X116631498Y-118331789D01*
X116787749Y-118316400D01*
X116892251Y-118316400D01*
X117048502Y-118331789D01*
X117048502Y-118331789D01*
G37*
G36*
X119588502Y-118331789D02*
X119788991Y-118392607D01*
X119973761Y-118491368D01*
X119973763Y-118491370D01*
X120135718Y-118624282D01*
X120246758Y-118759586D01*
X120268632Y-118786239D01*
X120367393Y-118971009D01*
X120428211Y-119171498D01*
X120448746Y-119380000D01*
X120428211Y-119588502D01*
X120367393Y-119788991D01*
X120268632Y-119973761D01*
X120268630Y-119973763D01*
X120135718Y-120135718D01*
X120000414Y-120246758D01*
X119973761Y-120268632D01*
X119788991Y-120367393D01*
X119588502Y-120428211D01*
X119432251Y-120443600D01*
X119327749Y-120443600D01*
X119171498Y-120428211D01*
X118971009Y-120367393D01*
X118786239Y-120268632D01*
X118759586Y-120246758D01*
X118624282Y-120135718D01*
X118491370Y-119973763D01*
X118491368Y-119973761D01*
X118392607Y-119788991D01*
X118331789Y-119588502D01*
X118311254Y-119380000D01*
X118331789Y-119171498D01*
X118392607Y-118971009D01*
X118491368Y-118786239D01*
X118513242Y-118759586D01*
X118624282Y-118624282D01*
X118786237Y-118491370D01*
X118786239Y-118491368D01*
X118971009Y-118392607D01*
X119171498Y-118331789D01*
X119327749Y-118316400D01*
X119432251Y-118316400D01*
X119588502Y-118331789D01*
X119588502Y-118331789D01*
G37*
G36*
X122128502Y-118331789D02*
X122328991Y-118392607D01*
X122513761Y-118491368D01*
X122513763Y-118491370D01*
X122675718Y-118624282D01*
X122786758Y-118759586D01*
X122808632Y-118786239D01*
X122907393Y-118971009D01*
X122968211Y-119171498D01*
X122988746Y-119380000D01*
X122968211Y-119588502D01*
X122907393Y-119788991D01*
X122808632Y-119973761D01*
X122808630Y-119973763D01*
X122675718Y-120135718D01*
X122540414Y-120246758D01*
X122513761Y-120268632D01*
X122328991Y-120367393D01*
X122128502Y-120428211D01*
X121972251Y-120443600D01*
X121867749Y-120443600D01*
X121711498Y-120428211D01*
X121511009Y-120367393D01*
X121326239Y-120268632D01*
X121299586Y-120246758D01*
X121164282Y-120135718D01*
X121031370Y-119973763D01*
X121031368Y-119973761D01*
X120932607Y-119788991D01*
X120871789Y-119588502D01*
X120851254Y-119380000D01*
X120871789Y-119171498D01*
X120932607Y-118971009D01*
X121031368Y-118786239D01*
X121053242Y-118759586D01*
X121164282Y-118624282D01*
X121326237Y-118491370D01*
X121326239Y-118491368D01*
X121511009Y-118392607D01*
X121711498Y-118331789D01*
X121867749Y-118316400D01*
X121972251Y-118316400D01*
X122128502Y-118331789D01*
X122128502Y-118331789D01*
G37*
G36*
X127208502Y-118331789D02*
X127408991Y-118392607D01*
X127593761Y-118491368D01*
X127593763Y-118491370D01*
X127755718Y-118624282D01*
X127866758Y-118759586D01*
X127888632Y-118786239D01*
X127987393Y-118971009D01*
X128048211Y-119171498D01*
X128068746Y-119380000D01*
X128048211Y-119588502D01*
X127987393Y-119788991D01*
X127888632Y-119973761D01*
X127888630Y-119973763D01*
X127755718Y-120135718D01*
X127620414Y-120246758D01*
X127593761Y-120268632D01*
X127408991Y-120367393D01*
X127208502Y-120428211D01*
X127052251Y-120443600D01*
X126947749Y-120443600D01*
X126791498Y-120428211D01*
X126591009Y-120367393D01*
X126406239Y-120268632D01*
X126379586Y-120246758D01*
X126244282Y-120135718D01*
X126111370Y-119973763D01*
X126111368Y-119973761D01*
X126012607Y-119788991D01*
X125951789Y-119588502D01*
X125931254Y-119380000D01*
X125951789Y-119171498D01*
X126012607Y-118971009D01*
X126111368Y-118786239D01*
X126133242Y-118759586D01*
X126244282Y-118624282D01*
X126406237Y-118491370D01*
X126406239Y-118491368D01*
X126591009Y-118392607D01*
X126791498Y-118331789D01*
X126947749Y-118316400D01*
X127052251Y-118316400D01*
X127208502Y-118331789D01*
X127208502Y-118331789D01*
G37*
G36*
X170388502Y-113251789D02*
X170588991Y-113312607D01*
X170773761Y-113411368D01*
X170773763Y-113411370D01*
X170935718Y-113544282D01*
X171046758Y-113679586D01*
X171068632Y-113706239D01*
X171167393Y-113891009D01*
X171228211Y-114091498D01*
X171248746Y-114300000D01*
X171228211Y-114508502D01*
X171167393Y-114708991D01*
X171068632Y-114893761D01*
X171068630Y-114893763D01*
X170935718Y-115055718D01*
X170800414Y-115166758D01*
X170773761Y-115188632D01*
X170588991Y-115287393D01*
X170388502Y-115348211D01*
X170232251Y-115363600D01*
X170127749Y-115363600D01*
X169971498Y-115348211D01*
X169771009Y-115287393D01*
X169586239Y-115188632D01*
X169559586Y-115166758D01*
X169424282Y-115055718D01*
X169291370Y-114893763D01*
X169291368Y-114893761D01*
X169192607Y-114708991D01*
X169131789Y-114508502D01*
X169111254Y-114300000D01*
X169131789Y-114091498D01*
X169192607Y-113891009D01*
X169291368Y-113706239D01*
X169313242Y-113679586D01*
X169424282Y-113544282D01*
X169586237Y-113411370D01*
X169586239Y-113411368D01*
X169771009Y-113312607D01*
X169971498Y-113251789D01*
X170127749Y-113236400D01*
X170232251Y-113236400D01*
X170388502Y-113251789D01*
X170388502Y-113251789D01*
G37*
G36*
X172928502Y-113251789D02*
X173128991Y-113312607D01*
X173313761Y-113411368D01*
X173313763Y-113411370D01*
X173475718Y-113544282D01*
X173586758Y-113679586D01*
X173608632Y-113706239D01*
X173707393Y-113891009D01*
X173768211Y-114091498D01*
X173788746Y-114300000D01*
X173768211Y-114508502D01*
X173707393Y-114708991D01*
X173608632Y-114893761D01*
X173608630Y-114893763D01*
X173475718Y-115055718D01*
X173340414Y-115166758D01*
X173313761Y-115188632D01*
X173128991Y-115287393D01*
X172928502Y-115348211D01*
X172772251Y-115363600D01*
X172667749Y-115363600D01*
X172511498Y-115348211D01*
X172311009Y-115287393D01*
X172126239Y-115188632D01*
X172099586Y-115166758D01*
X171964282Y-115055718D01*
X171831370Y-114893763D01*
X171831368Y-114893761D01*
X171732607Y-114708991D01*
X171671789Y-114508502D01*
X171651254Y-114300000D01*
X171671789Y-114091498D01*
X171732607Y-113891009D01*
X171831368Y-113706239D01*
X171853242Y-113679586D01*
X171964282Y-113544282D01*
X172126237Y-113411370D01*
X172126239Y-113411368D01*
X172311009Y-113312607D01*
X172511498Y-113251789D01*
X172667749Y-113236400D01*
X172772251Y-113236400D01*
X172928502Y-113251789D01*
X172928502Y-113251789D01*
G37*
G36*
X170388502Y-110711789D02*
X170588991Y-110772607D01*
X170773761Y-110871368D01*
X170773763Y-110871370D01*
X170935718Y-111004282D01*
X171046758Y-111139586D01*
X171068632Y-111166239D01*
X171167393Y-111351009D01*
X171228211Y-111551498D01*
X171248746Y-111760000D01*
X171228211Y-111968502D01*
X171167393Y-112168991D01*
X171068632Y-112353761D01*
X171068630Y-112353763D01*
X170935718Y-112515718D01*
X170800414Y-112626758D01*
X170773761Y-112648632D01*
X170588991Y-112747393D01*
X170388502Y-112808211D01*
X170232251Y-112823600D01*
X170127749Y-112823600D01*
X169971498Y-112808211D01*
X169771009Y-112747393D01*
X169586239Y-112648632D01*
X169559586Y-112626758D01*
X169424282Y-112515718D01*
X169291370Y-112353763D01*
X169291368Y-112353761D01*
X169192607Y-112168991D01*
X169131789Y-111968502D01*
X169111254Y-111760000D01*
X169131789Y-111551498D01*
X169192607Y-111351009D01*
X169291368Y-111166239D01*
X169313242Y-111139586D01*
X169424282Y-111004282D01*
X169586237Y-110871370D01*
X169586239Y-110871368D01*
X169771009Y-110772607D01*
X169971498Y-110711789D01*
X170127749Y-110696400D01*
X170232251Y-110696400D01*
X170388502Y-110711789D01*
X170388502Y-110711789D01*
G37*
G36*
X172928502Y-110711789D02*
X173128991Y-110772607D01*
X173313761Y-110871368D01*
X173313763Y-110871370D01*
X173475718Y-111004282D01*
X173586758Y-111139586D01*
X173608632Y-111166239D01*
X173707393Y-111351009D01*
X173768211Y-111551498D01*
X173788746Y-111760000D01*
X173768211Y-111968502D01*
X173707393Y-112168991D01*
X173608632Y-112353761D01*
X173608630Y-112353763D01*
X173475718Y-112515718D01*
X173340414Y-112626758D01*
X173313761Y-112648632D01*
X173128991Y-112747393D01*
X172928502Y-112808211D01*
X172772251Y-112823600D01*
X172667749Y-112823600D01*
X172511498Y-112808211D01*
X172311009Y-112747393D01*
X172126239Y-112648632D01*
X172099586Y-112626758D01*
X171964282Y-112515718D01*
X171831370Y-112353763D01*
X171831368Y-112353761D01*
X171732607Y-112168991D01*
X171671789Y-111968502D01*
X171651254Y-111760000D01*
X171671789Y-111551498D01*
X171732607Y-111351009D01*
X171831368Y-111166239D01*
X171853242Y-111139586D01*
X171964282Y-111004282D01*
X172126237Y-110871370D01*
X172126239Y-110871368D01*
X172311009Y-110772607D01*
X172511498Y-110711789D01*
X172667749Y-110696400D01*
X172772251Y-110696400D01*
X172928502Y-110711789D01*
X172928502Y-110711789D01*
G37*
G36*
X170388502Y-108171789D02*
X170588991Y-108232607D01*
X170773761Y-108331368D01*
X170773763Y-108331370D01*
X170935718Y-108464282D01*
X171046758Y-108599586D01*
X171068632Y-108626239D01*
X171167393Y-108811009D01*
X171228211Y-109011498D01*
X171248746Y-109220000D01*
X171228211Y-109428502D01*
X171167393Y-109628991D01*
X171068632Y-109813761D01*
X171068630Y-109813763D01*
X170935718Y-109975718D01*
X170800414Y-110086758D01*
X170773761Y-110108632D01*
X170588991Y-110207393D01*
X170388502Y-110268211D01*
X170232251Y-110283600D01*
X170127749Y-110283600D01*
X169971498Y-110268211D01*
X169771009Y-110207393D01*
X169586239Y-110108632D01*
X169559586Y-110086758D01*
X169424282Y-109975718D01*
X169291370Y-109813763D01*
X169291368Y-109813761D01*
X169192607Y-109628991D01*
X169131789Y-109428502D01*
X169111254Y-109220000D01*
X169131789Y-109011498D01*
X169192607Y-108811009D01*
X169291368Y-108626239D01*
X169313242Y-108599586D01*
X169424282Y-108464282D01*
X169586237Y-108331370D01*
X169586239Y-108331368D01*
X169771009Y-108232607D01*
X169971498Y-108171789D01*
X170127749Y-108156400D01*
X170232251Y-108156400D01*
X170388502Y-108171789D01*
X170388502Y-108171789D01*
G37*
G36*
X172928502Y-108171789D02*
X173128991Y-108232607D01*
X173313761Y-108331368D01*
X173313763Y-108331370D01*
X173475718Y-108464282D01*
X173586758Y-108599586D01*
X173608632Y-108626239D01*
X173707393Y-108811009D01*
X173768211Y-109011498D01*
X173788746Y-109220000D01*
X173768211Y-109428502D01*
X173707393Y-109628991D01*
X173608632Y-109813761D01*
X173608630Y-109813763D01*
X173475718Y-109975718D01*
X173340414Y-110086758D01*
X173313761Y-110108632D01*
X173128991Y-110207393D01*
X172928502Y-110268211D01*
X172772251Y-110283600D01*
X172667749Y-110283600D01*
X172511498Y-110268211D01*
X172311009Y-110207393D01*
X172126239Y-110108632D01*
X172099586Y-110086758D01*
X171964282Y-109975718D01*
X171831370Y-109813763D01*
X171831368Y-109813761D01*
X171732607Y-109628991D01*
X171671789Y-109428502D01*
X171651254Y-109220000D01*
X171671789Y-109011498D01*
X171732607Y-108811009D01*
X171831368Y-108626239D01*
X171853242Y-108599586D01*
X171964282Y-108464282D01*
X172126237Y-108331370D01*
X172126239Y-108331368D01*
X172311009Y-108232607D01*
X172511498Y-108171789D01*
X172667749Y-108156400D01*
X172772251Y-108156400D01*
X172928502Y-108171789D01*
X172928502Y-108171789D01*
G37*
G36*
X170388502Y-105631789D02*
X170588991Y-105692607D01*
X170773761Y-105791368D01*
X170773763Y-105791370D01*
X170935718Y-105924282D01*
X171046758Y-106059586D01*
X171068632Y-106086239D01*
X171167393Y-106271009D01*
X171228211Y-106471498D01*
X171248746Y-106680000D01*
X171228211Y-106888502D01*
X171167393Y-107088991D01*
X171068632Y-107273761D01*
X171068630Y-107273763D01*
X170935718Y-107435718D01*
X170800414Y-107546758D01*
X170773761Y-107568632D01*
X170588991Y-107667393D01*
X170388502Y-107728211D01*
X170232251Y-107743600D01*
X170127749Y-107743600D01*
X169971498Y-107728211D01*
X169771009Y-107667393D01*
X169586239Y-107568632D01*
X169559586Y-107546758D01*
X169424282Y-107435718D01*
X169291370Y-107273763D01*
X169291368Y-107273761D01*
X169192607Y-107088991D01*
X169131789Y-106888502D01*
X169111254Y-106680000D01*
X169131789Y-106471498D01*
X169192607Y-106271009D01*
X169291368Y-106086239D01*
X169313242Y-106059586D01*
X169424282Y-105924282D01*
X169586237Y-105791370D01*
X169586239Y-105791368D01*
X169771009Y-105692607D01*
X169971498Y-105631789D01*
X170127749Y-105616400D01*
X170232251Y-105616400D01*
X170388502Y-105631789D01*
X170388502Y-105631789D01*
G37*
G36*
X172928502Y-105631789D02*
X173128991Y-105692607D01*
X173313761Y-105791368D01*
X173313763Y-105791370D01*
X173475718Y-105924282D01*
X173586758Y-106059586D01*
X173608632Y-106086239D01*
X173707393Y-106271009D01*
X173768211Y-106471498D01*
X173788746Y-106680000D01*
X173768211Y-106888502D01*
X173707393Y-107088991D01*
X173608632Y-107273761D01*
X173608630Y-107273763D01*
X173475718Y-107435718D01*
X173340414Y-107546758D01*
X173313761Y-107568632D01*
X173128991Y-107667393D01*
X172928502Y-107728211D01*
X172772251Y-107743600D01*
X172667749Y-107743600D01*
X172511498Y-107728211D01*
X172311009Y-107667393D01*
X172126239Y-107568632D01*
X172099586Y-107546758D01*
X171964282Y-107435718D01*
X171831370Y-107273763D01*
X171831368Y-107273761D01*
X171732607Y-107088991D01*
X171671789Y-106888502D01*
X171651254Y-106680000D01*
X171671789Y-106471498D01*
X171732607Y-106271009D01*
X171831368Y-106086239D01*
X171853242Y-106059586D01*
X171964282Y-105924282D01*
X172126237Y-105791370D01*
X172126239Y-105791368D01*
X172311009Y-105692607D01*
X172511498Y-105631789D01*
X172667749Y-105616400D01*
X172772251Y-105616400D01*
X172928502Y-105631789D01*
X172928502Y-105631789D01*
G37*
G36*
X172928502Y-103091789D02*
X173128991Y-103152607D01*
X173313761Y-103251368D01*
X173313763Y-103251370D01*
X173475718Y-103384282D01*
X173586758Y-103519586D01*
X173608632Y-103546239D01*
X173707393Y-103731009D01*
X173768211Y-103931498D01*
X173788746Y-104140000D01*
X173768211Y-104348502D01*
X173707393Y-104548991D01*
X173608632Y-104733761D01*
X173608630Y-104733763D01*
X173475718Y-104895718D01*
X173340414Y-105006758D01*
X173313761Y-105028632D01*
X173128991Y-105127393D01*
X172928502Y-105188211D01*
X172772251Y-105203600D01*
X172667749Y-105203600D01*
X172511498Y-105188211D01*
X172311009Y-105127393D01*
X172126239Y-105028632D01*
X172099586Y-105006758D01*
X171964282Y-104895718D01*
X171831370Y-104733763D01*
X171831368Y-104733761D01*
X171732607Y-104548991D01*
X171671789Y-104348502D01*
X171651254Y-104140000D01*
X171671789Y-103931498D01*
X171732607Y-103731009D01*
X171831368Y-103546239D01*
X171853242Y-103519586D01*
X171964282Y-103384282D01*
X172126237Y-103251370D01*
X172126239Y-103251368D01*
X172311009Y-103152607D01*
X172511498Y-103091789D01*
X172667749Y-103076400D01*
X172772251Y-103076400D01*
X172928502Y-103091789D01*
X172928502Y-103091789D01*
G37*
G36*
X170388502Y-103091789D02*
X170588991Y-103152607D01*
X170773761Y-103251368D01*
X170773763Y-103251370D01*
X170935718Y-103384282D01*
X171046758Y-103519586D01*
X171068632Y-103546239D01*
X171167393Y-103731009D01*
X171228211Y-103931498D01*
X171248746Y-104140000D01*
X171228211Y-104348502D01*
X171167393Y-104548991D01*
X171068632Y-104733761D01*
X171068630Y-104733763D01*
X170935718Y-104895718D01*
X170800414Y-105006758D01*
X170773761Y-105028632D01*
X170588991Y-105127393D01*
X170388502Y-105188211D01*
X170232251Y-105203600D01*
X170127749Y-105203600D01*
X169971498Y-105188211D01*
X169771009Y-105127393D01*
X169586239Y-105028632D01*
X169559586Y-105006758D01*
X169424282Y-104895718D01*
X169291370Y-104733763D01*
X169291368Y-104733761D01*
X169192607Y-104548991D01*
X169131789Y-104348502D01*
X169111254Y-104140000D01*
X169131789Y-103931498D01*
X169192607Y-103731009D01*
X169291368Y-103546239D01*
X169313242Y-103519586D01*
X169424282Y-103384282D01*
X169586237Y-103251370D01*
X169586239Y-103251368D01*
X169771009Y-103152607D01*
X169971498Y-103091789D01*
X170127749Y-103076400D01*
X170232251Y-103076400D01*
X170388502Y-103091789D01*
X170388502Y-103091789D01*
G37*
G36*
X170388502Y-100551789D02*
X170588991Y-100612607D01*
X170773761Y-100711368D01*
X170773763Y-100711370D01*
X170935718Y-100844282D01*
X171046758Y-100979586D01*
X171068632Y-101006239D01*
X171167393Y-101191009D01*
X171228211Y-101391498D01*
X171248746Y-101600000D01*
X171228211Y-101808502D01*
X171167393Y-102008991D01*
X171068632Y-102193761D01*
X171068630Y-102193763D01*
X170935718Y-102355718D01*
X170800414Y-102466758D01*
X170773761Y-102488632D01*
X170588991Y-102587393D01*
X170388502Y-102648211D01*
X170232251Y-102663600D01*
X170127749Y-102663600D01*
X169971498Y-102648211D01*
X169771009Y-102587393D01*
X169586239Y-102488632D01*
X169559586Y-102466758D01*
X169424282Y-102355718D01*
X169291370Y-102193763D01*
X169291368Y-102193761D01*
X169192607Y-102008991D01*
X169131789Y-101808502D01*
X169111254Y-101600000D01*
X169131789Y-101391498D01*
X169192607Y-101191009D01*
X169291368Y-101006239D01*
X169313242Y-100979586D01*
X169424282Y-100844282D01*
X169586237Y-100711370D01*
X169586239Y-100711368D01*
X169771009Y-100612607D01*
X169971498Y-100551789D01*
X170127749Y-100536400D01*
X170232251Y-100536400D01*
X170388502Y-100551789D01*
X170388502Y-100551789D01*
G37*
G36*
X172928502Y-100551789D02*
X173128991Y-100612607D01*
X173313761Y-100711368D01*
X173313763Y-100711370D01*
X173475718Y-100844282D01*
X173586758Y-100979586D01*
X173608632Y-101006239D01*
X173707393Y-101191009D01*
X173768211Y-101391498D01*
X173788746Y-101600000D01*
X173768211Y-101808502D01*
X173707393Y-102008991D01*
X173608632Y-102193761D01*
X173608630Y-102193763D01*
X173475718Y-102355718D01*
X173340414Y-102466758D01*
X173313761Y-102488632D01*
X173128991Y-102587393D01*
X172928502Y-102648211D01*
X172772251Y-102663600D01*
X172667749Y-102663600D01*
X172511498Y-102648211D01*
X172311009Y-102587393D01*
X172126239Y-102488632D01*
X172099586Y-102466758D01*
X171964282Y-102355718D01*
X171831370Y-102193763D01*
X171831368Y-102193761D01*
X171732607Y-102008991D01*
X171671789Y-101808502D01*
X171651254Y-101600000D01*
X171671789Y-101391498D01*
X171732607Y-101191009D01*
X171831368Y-101006239D01*
X171853242Y-100979586D01*
X171964282Y-100844282D01*
X172126237Y-100711370D01*
X172126239Y-100711368D01*
X172311009Y-100612607D01*
X172511498Y-100551789D01*
X172667749Y-100536400D01*
X172772251Y-100536400D01*
X172928502Y-100551789D01*
X172928502Y-100551789D01*
G37*
G36*
X117075241Y-98847363D02*
X117301442Y-98915980D01*
X117509911Y-99027409D01*
X117692634Y-99177366D01*
X117842591Y-99360089D01*
X117954020Y-99568558D01*
X118022637Y-99794760D01*
X118040000Y-99971050D01*
X118040000Y-100688951D01*
X118022637Y-100865241D01*
X117954020Y-101091442D01*
X117842591Y-101299911D01*
X117767427Y-101391498D01*
X117692634Y-101482634D01*
X117549622Y-101600000D01*
X117509907Y-101632593D01*
X117301441Y-101744020D01*
X117075240Y-101812637D01*
X116840000Y-101835806D01*
X116604759Y-101812637D01*
X116591128Y-101808502D01*
X116378558Y-101744020D01*
X116170089Y-101632591D01*
X116053184Y-101536649D01*
X115987366Y-101482634D01*
X115868726Y-101338070D01*
X115837407Y-101299907D01*
X115725980Y-101091441D01*
X115657363Y-100865240D01*
X115640000Y-100688950D01*
X115640000Y-99971049D01*
X115657363Y-99794759D01*
X115725980Y-99568558D01*
X115837410Y-99360089D01*
X115987367Y-99177366D01*
X116170090Y-99027409D01*
X116378559Y-98915980D01*
X116604760Y-98847363D01*
X116840000Y-98824194D01*
X117075241Y-98847363D01*
X117075241Y-98847363D01*
G37*
G36*
X127235241Y-98847363D02*
X127461442Y-98915980D01*
X127669911Y-99027409D01*
X127852634Y-99177366D01*
X128002591Y-99360089D01*
X128114020Y-99568558D01*
X128182637Y-99794760D01*
X128200000Y-99971050D01*
X128200000Y-100688951D01*
X128182637Y-100865241D01*
X128114020Y-101091442D01*
X128002591Y-101299911D01*
X127927427Y-101391498D01*
X127852634Y-101482634D01*
X127709622Y-101600000D01*
X127669907Y-101632593D01*
X127461441Y-101744020D01*
X127235240Y-101812637D01*
X127000000Y-101835806D01*
X126764759Y-101812637D01*
X126751128Y-101808502D01*
X126538558Y-101744020D01*
X126330089Y-101632591D01*
X126213184Y-101536649D01*
X126147366Y-101482634D01*
X126028726Y-101338070D01*
X125997407Y-101299907D01*
X125885980Y-101091441D01*
X125817363Y-100865240D01*
X125800000Y-100688950D01*
X125800000Y-99971049D01*
X125817363Y-99794759D01*
X125885980Y-99568558D01*
X125997410Y-99360089D01*
X126147367Y-99177366D01*
X126330090Y-99027409D01*
X126538559Y-98915980D01*
X126764760Y-98847363D01*
X127000000Y-98824194D01*
X127235241Y-98847363D01*
X127235241Y-98847363D01*
G37*
G36*
X124695241Y-98847363D02*
X124921442Y-98915980D01*
X125129911Y-99027409D01*
X125312634Y-99177366D01*
X125462591Y-99360089D01*
X125574020Y-99568558D01*
X125642637Y-99794760D01*
X125660000Y-99971050D01*
X125660000Y-100688951D01*
X125642637Y-100865241D01*
X125574020Y-101091442D01*
X125462591Y-101299911D01*
X125387427Y-101391498D01*
X125312634Y-101482634D01*
X125169622Y-101600000D01*
X125129907Y-101632593D01*
X124921441Y-101744020D01*
X124695240Y-101812637D01*
X124460000Y-101835806D01*
X124224759Y-101812637D01*
X124211128Y-101808502D01*
X123998558Y-101744020D01*
X123790089Y-101632591D01*
X123673184Y-101536649D01*
X123607366Y-101482634D01*
X123488726Y-101338070D01*
X123457407Y-101299907D01*
X123345980Y-101091441D01*
X123277363Y-100865240D01*
X123260000Y-100688950D01*
X123260000Y-99971049D01*
X123277363Y-99794759D01*
X123345980Y-99568558D01*
X123457410Y-99360089D01*
X123607367Y-99177366D01*
X123790090Y-99027409D01*
X123998559Y-98915980D01*
X124224760Y-98847363D01*
X124460000Y-98824194D01*
X124695241Y-98847363D01*
X124695241Y-98847363D01*
G37*
G36*
X122155241Y-98847363D02*
X122381442Y-98915980D01*
X122589911Y-99027409D01*
X122772634Y-99177366D01*
X122922591Y-99360089D01*
X123034020Y-99568558D01*
X123102637Y-99794760D01*
X123120000Y-99971050D01*
X123120000Y-100688951D01*
X123102637Y-100865241D01*
X123034020Y-101091442D01*
X122922591Y-101299911D01*
X122847427Y-101391498D01*
X122772634Y-101482634D01*
X122629622Y-101600000D01*
X122589907Y-101632593D01*
X122381441Y-101744020D01*
X122155240Y-101812637D01*
X121920000Y-101835806D01*
X121684759Y-101812637D01*
X121671128Y-101808502D01*
X121458558Y-101744020D01*
X121250089Y-101632591D01*
X121133184Y-101536649D01*
X121067366Y-101482634D01*
X120948726Y-101338070D01*
X120917407Y-101299907D01*
X120805980Y-101091441D01*
X120737363Y-100865240D01*
X120720000Y-100688950D01*
X120720000Y-99971049D01*
X120737363Y-99794759D01*
X120805980Y-99568558D01*
X120917410Y-99360089D01*
X121067367Y-99177366D01*
X121250090Y-99027409D01*
X121458559Y-98915980D01*
X121684760Y-98847363D01*
X121920000Y-98824194D01*
X122155241Y-98847363D01*
X122155241Y-98847363D01*
G37*
G36*
X119615241Y-98847363D02*
X119841442Y-98915980D01*
X120049911Y-99027409D01*
X120232634Y-99177366D01*
X120382591Y-99360089D01*
X120494020Y-99568558D01*
X120562637Y-99794760D01*
X120580000Y-99971050D01*
X120580000Y-100688951D01*
X120562637Y-100865241D01*
X120494020Y-101091442D01*
X120382591Y-101299911D01*
X120307427Y-101391498D01*
X120232634Y-101482634D01*
X120089622Y-101600000D01*
X120049907Y-101632593D01*
X119841441Y-101744020D01*
X119615240Y-101812637D01*
X119380000Y-101835806D01*
X119144759Y-101812637D01*
X119131128Y-101808502D01*
X118918558Y-101744020D01*
X118710089Y-101632591D01*
X118593184Y-101536649D01*
X118527366Y-101482634D01*
X118408726Y-101338070D01*
X118377407Y-101299907D01*
X118265980Y-101091441D01*
X118197363Y-100865240D01*
X118180000Y-100688950D01*
X118180000Y-99971049D01*
X118197363Y-99794759D01*
X118265980Y-99568558D01*
X118377410Y-99360089D01*
X118527367Y-99177366D01*
X118710090Y-99027409D01*
X118918559Y-98915980D01*
X119144760Y-98847363D01*
X119380000Y-98824194D01*
X119615241Y-98847363D01*
X119615241Y-98847363D01*
G37*
G36*
X114535241Y-98847363D02*
X114761442Y-98915980D01*
X114969911Y-99027409D01*
X115152634Y-99177366D01*
X115302591Y-99360089D01*
X115414020Y-99568558D01*
X115482637Y-99794760D01*
X115500000Y-99971050D01*
X115500000Y-100688951D01*
X115482637Y-100865241D01*
X115414020Y-101091442D01*
X115302591Y-101299911D01*
X115227427Y-101391498D01*
X115152634Y-101482634D01*
X115009622Y-101600000D01*
X114969907Y-101632593D01*
X114761441Y-101744020D01*
X114535240Y-101812637D01*
X114300000Y-101835806D01*
X114064759Y-101812637D01*
X114051128Y-101808502D01*
X113838558Y-101744020D01*
X113630089Y-101632591D01*
X113513184Y-101536649D01*
X113447366Y-101482634D01*
X113328726Y-101338070D01*
X113297407Y-101299907D01*
X113185980Y-101091441D01*
X113117363Y-100865240D01*
X113100000Y-100688950D01*
X113100000Y-99971049D01*
X113117363Y-99794759D01*
X113185980Y-99568558D01*
X113297410Y-99360089D01*
X113447367Y-99177366D01*
X113630090Y-99027409D01*
X113838559Y-98915980D01*
X114064760Y-98847363D01*
X114300000Y-98824194D01*
X114535241Y-98847363D01*
X114535241Y-98847363D01*
G37*
G36*
X111995241Y-98847363D02*
X112221442Y-98915980D01*
X112429911Y-99027409D01*
X112612634Y-99177366D01*
X112762591Y-99360089D01*
X112874020Y-99568558D01*
X112942637Y-99794760D01*
X112960000Y-99971050D01*
X112960000Y-100688951D01*
X112942637Y-100865241D01*
X112874020Y-101091442D01*
X112762591Y-101299911D01*
X112687427Y-101391498D01*
X112612634Y-101482634D01*
X112469622Y-101600000D01*
X112429907Y-101632593D01*
X112221441Y-101744020D01*
X111995240Y-101812637D01*
X111760000Y-101835806D01*
X111524759Y-101812637D01*
X111511128Y-101808502D01*
X111298558Y-101744020D01*
X111090089Y-101632591D01*
X110973184Y-101536649D01*
X110907366Y-101482634D01*
X110788726Y-101338070D01*
X110757407Y-101299907D01*
X110645980Y-101091441D01*
X110577363Y-100865240D01*
X110560000Y-100688950D01*
X110560000Y-99971049D01*
X110577363Y-99794759D01*
X110645980Y-99568558D01*
X110757410Y-99360089D01*
X110907367Y-99177366D01*
X111090090Y-99027409D01*
X111298559Y-98915980D01*
X111524760Y-98847363D01*
X111760000Y-98824194D01*
X111995241Y-98847363D01*
X111995241Y-98847363D01*
G37*
G36*
X130740000Y-101830000D02*
X128340000Y-101830000D01*
X128340000Y-98830000D01*
X130740000Y-98830000D01*
X130740000Y-101830000D01*
X130740000Y-101830000D01*
G37*
G36*
X170388502Y-98011789D02*
X170588991Y-98072607D01*
X170773761Y-98171368D01*
X170773763Y-98171370D01*
X170935718Y-98304282D01*
X171046758Y-98439586D01*
X171068632Y-98466239D01*
X171167393Y-98651009D01*
X171228211Y-98851498D01*
X171248746Y-99060000D01*
X171228211Y-99268502D01*
X171167393Y-99468991D01*
X171068632Y-99653761D01*
X171068630Y-99653763D01*
X170935718Y-99815718D01*
X170800414Y-99926758D01*
X170773761Y-99948632D01*
X170588991Y-100047393D01*
X170388502Y-100108211D01*
X170232251Y-100123600D01*
X170127749Y-100123600D01*
X169971498Y-100108211D01*
X169771009Y-100047393D01*
X169586239Y-99948632D01*
X169559586Y-99926758D01*
X169424282Y-99815718D01*
X169291370Y-99653763D01*
X169291368Y-99653761D01*
X169192607Y-99468991D01*
X169131789Y-99268502D01*
X169111254Y-99060000D01*
X169131789Y-98851498D01*
X169192607Y-98651009D01*
X169291368Y-98466239D01*
X169313242Y-98439586D01*
X169424282Y-98304282D01*
X169586237Y-98171370D01*
X169586239Y-98171368D01*
X169771009Y-98072607D01*
X169971498Y-98011789D01*
X170127749Y-97996400D01*
X170232251Y-97996400D01*
X170388502Y-98011789D01*
X170388502Y-98011789D01*
G37*
G36*
X172928502Y-98011789D02*
X173128991Y-98072607D01*
X173313761Y-98171368D01*
X173313763Y-98171370D01*
X173475718Y-98304282D01*
X173586758Y-98439586D01*
X173608632Y-98466239D01*
X173707393Y-98651009D01*
X173768211Y-98851498D01*
X173788746Y-99060000D01*
X173768211Y-99268502D01*
X173707393Y-99468991D01*
X173608632Y-99653761D01*
X173608630Y-99653763D01*
X173475718Y-99815718D01*
X173340414Y-99926758D01*
X173313761Y-99948632D01*
X173128991Y-100047393D01*
X172928502Y-100108211D01*
X172772251Y-100123600D01*
X172667749Y-100123600D01*
X172511498Y-100108211D01*
X172311009Y-100047393D01*
X172126239Y-99948632D01*
X172099586Y-99926758D01*
X171964282Y-99815718D01*
X171831370Y-99653763D01*
X171831368Y-99653761D01*
X171732607Y-99468991D01*
X171671789Y-99268502D01*
X171651254Y-99060000D01*
X171671789Y-98851498D01*
X171732607Y-98651009D01*
X171831368Y-98466239D01*
X171853242Y-98439586D01*
X171964282Y-98304282D01*
X172126237Y-98171370D01*
X172126239Y-98171368D01*
X172311009Y-98072607D01*
X172511498Y-98011789D01*
X172667749Y-97996400D01*
X172772251Y-97996400D01*
X172928502Y-98011789D01*
X172928502Y-98011789D01*
G37*
G36*
X172928502Y-95471789D02*
X173128991Y-95532607D01*
X173313761Y-95631368D01*
X173313763Y-95631370D01*
X173475718Y-95764282D01*
X173586758Y-95899586D01*
X173608632Y-95926239D01*
X173707393Y-96111009D01*
X173768211Y-96311498D01*
X173788746Y-96520000D01*
X173768211Y-96728502D01*
X173707393Y-96928991D01*
X173608632Y-97113761D01*
X173608630Y-97113763D01*
X173475718Y-97275718D01*
X173340414Y-97386758D01*
X173313761Y-97408632D01*
X173128991Y-97507393D01*
X172928502Y-97568211D01*
X172772251Y-97583600D01*
X172667749Y-97583600D01*
X172511498Y-97568211D01*
X172311009Y-97507393D01*
X172126239Y-97408632D01*
X172099586Y-97386758D01*
X171964282Y-97275718D01*
X171831370Y-97113763D01*
X171831368Y-97113761D01*
X171732607Y-96928991D01*
X171671789Y-96728502D01*
X171651254Y-96520000D01*
X171671789Y-96311498D01*
X171732607Y-96111009D01*
X171831368Y-95926239D01*
X171853242Y-95899586D01*
X171964282Y-95764282D01*
X172126237Y-95631370D01*
X172126239Y-95631368D01*
X172311009Y-95532607D01*
X172511498Y-95471789D01*
X172667749Y-95456400D01*
X172772251Y-95456400D01*
X172928502Y-95471789D01*
X172928502Y-95471789D01*
G37*
G36*
X170388502Y-95471789D02*
X170588991Y-95532607D01*
X170773761Y-95631368D01*
X170773763Y-95631370D01*
X170935718Y-95764282D01*
X171046758Y-95899586D01*
X171068632Y-95926239D01*
X171167393Y-96111009D01*
X171228211Y-96311498D01*
X171248746Y-96520000D01*
X171228211Y-96728502D01*
X171167393Y-96928991D01*
X171068632Y-97113761D01*
X171068630Y-97113763D01*
X170935718Y-97275718D01*
X170800414Y-97386758D01*
X170773761Y-97408632D01*
X170588991Y-97507393D01*
X170388502Y-97568211D01*
X170232251Y-97583600D01*
X170127749Y-97583600D01*
X169971498Y-97568211D01*
X169771009Y-97507393D01*
X169586239Y-97408632D01*
X169559586Y-97386758D01*
X169424282Y-97275718D01*
X169291370Y-97113763D01*
X169291368Y-97113761D01*
X169192607Y-96928991D01*
X169131789Y-96728502D01*
X169111254Y-96520000D01*
X169131789Y-96311498D01*
X169192607Y-96111009D01*
X169291368Y-95926239D01*
X169313242Y-95899586D01*
X169424282Y-95764282D01*
X169586237Y-95631370D01*
X169586239Y-95631368D01*
X169771009Y-95532607D01*
X169971498Y-95471789D01*
X170127749Y-95456400D01*
X170232251Y-95456400D01*
X170388502Y-95471789D01*
X170388502Y-95471789D01*
G37*
G36*
X170388502Y-92931789D02*
X170588991Y-92992607D01*
X170773761Y-93091368D01*
X170773763Y-93091370D01*
X170935718Y-93224282D01*
X171046758Y-93359586D01*
X171068632Y-93386239D01*
X171167393Y-93571009D01*
X171228211Y-93771498D01*
X171248746Y-93980000D01*
X171228211Y-94188502D01*
X171167393Y-94388991D01*
X171068632Y-94573761D01*
X171068630Y-94573763D01*
X170935718Y-94735718D01*
X170800414Y-94846758D01*
X170773761Y-94868632D01*
X170588991Y-94967393D01*
X170388502Y-95028211D01*
X170232251Y-95043600D01*
X170127749Y-95043600D01*
X169971498Y-95028211D01*
X169771009Y-94967393D01*
X169586239Y-94868632D01*
X169559586Y-94846758D01*
X169424282Y-94735718D01*
X169291370Y-94573763D01*
X169291368Y-94573761D01*
X169192607Y-94388991D01*
X169131789Y-94188502D01*
X169111254Y-93980000D01*
X169131789Y-93771498D01*
X169192607Y-93571009D01*
X169291368Y-93386239D01*
X169313242Y-93359586D01*
X169424282Y-93224282D01*
X169586237Y-93091370D01*
X169586239Y-93091368D01*
X169771009Y-92992607D01*
X169971498Y-92931789D01*
X170127749Y-92916400D01*
X170232251Y-92916400D01*
X170388502Y-92931789D01*
X170388502Y-92931789D01*
G37*
G36*
X172928502Y-92931789D02*
X173128991Y-92992607D01*
X173313761Y-93091368D01*
X173313763Y-93091370D01*
X173475718Y-93224282D01*
X173586758Y-93359586D01*
X173608632Y-93386239D01*
X173707393Y-93571009D01*
X173768211Y-93771498D01*
X173788746Y-93980000D01*
X173768211Y-94188502D01*
X173707393Y-94388991D01*
X173608632Y-94573761D01*
X173608630Y-94573763D01*
X173475718Y-94735718D01*
X173340414Y-94846758D01*
X173313761Y-94868632D01*
X173128991Y-94967393D01*
X172928502Y-95028211D01*
X172772251Y-95043600D01*
X172667749Y-95043600D01*
X172511498Y-95028211D01*
X172311009Y-94967393D01*
X172126239Y-94868632D01*
X172099586Y-94846758D01*
X171964282Y-94735718D01*
X171831370Y-94573763D01*
X171831368Y-94573761D01*
X171732607Y-94388991D01*
X171671789Y-94188502D01*
X171651254Y-93980000D01*
X171671789Y-93771498D01*
X171732607Y-93571009D01*
X171831368Y-93386239D01*
X171853242Y-93359586D01*
X171964282Y-93224282D01*
X172126237Y-93091370D01*
X172126239Y-93091368D01*
X172311009Y-92992607D01*
X172511498Y-92931789D01*
X172667749Y-92916400D01*
X172772251Y-92916400D01*
X172928502Y-92931789D01*
X172928502Y-92931789D01*
G37*
G36*
X172928502Y-90391789D02*
X173128991Y-90452607D01*
X173313761Y-90551368D01*
X173313763Y-90551370D01*
X173475718Y-90684282D01*
X173586758Y-90819586D01*
X173608632Y-90846239D01*
X173707393Y-91031009D01*
X173768211Y-91231498D01*
X173788746Y-91440000D01*
X173768211Y-91648502D01*
X173707393Y-91848991D01*
X173608632Y-92033761D01*
X173608630Y-92033763D01*
X173475718Y-92195718D01*
X173340414Y-92306758D01*
X173313761Y-92328632D01*
X173128991Y-92427393D01*
X172928502Y-92488211D01*
X172772251Y-92503600D01*
X172667749Y-92503600D01*
X172511498Y-92488211D01*
X172311009Y-92427393D01*
X172126239Y-92328632D01*
X172099586Y-92306758D01*
X171964282Y-92195718D01*
X171831370Y-92033763D01*
X171831368Y-92033761D01*
X171732607Y-91848991D01*
X171671789Y-91648502D01*
X171651254Y-91440000D01*
X171671789Y-91231498D01*
X171732607Y-91031009D01*
X171831368Y-90846239D01*
X171853242Y-90819586D01*
X171964282Y-90684282D01*
X172126237Y-90551370D01*
X172126239Y-90551368D01*
X172311009Y-90452607D01*
X172511498Y-90391789D01*
X172667749Y-90376400D01*
X172772251Y-90376400D01*
X172928502Y-90391789D01*
X172928502Y-90391789D01*
G37*
G36*
X170388502Y-90391789D02*
X170588991Y-90452607D01*
X170773761Y-90551368D01*
X170773763Y-90551370D01*
X170935718Y-90684282D01*
X171046758Y-90819586D01*
X171068632Y-90846239D01*
X171167393Y-91031009D01*
X171228211Y-91231498D01*
X171248746Y-91440000D01*
X171228211Y-91648502D01*
X171167393Y-91848991D01*
X171068632Y-92033761D01*
X171068630Y-92033763D01*
X170935718Y-92195718D01*
X170800414Y-92306758D01*
X170773761Y-92328632D01*
X170588991Y-92427393D01*
X170388502Y-92488211D01*
X170232251Y-92503600D01*
X170127749Y-92503600D01*
X169971498Y-92488211D01*
X169771009Y-92427393D01*
X169586239Y-92328632D01*
X169559586Y-92306758D01*
X169424282Y-92195718D01*
X169291370Y-92033763D01*
X169291368Y-92033761D01*
X169192607Y-91848991D01*
X169131789Y-91648502D01*
X169111254Y-91440000D01*
X169131789Y-91231498D01*
X169192607Y-91031009D01*
X169291368Y-90846239D01*
X169313242Y-90819586D01*
X169424282Y-90684282D01*
X169586237Y-90551370D01*
X169586239Y-90551368D01*
X169771009Y-90452607D01*
X169971498Y-90391789D01*
X170127749Y-90376400D01*
X170232251Y-90376400D01*
X170388502Y-90391789D01*
X170388502Y-90391789D01*
G37*
G36*
X172928502Y-87851789D02*
X173128991Y-87912607D01*
X173313761Y-88011368D01*
X173313763Y-88011370D01*
X173475718Y-88144282D01*
X173586758Y-88279586D01*
X173608632Y-88306239D01*
X173707393Y-88491009D01*
X173768211Y-88691498D01*
X173788746Y-88900000D01*
X173768211Y-89108502D01*
X173707393Y-89308991D01*
X173608632Y-89493761D01*
X173608630Y-89493763D01*
X173475718Y-89655718D01*
X173340414Y-89766758D01*
X173313761Y-89788632D01*
X173128991Y-89887393D01*
X172928502Y-89948211D01*
X172772251Y-89963600D01*
X172667749Y-89963600D01*
X172511498Y-89948211D01*
X172311009Y-89887393D01*
X172126239Y-89788632D01*
X172099586Y-89766758D01*
X171964282Y-89655718D01*
X171831370Y-89493763D01*
X171831368Y-89493761D01*
X171732607Y-89308991D01*
X171671789Y-89108502D01*
X171651254Y-88900000D01*
X171671789Y-88691498D01*
X171732607Y-88491009D01*
X171831368Y-88306239D01*
X171853242Y-88279586D01*
X171964282Y-88144282D01*
X172126237Y-88011370D01*
X172126239Y-88011368D01*
X172311009Y-87912607D01*
X172511498Y-87851789D01*
X172667749Y-87836400D01*
X172772251Y-87836400D01*
X172928502Y-87851789D01*
X172928502Y-87851789D01*
G37*
G36*
X170388502Y-87851789D02*
X170588991Y-87912607D01*
X170773761Y-88011368D01*
X170773763Y-88011370D01*
X170935718Y-88144282D01*
X171046758Y-88279586D01*
X171068632Y-88306239D01*
X171167393Y-88491009D01*
X171228211Y-88691498D01*
X171248746Y-88900000D01*
X171228211Y-89108502D01*
X171167393Y-89308991D01*
X171068632Y-89493761D01*
X171068630Y-89493763D01*
X170935718Y-89655718D01*
X170800414Y-89766758D01*
X170773761Y-89788632D01*
X170588991Y-89887393D01*
X170388502Y-89948211D01*
X170232251Y-89963600D01*
X170127749Y-89963600D01*
X169971498Y-89948211D01*
X169771009Y-89887393D01*
X169586239Y-89788632D01*
X169559586Y-89766758D01*
X169424282Y-89655718D01*
X169291370Y-89493763D01*
X169291368Y-89493761D01*
X169192607Y-89308991D01*
X169131789Y-89108502D01*
X169111254Y-88900000D01*
X169131789Y-88691498D01*
X169192607Y-88491009D01*
X169291368Y-88306239D01*
X169313242Y-88279586D01*
X169424282Y-88144282D01*
X169586237Y-88011370D01*
X169586239Y-88011368D01*
X169771009Y-87912607D01*
X169971498Y-87851789D01*
X170127749Y-87836400D01*
X170232251Y-87836400D01*
X170388502Y-87851789D01*
X170388502Y-87851789D01*
G37*
G36*
X172928502Y-85311789D02*
X173128991Y-85372607D01*
X173313761Y-85471368D01*
X173313763Y-85471370D01*
X173475718Y-85604282D01*
X173586758Y-85739586D01*
X173608632Y-85766239D01*
X173707393Y-85951009D01*
X173768211Y-86151498D01*
X173788746Y-86360000D01*
X173768211Y-86568502D01*
X173707393Y-86768991D01*
X173608632Y-86953761D01*
X173608630Y-86953763D01*
X173475718Y-87115718D01*
X173342556Y-87225000D01*
X173313761Y-87248632D01*
X173128991Y-87347393D01*
X172928502Y-87408211D01*
X172772251Y-87423600D01*
X172667749Y-87423600D01*
X172511498Y-87408211D01*
X172311009Y-87347393D01*
X172126239Y-87248632D01*
X172097444Y-87225000D01*
X171964282Y-87115718D01*
X171831370Y-86953763D01*
X171831368Y-86953761D01*
X171732607Y-86768991D01*
X171671789Y-86568502D01*
X171651254Y-86360000D01*
X171671789Y-86151498D01*
X171732607Y-85951009D01*
X171831368Y-85766239D01*
X171853242Y-85739586D01*
X171964282Y-85604282D01*
X172126237Y-85471370D01*
X172126239Y-85471368D01*
X172311009Y-85372607D01*
X172511498Y-85311789D01*
X172667749Y-85296400D01*
X172772251Y-85296400D01*
X172928502Y-85311789D01*
X172928502Y-85311789D01*
G37*
G36*
X170388502Y-85311789D02*
X170588991Y-85372607D01*
X170773761Y-85471368D01*
X170773763Y-85471370D01*
X170935718Y-85604282D01*
X171046758Y-85739586D01*
X171068632Y-85766239D01*
X171167393Y-85951009D01*
X171228211Y-86151498D01*
X171248746Y-86360000D01*
X171228211Y-86568502D01*
X171167393Y-86768991D01*
X171068632Y-86953761D01*
X171068630Y-86953763D01*
X170935718Y-87115718D01*
X170802556Y-87225000D01*
X170773761Y-87248632D01*
X170588991Y-87347393D01*
X170388502Y-87408211D01*
X170232251Y-87423600D01*
X170127749Y-87423600D01*
X169971498Y-87408211D01*
X169771009Y-87347393D01*
X169586239Y-87248632D01*
X169557444Y-87225000D01*
X169424282Y-87115718D01*
X169291370Y-86953763D01*
X169291368Y-86953761D01*
X169192607Y-86768991D01*
X169131789Y-86568502D01*
X169111254Y-86360000D01*
X169131789Y-86151498D01*
X169192607Y-85951009D01*
X169291368Y-85766239D01*
X169313242Y-85739586D01*
X169424282Y-85604282D01*
X169586237Y-85471370D01*
X169586239Y-85471368D01*
X169771009Y-85372607D01*
X169971498Y-85311789D01*
X170127749Y-85296400D01*
X170232251Y-85296400D01*
X170388502Y-85311789D01*
X170388502Y-85311789D01*
G37*
G36*
X129775240Y-84242363D02*
X130001441Y-84310980D01*
X130209907Y-84422407D01*
X130209909Y-84422409D01*
X130392634Y-84572366D01*
X130446649Y-84638184D01*
X130542591Y-84755089D01*
X130654020Y-84963558D01*
X130722637Y-85189759D01*
X130740000Y-85366049D01*
X130740000Y-86083950D01*
X130722637Y-86260240D01*
X130654020Y-86486442D01*
X130542591Y-86694911D01*
X130392634Y-86877634D01*
X130209911Y-87027591D01*
X130001442Y-87139020D01*
X129775241Y-87207637D01*
X129540000Y-87230806D01*
X129304760Y-87207637D01*
X129078559Y-87139020D01*
X128870090Y-87027591D01*
X128687367Y-86877634D01*
X128537410Y-86694911D01*
X128425980Y-86486442D01*
X128357363Y-86260241D01*
X128340000Y-86083951D01*
X128340000Y-85366050D01*
X128357363Y-85189760D01*
X128425980Y-84963559D01*
X128537407Y-84755093D01*
X128575538Y-84708630D01*
X128687366Y-84572366D01*
X128753184Y-84518351D01*
X128870089Y-84422409D01*
X129078558Y-84310980D01*
X129304759Y-84242363D01*
X129540000Y-84219194D01*
X129775240Y-84242363D01*
X129775240Y-84242363D01*
G37*
G36*
X127235240Y-84242363D02*
X127461441Y-84310980D01*
X127669907Y-84422407D01*
X127669909Y-84422409D01*
X127852634Y-84572366D01*
X127906649Y-84638184D01*
X128002591Y-84755089D01*
X128114020Y-84963558D01*
X128182637Y-85189759D01*
X128200000Y-85366049D01*
X128200000Y-86083950D01*
X128182637Y-86260240D01*
X128114020Y-86486442D01*
X128002591Y-86694911D01*
X127852634Y-86877634D01*
X127669911Y-87027591D01*
X127461442Y-87139020D01*
X127235241Y-87207637D01*
X127000000Y-87230806D01*
X126764760Y-87207637D01*
X126538559Y-87139020D01*
X126330090Y-87027591D01*
X126147367Y-86877634D01*
X125997410Y-86694911D01*
X125885980Y-86486442D01*
X125817363Y-86260241D01*
X125800000Y-86083951D01*
X125800000Y-85366050D01*
X125817363Y-85189760D01*
X125885980Y-84963559D01*
X125997407Y-84755093D01*
X126035538Y-84708630D01*
X126147366Y-84572366D01*
X126213184Y-84518351D01*
X126330089Y-84422409D01*
X126538558Y-84310980D01*
X126764759Y-84242363D01*
X127000000Y-84219194D01*
X127235240Y-84242363D01*
X127235240Y-84242363D01*
G37*
G36*
X124695240Y-84242363D02*
X124921441Y-84310980D01*
X125129907Y-84422407D01*
X125129909Y-84422409D01*
X125312634Y-84572366D01*
X125366649Y-84638184D01*
X125462591Y-84755089D01*
X125574020Y-84963558D01*
X125642637Y-85189759D01*
X125660000Y-85366049D01*
X125660000Y-86083950D01*
X125642637Y-86260240D01*
X125574020Y-86486442D01*
X125462591Y-86694911D01*
X125312634Y-86877634D01*
X125129911Y-87027591D01*
X124921442Y-87139020D01*
X124695241Y-87207637D01*
X124460000Y-87230806D01*
X124224760Y-87207637D01*
X123998559Y-87139020D01*
X123790090Y-87027591D01*
X123607367Y-86877634D01*
X123457410Y-86694911D01*
X123345980Y-86486442D01*
X123277363Y-86260241D01*
X123260000Y-86083951D01*
X123260000Y-85366050D01*
X123277363Y-85189760D01*
X123345980Y-84963559D01*
X123457407Y-84755093D01*
X123495538Y-84708630D01*
X123607366Y-84572366D01*
X123673184Y-84518351D01*
X123790089Y-84422409D01*
X123998558Y-84310980D01*
X124224759Y-84242363D01*
X124460000Y-84219194D01*
X124695240Y-84242363D01*
X124695240Y-84242363D01*
G37*
G36*
X122155240Y-84242363D02*
X122381441Y-84310980D01*
X122589907Y-84422407D01*
X122589909Y-84422409D01*
X122772634Y-84572366D01*
X122826649Y-84638184D01*
X122922591Y-84755089D01*
X123034020Y-84963558D01*
X123102637Y-85189759D01*
X123120000Y-85366049D01*
X123120000Y-86083950D01*
X123102637Y-86260240D01*
X123034020Y-86486442D01*
X122922591Y-86694911D01*
X122772634Y-86877634D01*
X122589911Y-87027591D01*
X122381442Y-87139020D01*
X122155241Y-87207637D01*
X121920000Y-87230806D01*
X121684760Y-87207637D01*
X121458559Y-87139020D01*
X121250090Y-87027591D01*
X121067367Y-86877634D01*
X120917410Y-86694911D01*
X120805980Y-86486442D01*
X120737363Y-86260241D01*
X120720000Y-86083951D01*
X120720000Y-85366050D01*
X120737363Y-85189760D01*
X120805980Y-84963559D01*
X120917407Y-84755093D01*
X120955538Y-84708630D01*
X121067366Y-84572366D01*
X121133184Y-84518351D01*
X121250089Y-84422409D01*
X121458558Y-84310980D01*
X121684759Y-84242363D01*
X121920000Y-84219194D01*
X122155240Y-84242363D01*
X122155240Y-84242363D01*
G37*
G36*
X119615240Y-84242363D02*
X119841441Y-84310980D01*
X120049907Y-84422407D01*
X120049909Y-84422409D01*
X120232634Y-84572366D01*
X120286649Y-84638184D01*
X120382591Y-84755089D01*
X120494020Y-84963558D01*
X120562637Y-85189759D01*
X120580000Y-85366049D01*
X120580000Y-86083950D01*
X120562637Y-86260240D01*
X120494020Y-86486442D01*
X120382591Y-86694911D01*
X120232634Y-86877634D01*
X120049911Y-87027591D01*
X119841442Y-87139020D01*
X119615241Y-87207637D01*
X119380000Y-87230806D01*
X119144760Y-87207637D01*
X118918559Y-87139020D01*
X118710090Y-87027591D01*
X118527367Y-86877634D01*
X118377410Y-86694911D01*
X118265980Y-86486442D01*
X118197363Y-86260241D01*
X118180000Y-86083951D01*
X118180000Y-85366050D01*
X118197363Y-85189760D01*
X118265980Y-84963559D01*
X118377407Y-84755093D01*
X118415538Y-84708630D01*
X118527366Y-84572366D01*
X118593184Y-84518351D01*
X118710089Y-84422409D01*
X118918558Y-84310980D01*
X119144759Y-84242363D01*
X119380000Y-84219194D01*
X119615240Y-84242363D01*
X119615240Y-84242363D01*
G37*
G36*
X117075240Y-84242363D02*
X117301441Y-84310980D01*
X117509907Y-84422407D01*
X117509909Y-84422409D01*
X117692634Y-84572366D01*
X117746649Y-84638184D01*
X117842591Y-84755089D01*
X117954020Y-84963558D01*
X118022637Y-85189759D01*
X118040000Y-85366049D01*
X118040000Y-86083950D01*
X118022637Y-86260240D01*
X117954020Y-86486442D01*
X117842591Y-86694911D01*
X117692634Y-86877634D01*
X117509911Y-87027591D01*
X117301442Y-87139020D01*
X117075241Y-87207637D01*
X116840000Y-87230806D01*
X116604760Y-87207637D01*
X116378559Y-87139020D01*
X116170090Y-87027591D01*
X115987367Y-86877634D01*
X115837410Y-86694911D01*
X115725980Y-86486442D01*
X115657363Y-86260241D01*
X115640000Y-86083951D01*
X115640000Y-85366050D01*
X115657363Y-85189760D01*
X115725980Y-84963559D01*
X115837407Y-84755093D01*
X115875538Y-84708630D01*
X115987366Y-84572366D01*
X116053184Y-84518351D01*
X116170089Y-84422409D01*
X116378558Y-84310980D01*
X116604759Y-84242363D01*
X116840000Y-84219194D01*
X117075240Y-84242363D01*
X117075240Y-84242363D01*
G37*
G36*
X114535240Y-84242363D02*
X114761441Y-84310980D01*
X114969907Y-84422407D01*
X114969909Y-84422409D01*
X115152634Y-84572366D01*
X115206649Y-84638184D01*
X115302591Y-84755089D01*
X115414020Y-84963558D01*
X115482637Y-85189759D01*
X115500000Y-85366049D01*
X115500000Y-86083950D01*
X115482637Y-86260240D01*
X115414020Y-86486442D01*
X115302591Y-86694911D01*
X115152634Y-86877634D01*
X114969911Y-87027591D01*
X114761442Y-87139020D01*
X114535241Y-87207637D01*
X114300000Y-87230806D01*
X114064760Y-87207637D01*
X113838559Y-87139020D01*
X113630090Y-87027591D01*
X113447367Y-86877634D01*
X113297410Y-86694911D01*
X113185980Y-86486442D01*
X113117363Y-86260241D01*
X113100000Y-86083951D01*
X113100000Y-85366050D01*
X113117363Y-85189760D01*
X113185980Y-84963559D01*
X113297407Y-84755093D01*
X113335538Y-84708630D01*
X113447366Y-84572366D01*
X113513184Y-84518351D01*
X113630089Y-84422409D01*
X113838558Y-84310980D01*
X114064759Y-84242363D01*
X114300000Y-84219194D01*
X114535240Y-84242363D01*
X114535240Y-84242363D01*
G37*
G36*
X112960000Y-87225000D02*
X110560000Y-87225000D01*
X110560000Y-84225000D01*
X112960000Y-84225000D01*
X112960000Y-87225000D01*
X112960000Y-87225000D01*
G37*
G36*
X170388502Y-82771789D02*
X170588991Y-82832607D01*
X170773761Y-82931368D01*
X170773763Y-82931370D01*
X170935718Y-83064282D01*
X171046758Y-83199586D01*
X171068632Y-83226239D01*
X171167393Y-83411009D01*
X171228211Y-83611498D01*
X171248746Y-83820000D01*
X171228211Y-84028502D01*
X171167393Y-84228991D01*
X171068632Y-84413761D01*
X171046758Y-84440414D01*
X170935718Y-84575718D01*
X170800414Y-84686758D01*
X170773761Y-84708632D01*
X170588991Y-84807393D01*
X170388502Y-84868211D01*
X170232251Y-84883600D01*
X170127749Y-84883600D01*
X169971498Y-84868211D01*
X169771009Y-84807393D01*
X169586239Y-84708632D01*
X169559586Y-84686758D01*
X169424282Y-84575718D01*
X169313242Y-84440414D01*
X169291368Y-84413761D01*
X169192607Y-84228991D01*
X169131789Y-84028502D01*
X169111254Y-83820000D01*
X169131789Y-83611498D01*
X169192607Y-83411009D01*
X169291368Y-83226239D01*
X169313242Y-83199586D01*
X169424282Y-83064282D01*
X169586237Y-82931370D01*
X169586239Y-82931368D01*
X169771009Y-82832607D01*
X169971498Y-82771789D01*
X170127749Y-82756400D01*
X170232251Y-82756400D01*
X170388502Y-82771789D01*
X170388502Y-82771789D01*
G37*
G36*
X172928502Y-82771789D02*
X173128991Y-82832607D01*
X173313761Y-82931368D01*
X173313763Y-82931370D01*
X173475718Y-83064282D01*
X173586758Y-83199586D01*
X173608632Y-83226239D01*
X173707393Y-83411009D01*
X173768211Y-83611498D01*
X173788746Y-83820000D01*
X173768211Y-84028502D01*
X173707393Y-84228991D01*
X173608632Y-84413761D01*
X173586758Y-84440414D01*
X173475718Y-84575718D01*
X173340414Y-84686758D01*
X173313761Y-84708632D01*
X173128991Y-84807393D01*
X172928502Y-84868211D01*
X172772251Y-84883600D01*
X172667749Y-84883600D01*
X172511498Y-84868211D01*
X172311009Y-84807393D01*
X172126239Y-84708632D01*
X172099586Y-84686758D01*
X171964282Y-84575718D01*
X171853242Y-84440414D01*
X171831368Y-84413761D01*
X171732607Y-84228991D01*
X171671789Y-84028502D01*
X171651254Y-83820000D01*
X171671789Y-83611498D01*
X171732607Y-83411009D01*
X171831368Y-83226239D01*
X171853242Y-83199586D01*
X171964282Y-83064282D01*
X172126237Y-82931370D01*
X172126239Y-82931368D01*
X172311009Y-82832607D01*
X172511498Y-82771789D01*
X172667749Y-82756400D01*
X172772251Y-82756400D01*
X172928502Y-82771789D01*
X172928502Y-82771789D01*
G37*
G36*
X170388502Y-80231789D02*
X170588991Y-80292607D01*
X170773761Y-80391368D01*
X170773763Y-80391370D01*
X170935718Y-80524282D01*
X171046758Y-80659586D01*
X171068632Y-80686239D01*
X171167393Y-80871009D01*
X171228211Y-81071498D01*
X171248746Y-81280000D01*
X171228211Y-81488502D01*
X171167393Y-81688991D01*
X171068632Y-81873761D01*
X171068630Y-81873763D01*
X170935718Y-82035718D01*
X170800414Y-82146758D01*
X170773761Y-82168632D01*
X170588991Y-82267393D01*
X170388502Y-82328211D01*
X170232251Y-82343600D01*
X170127749Y-82343600D01*
X169971498Y-82328211D01*
X169771009Y-82267393D01*
X169586239Y-82168632D01*
X169559586Y-82146758D01*
X169424282Y-82035718D01*
X169291370Y-81873763D01*
X169291368Y-81873761D01*
X169192607Y-81688991D01*
X169131789Y-81488502D01*
X169111254Y-81280000D01*
X169131789Y-81071498D01*
X169192607Y-80871009D01*
X169291368Y-80686239D01*
X169313242Y-80659586D01*
X169424282Y-80524282D01*
X169586237Y-80391370D01*
X169586239Y-80391368D01*
X169771009Y-80292607D01*
X169971498Y-80231789D01*
X170127749Y-80216400D01*
X170232251Y-80216400D01*
X170388502Y-80231789D01*
X170388502Y-80231789D01*
G37*
G36*
X172928502Y-80231789D02*
X173128991Y-80292607D01*
X173313761Y-80391368D01*
X173313763Y-80391370D01*
X173475718Y-80524282D01*
X173586758Y-80659586D01*
X173608632Y-80686239D01*
X173707393Y-80871009D01*
X173768211Y-81071498D01*
X173788746Y-81280000D01*
X173768211Y-81488502D01*
X173707393Y-81688991D01*
X173608632Y-81873761D01*
X173608630Y-81873763D01*
X173475718Y-82035718D01*
X173340414Y-82146758D01*
X173313761Y-82168632D01*
X173128991Y-82267393D01*
X172928502Y-82328211D01*
X172772251Y-82343600D01*
X172667749Y-82343600D01*
X172511498Y-82328211D01*
X172311009Y-82267393D01*
X172126239Y-82168632D01*
X172099586Y-82146758D01*
X171964282Y-82035718D01*
X171831370Y-81873763D01*
X171831368Y-81873761D01*
X171732607Y-81688991D01*
X171671789Y-81488502D01*
X171651254Y-81280000D01*
X171671789Y-81071498D01*
X171732607Y-80871009D01*
X171831368Y-80686239D01*
X171853242Y-80659586D01*
X171964282Y-80524282D01*
X172126237Y-80391370D01*
X172126239Y-80391368D01*
X172311009Y-80292607D01*
X172511498Y-80231789D01*
X172667749Y-80216400D01*
X172772251Y-80216400D01*
X172928502Y-80231789D01*
X172928502Y-80231789D01*
G37*
G36*
X170388502Y-77691789D02*
X170588991Y-77752607D01*
X170773761Y-77851368D01*
X170773763Y-77851370D01*
X170935718Y-77984282D01*
X171046758Y-78119586D01*
X171068632Y-78146239D01*
X171167393Y-78331009D01*
X171228211Y-78531498D01*
X171248746Y-78740000D01*
X171228211Y-78948502D01*
X171167393Y-79148991D01*
X171068632Y-79333761D01*
X171068630Y-79333763D01*
X170935718Y-79495718D01*
X170800414Y-79606758D01*
X170773761Y-79628632D01*
X170588991Y-79727393D01*
X170388502Y-79788211D01*
X170232251Y-79803600D01*
X170127749Y-79803600D01*
X169971498Y-79788211D01*
X169771009Y-79727393D01*
X169586239Y-79628632D01*
X169559586Y-79606758D01*
X169424282Y-79495718D01*
X169291370Y-79333763D01*
X169291368Y-79333761D01*
X169192607Y-79148991D01*
X169131789Y-78948502D01*
X169111254Y-78740000D01*
X169131789Y-78531498D01*
X169192607Y-78331009D01*
X169291368Y-78146239D01*
X169313242Y-78119586D01*
X169424282Y-77984282D01*
X169586237Y-77851370D01*
X169586239Y-77851368D01*
X169771009Y-77752607D01*
X169971498Y-77691789D01*
X170127749Y-77676400D01*
X170232251Y-77676400D01*
X170388502Y-77691789D01*
X170388502Y-77691789D01*
G37*
G36*
X172928502Y-77691789D02*
X173128991Y-77752607D01*
X173313761Y-77851368D01*
X173313763Y-77851370D01*
X173475718Y-77984282D01*
X173586758Y-78119586D01*
X173608632Y-78146239D01*
X173707393Y-78331009D01*
X173768211Y-78531498D01*
X173788746Y-78740000D01*
X173768211Y-78948502D01*
X173707393Y-79148991D01*
X173608632Y-79333761D01*
X173608630Y-79333763D01*
X173475718Y-79495718D01*
X173340414Y-79606758D01*
X173313761Y-79628632D01*
X173128991Y-79727393D01*
X172928502Y-79788211D01*
X172772251Y-79803600D01*
X172667749Y-79803600D01*
X172511498Y-79788211D01*
X172311009Y-79727393D01*
X172126239Y-79628632D01*
X172099586Y-79606758D01*
X171964282Y-79495718D01*
X171831370Y-79333763D01*
X171831368Y-79333761D01*
X171732607Y-79148991D01*
X171671789Y-78948502D01*
X171651254Y-78740000D01*
X171671789Y-78531498D01*
X171732607Y-78331009D01*
X171831368Y-78146239D01*
X171853242Y-78119586D01*
X171964282Y-77984282D01*
X172126237Y-77851370D01*
X172126239Y-77851368D01*
X172311009Y-77752607D01*
X172511498Y-77691789D01*
X172667749Y-77676400D01*
X172772251Y-77676400D01*
X172928502Y-77691789D01*
X172928502Y-77691789D01*
G37*
G36*
X172928502Y-75151789D02*
X173128991Y-75212607D01*
X173313761Y-75311368D01*
X173313763Y-75311370D01*
X173475718Y-75444282D01*
X173586758Y-75579586D01*
X173608632Y-75606239D01*
X173707393Y-75791009D01*
X173768211Y-75991498D01*
X173788746Y-76200000D01*
X173768211Y-76408502D01*
X173707393Y-76608991D01*
X173608632Y-76793761D01*
X173608630Y-76793763D01*
X173475718Y-76955718D01*
X173340414Y-77066758D01*
X173313761Y-77088632D01*
X173128991Y-77187393D01*
X172928502Y-77248211D01*
X172772251Y-77263600D01*
X172667749Y-77263600D01*
X172511498Y-77248211D01*
X172311009Y-77187393D01*
X172126239Y-77088632D01*
X172099586Y-77066758D01*
X171964282Y-76955718D01*
X171831370Y-76793763D01*
X171831368Y-76793761D01*
X171732607Y-76608991D01*
X171671789Y-76408502D01*
X171651254Y-76200000D01*
X171671789Y-75991498D01*
X171732607Y-75791009D01*
X171831368Y-75606239D01*
X171853242Y-75579586D01*
X171964282Y-75444282D01*
X172126237Y-75311370D01*
X172126239Y-75311368D01*
X172311009Y-75212607D01*
X172511498Y-75151789D01*
X172667749Y-75136400D01*
X172772251Y-75136400D01*
X172928502Y-75151789D01*
X172928502Y-75151789D01*
G37*
G36*
X170388502Y-75151789D02*
X170588991Y-75212607D01*
X170773761Y-75311368D01*
X170773763Y-75311370D01*
X170935718Y-75444282D01*
X171046758Y-75579586D01*
X171068632Y-75606239D01*
X171167393Y-75791009D01*
X171228211Y-75991498D01*
X171248746Y-76200000D01*
X171228211Y-76408502D01*
X171167393Y-76608991D01*
X171068632Y-76793761D01*
X171068630Y-76793763D01*
X170935718Y-76955718D01*
X170800414Y-77066758D01*
X170773761Y-77088632D01*
X170588991Y-77187393D01*
X170388502Y-77248211D01*
X170232251Y-77263600D01*
X170127749Y-77263600D01*
X169971498Y-77248211D01*
X169771009Y-77187393D01*
X169586239Y-77088632D01*
X169559586Y-77066758D01*
X169424282Y-76955718D01*
X169291370Y-76793763D01*
X169291368Y-76793761D01*
X169192607Y-76608991D01*
X169131789Y-76408502D01*
X169111254Y-76200000D01*
X169131789Y-75991498D01*
X169192607Y-75791009D01*
X169291368Y-75606239D01*
X169313242Y-75579586D01*
X169424282Y-75444282D01*
X169586237Y-75311370D01*
X169586239Y-75311368D01*
X169771009Y-75212607D01*
X169971498Y-75151789D01*
X170127749Y-75136400D01*
X170232251Y-75136400D01*
X170388502Y-75151789D01*
X170388502Y-75151789D01*
G37*
G36*
X172928502Y-72611789D02*
X173128991Y-72672607D01*
X173313761Y-72771368D01*
X173313763Y-72771370D01*
X173475718Y-72904282D01*
X173586758Y-73039586D01*
X173608632Y-73066239D01*
X173707393Y-73251009D01*
X173768211Y-73451498D01*
X173788746Y-73660000D01*
X173768211Y-73868502D01*
X173707393Y-74068991D01*
X173608632Y-74253761D01*
X173608630Y-74253763D01*
X173475718Y-74415718D01*
X173340414Y-74526758D01*
X173313761Y-74548632D01*
X173128991Y-74647393D01*
X172928502Y-74708211D01*
X172772251Y-74723600D01*
X172667749Y-74723600D01*
X172511498Y-74708211D01*
X172311009Y-74647393D01*
X172126239Y-74548632D01*
X172099586Y-74526758D01*
X171964282Y-74415718D01*
X171831370Y-74253763D01*
X171831368Y-74253761D01*
X171732607Y-74068991D01*
X171671789Y-73868502D01*
X171651254Y-73660000D01*
X171671789Y-73451498D01*
X171732607Y-73251009D01*
X171831368Y-73066239D01*
X171853242Y-73039586D01*
X171964282Y-72904282D01*
X172126237Y-72771370D01*
X172126239Y-72771368D01*
X172311009Y-72672607D01*
X172511498Y-72611789D01*
X172667749Y-72596400D01*
X172772251Y-72596400D01*
X172928502Y-72611789D01*
X172928502Y-72611789D01*
G37*
G36*
X170388502Y-72611789D02*
X170588991Y-72672607D01*
X170773761Y-72771368D01*
X170773763Y-72771370D01*
X170935718Y-72904282D01*
X171046758Y-73039586D01*
X171068632Y-73066239D01*
X171167393Y-73251009D01*
X171228211Y-73451498D01*
X171248746Y-73660000D01*
X171228211Y-73868502D01*
X171167393Y-74068991D01*
X171068632Y-74253761D01*
X171068630Y-74253763D01*
X170935718Y-74415718D01*
X170800414Y-74526758D01*
X170773761Y-74548632D01*
X170588991Y-74647393D01*
X170388502Y-74708211D01*
X170232251Y-74723600D01*
X170127749Y-74723600D01*
X169971498Y-74708211D01*
X169771009Y-74647393D01*
X169586239Y-74548632D01*
X169559586Y-74526758D01*
X169424282Y-74415718D01*
X169291370Y-74253763D01*
X169291368Y-74253761D01*
X169192607Y-74068991D01*
X169131789Y-73868502D01*
X169111254Y-73660000D01*
X169131789Y-73451498D01*
X169192607Y-73251009D01*
X169291368Y-73066239D01*
X169313242Y-73039586D01*
X169424282Y-72904282D01*
X169586237Y-72771370D01*
X169586239Y-72771368D01*
X169771009Y-72672607D01*
X169971498Y-72611789D01*
X170127749Y-72596400D01*
X170232251Y-72596400D01*
X170388502Y-72611789D01*
X170388502Y-72611789D01*
G37*
G36*
X166721163Y-69354587D02*
X166895041Y-69389173D01*
X167222620Y-69524861D01*
X167458152Y-69682238D01*
X167517435Y-69721850D01*
X167768150Y-69972565D01*
X167768151Y-69972567D01*
X167965139Y-70267380D01*
X168072361Y-70526237D01*
X168100827Y-70594960D01*
X168170000Y-70942715D01*
X168170000Y-71297285D01*
X168135414Y-71471162D01*
X168100827Y-71645041D01*
X167965139Y-71972620D01*
X167875086Y-72107393D01*
X167768150Y-72267435D01*
X167517435Y-72518150D01*
X167458152Y-72557762D01*
X167222620Y-72715139D01*
X166895041Y-72850827D01*
X166721163Y-72885413D01*
X166547285Y-72920000D01*
X166192715Y-72920000D01*
X166018837Y-72885413D01*
X165844959Y-72850827D01*
X165517380Y-72715139D01*
X165281848Y-72557762D01*
X165222565Y-72518150D01*
X164971850Y-72267435D01*
X164864914Y-72107393D01*
X164774861Y-71972620D01*
X164639173Y-71645041D01*
X164604586Y-71471162D01*
X164570000Y-71297285D01*
X164570000Y-70942715D01*
X164639173Y-70594960D01*
X164667639Y-70526237D01*
X164774861Y-70267380D01*
X164971849Y-69972567D01*
X164971850Y-69972565D01*
X165222565Y-69721850D01*
X165281848Y-69682238D01*
X165517380Y-69524861D01*
X165844959Y-69389173D01*
X166018837Y-69354587D01*
X166192715Y-69320000D01*
X166547285Y-69320000D01*
X166721163Y-69354587D01*
X166721163Y-69354587D01*
G37*
G36*
X112984502Y-70071789D02*
X113184991Y-70132607D01*
X113369761Y-70231368D01*
X113369763Y-70231370D01*
X113531718Y-70364282D01*
X113642758Y-70499586D01*
X113664632Y-70526239D01*
X113763393Y-70711009D01*
X113824211Y-70911498D01*
X113844746Y-71120000D01*
X113824211Y-71328502D01*
X113763393Y-71528991D01*
X113664632Y-71713761D01*
X113664630Y-71713763D01*
X113531718Y-71875718D01*
X113396414Y-71986758D01*
X113369761Y-72008632D01*
X113184991Y-72107393D01*
X112984502Y-72168211D01*
X112828251Y-72183600D01*
X112723749Y-72183600D01*
X112567498Y-72168211D01*
X112367009Y-72107393D01*
X112182239Y-72008632D01*
X112155586Y-71986758D01*
X112020282Y-71875718D01*
X111887370Y-71713763D01*
X111887368Y-71713761D01*
X111788607Y-71528991D01*
X111727789Y-71328502D01*
X111707254Y-71120000D01*
X111727789Y-70911498D01*
X111788607Y-70711009D01*
X111887368Y-70526239D01*
X111909242Y-70499586D01*
X112020282Y-70364282D01*
X112182237Y-70231370D01*
X112182239Y-70231368D01*
X112367009Y-70132607D01*
X112567498Y-70071789D01*
X112723749Y-70056400D01*
X112828251Y-70056400D01*
X112984502Y-70071789D01*
X112984502Y-70071789D01*
G37*
G36*
X147528502Y-70071789D02*
X147728991Y-70132607D01*
X147913761Y-70231368D01*
X147913763Y-70231370D01*
X148075718Y-70364282D01*
X148186758Y-70499586D01*
X148208632Y-70526239D01*
X148307393Y-70711009D01*
X148368211Y-70911498D01*
X148388746Y-71120000D01*
X148368211Y-71328502D01*
X148307393Y-71528991D01*
X148208632Y-71713761D01*
X148208630Y-71713763D01*
X148075718Y-71875718D01*
X147940414Y-71986758D01*
X147913761Y-72008632D01*
X147728991Y-72107393D01*
X147528502Y-72168211D01*
X147372251Y-72183600D01*
X147267749Y-72183600D01*
X147111498Y-72168211D01*
X146911009Y-72107393D01*
X146726239Y-72008632D01*
X146699586Y-71986758D01*
X146564282Y-71875718D01*
X146431370Y-71713763D01*
X146431368Y-71713761D01*
X146332607Y-71528991D01*
X146271789Y-71328502D01*
X146251254Y-71120000D01*
X146271789Y-70911498D01*
X146332607Y-70711009D01*
X146431368Y-70526239D01*
X146453242Y-70499586D01*
X146564282Y-70364282D01*
X146726237Y-70231370D01*
X146726239Y-70231368D01*
X146911009Y-70132607D01*
X147111498Y-70071789D01*
X147267749Y-70056400D01*
X147372251Y-70056400D01*
X147528502Y-70071789D01*
X147528502Y-70071789D01*
G37*
G36*
X144988502Y-70071789D02*
X145188991Y-70132607D01*
X145373761Y-70231368D01*
X145373763Y-70231370D01*
X145535718Y-70364282D01*
X145646758Y-70499586D01*
X145668632Y-70526239D01*
X145767393Y-70711009D01*
X145828211Y-70911498D01*
X145848746Y-71120000D01*
X145828211Y-71328502D01*
X145767393Y-71528991D01*
X145668632Y-71713761D01*
X145668630Y-71713763D01*
X145535718Y-71875718D01*
X145400414Y-71986758D01*
X145373761Y-72008632D01*
X145188991Y-72107393D01*
X144988502Y-72168211D01*
X144832251Y-72183600D01*
X144727749Y-72183600D01*
X144571498Y-72168211D01*
X144371009Y-72107393D01*
X144186239Y-72008632D01*
X144159586Y-71986758D01*
X144024282Y-71875718D01*
X143891370Y-71713763D01*
X143891368Y-71713761D01*
X143792607Y-71528991D01*
X143731789Y-71328502D01*
X143711254Y-71120000D01*
X143731789Y-70911498D01*
X143792607Y-70711009D01*
X143891368Y-70526239D01*
X143913242Y-70499586D01*
X144024282Y-70364282D01*
X144186237Y-70231370D01*
X144186239Y-70231368D01*
X144371009Y-70132607D01*
X144571498Y-70071789D01*
X144727749Y-70056400D01*
X144832251Y-70056400D01*
X144988502Y-70071789D01*
X144988502Y-70071789D01*
G37*
G36*
X139908502Y-70071789D02*
X140108991Y-70132607D01*
X140293761Y-70231368D01*
X140293763Y-70231370D01*
X140455718Y-70364282D01*
X140566758Y-70499586D01*
X140588632Y-70526239D01*
X140687393Y-70711009D01*
X140748211Y-70911498D01*
X140768746Y-71120000D01*
X140748211Y-71328502D01*
X140687393Y-71528991D01*
X140588632Y-71713761D01*
X140588630Y-71713763D01*
X140455718Y-71875718D01*
X140320414Y-71986758D01*
X140293761Y-72008632D01*
X140108991Y-72107393D01*
X139908502Y-72168211D01*
X139752251Y-72183600D01*
X139647749Y-72183600D01*
X139491498Y-72168211D01*
X139291009Y-72107393D01*
X139106239Y-72008632D01*
X139079586Y-71986758D01*
X138944282Y-71875718D01*
X138811370Y-71713763D01*
X138811368Y-71713761D01*
X138712607Y-71528991D01*
X138651789Y-71328502D01*
X138631254Y-71120000D01*
X138651789Y-70911498D01*
X138712607Y-70711009D01*
X138811368Y-70526239D01*
X138833242Y-70499586D01*
X138944282Y-70364282D01*
X139106237Y-70231370D01*
X139106239Y-70231368D01*
X139291009Y-70132607D01*
X139491498Y-70071789D01*
X139647749Y-70056400D01*
X139752251Y-70056400D01*
X139908502Y-70071789D01*
X139908502Y-70071789D01*
G37*
G36*
X137368502Y-70071789D02*
X137568991Y-70132607D01*
X137753761Y-70231368D01*
X137753763Y-70231370D01*
X137915718Y-70364282D01*
X138026758Y-70499586D01*
X138048632Y-70526239D01*
X138147393Y-70711009D01*
X138208211Y-70911498D01*
X138228746Y-71120000D01*
X138208211Y-71328502D01*
X138147393Y-71528991D01*
X138048632Y-71713761D01*
X138048630Y-71713763D01*
X137915718Y-71875718D01*
X137780414Y-71986758D01*
X137753761Y-72008632D01*
X137568991Y-72107393D01*
X137368502Y-72168211D01*
X137212251Y-72183600D01*
X137107749Y-72183600D01*
X136951498Y-72168211D01*
X136751009Y-72107393D01*
X136566239Y-72008632D01*
X136539586Y-71986758D01*
X136404282Y-71875718D01*
X136271370Y-71713763D01*
X136271368Y-71713761D01*
X136172607Y-71528991D01*
X136111789Y-71328502D01*
X136091254Y-71120000D01*
X136111789Y-70911498D01*
X136172607Y-70711009D01*
X136271368Y-70526239D01*
X136293242Y-70499586D01*
X136404282Y-70364282D01*
X136566237Y-70231370D01*
X136566239Y-70231368D01*
X136751009Y-70132607D01*
X136951498Y-70071789D01*
X137107749Y-70056400D01*
X137212251Y-70056400D01*
X137368502Y-70071789D01*
X137368502Y-70071789D01*
G37*
G36*
X134828502Y-70071789D02*
X135028991Y-70132607D01*
X135213761Y-70231368D01*
X135213763Y-70231370D01*
X135375718Y-70364282D01*
X135486758Y-70499586D01*
X135508632Y-70526239D01*
X135607393Y-70711009D01*
X135668211Y-70911498D01*
X135688746Y-71120000D01*
X135668211Y-71328502D01*
X135607393Y-71528991D01*
X135508632Y-71713761D01*
X135508630Y-71713763D01*
X135375718Y-71875718D01*
X135240414Y-71986758D01*
X135213761Y-72008632D01*
X135028991Y-72107393D01*
X134828502Y-72168211D01*
X134672251Y-72183600D01*
X134567749Y-72183600D01*
X134411498Y-72168211D01*
X134211009Y-72107393D01*
X134026239Y-72008632D01*
X133999586Y-71986758D01*
X133864282Y-71875718D01*
X133731370Y-71713763D01*
X133731368Y-71713761D01*
X133632607Y-71528991D01*
X133571789Y-71328502D01*
X133551254Y-71120000D01*
X133571789Y-70911498D01*
X133632607Y-70711009D01*
X133731368Y-70526239D01*
X133753242Y-70499586D01*
X133864282Y-70364282D01*
X134026237Y-70231370D01*
X134026239Y-70231368D01*
X134211009Y-70132607D01*
X134411498Y-70071789D01*
X134567749Y-70056400D01*
X134672251Y-70056400D01*
X134828502Y-70071789D01*
X134828502Y-70071789D01*
G37*
G36*
X115524502Y-70071789D02*
X115724991Y-70132607D01*
X115909761Y-70231368D01*
X115909763Y-70231370D01*
X116071718Y-70364282D01*
X116182758Y-70499586D01*
X116204632Y-70526239D01*
X116303393Y-70711009D01*
X116364211Y-70911498D01*
X116384746Y-71120000D01*
X116364211Y-71328502D01*
X116303393Y-71528991D01*
X116204632Y-71713761D01*
X116204630Y-71713763D01*
X116071718Y-71875718D01*
X115936414Y-71986758D01*
X115909761Y-72008632D01*
X115724991Y-72107393D01*
X115524502Y-72168211D01*
X115368251Y-72183600D01*
X115263749Y-72183600D01*
X115107498Y-72168211D01*
X114907009Y-72107393D01*
X114722239Y-72008632D01*
X114695586Y-71986758D01*
X114560282Y-71875718D01*
X114427370Y-71713763D01*
X114427368Y-71713761D01*
X114328607Y-71528991D01*
X114267789Y-71328502D01*
X114247254Y-71120000D01*
X114267789Y-70911498D01*
X114328607Y-70711009D01*
X114427368Y-70526239D01*
X114449242Y-70499586D01*
X114560282Y-70364282D01*
X114722237Y-70231370D01*
X114722239Y-70231368D01*
X114907009Y-70132607D01*
X115107498Y-70071789D01*
X115263749Y-70056400D01*
X115368251Y-70056400D01*
X115524502Y-70071789D01*
X115524502Y-70071789D01*
G37*
G36*
X118064502Y-70071789D02*
X118264991Y-70132607D01*
X118449761Y-70231368D01*
X118449763Y-70231370D01*
X118611718Y-70364282D01*
X118722758Y-70499586D01*
X118744632Y-70526239D01*
X118843393Y-70711009D01*
X118904211Y-70911498D01*
X118924746Y-71120000D01*
X118904211Y-71328502D01*
X118843393Y-71528991D01*
X118744632Y-71713761D01*
X118744630Y-71713763D01*
X118611718Y-71875718D01*
X118476414Y-71986758D01*
X118449761Y-72008632D01*
X118264991Y-72107393D01*
X118064502Y-72168211D01*
X117908251Y-72183600D01*
X117803749Y-72183600D01*
X117647498Y-72168211D01*
X117447009Y-72107393D01*
X117262239Y-72008632D01*
X117235586Y-71986758D01*
X117100282Y-71875718D01*
X116967370Y-71713763D01*
X116967368Y-71713761D01*
X116868607Y-71528991D01*
X116807789Y-71328502D01*
X116787254Y-71120000D01*
X116807789Y-70911498D01*
X116868607Y-70711009D01*
X116967368Y-70526239D01*
X116989242Y-70499586D01*
X117100282Y-70364282D01*
X117262237Y-70231370D01*
X117262239Y-70231368D01*
X117447009Y-70132607D01*
X117647498Y-70071789D01*
X117803749Y-70056400D01*
X117908251Y-70056400D01*
X118064502Y-70071789D01*
X118064502Y-70071789D01*
G37*
G36*
X122128502Y-70071789D02*
X122328991Y-70132607D01*
X122513761Y-70231368D01*
X122513763Y-70231370D01*
X122675718Y-70364282D01*
X122786758Y-70499586D01*
X122808632Y-70526239D01*
X122907393Y-70711009D01*
X122968211Y-70911498D01*
X122988746Y-71120000D01*
X122968211Y-71328502D01*
X122907393Y-71528991D01*
X122808632Y-71713761D01*
X122808630Y-71713763D01*
X122675718Y-71875718D01*
X122540414Y-71986758D01*
X122513761Y-72008632D01*
X122328991Y-72107393D01*
X122128502Y-72168211D01*
X121972251Y-72183600D01*
X121867749Y-72183600D01*
X121711498Y-72168211D01*
X121511009Y-72107393D01*
X121326239Y-72008632D01*
X121299586Y-71986758D01*
X121164282Y-71875718D01*
X121031370Y-71713763D01*
X121031368Y-71713761D01*
X120932607Y-71528991D01*
X120871789Y-71328502D01*
X120851254Y-71120000D01*
X120871789Y-70911498D01*
X120932607Y-70711009D01*
X121031368Y-70526239D01*
X121053242Y-70499586D01*
X121164282Y-70364282D01*
X121326237Y-70231370D01*
X121326239Y-70231368D01*
X121511009Y-70132607D01*
X121711498Y-70071789D01*
X121867749Y-70056400D01*
X121972251Y-70056400D01*
X122128502Y-70071789D01*
X122128502Y-70071789D01*
G37*
G36*
X124668502Y-70071789D02*
X124868991Y-70132607D01*
X125053761Y-70231368D01*
X125053763Y-70231370D01*
X125215718Y-70364282D01*
X125326758Y-70499586D01*
X125348632Y-70526239D01*
X125447393Y-70711009D01*
X125508211Y-70911498D01*
X125528746Y-71120000D01*
X125508211Y-71328502D01*
X125447393Y-71528991D01*
X125348632Y-71713761D01*
X125348630Y-71713763D01*
X125215718Y-71875718D01*
X125080414Y-71986758D01*
X125053761Y-72008632D01*
X124868991Y-72107393D01*
X124668502Y-72168211D01*
X124512251Y-72183600D01*
X124407749Y-72183600D01*
X124251498Y-72168211D01*
X124051009Y-72107393D01*
X123866239Y-72008632D01*
X123839586Y-71986758D01*
X123704282Y-71875718D01*
X123571370Y-71713763D01*
X123571368Y-71713761D01*
X123472607Y-71528991D01*
X123411789Y-71328502D01*
X123391254Y-71120000D01*
X123411789Y-70911498D01*
X123472607Y-70711009D01*
X123571368Y-70526239D01*
X123593242Y-70499586D01*
X123704282Y-70364282D01*
X123866237Y-70231370D01*
X123866239Y-70231368D01*
X124051009Y-70132607D01*
X124251498Y-70071789D01*
X124407749Y-70056400D01*
X124512251Y-70056400D01*
X124668502Y-70071789D01*
X124668502Y-70071789D01*
G37*
G36*
X127208502Y-70071789D02*
X127408991Y-70132607D01*
X127593761Y-70231368D01*
X127593763Y-70231370D01*
X127755718Y-70364282D01*
X127866758Y-70499586D01*
X127888632Y-70526239D01*
X127987393Y-70711009D01*
X128048211Y-70911498D01*
X128068746Y-71120000D01*
X128048211Y-71328502D01*
X127987393Y-71528991D01*
X127888632Y-71713761D01*
X127888630Y-71713763D01*
X127755718Y-71875718D01*
X127620414Y-71986758D01*
X127593761Y-72008632D01*
X127408991Y-72107393D01*
X127208502Y-72168211D01*
X127052251Y-72183600D01*
X126947749Y-72183600D01*
X126791498Y-72168211D01*
X126591009Y-72107393D01*
X126406239Y-72008632D01*
X126379586Y-71986758D01*
X126244282Y-71875718D01*
X126111370Y-71713763D01*
X126111368Y-71713761D01*
X126012607Y-71528991D01*
X125951789Y-71328502D01*
X125931254Y-71120000D01*
X125951789Y-70911498D01*
X126012607Y-70711009D01*
X126111368Y-70526239D01*
X126133242Y-70499586D01*
X126244282Y-70364282D01*
X126406237Y-70231370D01*
X126406239Y-70231368D01*
X126591009Y-70132607D01*
X126791498Y-70071789D01*
X126947749Y-70056400D01*
X127052251Y-70056400D01*
X127208502Y-70071789D01*
X127208502Y-70071789D01*
G37*
G36*
X129748502Y-70071789D02*
X129948991Y-70132607D01*
X130133761Y-70231368D01*
X130133763Y-70231370D01*
X130295718Y-70364282D01*
X130406758Y-70499586D01*
X130428632Y-70526239D01*
X130527393Y-70711009D01*
X130588211Y-70911498D01*
X130608746Y-71120000D01*
X130588211Y-71328502D01*
X130527393Y-71528991D01*
X130428632Y-71713761D01*
X130428630Y-71713763D01*
X130295718Y-71875718D01*
X130160414Y-71986758D01*
X130133761Y-72008632D01*
X129948991Y-72107393D01*
X129748502Y-72168211D01*
X129592251Y-72183600D01*
X129487749Y-72183600D01*
X129331498Y-72168211D01*
X129131009Y-72107393D01*
X128946239Y-72008632D01*
X128919586Y-71986758D01*
X128784282Y-71875718D01*
X128651370Y-71713763D01*
X128651368Y-71713761D01*
X128552607Y-71528991D01*
X128491789Y-71328502D01*
X128471254Y-71120000D01*
X128491789Y-70911498D01*
X128552607Y-70711009D01*
X128651368Y-70526239D01*
X128673242Y-70499586D01*
X128784282Y-70364282D01*
X128946237Y-70231370D01*
X128946239Y-70231368D01*
X129131009Y-70132607D01*
X129331498Y-70071789D01*
X129487749Y-70056400D01*
X129592251Y-70056400D01*
X129748502Y-70071789D01*
X129748502Y-70071789D01*
G37*
G36*
X132288502Y-70071789D02*
X132488991Y-70132607D01*
X132673761Y-70231368D01*
X132673763Y-70231370D01*
X132835718Y-70364282D01*
X132946758Y-70499586D01*
X132968632Y-70526239D01*
X133067393Y-70711009D01*
X133128211Y-70911498D01*
X133148746Y-71120000D01*
X133128211Y-71328502D01*
X133067393Y-71528991D01*
X132968632Y-71713761D01*
X132968630Y-71713763D01*
X132835718Y-71875718D01*
X132700414Y-71986758D01*
X132673761Y-72008632D01*
X132488991Y-72107393D01*
X132288502Y-72168211D01*
X132132251Y-72183600D01*
X132027749Y-72183600D01*
X131871498Y-72168211D01*
X131671009Y-72107393D01*
X131486239Y-72008632D01*
X131459586Y-71986758D01*
X131324282Y-71875718D01*
X131191370Y-71713763D01*
X131191368Y-71713761D01*
X131092607Y-71528991D01*
X131031789Y-71328502D01*
X131011254Y-71120000D01*
X131031789Y-70911498D01*
X131092607Y-70711009D01*
X131191368Y-70526239D01*
X131213242Y-70499586D01*
X131324282Y-70364282D01*
X131486237Y-70231370D01*
X131486239Y-70231368D01*
X131671009Y-70132607D01*
X131871498Y-70071789D01*
X132027749Y-70056400D01*
X132132251Y-70056400D01*
X132288502Y-70071789D01*
X132288502Y-70071789D01*
G37*
G36*
X152608502Y-70071789D02*
X152808991Y-70132607D01*
X152993761Y-70231368D01*
X152993763Y-70231370D01*
X153155718Y-70364282D01*
X153266758Y-70499586D01*
X153288632Y-70526239D01*
X153387393Y-70711009D01*
X153448211Y-70911498D01*
X153468746Y-71120000D01*
X153448211Y-71328502D01*
X153387393Y-71528991D01*
X153288632Y-71713761D01*
X153288630Y-71713763D01*
X153155718Y-71875718D01*
X153020414Y-71986758D01*
X152993761Y-72008632D01*
X152808991Y-72107393D01*
X152608502Y-72168211D01*
X152452251Y-72183600D01*
X152347749Y-72183600D01*
X152191498Y-72168211D01*
X151991009Y-72107393D01*
X151806239Y-72008632D01*
X151779586Y-71986758D01*
X151644282Y-71875718D01*
X151511370Y-71713763D01*
X151511368Y-71713761D01*
X151412607Y-71528991D01*
X151351789Y-71328502D01*
X151331254Y-71120000D01*
X151351789Y-70911498D01*
X151412607Y-70711009D01*
X151511368Y-70526239D01*
X151533242Y-70499586D01*
X151644282Y-70364282D01*
X151806237Y-70231370D01*
X151806239Y-70231368D01*
X151991009Y-70132607D01*
X152191498Y-70071789D01*
X152347749Y-70056400D01*
X152452251Y-70056400D01*
X152608502Y-70071789D01*
X152608502Y-70071789D01*
G37*
G36*
X110444502Y-70071789D02*
X110644991Y-70132607D01*
X110829761Y-70231368D01*
X110829763Y-70231370D01*
X110991718Y-70364282D01*
X111102758Y-70499586D01*
X111124632Y-70526239D01*
X111223393Y-70711009D01*
X111284211Y-70911498D01*
X111304746Y-71120000D01*
X111284211Y-71328502D01*
X111223393Y-71528991D01*
X111124632Y-71713761D01*
X111124630Y-71713763D01*
X110991718Y-71875718D01*
X110856414Y-71986758D01*
X110829761Y-72008632D01*
X110644991Y-72107393D01*
X110444502Y-72168211D01*
X110288251Y-72183600D01*
X110183749Y-72183600D01*
X110027498Y-72168211D01*
X109827009Y-72107393D01*
X109642239Y-72008632D01*
X109615586Y-71986758D01*
X109480282Y-71875718D01*
X109347370Y-71713763D01*
X109347368Y-71713761D01*
X109248607Y-71528991D01*
X109187789Y-71328502D01*
X109167254Y-71120000D01*
X109187789Y-70911498D01*
X109248607Y-70711009D01*
X109347368Y-70526239D01*
X109369242Y-70499586D01*
X109480282Y-70364282D01*
X109642237Y-70231370D01*
X109642239Y-70231368D01*
X109827009Y-70132607D01*
X110027498Y-70071789D01*
X110183749Y-70056400D01*
X110288251Y-70056400D01*
X110444502Y-70071789D01*
X110444502Y-70071789D01*
G37*
G36*
X107904502Y-70071789D02*
X108104991Y-70132607D01*
X108289761Y-70231368D01*
X108289763Y-70231370D01*
X108451718Y-70364282D01*
X108562758Y-70499586D01*
X108584632Y-70526239D01*
X108683393Y-70711009D01*
X108744211Y-70911498D01*
X108764746Y-71120000D01*
X108744211Y-71328502D01*
X108683393Y-71528991D01*
X108584632Y-71713761D01*
X108584630Y-71713763D01*
X108451718Y-71875718D01*
X108316414Y-71986758D01*
X108289761Y-72008632D01*
X108104991Y-72107393D01*
X107904502Y-72168211D01*
X107748251Y-72183600D01*
X107643749Y-72183600D01*
X107487498Y-72168211D01*
X107287009Y-72107393D01*
X107102239Y-72008632D01*
X107075586Y-71986758D01*
X106940282Y-71875718D01*
X106807370Y-71713763D01*
X106807368Y-71713761D01*
X106708607Y-71528991D01*
X106647789Y-71328502D01*
X106627254Y-71120000D01*
X106647789Y-70911498D01*
X106708607Y-70711009D01*
X106807368Y-70526239D01*
X106829242Y-70499586D01*
X106940282Y-70364282D01*
X107102237Y-70231370D01*
X107102239Y-70231368D01*
X107287009Y-70132607D01*
X107487498Y-70071789D01*
X107643749Y-70056400D01*
X107748251Y-70056400D01*
X107904502Y-70071789D01*
X107904502Y-70071789D01*
G37*
G36*
X105364502Y-70071789D02*
X105564991Y-70132607D01*
X105749761Y-70231368D01*
X105749763Y-70231370D01*
X105911718Y-70364282D01*
X106022758Y-70499586D01*
X106044632Y-70526239D01*
X106143393Y-70711009D01*
X106204211Y-70911498D01*
X106224746Y-71120000D01*
X106204211Y-71328502D01*
X106143393Y-71528991D01*
X106044632Y-71713761D01*
X106044630Y-71713763D01*
X105911718Y-71875718D01*
X105776414Y-71986758D01*
X105749761Y-72008632D01*
X105564991Y-72107393D01*
X105364502Y-72168211D01*
X105208251Y-72183600D01*
X105103749Y-72183600D01*
X104947498Y-72168211D01*
X104747009Y-72107393D01*
X104562239Y-72008632D01*
X104535586Y-71986758D01*
X104400282Y-71875718D01*
X104267370Y-71713763D01*
X104267368Y-71713761D01*
X104168607Y-71528991D01*
X104107789Y-71328502D01*
X104087254Y-71120000D01*
X104107789Y-70911498D01*
X104168607Y-70711009D01*
X104267368Y-70526239D01*
X104289242Y-70499586D01*
X104400282Y-70364282D01*
X104562237Y-70231370D01*
X104562239Y-70231368D01*
X104747009Y-70132607D01*
X104947498Y-70071789D01*
X105103749Y-70056400D01*
X105208251Y-70056400D01*
X105364502Y-70071789D01*
X105364502Y-70071789D01*
G37*
G36*
X102824502Y-70071789D02*
X103024991Y-70132607D01*
X103209761Y-70231368D01*
X103209763Y-70231370D01*
X103371718Y-70364282D01*
X103482758Y-70499586D01*
X103504632Y-70526239D01*
X103603393Y-70711009D01*
X103664211Y-70911498D01*
X103684746Y-71120000D01*
X103664211Y-71328502D01*
X103603393Y-71528991D01*
X103504632Y-71713761D01*
X103504630Y-71713763D01*
X103371718Y-71875718D01*
X103236414Y-71986758D01*
X103209761Y-72008632D01*
X103024991Y-72107393D01*
X102824502Y-72168211D01*
X102668251Y-72183600D01*
X102563749Y-72183600D01*
X102407498Y-72168211D01*
X102207009Y-72107393D01*
X102022239Y-72008632D01*
X101995586Y-71986758D01*
X101860282Y-71875718D01*
X101727370Y-71713763D01*
X101727368Y-71713761D01*
X101628607Y-71528991D01*
X101567789Y-71328502D01*
X101547254Y-71120000D01*
X101567789Y-70911498D01*
X101628607Y-70711009D01*
X101727368Y-70526239D01*
X101749242Y-70499586D01*
X101860282Y-70364282D01*
X102022237Y-70231370D01*
X102022239Y-70231368D01*
X102207009Y-70132607D01*
X102407498Y-70071789D01*
X102563749Y-70056400D01*
X102668251Y-70056400D01*
X102824502Y-70071789D01*
X102824502Y-70071789D01*
G37*
G36*
X100284502Y-70071789D02*
X100484991Y-70132607D01*
X100669761Y-70231368D01*
X100669763Y-70231370D01*
X100831718Y-70364282D01*
X100942758Y-70499586D01*
X100964632Y-70526239D01*
X101063393Y-70711009D01*
X101124211Y-70911498D01*
X101144746Y-71120000D01*
X101124211Y-71328502D01*
X101063393Y-71528991D01*
X100964632Y-71713761D01*
X100964630Y-71713763D01*
X100831718Y-71875718D01*
X100696414Y-71986758D01*
X100669761Y-72008632D01*
X100484991Y-72107393D01*
X100284502Y-72168211D01*
X100128251Y-72183600D01*
X100023749Y-72183600D01*
X99867498Y-72168211D01*
X99667009Y-72107393D01*
X99482239Y-72008632D01*
X99455586Y-71986758D01*
X99320282Y-71875718D01*
X99187370Y-71713763D01*
X99187368Y-71713761D01*
X99088607Y-71528991D01*
X99027789Y-71328502D01*
X99007254Y-71120000D01*
X99027789Y-70911498D01*
X99088607Y-70711009D01*
X99187368Y-70526239D01*
X99209242Y-70499586D01*
X99320282Y-70364282D01*
X99482237Y-70231370D01*
X99482239Y-70231368D01*
X99667009Y-70132607D01*
X99867498Y-70071789D01*
X100023749Y-70056400D01*
X100128251Y-70056400D01*
X100284502Y-70071789D01*
X100284502Y-70071789D01*
G37*
G36*
X97744502Y-70071789D02*
X97944991Y-70132607D01*
X98129761Y-70231368D01*
X98129763Y-70231370D01*
X98291718Y-70364282D01*
X98402758Y-70499586D01*
X98424632Y-70526239D01*
X98523393Y-70711009D01*
X98584211Y-70911498D01*
X98604746Y-71120000D01*
X98584211Y-71328502D01*
X98523393Y-71528991D01*
X98424632Y-71713761D01*
X98424630Y-71713763D01*
X98291718Y-71875718D01*
X98156414Y-71986758D01*
X98129761Y-72008632D01*
X97944991Y-72107393D01*
X97744502Y-72168211D01*
X97588251Y-72183600D01*
X97483749Y-72183600D01*
X97327498Y-72168211D01*
X97127009Y-72107393D01*
X96942239Y-72008632D01*
X96915586Y-71986758D01*
X96780282Y-71875718D01*
X96647370Y-71713763D01*
X96647368Y-71713761D01*
X96548607Y-71528991D01*
X96487789Y-71328502D01*
X96467254Y-71120000D01*
X96487789Y-70911498D01*
X96548607Y-70711009D01*
X96647368Y-70526239D01*
X96669242Y-70499586D01*
X96780282Y-70364282D01*
X96942237Y-70231370D01*
X96942239Y-70231368D01*
X97127009Y-70132607D01*
X97327498Y-70071789D01*
X97483749Y-70056400D01*
X97588251Y-70056400D01*
X97744502Y-70071789D01*
X97744502Y-70071789D01*
G37*
G36*
X95204502Y-70071789D02*
X95404991Y-70132607D01*
X95589761Y-70231368D01*
X95589763Y-70231370D01*
X95751718Y-70364282D01*
X95862758Y-70499586D01*
X95884632Y-70526239D01*
X95983393Y-70711009D01*
X96044211Y-70911498D01*
X96064746Y-71120000D01*
X96044211Y-71328502D01*
X95983393Y-71528991D01*
X95884632Y-71713761D01*
X95884630Y-71713763D01*
X95751718Y-71875718D01*
X95616414Y-71986758D01*
X95589761Y-72008632D01*
X95404991Y-72107393D01*
X95204502Y-72168211D01*
X95048251Y-72183600D01*
X94943749Y-72183600D01*
X94787498Y-72168211D01*
X94587009Y-72107393D01*
X94402239Y-72008632D01*
X94375586Y-71986758D01*
X94240282Y-71875718D01*
X94107370Y-71713763D01*
X94107368Y-71713761D01*
X94008607Y-71528991D01*
X93947789Y-71328502D01*
X93927254Y-71120000D01*
X93947789Y-70911498D01*
X94008607Y-70711009D01*
X94107368Y-70526239D01*
X94129242Y-70499586D01*
X94240282Y-70364282D01*
X94402237Y-70231370D01*
X94402239Y-70231368D01*
X94587009Y-70132607D01*
X94787498Y-70071789D01*
X94943749Y-70056400D01*
X95048251Y-70056400D01*
X95204502Y-70071789D01*
X95204502Y-70071789D01*
G37*
G36*
X155148502Y-70071789D02*
X155348991Y-70132607D01*
X155533761Y-70231368D01*
X155533763Y-70231370D01*
X155695718Y-70364282D01*
X155806758Y-70499586D01*
X155828632Y-70526239D01*
X155927393Y-70711009D01*
X155988211Y-70911498D01*
X156008746Y-71120000D01*
X155988211Y-71328502D01*
X155927393Y-71528991D01*
X155828632Y-71713761D01*
X155828630Y-71713763D01*
X155695718Y-71875718D01*
X155560414Y-71986758D01*
X155533761Y-72008632D01*
X155348991Y-72107393D01*
X155148502Y-72168211D01*
X154992251Y-72183600D01*
X154887749Y-72183600D01*
X154731498Y-72168211D01*
X154531009Y-72107393D01*
X154346239Y-72008632D01*
X154319586Y-71986758D01*
X154184282Y-71875718D01*
X154051370Y-71713763D01*
X154051368Y-71713761D01*
X153952607Y-71528991D01*
X153891789Y-71328502D01*
X153871254Y-71120000D01*
X153891789Y-70911498D01*
X153952607Y-70711009D01*
X154051368Y-70526239D01*
X154073242Y-70499586D01*
X154184282Y-70364282D01*
X154346237Y-70231370D01*
X154346239Y-70231368D01*
X154531009Y-70132607D01*
X154731498Y-70071789D01*
X154887749Y-70056400D01*
X154992251Y-70056400D01*
X155148502Y-70071789D01*
X155148502Y-70071789D01*
G37*
G36*
X157688502Y-70071789D02*
X157888991Y-70132607D01*
X158073761Y-70231368D01*
X158073763Y-70231370D01*
X158235718Y-70364282D01*
X158346758Y-70499586D01*
X158368632Y-70526239D01*
X158467393Y-70711009D01*
X158528211Y-70911498D01*
X158548746Y-71120000D01*
X158528211Y-71328502D01*
X158467393Y-71528991D01*
X158368632Y-71713761D01*
X158368630Y-71713763D01*
X158235718Y-71875718D01*
X158100414Y-71986758D01*
X158073761Y-72008632D01*
X157888991Y-72107393D01*
X157688502Y-72168211D01*
X157532251Y-72183600D01*
X157427749Y-72183600D01*
X157271498Y-72168211D01*
X157071009Y-72107393D01*
X156886239Y-72008632D01*
X156859586Y-71986758D01*
X156724282Y-71875718D01*
X156591370Y-71713763D01*
X156591368Y-71713761D01*
X156492607Y-71528991D01*
X156431789Y-71328502D01*
X156411254Y-71120000D01*
X156431789Y-70911498D01*
X156492607Y-70711009D01*
X156591368Y-70526239D01*
X156613242Y-70499586D01*
X156724282Y-70364282D01*
X156886237Y-70231370D01*
X156886239Y-70231368D01*
X157071009Y-70132607D01*
X157271498Y-70071789D01*
X157427749Y-70056400D01*
X157532251Y-70056400D01*
X157688502Y-70071789D01*
X157688502Y-70071789D01*
G37*
G36*
X160228502Y-70071789D02*
X160428991Y-70132607D01*
X160613761Y-70231368D01*
X160613763Y-70231370D01*
X160775718Y-70364282D01*
X160886758Y-70499586D01*
X160908632Y-70526239D01*
X161007393Y-70711009D01*
X161068211Y-70911498D01*
X161088746Y-71120000D01*
X161068211Y-71328502D01*
X161007393Y-71528991D01*
X160908632Y-71713761D01*
X160908630Y-71713763D01*
X160775718Y-71875718D01*
X160640414Y-71986758D01*
X160613761Y-72008632D01*
X160428991Y-72107393D01*
X160228502Y-72168211D01*
X160072251Y-72183600D01*
X159967749Y-72183600D01*
X159811498Y-72168211D01*
X159611009Y-72107393D01*
X159426239Y-72008632D01*
X159399586Y-71986758D01*
X159264282Y-71875718D01*
X159131370Y-71713763D01*
X159131368Y-71713761D01*
X159032607Y-71528991D01*
X158971789Y-71328502D01*
X158951254Y-71120000D01*
X158971789Y-70911498D01*
X159032607Y-70711009D01*
X159131368Y-70526239D01*
X159153242Y-70499586D01*
X159264282Y-70364282D01*
X159426237Y-70231370D01*
X159426239Y-70231368D01*
X159611009Y-70132607D01*
X159811498Y-70071789D01*
X159967749Y-70056400D01*
X160072251Y-70056400D01*
X160228502Y-70071789D01*
X160228502Y-70071789D01*
G37*
G36*
X162768502Y-70071789D02*
X162968991Y-70132607D01*
X163153761Y-70231368D01*
X163153763Y-70231370D01*
X163315718Y-70364282D01*
X163426758Y-70499586D01*
X163448632Y-70526239D01*
X163547393Y-70711009D01*
X163608211Y-70911498D01*
X163628746Y-71120000D01*
X163608211Y-71328502D01*
X163547393Y-71528991D01*
X163448632Y-71713761D01*
X163448630Y-71713763D01*
X163315718Y-71875718D01*
X163180414Y-71986758D01*
X163153761Y-72008632D01*
X162968991Y-72107393D01*
X162768502Y-72168211D01*
X162612251Y-72183600D01*
X162507749Y-72183600D01*
X162351498Y-72168211D01*
X162151009Y-72107393D01*
X161966239Y-72008632D01*
X161939586Y-71986758D01*
X161804282Y-71875718D01*
X161671370Y-71713763D01*
X161671368Y-71713761D01*
X161572607Y-71528991D01*
X161511789Y-71328502D01*
X161491254Y-71120000D01*
X161511789Y-70911498D01*
X161572607Y-70711009D01*
X161671368Y-70526239D01*
X161693242Y-70499586D01*
X161804282Y-70364282D01*
X161966237Y-70231370D01*
X161966239Y-70231368D01*
X162151009Y-70132607D01*
X162351498Y-70071789D01*
X162507749Y-70056400D01*
X162612251Y-70056400D01*
X162768502Y-70071789D01*
X162768502Y-70071789D01*
G37*
G36*
X170388502Y-70071789D02*
X170588991Y-70132607D01*
X170773761Y-70231368D01*
X170773763Y-70231370D01*
X170935718Y-70364282D01*
X171046758Y-70499586D01*
X171068632Y-70526239D01*
X171167393Y-70711009D01*
X171228211Y-70911498D01*
X171248746Y-71120000D01*
X171228211Y-71328502D01*
X171167393Y-71528991D01*
X171068632Y-71713761D01*
X171068630Y-71713763D01*
X170935718Y-71875718D01*
X170800414Y-71986758D01*
X170773761Y-72008632D01*
X170588991Y-72107393D01*
X170388502Y-72168211D01*
X170232251Y-72183600D01*
X170127749Y-72183600D01*
X169971498Y-72168211D01*
X169771009Y-72107393D01*
X169586239Y-72008632D01*
X169559586Y-71986758D01*
X169424282Y-71875718D01*
X169291370Y-71713763D01*
X169291368Y-71713761D01*
X169192607Y-71528991D01*
X169131789Y-71328502D01*
X169111254Y-71120000D01*
X169131789Y-70911498D01*
X169192607Y-70711009D01*
X169291368Y-70526239D01*
X169313242Y-70499586D01*
X169424282Y-70364282D01*
X169586237Y-70231370D01*
X169586239Y-70231368D01*
X169771009Y-70132607D01*
X169971498Y-70071789D01*
X170127749Y-70056400D01*
X170232251Y-70056400D01*
X170388502Y-70071789D01*
X170388502Y-70071789D01*
G37*
G36*
X172928502Y-70071789D02*
X173128991Y-70132607D01*
X173313761Y-70231368D01*
X173313763Y-70231370D01*
X173475718Y-70364282D01*
X173586758Y-70499586D01*
X173608632Y-70526239D01*
X173707393Y-70711009D01*
X173768211Y-70911498D01*
X173788746Y-71120000D01*
X173768211Y-71328502D01*
X173707393Y-71528991D01*
X173608632Y-71713761D01*
X173608630Y-71713763D01*
X173475718Y-71875718D01*
X173340414Y-71986758D01*
X173313761Y-72008632D01*
X173128991Y-72107393D01*
X172928502Y-72168211D01*
X172772251Y-72183600D01*
X172667749Y-72183600D01*
X172511498Y-72168211D01*
X172311009Y-72107393D01*
X172126239Y-72008632D01*
X172099586Y-71986758D01*
X171964282Y-71875718D01*
X171831370Y-71713763D01*
X171831368Y-71713761D01*
X171732607Y-71528991D01*
X171671789Y-71328502D01*
X171651254Y-71120000D01*
X171671789Y-70911498D01*
X171732607Y-70711009D01*
X171831368Y-70526239D01*
X171853242Y-70499586D01*
X171964282Y-70364282D01*
X172126237Y-70231370D01*
X172126239Y-70231368D01*
X172311009Y-70132607D01*
X172511498Y-70071789D01*
X172667749Y-70056400D01*
X172772251Y-70056400D01*
X172928502Y-70071789D01*
X172928502Y-70071789D01*
G37*
G36*
X150068502Y-70071789D02*
X150268991Y-70132607D01*
X150453761Y-70231368D01*
X150453763Y-70231370D01*
X150615718Y-70364282D01*
X150726758Y-70499586D01*
X150748632Y-70526239D01*
X150847393Y-70711009D01*
X150908211Y-70911498D01*
X150928746Y-71120000D01*
X150908211Y-71328502D01*
X150847393Y-71528991D01*
X150748632Y-71713761D01*
X150748630Y-71713763D01*
X150615718Y-71875718D01*
X150480414Y-71986758D01*
X150453761Y-72008632D01*
X150268991Y-72107393D01*
X150068502Y-72168211D01*
X149912251Y-72183600D01*
X149807749Y-72183600D01*
X149651498Y-72168211D01*
X149451009Y-72107393D01*
X149266239Y-72008632D01*
X149239586Y-71986758D01*
X149104282Y-71875718D01*
X148971370Y-71713763D01*
X148971368Y-71713761D01*
X148872607Y-71528991D01*
X148811789Y-71328502D01*
X148791254Y-71120000D01*
X148811789Y-70911498D01*
X148872607Y-70711009D01*
X148971368Y-70526239D01*
X148993242Y-70499586D01*
X149104282Y-70364282D01*
X149266237Y-70231370D01*
X149266239Y-70231368D01*
X149451009Y-70132607D01*
X149651498Y-70071789D01*
X149807749Y-70056400D01*
X149912251Y-70056400D01*
X150068502Y-70071789D01*
X150068502Y-70071789D01*
G37*
M02*
