G04 #@! TF.GenerationSoftware,KiCad,Pcbnew,(5.0.1)-3*
G04 #@! TF.CreationDate,2019-01-30T12:53:13+01:00*
G04 #@! TF.ProjectId,P300_Display_IF,503330305F446973706C61795F49462E,rev?*
G04 #@! TF.SameCoordinates,Original*
G04 #@! TF.FileFunction,Legend,Bot*
G04 #@! TF.FilePolarity,Positive*
%FSLAX46Y46*%
G04 Gerber Fmt 4.6, Leading zero omitted, Abs format (unit mm)*
G04 Created by KiCad (PCBNEW (5.0.1)-3) date 30.01.2019 12:53:13*
%MOMM*%
%LPD*%
G01*
G04 APERTURE LIST*
%ADD10C,0.300000*%
%ADD11C,0.200000*%
%ADD12C,0.120000*%
%ADD13C,0.150000*%
G04 APERTURE END LIST*
D10*
X132921428Y-101008571D02*
X133778571Y-101008571D01*
X133350000Y-101008571D02*
X133350000Y-99508571D01*
X133492857Y-99722857D01*
X133635714Y-99865714D01*
X133778571Y-99937142D01*
X106251428Y-86403571D02*
X107108571Y-86403571D01*
X106680000Y-86403571D02*
X106680000Y-84903571D01*
X106822857Y-85117857D01*
X106965714Y-85260714D01*
X107108571Y-85332142D01*
D11*
X117030476Y-113117380D02*
X117506666Y-113117380D01*
X117554285Y-113593571D01*
X117506666Y-113545952D01*
X117411428Y-113498333D01*
X117173333Y-113498333D01*
X117078095Y-113545952D01*
X117030476Y-113593571D01*
X116982857Y-113688809D01*
X116982857Y-113926904D01*
X117030476Y-114022142D01*
X117078095Y-114069761D01*
X117173333Y-114117380D01*
X117411428Y-114117380D01*
X117506666Y-114069761D01*
X117554285Y-114022142D01*
X116697142Y-113117380D02*
X116363809Y-114117380D01*
X116030476Y-113117380D01*
X110061190Y-113117380D02*
X109442142Y-113117380D01*
X109775476Y-113498333D01*
X109632619Y-113498333D01*
X109537380Y-113545952D01*
X109489761Y-113593571D01*
X109442142Y-113688809D01*
X109442142Y-113926904D01*
X109489761Y-114022142D01*
X109537380Y-114069761D01*
X109632619Y-114117380D01*
X109918333Y-114117380D01*
X110013571Y-114069761D01*
X110061190Y-114022142D01*
X108965952Y-114069761D02*
X108965952Y-114117380D01*
X109013571Y-114212619D01*
X109061190Y-114260238D01*
X108632619Y-113117380D02*
X108013571Y-113117380D01*
X108346904Y-113498333D01*
X108204047Y-113498333D01*
X108108809Y-113545952D01*
X108061190Y-113593571D01*
X108013571Y-113688809D01*
X108013571Y-113926904D01*
X108061190Y-114022142D01*
X108108809Y-114069761D01*
X108204047Y-114117380D01*
X108489761Y-114117380D01*
X108585000Y-114069761D01*
X108632619Y-114022142D01*
X107727857Y-113117380D02*
X107394523Y-114117380D01*
X107061190Y-113117380D01*
X130451904Y-89622380D02*
X129880476Y-89622380D01*
X130166190Y-90622380D02*
X130166190Y-89622380D01*
X129213809Y-90098571D02*
X129547142Y-90098571D01*
X129547142Y-90622380D02*
X129547142Y-89622380D01*
X129070952Y-89622380D01*
X128832857Y-89622380D02*
X128261428Y-89622380D01*
X128547142Y-90622380D02*
X128547142Y-89622380D01*
X127166190Y-90622380D02*
X127166190Y-89622380D01*
X126928095Y-89622380D01*
X126785238Y-89670000D01*
X126690000Y-89765238D01*
X126642380Y-89860476D01*
X126594761Y-90050952D01*
X126594761Y-90193809D01*
X126642380Y-90384285D01*
X126690000Y-90479523D01*
X126785238Y-90574761D01*
X126928095Y-90622380D01*
X127166190Y-90622380D01*
X126166190Y-90622380D02*
X126166190Y-89955714D01*
X126166190Y-89622380D02*
X126213809Y-89670000D01*
X126166190Y-89717619D01*
X126118571Y-89670000D01*
X126166190Y-89622380D01*
X126166190Y-89717619D01*
X125737619Y-90574761D02*
X125642380Y-90622380D01*
X125451904Y-90622380D01*
X125356666Y-90574761D01*
X125309047Y-90479523D01*
X125309047Y-90431904D01*
X125356666Y-90336666D01*
X125451904Y-90289047D01*
X125594761Y-90289047D01*
X125690000Y-90241428D01*
X125737619Y-90146190D01*
X125737619Y-90098571D01*
X125690000Y-90003333D01*
X125594761Y-89955714D01*
X125451904Y-89955714D01*
X125356666Y-90003333D01*
X124880476Y-89955714D02*
X124880476Y-90955714D01*
X124880476Y-90003333D02*
X124785238Y-89955714D01*
X124594761Y-89955714D01*
X124499523Y-90003333D01*
X124451904Y-90050952D01*
X124404285Y-90146190D01*
X124404285Y-90431904D01*
X124451904Y-90527142D01*
X124499523Y-90574761D01*
X124594761Y-90622380D01*
X124785238Y-90622380D01*
X124880476Y-90574761D01*
X123832857Y-90622380D02*
X123928095Y-90574761D01*
X123975714Y-90479523D01*
X123975714Y-89622380D01*
X123023333Y-90622380D02*
X123023333Y-90098571D01*
X123070952Y-90003333D01*
X123166190Y-89955714D01*
X123356666Y-89955714D01*
X123451904Y-90003333D01*
X123023333Y-90574761D02*
X123118571Y-90622380D01*
X123356666Y-90622380D01*
X123451904Y-90574761D01*
X123499523Y-90479523D01*
X123499523Y-90384285D01*
X123451904Y-90289047D01*
X123356666Y-90241428D01*
X123118571Y-90241428D01*
X123023333Y-90193809D01*
X122642380Y-89955714D02*
X122404285Y-90622380D01*
X122166190Y-89955714D02*
X122404285Y-90622380D01*
X122499523Y-90860476D01*
X122547142Y-90908095D01*
X122642380Y-90955714D01*
X120451904Y-90527142D02*
X120499523Y-90574761D01*
X120642380Y-90622380D01*
X120737619Y-90622380D01*
X120880476Y-90574761D01*
X120975714Y-90479523D01*
X121023333Y-90384285D01*
X121070952Y-90193809D01*
X121070952Y-90050952D01*
X121023333Y-89860476D01*
X120975714Y-89765238D01*
X120880476Y-89670000D01*
X120737619Y-89622380D01*
X120642380Y-89622380D01*
X120499523Y-89670000D01*
X120451904Y-89717619D01*
X119880476Y-90622380D02*
X119975714Y-90574761D01*
X120023333Y-90527142D01*
X120070952Y-90431904D01*
X120070952Y-90146190D01*
X120023333Y-90050952D01*
X119975714Y-90003333D01*
X119880476Y-89955714D01*
X119737619Y-89955714D01*
X119642380Y-90003333D01*
X119594761Y-90050952D01*
X119547142Y-90146190D01*
X119547142Y-90431904D01*
X119594761Y-90527142D01*
X119642380Y-90574761D01*
X119737619Y-90622380D01*
X119880476Y-90622380D01*
X119118571Y-89955714D02*
X119118571Y-90622380D01*
X119118571Y-90050952D02*
X119070952Y-90003333D01*
X118975714Y-89955714D01*
X118832857Y-89955714D01*
X118737619Y-90003333D01*
X118690000Y-90098571D01*
X118690000Y-90622380D01*
X118213809Y-89955714D02*
X118213809Y-90622380D01*
X118213809Y-90050952D02*
X118166190Y-90003333D01*
X118070952Y-89955714D01*
X117928095Y-89955714D01*
X117832857Y-90003333D01*
X117785238Y-90098571D01*
X117785238Y-90622380D01*
X116594761Y-89717619D02*
X116547142Y-89670000D01*
X116451904Y-89622380D01*
X116213809Y-89622380D01*
X116118571Y-89670000D01*
X116070952Y-89717619D01*
X116023333Y-89812857D01*
X116023333Y-89908095D01*
X116070952Y-90050952D01*
X116642380Y-90622380D01*
X116023333Y-90622380D01*
X126387857Y-95337380D02*
X125816428Y-95337380D01*
X126102142Y-96337380D02*
X126102142Y-95337380D01*
X125149761Y-95813571D02*
X125483095Y-95813571D01*
X125483095Y-96337380D02*
X125483095Y-95337380D01*
X125006904Y-95337380D01*
X124768809Y-95337380D02*
X124197380Y-95337380D01*
X124483095Y-96337380D02*
X124483095Y-95337380D01*
X123102142Y-96337380D02*
X123102142Y-95337380D01*
X122864047Y-95337380D01*
X122721190Y-95385000D01*
X122625952Y-95480238D01*
X122578333Y-95575476D01*
X122530714Y-95765952D01*
X122530714Y-95908809D01*
X122578333Y-96099285D01*
X122625952Y-96194523D01*
X122721190Y-96289761D01*
X122864047Y-96337380D01*
X123102142Y-96337380D01*
X122102142Y-96337380D02*
X122102142Y-95670714D01*
X122102142Y-95337380D02*
X122149761Y-95385000D01*
X122102142Y-95432619D01*
X122054523Y-95385000D01*
X122102142Y-95337380D01*
X122102142Y-95432619D01*
X121673571Y-96289761D02*
X121578333Y-96337380D01*
X121387857Y-96337380D01*
X121292619Y-96289761D01*
X121245000Y-96194523D01*
X121245000Y-96146904D01*
X121292619Y-96051666D01*
X121387857Y-96004047D01*
X121530714Y-96004047D01*
X121625952Y-95956428D01*
X121673571Y-95861190D01*
X121673571Y-95813571D01*
X121625952Y-95718333D01*
X121530714Y-95670714D01*
X121387857Y-95670714D01*
X121292619Y-95718333D01*
X120816428Y-95670714D02*
X120816428Y-96670714D01*
X120816428Y-95718333D02*
X120721190Y-95670714D01*
X120530714Y-95670714D01*
X120435476Y-95718333D01*
X120387857Y-95765952D01*
X120340238Y-95861190D01*
X120340238Y-96146904D01*
X120387857Y-96242142D01*
X120435476Y-96289761D01*
X120530714Y-96337380D01*
X120721190Y-96337380D01*
X120816428Y-96289761D01*
X119768809Y-96337380D02*
X119864047Y-96289761D01*
X119911666Y-96194523D01*
X119911666Y-95337380D01*
X118959285Y-96337380D02*
X118959285Y-95813571D01*
X119006904Y-95718333D01*
X119102142Y-95670714D01*
X119292619Y-95670714D01*
X119387857Y-95718333D01*
X118959285Y-96289761D02*
X119054523Y-96337380D01*
X119292619Y-96337380D01*
X119387857Y-96289761D01*
X119435476Y-96194523D01*
X119435476Y-96099285D01*
X119387857Y-96004047D01*
X119292619Y-95956428D01*
X119054523Y-95956428D01*
X118959285Y-95908809D01*
X118578333Y-95670714D02*
X118340238Y-96337380D01*
X118102142Y-95670714D02*
X118340238Y-96337380D01*
X118435476Y-96575476D01*
X118483095Y-96623095D01*
X118578333Y-96670714D01*
X116387857Y-96242142D02*
X116435476Y-96289761D01*
X116578333Y-96337380D01*
X116673571Y-96337380D01*
X116816428Y-96289761D01*
X116911666Y-96194523D01*
X116959285Y-96099285D01*
X117006904Y-95908809D01*
X117006904Y-95765952D01*
X116959285Y-95575476D01*
X116911666Y-95480238D01*
X116816428Y-95385000D01*
X116673571Y-95337380D01*
X116578333Y-95337380D01*
X116435476Y-95385000D01*
X116387857Y-95432619D01*
X115816428Y-96337380D02*
X115911666Y-96289761D01*
X115959285Y-96242142D01*
X116006904Y-96146904D01*
X116006904Y-95861190D01*
X115959285Y-95765952D01*
X115911666Y-95718333D01*
X115816428Y-95670714D01*
X115673571Y-95670714D01*
X115578333Y-95718333D01*
X115530714Y-95765952D01*
X115483095Y-95861190D01*
X115483095Y-96146904D01*
X115530714Y-96242142D01*
X115578333Y-96289761D01*
X115673571Y-96337380D01*
X115816428Y-96337380D01*
X115054523Y-95670714D02*
X115054523Y-96337380D01*
X115054523Y-95765952D02*
X115006904Y-95718333D01*
X114911666Y-95670714D01*
X114768809Y-95670714D01*
X114673571Y-95718333D01*
X114625952Y-95813571D01*
X114625952Y-96337380D01*
X114149761Y-95670714D02*
X114149761Y-96337380D01*
X114149761Y-95765952D02*
X114102142Y-95718333D01*
X114006904Y-95670714D01*
X113864047Y-95670714D01*
X113768809Y-95718333D01*
X113721190Y-95813571D01*
X113721190Y-96337380D01*
X111197380Y-96337380D02*
X111768809Y-96337380D01*
X111483095Y-96337380D02*
X111483095Y-95337380D01*
X111578333Y-95480238D01*
X111673571Y-95575476D01*
X111768809Y-95623095D01*
D12*
G04 #@! TO.C,J16*
X110390000Y-88745000D02*
X110390000Y-82745000D01*
X110390000Y-82745000D02*
X130910000Y-82745000D01*
X130910000Y-82745000D02*
X130910000Y-88745000D01*
X130910000Y-88745000D02*
X110390000Y-88745000D01*
X111760000Y-82745000D02*
X111760000Y-83745000D01*
X111760000Y-83745000D02*
X116840000Y-83745000D01*
X116840000Y-83745000D02*
X116840000Y-82745000D01*
X111760000Y-83745000D02*
X112010000Y-84175000D01*
X112010000Y-84175000D02*
X116840000Y-84175000D01*
X116840000Y-84175000D02*
X116840000Y-83745000D01*
X112010000Y-82745000D02*
X112010000Y-83745000D01*
X129540000Y-82745000D02*
X129540000Y-83745000D01*
X129540000Y-83745000D02*
X124460000Y-83745000D01*
X124460000Y-83745000D02*
X124460000Y-82745000D01*
X129540000Y-83745000D02*
X129290000Y-84175000D01*
X129290000Y-84175000D02*
X124460000Y-84175000D01*
X124460000Y-84175000D02*
X124460000Y-83745000D01*
X129290000Y-82745000D02*
X129290000Y-83745000D01*
X110960000Y-88745000D02*
X110960000Y-88125000D01*
X110960000Y-88125000D02*
X112560000Y-88125000D01*
X112560000Y-88125000D02*
X112560000Y-88745000D01*
X113500000Y-88745000D02*
X113500000Y-88125000D01*
X113500000Y-88125000D02*
X115100000Y-88125000D01*
X115100000Y-88125000D02*
X115100000Y-88745000D01*
X116040000Y-88745000D02*
X116040000Y-88125000D01*
X116040000Y-88125000D02*
X117640000Y-88125000D01*
X117640000Y-88125000D02*
X117640000Y-88745000D01*
X118580000Y-88745000D02*
X118580000Y-88125000D01*
X118580000Y-88125000D02*
X120180000Y-88125000D01*
X120180000Y-88125000D02*
X120180000Y-88745000D01*
X121120000Y-88745000D02*
X121120000Y-88125000D01*
X121120000Y-88125000D02*
X122720000Y-88125000D01*
X122720000Y-88125000D02*
X122720000Y-88745000D01*
X123660000Y-88745000D02*
X123660000Y-88125000D01*
X123660000Y-88125000D02*
X125260000Y-88125000D01*
X125260000Y-88125000D02*
X125260000Y-88745000D01*
X126200000Y-88745000D02*
X126200000Y-88125000D01*
X126200000Y-88125000D02*
X127800000Y-88125000D01*
X127800000Y-88125000D02*
X127800000Y-88745000D01*
X128740000Y-88745000D02*
X128740000Y-88125000D01*
X128740000Y-88125000D02*
X130340000Y-88125000D01*
X130340000Y-88125000D02*
X130340000Y-88745000D01*
G04 #@! TO.C,J15*
X130910000Y-97310000D02*
X130910000Y-103310000D01*
X130910000Y-103310000D02*
X110390000Y-103310000D01*
X110390000Y-103310000D02*
X110390000Y-97310000D01*
X110390000Y-97310000D02*
X130910000Y-97310000D01*
X129540000Y-103310000D02*
X129540000Y-102310000D01*
X129540000Y-102310000D02*
X124460000Y-102310000D01*
X124460000Y-102310000D02*
X124460000Y-103310000D01*
X129540000Y-102310000D02*
X129290000Y-101880000D01*
X129290000Y-101880000D02*
X124460000Y-101880000D01*
X124460000Y-101880000D02*
X124460000Y-102310000D01*
X129290000Y-103310000D02*
X129290000Y-102310000D01*
X111760000Y-103310000D02*
X111760000Y-102310000D01*
X111760000Y-102310000D02*
X116840000Y-102310000D01*
X116840000Y-102310000D02*
X116840000Y-103310000D01*
X111760000Y-102310000D02*
X112010000Y-101880000D01*
X112010000Y-101880000D02*
X116840000Y-101880000D01*
X116840000Y-101880000D02*
X116840000Y-102310000D01*
X112010000Y-103310000D02*
X112010000Y-102310000D01*
X130340000Y-97310000D02*
X130340000Y-97930000D01*
X130340000Y-97930000D02*
X128740000Y-97930000D01*
X128740000Y-97930000D02*
X128740000Y-97310000D01*
X127800000Y-97310000D02*
X127800000Y-97930000D01*
X127800000Y-97930000D02*
X126200000Y-97930000D01*
X126200000Y-97930000D02*
X126200000Y-97310000D01*
X125260000Y-97310000D02*
X125260000Y-97930000D01*
X125260000Y-97930000D02*
X123660000Y-97930000D01*
X123660000Y-97930000D02*
X123660000Y-97310000D01*
X122720000Y-97310000D02*
X122720000Y-97930000D01*
X122720000Y-97930000D02*
X121120000Y-97930000D01*
X121120000Y-97930000D02*
X121120000Y-97310000D01*
X120180000Y-97310000D02*
X120180000Y-97930000D01*
X120180000Y-97930000D02*
X118580000Y-97930000D01*
X118580000Y-97930000D02*
X118580000Y-97310000D01*
X117640000Y-97310000D02*
X117640000Y-97930000D01*
X117640000Y-97930000D02*
X116040000Y-97930000D01*
X116040000Y-97930000D02*
X116040000Y-97310000D01*
X115100000Y-97310000D02*
X115100000Y-97930000D01*
X115100000Y-97930000D02*
X113500000Y-97930000D01*
X113500000Y-97930000D02*
X113500000Y-97310000D01*
X112560000Y-97310000D02*
X112560000Y-97930000D01*
X112560000Y-97930000D02*
X110960000Y-97930000D01*
X110960000Y-97930000D02*
X110960000Y-97310000D01*
G04 #@! TD*
G04 #@! TO.C,J16*
D13*
X113569523Y-89677380D02*
X113569523Y-90391666D01*
X113617142Y-90534523D01*
X113712380Y-90629761D01*
X113855238Y-90677380D01*
X113950476Y-90677380D01*
X112569523Y-90677380D02*
X113140952Y-90677380D01*
X112855238Y-90677380D02*
X112855238Y-89677380D01*
X112950476Y-89820238D01*
X113045714Y-89915476D01*
X113140952Y-89963095D01*
X111712380Y-89677380D02*
X111902857Y-89677380D01*
X111998095Y-89725000D01*
X112045714Y-89772619D01*
X112140952Y-89915476D01*
X112188571Y-90105952D01*
X112188571Y-90486904D01*
X112140952Y-90582142D01*
X112093333Y-90629761D01*
X111998095Y-90677380D01*
X111807619Y-90677380D01*
X111712380Y-90629761D01*
X111664761Y-90582142D01*
X111617142Y-90486904D01*
X111617142Y-90248809D01*
X111664761Y-90153571D01*
X111712380Y-90105952D01*
X111807619Y-90058333D01*
X111998095Y-90058333D01*
X112093333Y-90105952D01*
X112140952Y-90153571D01*
X112188571Y-90248809D01*
G04 #@! TO.C,J15*
X129349523Y-95282380D02*
X129349523Y-95996666D01*
X129397142Y-96139523D01*
X129492380Y-96234761D01*
X129635238Y-96282380D01*
X129730476Y-96282380D01*
X128349523Y-96282380D02*
X128920952Y-96282380D01*
X128635238Y-96282380D02*
X128635238Y-95282380D01*
X128730476Y-95425238D01*
X128825714Y-95520476D01*
X128920952Y-95568095D01*
X127444761Y-95282380D02*
X127920952Y-95282380D01*
X127968571Y-95758571D01*
X127920952Y-95710952D01*
X127825714Y-95663333D01*
X127587619Y-95663333D01*
X127492380Y-95710952D01*
X127444761Y-95758571D01*
X127397142Y-95853809D01*
X127397142Y-96091904D01*
X127444761Y-96187142D01*
X127492380Y-96234761D01*
X127587619Y-96282380D01*
X127825714Y-96282380D01*
X127920952Y-96234761D01*
X127968571Y-96187142D01*
G04 #@! TD*
M02*
