G04 #@! TF.GenerationSoftware,KiCad,Pcbnew,(5.0.1)-3*
G04 #@! TF.CreationDate,2019-01-09T12:59:27+01:00*
G04 #@! TF.ProjectId,P300_Display_IF,503330305F446973706C61795F49462E,rev?*
G04 #@! TF.SameCoordinates,Original*
G04 #@! TF.FileFunction,Copper,L1,Top,Signal*
G04 #@! TF.FilePolarity,Positive*
%FSLAX46Y46*%
G04 Gerber Fmt 4.6, Leading zero omitted, Abs format (unit mm)*
G04 Created by KiCad (PCBNEW (5.0.1)-3) date 09.01.2019 12:59:27*
%MOMM*%
%LPD*%
G01*
G04 APERTURE LIST*
G04 #@! TA.AperFunction,ComponentPad*
%ADD10O,1.727200X1.727200*%
G04 #@! TD*
G04 #@! TA.AperFunction,ComponentPad*
%ADD11R,2.000000X2.600000*%
G04 #@! TD*
G04 #@! TA.AperFunction,ComponentPad*
%ADD12O,2.000000X2.600000*%
G04 #@! TD*
G04 APERTURE END LIST*
D10*
G04 #@! TO.P,,A0*
G04 #@! TO.N,LCD_RD*
X127000000Y-119380000D03*
G04 #@! TO.P,,VIN*
G04 #@! TO.N,Net-(XA1-PadVIN)*
X121920000Y-119380000D03*
G04 #@! TO.P,,GND3*
G04 #@! TO.N,Net-(XA1-PadGND3)*
X119380000Y-119380000D03*
G04 #@! TO.P,,GND2*
G04 #@! TO.N,Net-(XA1-PadGND2)*
X116840000Y-119380000D03*
G04 #@! TO.P,,5V1*
G04 #@! TO.N,+5V*
X114300000Y-119380000D03*
G04 #@! TO.P,,3V3*
G04 #@! TO.N,+3V3*
X111760000Y-119380000D03*
G04 #@! TO.P,,RST1*
G04 #@! TO.N,Net-(XA1-PadRST1)*
X109220000Y-119380000D03*
G04 #@! TO.P,,IORF*
G04 #@! TO.N,Net-(XA1-PadIORF)*
X106680000Y-119380000D03*
G04 #@! TO.P,,D0*
G04 #@! TO.N,Net-(XA1-PadD0)*
X139700000Y-71120000D03*
G04 #@! TO.P,,D1*
G04 #@! TO.N,Net-(XA1-PadD1)*
X137160000Y-71120000D03*
G04 #@! TO.P,,D2*
G04 #@! TO.N,Net-(XA1-PadD2)*
X134620000Y-71120000D03*
G04 #@! TO.P,,D3*
G04 #@! TO.N,Net-(XA1-PadD3)*
X132080000Y-71120000D03*
G04 #@! TO.P,,D4*
G04 #@! TO.N,Net-(XA1-PadD4)*
X129540000Y-71120000D03*
G04 #@! TO.P,,D5*
G04 #@! TO.N,Net-(XA1-PadD5)*
X127000000Y-71120000D03*
G04 #@! TO.P,,D6*
G04 #@! TO.N,LCD_D1*
X124460000Y-71120000D03*
G04 #@! TO.P,,D7*
G04 #@! TO.N,LCD_D0*
X121920000Y-71120000D03*
G04 #@! TO.P,,GND1*
G04 #@! TO.N,GND*
X102616000Y-71120000D03*
G04 #@! TO.P,,D8*
G04 #@! TO.N,LCD_D7*
X117856000Y-71120000D03*
G04 #@! TO.P,,D9*
G04 #@! TO.N,LCD_D6*
X115316000Y-71120000D03*
G04 #@! TO.P,,D10*
G04 #@! TO.N,LCD_D5*
X112776000Y-71120000D03*
G04 #@! TO.P,,AREF*
G04 #@! TO.N,Net-(XA1-PadAREF)*
X100076000Y-71120000D03*
G04 #@! TO.P,,D13*
G04 #@! TO.N,LCD_D2*
X105156000Y-71120000D03*
G04 #@! TO.P,,D12*
G04 #@! TO.N,LCD_D3*
X107696000Y-71120000D03*
G04 #@! TO.P,,D11*
G04 #@! TO.N,LCD_D4*
X110236000Y-71120000D03*
G04 #@! TO.P,,*
G04 #@! TO.N,*
X104140000Y-119380000D03*
G04 #@! TO.P,,A1*
G04 #@! TO.N,LCD_WR*
X129540000Y-119380000D03*
G04 #@! TO.P,,A2*
G04 #@! TO.N,LCD_RS*
X132080000Y-119380000D03*
G04 #@! TO.P,,A3*
G04 #@! TO.N,LCD_CS*
X134620000Y-119380000D03*
G04 #@! TO.P,,A4*
G04 #@! TO.N,LCD_RST*
X137160000Y-119380000D03*
G04 #@! TO.P,,A5*
G04 #@! TO.N,Net-(XA1-PadA5)*
X139700000Y-119380000D03*
G04 #@! TO.P,,A6*
G04 #@! TO.N,Net-(XA1-PadA6)*
X142240000Y-119380000D03*
G04 #@! TO.P,,A7*
G04 #@! TO.N,Net-(XA1-PadA7)*
X144780000Y-119380000D03*
G04 #@! TD*
D11*
G04 #@! TO.P,J16,1*
G04 #@! TO.N,LCD_D2*
X111760000Y-85725000D03*
D12*
G04 #@! TO.P,J16,2*
G04 #@! TO.N,LCD_D3*
X114300000Y-85725000D03*
G04 #@! TO.P,J16,3*
G04 #@! TO.N,LCD_D4*
X116840000Y-85725000D03*
G04 #@! TO.P,J16,4*
G04 #@! TO.N,LCD_D5*
X119380000Y-85725000D03*
G04 #@! TO.P,J16,5*
G04 #@! TO.N,LCD_D6*
X121920000Y-85725000D03*
G04 #@! TO.P,J16,6*
G04 #@! TO.N,LCD_D7*
X124460000Y-85725000D03*
G04 #@! TO.P,J16,7*
G04 #@! TO.N,LCD_D0*
X127000000Y-85725000D03*
G04 #@! TO.P,J16,8*
G04 #@! TO.N,LCD_D1*
X129540000Y-85725000D03*
G04 #@! TD*
D11*
G04 #@! TO.P,J15,1*
G04 #@! TO.N,LCD_RST*
X129540000Y-100330000D03*
D12*
G04 #@! TO.P,J15,2*
G04 #@! TO.N,LCD_CS*
X127000000Y-100330000D03*
G04 #@! TO.P,J15,3*
G04 #@! TO.N,LCD_RS*
X124460000Y-100330000D03*
G04 #@! TO.P,J15,4*
G04 #@! TO.N,LCD_WR*
X121920000Y-100330000D03*
G04 #@! TO.P,J15,5*
G04 #@! TO.N,LCD_RD*
X119380000Y-100330000D03*
G04 #@! TO.P,J15,6*
G04 #@! TO.N,GND*
X116840000Y-100330000D03*
G04 #@! TO.P,J15,7*
G04 #@! TO.N,+5V*
X114300000Y-100330000D03*
G04 #@! TO.P,J15,8*
G04 #@! TO.N,+3V3*
X111760000Y-100330000D03*
G04 #@! TD*
M02*
