M48
;DRILL file {KiCad (5.0.2)-1} date 06.01.2019 10:46:32
;FORMAT={-:-/ absolute / metric / decimal}
FMAT,2
METRIC,TZ
T1C1.016
T2C1.200
%
G90
G05
T1
X94.996Y-71.12
X97.536Y-71.12
X100.076Y-71.12
X102.616Y-71.12
X104.14Y-119.38
X105.156Y-71.12
X106.68Y-119.38
X107.696Y-71.12
X109.22Y-119.38
X110.236Y-71.12
X111.76Y-119.38
X112.776Y-71.12
X114.3Y-119.38
X115.316Y-71.12
X116.84Y-119.38
X117.856Y-71.12
X119.38Y-119.38
X121.92Y-71.12
X121.92Y-119.38
X124.46Y-71.12
X127.Y-71.12
X127.Y-119.38
X129.54Y-71.12
X129.54Y-119.38
X132.08Y-71.12
X132.08Y-119.38
X134.62Y-71.12
X134.62Y-119.38
X137.16Y-71.12
X137.16Y-119.38
X139.7Y-71.12
X139.7Y-119.38
X142.24Y-119.38
X144.78Y-71.12
X144.78Y-119.38
X147.32Y-71.12
X149.86Y-71.12
X149.86Y-119.38
X152.4Y-71.12
X152.4Y-119.38
X154.94Y-71.12
X154.94Y-119.38
X157.48Y-71.12
X157.48Y-119.38
X160.02Y-71.12
X160.02Y-119.38
X162.56Y-71.12
X162.56Y-119.38
X165.1Y-119.38
X167.64Y-119.38
X170.18Y-71.12
X170.18Y-73.66
X170.18Y-76.2
X170.18Y-78.74
X170.18Y-81.28
X170.18Y-83.82
X170.18Y-86.36
X170.18Y-88.9
X170.18Y-91.44
X170.18Y-93.98
X170.18Y-96.52
X170.18Y-99.06
X170.18Y-101.6
X170.18Y-104.14
X170.18Y-106.68
X170.18Y-109.22
X170.18Y-111.76
X170.18Y-114.3
X172.72Y-71.12
X172.72Y-73.66
X172.72Y-76.2
X172.72Y-78.74
X172.72Y-81.28
X172.72Y-83.82
X172.72Y-86.36
X172.72Y-88.9
X172.72Y-91.44
X172.72Y-93.98
X172.72Y-96.52
X172.72Y-99.06
X172.72Y-101.6
X172.72Y-104.14
X172.72Y-106.68
X172.72Y-109.22
X172.72Y-111.76
X172.72Y-114.3
T2
X111.76Y-100.33
X114.3Y-100.33
X116.84Y-100.33
X119.38Y-100.33
X121.92Y-100.33
X124.46Y-100.33
X127.Y-100.33
X129.54Y-100.33
X111.76Y-85.725
X114.3Y-85.725
X116.84Y-85.725
X119.38Y-85.725
X121.92Y-85.725
X124.46Y-85.725
X127.Y-85.725
X129.54Y-85.725
T0
M30
