G04 #@! TF.GenerationSoftware,KiCad,Pcbnew,(5.0.2)-1*
G04 #@! TF.CreationDate,2019-01-06T10:46:24+01:00*
G04 #@! TF.ProjectId,P300_Display_IF,50333030-5f44-4697-9370-6c61795f4946,rev?*
G04 #@! TF.SameCoordinates,Original*
G04 #@! TF.FileFunction,Copper,L1,Top*
G04 #@! TF.FilePolarity,Positive*
%FSLAX46Y46*%
G04 Gerber Fmt 4.6, Leading zero omitted, Abs format (unit mm)*
G04 Created by KiCad (PCBNEW (5.0.2)-1) date 06.01.2019 10:46:24*
%MOMM*%
%LPD*%
G01*
G04 APERTURE LIST*
G04 #@! TA.AperFunction,ComponentPad*
%ADD10O,1.727200X1.727200*%
G04 #@! TD*
G04 #@! TA.AperFunction,ComponentPad*
%ADD11R,2.000000X2.600000*%
G04 #@! TD*
G04 #@! TA.AperFunction,ComponentPad*
%ADD12O,2.000000X2.600000*%
G04 #@! TD*
G04 APERTURE END LIST*
D10*
G04 #@! TO.P,XA1,A0*
G04 #@! TO.N,LCD_RD*
X127000000Y-119380000D03*
G04 #@! TO.P,XA1,VIN*
G04 #@! TO.N,Net-(XA1-PadVIN)*
X121920000Y-119380000D03*
G04 #@! TO.P,XA1,GND3*
G04 #@! TO.N,Net-(XA1-PadGND3)*
X119380000Y-119380000D03*
G04 #@! TO.P,XA1,GND2*
G04 #@! TO.N,Net-(XA1-PadGND2)*
X116840000Y-119380000D03*
G04 #@! TO.P,XA1,5V1*
G04 #@! TO.N,+5V*
X114300000Y-119380000D03*
G04 #@! TO.P,XA1,3V3*
G04 #@! TO.N,+3V3*
X111760000Y-119380000D03*
G04 #@! TO.P,XA1,RST1*
G04 #@! TO.N,Net-(XA1-PadRST1)*
X109220000Y-119380000D03*
G04 #@! TO.P,XA1,IORF*
G04 #@! TO.N,Net-(XA1-PadIORF)*
X106680000Y-119380000D03*
G04 #@! TO.P,XA1,D21*
G04 #@! TO.N,SCL*
X162560000Y-71120000D03*
G04 #@! TO.P,XA1,D20*
G04 #@! TO.N,SDA*
X160020000Y-71120000D03*
G04 #@! TO.P,XA1,D19*
G04 #@! TO.N,Tacho_L2*
X157480000Y-71120000D03*
G04 #@! TO.P,XA1,D18*
G04 #@! TO.N,Tacho_L1*
X154940000Y-71120000D03*
G04 #@! TO.P,XA1,D17*
G04 #@! TO.N,CO2_TX*
X152400000Y-71120000D03*
G04 #@! TO.P,XA1,D16*
G04 #@! TO.N,CO2_RX*
X149860000Y-71120000D03*
G04 #@! TO.P,XA1,D15*
G04 #@! TO.N,Net-(XA1-PadD15)*
X147320000Y-71120000D03*
G04 #@! TO.P,XA1,D14*
G04 #@! TO.N,Net-(XA1-PadD14)*
X144780000Y-71120000D03*
G04 #@! TO.P,XA1,D0*
G04 #@! TO.N,Net-(XA1-PadD0)*
X139700000Y-71120000D03*
G04 #@! TO.P,XA1,D1*
G04 #@! TO.N,Net-(XA1-PadD1)*
X137160000Y-71120000D03*
G04 #@! TO.P,XA1,D2*
G04 #@! TO.N,Net-(XA1-PadD2)*
X134620000Y-71120000D03*
G04 #@! TO.P,XA1,D3*
G04 #@! TO.N,Net-(XA1-PadD3)*
X132080000Y-71120000D03*
G04 #@! TO.P,XA1,D4*
G04 #@! TO.N,Net-(XA1-PadD4)*
X129540000Y-71120000D03*
G04 #@! TO.P,XA1,D5*
G04 #@! TO.N,Net-(XA1-PadD5)*
X127000000Y-71120000D03*
G04 #@! TO.P,XA1,D6*
G04 #@! TO.N,LCD_D1*
X124460000Y-71120000D03*
G04 #@! TO.P,XA1,D7*
G04 #@! TO.N,LCD_D0*
X121920000Y-71120000D03*
G04 #@! TO.P,XA1,GND1*
G04 #@! TO.N,GND*
X102616000Y-71120000D03*
G04 #@! TO.P,XA1,D8*
G04 #@! TO.N,LCD_D7*
X117856000Y-71120000D03*
G04 #@! TO.P,XA1,D9*
G04 #@! TO.N,LCD_D6*
X115316000Y-71120000D03*
G04 #@! TO.P,XA1,D10*
G04 #@! TO.N,LCD_D5*
X112776000Y-71120000D03*
G04 #@! TO.P,XA1,SCL*
G04 #@! TO.N,Net-(XA1-PadSCL)*
X94996000Y-71120000D03*
G04 #@! TO.P,XA1,SDA*
G04 #@! TO.N,Net-(XA1-PadSDA)*
X97536000Y-71120000D03*
G04 #@! TO.P,XA1,AREF*
G04 #@! TO.N,Net-(XA1-PadAREF)*
X100076000Y-71120000D03*
G04 #@! TO.P,XA1,D13*
G04 #@! TO.N,LCD_D2*
X105156000Y-71120000D03*
G04 #@! TO.P,XA1,D12*
G04 #@! TO.N,LCD_D3*
X107696000Y-71120000D03*
G04 #@! TO.P,XA1,D11*
G04 #@! TO.N,LCD_D4*
X110236000Y-71120000D03*
G04 #@! TO.P,XA1,*
G04 #@! TO.N,*
X104140000Y-119380000D03*
G04 #@! TO.P,XA1,A1*
G04 #@! TO.N,LCD_WR*
X129540000Y-119380000D03*
G04 #@! TO.P,XA1,A2*
G04 #@! TO.N,LCD_RS*
X132080000Y-119380000D03*
G04 #@! TO.P,XA1,A3*
G04 #@! TO.N,LCD_CS*
X134620000Y-119380000D03*
G04 #@! TO.P,XA1,A4*
G04 #@! TO.N,LCD_RST*
X137160000Y-119380000D03*
G04 #@! TO.P,XA1,A5*
G04 #@! TO.N,Net-(XA1-PadA5)*
X139700000Y-119380000D03*
G04 #@! TO.P,XA1,A6*
G04 #@! TO.N,Net-(XA1-PadA6)*
X142240000Y-119380000D03*
G04 #@! TO.P,XA1,A7*
G04 #@! TO.N,Net-(XA1-PadA7)*
X144780000Y-119380000D03*
G04 #@! TO.P,XA1,A8*
G04 #@! TO.N,Net-(XA1-PadA8)*
X149860000Y-119380000D03*
G04 #@! TO.P,XA1,A9*
G04 #@! TO.N,DRUCK1*
X152400000Y-119380000D03*
G04 #@! TO.P,XA1,A10*
G04 #@! TO.N,DRUCK2*
X154940000Y-119380000D03*
G04 #@! TO.P,XA1,A11*
G04 #@! TO.N,Net-(XA1-PadA11)*
X157480000Y-119380000D03*
G04 #@! TO.P,XA1,A12*
G04 #@! TO.N,Net-(XA1-PadA12)*
X160020000Y-119380000D03*
G04 #@! TO.P,XA1,A13*
G04 #@! TO.N,Net-(XA1-PadA13)*
X162560000Y-119380000D03*
G04 #@! TO.P,XA1,A14*
G04 #@! TO.N,Net-(XA1-PadA14)*
X165100000Y-119380000D03*
G04 #@! TO.P,XA1,A15*
G04 #@! TO.N,TGS2600*
X167640000Y-119380000D03*
G04 #@! TO.P,XA1,5V3*
G04 #@! TO.N,Net-(XA1-Pad5V3)*
X170180000Y-71120000D03*
G04 #@! TO.P,XA1,5V4*
G04 #@! TO.N,Net-(XA1-Pad5V4)*
X172720000Y-71120000D03*
G04 #@! TO.P,XA1,D22*
G04 #@! TO.N,Net-(XA1-PadD22)*
X170180000Y-73660000D03*
G04 #@! TO.P,XA1,D23*
G04 #@! TO.N,Net-(XA1-PadD23)*
X172720000Y-73660000D03*
G04 #@! TO.P,XA1,D24*
G04 #@! TO.N,Net-(XA1-PadD24)*
X170180000Y-76200000D03*
G04 #@! TO.P,XA1,D25*
G04 #@! TO.N,Net-(XA1-PadD25)*
X172720000Y-76200000D03*
G04 #@! TO.P,XA1,D26*
G04 #@! TO.N,Net-(XA1-PadD26)*
X170180000Y-78740000D03*
G04 #@! TO.P,XA1,D27*
G04 #@! TO.N,Net-(XA1-PadD27)*
X172720000Y-78740000D03*
G04 #@! TO.P,XA1,D28*
G04 #@! TO.N,DHT1*
X170180000Y-81280000D03*
G04 #@! TO.P,XA1,D29*
G04 #@! TO.N,DHT2*
X172720000Y-81280000D03*
G04 #@! TO.P,XA1,D30*
G04 #@! TO.N,TEMP1*
X170180000Y-83820000D03*
G04 #@! TO.P,XA1,D31*
G04 #@! TO.N,TEMP2*
X172720000Y-83820000D03*
G04 #@! TO.P,XA1,D32*
G04 #@! TO.N,TEMP3*
X170180000Y-86360000D03*
G04 #@! TO.P,XA1,D33*
G04 #@! TO.N,TEMP4*
X172720000Y-86360000D03*
G04 #@! TO.P,XA1,D34*
G04 #@! TO.N,Net-(XA1-PadD34)*
X170180000Y-88900000D03*
G04 #@! TO.P,XA1,D35*
G04 #@! TO.N,Net-(XA1-PadD35)*
X172720000Y-88900000D03*
G04 #@! TO.P,XA1,D36*
G04 #@! TO.N,Net-(XA1-PadD36)*
X170180000Y-91440000D03*
G04 #@! TO.P,XA1,D37*
G04 #@! TO.N,Net-(XA1-PadD37)*
X172720000Y-91440000D03*
G04 #@! TO.P,XA1,D38*
G04 #@! TO.N,Net-(XA1-PadD38)*
X170180000Y-93980000D03*
G04 #@! TO.P,XA1,D39*
G04 #@! TO.N,Net-(XA1-PadD39)*
X172720000Y-93980000D03*
G04 #@! TO.P,XA1,D40*
G04 #@! TO.N,BP_POW*
X170180000Y-96520000D03*
G04 #@! TO.P,XA1,D41*
G04 #@! TO.N,BP_DIR*
X172720000Y-96520000D03*
G04 #@! TO.P,XA1,D42*
G04 #@! TO.N,L1*
X170180000Y-99060000D03*
G04 #@! TO.P,XA1,D43*
G04 #@! TO.N,L2*
X172720000Y-99060000D03*
G04 #@! TO.P,XA1,D44*
G04 #@! TO.N,PWM_L1*
X170180000Y-101600000D03*
G04 #@! TO.P,XA1,D45*
G04 #@! TO.N,Net-(XA1-PadD45)*
X172720000Y-101600000D03*
G04 #@! TO.P,XA1,D46*
G04 #@! TO.N,PWM_L2*
X170180000Y-104140000D03*
G04 #@! TO.P,XA1,D47*
G04 #@! TO.N,Net-(XA1-PadD47)*
X172720000Y-104140000D03*
G04 #@! TO.P,XA1,D48*
G04 #@! TO.N,Net-(XA1-PadD48)*
X170180000Y-106680000D03*
G04 #@! TO.P,XA1,D49*
G04 #@! TO.N,Net-(XA1-PadD49)*
X172720000Y-106680000D03*
G04 #@! TO.P,XA1,D50*
G04 #@! TO.N,Net-(XA1-PadD50)*
X170180000Y-109220000D03*
G04 #@! TO.P,XA1,D51*
G04 #@! TO.N,Net-(XA1-PadD51)*
X172720000Y-109220000D03*
G04 #@! TO.P,XA1,D52*
G04 #@! TO.N,Net-(XA1-PadD52)*
X170180000Y-111760000D03*
G04 #@! TO.P,XA1,D53*
G04 #@! TO.N,Net-(XA1-PadD53)*
X172720000Y-111760000D03*
G04 #@! TO.P,XA1,GND5*
G04 #@! TO.N,Net-(XA1-PadGND5)*
X170180000Y-114300000D03*
G04 #@! TO.P,XA1,GND6*
G04 #@! TO.N,Net-(XA1-PadGND6)*
X172720000Y-114300000D03*
G04 #@! TD*
D11*
G04 #@! TO.P,J16,1*
G04 #@! TO.N,LCD_D2*
X111760000Y-85725000D03*
D12*
G04 #@! TO.P,J16,2*
G04 #@! TO.N,LCD_D3*
X114300000Y-85725000D03*
G04 #@! TO.P,J16,3*
G04 #@! TO.N,LCD_D4*
X116840000Y-85725000D03*
G04 #@! TO.P,J16,4*
G04 #@! TO.N,LCD_D5*
X119380000Y-85725000D03*
G04 #@! TO.P,J16,5*
G04 #@! TO.N,LCD_D6*
X121920000Y-85725000D03*
G04 #@! TO.P,J16,6*
G04 #@! TO.N,LCD_D7*
X124460000Y-85725000D03*
G04 #@! TO.P,J16,7*
G04 #@! TO.N,LCD_D0*
X127000000Y-85725000D03*
G04 #@! TO.P,J16,8*
G04 #@! TO.N,LCD_D1*
X129540000Y-85725000D03*
G04 #@! TD*
D11*
G04 #@! TO.P,J15,1*
G04 #@! TO.N,LCD_RST*
X129540000Y-100330000D03*
D12*
G04 #@! TO.P,J15,2*
G04 #@! TO.N,LCD_CS*
X127000000Y-100330000D03*
G04 #@! TO.P,J15,3*
G04 #@! TO.N,LCD_RS*
X124460000Y-100330000D03*
G04 #@! TO.P,J15,4*
G04 #@! TO.N,LCD_WR*
X121920000Y-100330000D03*
G04 #@! TO.P,J15,5*
G04 #@! TO.N,LCD_RD*
X119380000Y-100330000D03*
G04 #@! TO.P,J15,6*
G04 #@! TO.N,GND*
X116840000Y-100330000D03*
G04 #@! TO.P,J15,7*
G04 #@! TO.N,+5V*
X114300000Y-100330000D03*
G04 #@! TO.P,J15,8*
G04 #@! TO.N,+3V3*
X111760000Y-100330000D03*
G04 #@! TD*
M02*
