M48
;DRILL file {KiCad (5.0.1)-3} date 09.01.2019 12:59:32
;FORMAT={-:-/ absolute / metric / decimal}
FMAT,2
METRIC,TZ
T1C1.016
T2C1.200
%
G90
G05
M71
T1
X100.076Y-71.12
X102.616Y-71.12
X104.14Y-119.38
X105.156Y-71.12
X106.68Y-119.38
X107.696Y-71.12
X109.22Y-119.38
X110.236Y-71.12
X111.76Y-119.38
X112.776Y-71.12
X114.3Y-119.38
X115.316Y-71.12
X116.84Y-119.38
X117.856Y-71.12
X119.38Y-119.38
X121.92Y-71.12
X121.92Y-119.38
X124.46Y-71.12
X127.Y-71.12
X127.Y-119.38
X129.54Y-71.12
X129.54Y-119.38
X132.08Y-71.12
X132.08Y-119.38
X134.62Y-71.12
X134.62Y-119.38
X137.16Y-71.12
X137.16Y-119.38
X139.7Y-71.12
X139.7Y-119.38
X142.24Y-119.38
X144.78Y-119.38
T2
X111.76Y-100.33
X114.3Y-100.33
X116.84Y-100.33
X119.38Y-100.33
X121.92Y-100.33
X124.46Y-100.33
X127.Y-100.33
X129.54Y-100.33
X111.76Y-85.725
X114.3Y-85.725
X116.84Y-85.725
X119.38Y-85.725
X121.92Y-85.725
X124.46Y-85.725
X127.Y-85.725
X129.54Y-85.725
T0
M30
