G04 #@! TF.GenerationSoftware,KiCad,Pcbnew,(5.0.1)-3*
G04 #@! TF.CreationDate,2019-01-30T12:53:13+01:00*
G04 #@! TF.ProjectId,P300_Display_IF,503330305F446973706C61795F49462E,rev?*
G04 #@! TF.SameCoordinates,Original*
G04 #@! TF.FileFunction,Copper,L2,Bot,Signal*
G04 #@! TF.FilePolarity,Positive*
%FSLAX46Y46*%
G04 Gerber Fmt 4.6, Leading zero omitted, Abs format (unit mm)*
G04 Created by KiCad (PCBNEW (5.0.1)-3) date 30.01.2019 12:53:13*
%MOMM*%
%LPD*%
G01*
G04 APERTURE LIST*
G04 #@! TA.AperFunction,ComponentPad*
%ADD10O,1.727200X1.727200*%
G04 #@! TD*
G04 #@! TA.AperFunction,ComponentPad*
%ADD11R,2.000000X2.600000*%
G04 #@! TD*
G04 #@! TA.AperFunction,ComponentPad*
%ADD12O,2.000000X2.600000*%
G04 #@! TD*
G04 #@! TA.AperFunction,Conductor*
%ADD13C,0.600000*%
G04 #@! TD*
G04 #@! TA.AperFunction,Conductor*
%ADD14C,0.250000*%
G04 #@! TD*
G04 #@! TA.AperFunction,Conductor*
%ADD15C,0.254000*%
G04 #@! TD*
G04 APERTURE END LIST*
D10*
G04 #@! TO.P,XA1,A0*
G04 #@! TO.N,LCD_RD*
X127000000Y-119380000D03*
G04 #@! TO.P,XA1,VIN*
G04 #@! TO.N,Net-(XA1-PadVIN)*
X121920000Y-119380000D03*
G04 #@! TO.P,XA1,GND*
G04 #@! TO.N,N/C*
X119380000Y-119380000D03*
X116840000Y-119380000D03*
G04 #@! TO.P,XA1,5V1*
G04 #@! TO.N,+5V*
X114300000Y-119380000D03*
G04 #@! TO.P,XA1,3V3*
G04 #@! TO.N,+3V3*
X111760000Y-119380000D03*
G04 #@! TO.P,XA1,RST1*
G04 #@! TO.N,Net-(XA1-PadRST1)*
X109220000Y-119380000D03*
G04 #@! TO.P,XA1,D0*
G04 #@! TO.N,Net-(XA1-PadD0)*
X139700000Y-71120000D03*
G04 #@! TO.P,XA1,D1*
G04 #@! TO.N,Net-(XA1-PadD1)*
X137160000Y-71120000D03*
G04 #@! TO.P,XA1,D2*
G04 #@! TO.N,LCD_D2*
X134620000Y-71120000D03*
G04 #@! TO.P,XA1,D3*
G04 #@! TO.N,LCD_D3*
X132080000Y-71120000D03*
G04 #@! TO.P,XA1,D4*
G04 #@! TO.N,LCD_D4*
X129540000Y-71120000D03*
G04 #@! TO.P,XA1,D5*
G04 #@! TO.N,LCD_D5*
X127000000Y-71120000D03*
G04 #@! TO.P,XA1,D6*
G04 #@! TO.N,LCD_D6*
X124460000Y-71120000D03*
G04 #@! TO.P,XA1,D7*
G04 #@! TO.N,LCD_D7*
X121920000Y-71120000D03*
G04 #@! TO.P,XA1,GND1*
G04 #@! TO.N,GND*
X102616000Y-71120000D03*
G04 #@! TO.P,XA1,D8*
G04 #@! TO.N,LCD_D0*
X117856000Y-71120000D03*
G04 #@! TO.P,XA1,D9*
G04 #@! TO.N,LCD_D1*
X115316000Y-71120000D03*
G04 #@! TO.P,XA1,D10*
G04 #@! TO.N,Net-(XA1-PadD10)*
X112776000Y-71120000D03*
G04 #@! TO.P,XA1,AREF*
G04 #@! TO.N,Net-(XA1-PadAREF)*
X100076000Y-71120000D03*
G04 #@! TO.P,XA1,D13*
G04 #@! TO.N,Net-(XA1-PadD13)*
X105156000Y-71120000D03*
G04 #@! TO.P,XA1,D12*
G04 #@! TO.N,Net-(XA1-PadD12)*
X107696000Y-71120000D03*
G04 #@! TO.P,XA1,D11*
G04 #@! TO.N,Net-(XA1-PadD11)*
X110236000Y-71120000D03*
G04 #@! TO.P,XA1,A1*
G04 #@! TO.N,LCD_WR*
X129540000Y-119380000D03*
G04 #@! TO.P,XA1,A2*
G04 #@! TO.N,LCD_RS*
X132080000Y-119380000D03*
G04 #@! TO.P,XA1,A3*
G04 #@! TO.N,LCD_CS*
X134620000Y-119380000D03*
G04 #@! TO.P,XA1,A4*
G04 #@! TO.N,LCD_RST*
X137160000Y-119380000D03*
G04 #@! TO.P,XA1,A5*
G04 #@! TO.N,Net-(XA1-PadA5)*
X139700000Y-119380000D03*
G04 #@! TD*
D11*
G04 #@! TO.P,J16,1*
G04 #@! TO.N,LCD_D1*
X111760000Y-85725000D03*
D12*
G04 #@! TO.P,J16,2*
G04 #@! TO.N,LCD_D0*
X114300000Y-85725000D03*
G04 #@! TO.P,J16,3*
G04 #@! TO.N,LCD_D7*
X116840000Y-85725000D03*
G04 #@! TO.P,J16,4*
G04 #@! TO.N,LCD_D6*
X119380000Y-85725000D03*
G04 #@! TO.P,J16,5*
G04 #@! TO.N,LCD_D5*
X121920000Y-85725000D03*
G04 #@! TO.P,J16,6*
G04 #@! TO.N,LCD_D4*
X124460000Y-85725000D03*
G04 #@! TO.P,J16,7*
G04 #@! TO.N,LCD_D3*
X127000000Y-85725000D03*
G04 #@! TO.P,J16,8*
G04 #@! TO.N,LCD_D2*
X129540000Y-85725000D03*
G04 #@! TD*
D11*
G04 #@! TO.P,J15,1*
G04 #@! TO.N,LCD_RST*
X129540000Y-100330000D03*
D12*
G04 #@! TO.P,J15,2*
G04 #@! TO.N,LCD_CS*
X127000000Y-100330000D03*
G04 #@! TO.P,J15,3*
G04 #@! TO.N,LCD_RS*
X124460000Y-100330000D03*
G04 #@! TO.P,J15,4*
G04 #@! TO.N,LCD_WR*
X121920000Y-100330000D03*
G04 #@! TO.P,J15,5*
G04 #@! TO.N,LCD_RD*
X119380000Y-100330000D03*
G04 #@! TO.P,J15,6*
G04 #@! TO.N,GND*
X116840000Y-100330000D03*
G04 #@! TO.P,J15,7*
G04 #@! TO.N,+5V*
X114300000Y-100330000D03*
G04 #@! TO.P,J15,8*
G04 #@! TO.N,+3V3*
X111760000Y-100330000D03*
G04 #@! TD*
D13*
G04 #@! TO.N,+5V*
X114300000Y-119380000D02*
X114300000Y-100330000D01*
G04 #@! TO.N,+3V3*
X111760000Y-118158686D02*
X111760000Y-100330000D01*
X111760000Y-119380000D02*
X111760000Y-118158686D01*
D14*
G04 #@! TO.N,LCD_RST*
X129540000Y-100330000D02*
X129540000Y-106680000D01*
X129540000Y-106680000D02*
X137160000Y-114300000D01*
X137160000Y-114300000D02*
X137160000Y-119380000D01*
G04 #@! TO.N,LCD_CS*
X134620000Y-114300000D02*
X134620000Y-119380000D01*
X127000000Y-100330000D02*
X127000000Y-106680000D01*
X127000000Y-106680000D02*
X134620000Y-114300000D01*
G04 #@! TO.N,LCD_RS*
X132080000Y-119380000D02*
X132080000Y-114300000D01*
X124460000Y-106680000D02*
X124460000Y-100330000D01*
X132080000Y-114300000D02*
X124460000Y-106680000D01*
G04 #@! TO.N,LCD_WR*
X129540000Y-119380000D02*
X129540000Y-114935000D01*
X121920000Y-107315000D02*
X121920000Y-100330000D01*
X129540000Y-114935000D02*
X121920000Y-107315000D01*
G04 #@! TO.N,LCD_RD*
X127000000Y-119380000D02*
X127000000Y-115570000D01*
X119380000Y-107950000D02*
X119380000Y-100330000D01*
X127000000Y-115570000D02*
X119380000Y-107950000D01*
G04 #@! TO.N,LCD_D1*
X111760000Y-74676000D02*
X115316000Y-71120000D01*
X111760000Y-85725000D02*
X111760000Y-74676000D01*
G04 #@! TO.N,LCD_D0*
X114300000Y-74676000D02*
X117856000Y-71120000D01*
X114300000Y-85725000D02*
X114300000Y-74676000D01*
G04 #@! TO.N,LCD_D7*
X116840000Y-76200000D02*
X121920000Y-71120000D01*
X116840000Y-85725000D02*
X116840000Y-76200000D01*
G04 #@! TO.N,LCD_D6*
X119380000Y-76200000D02*
X124460000Y-71120000D01*
X119380000Y-85725000D02*
X119380000Y-76200000D01*
G04 #@! TO.N,LCD_D5*
X121920000Y-76200000D02*
X127000000Y-71120000D01*
X121920000Y-85725000D02*
X121920000Y-76200000D01*
G04 #@! TO.N,LCD_D2*
X129540000Y-76200000D02*
X134620000Y-71120000D01*
X129540000Y-85725000D02*
X129540000Y-76200000D01*
G04 #@! TO.N,LCD_D3*
X127000000Y-76200000D02*
X132080000Y-71120000D01*
X127000000Y-85725000D02*
X127000000Y-76200000D01*
G04 #@! TO.N,LCD_D4*
X124460000Y-76200000D02*
X129540000Y-71120000D01*
X124460000Y-85725000D02*
X124460000Y-76200000D01*
G04 #@! TD*
D15*
G04 #@! TO.N,GND*
G36*
X145288000Y-121793000D02*
X88392000Y-121793000D01*
X88392000Y-120762767D01*
X88903974Y-121274741D01*
X89725431Y-121615000D01*
X90614569Y-121615000D01*
X91436026Y-121274741D01*
X92064741Y-120646026D01*
X92405000Y-119824569D01*
X92405000Y-119380000D01*
X107692041Y-119380000D01*
X107808350Y-119964725D01*
X108139570Y-120460430D01*
X108635275Y-120791650D01*
X109072402Y-120878600D01*
X109367598Y-120878600D01*
X109804725Y-120791650D01*
X110300430Y-120460430D01*
X110490000Y-120176719D01*
X110679570Y-120460430D01*
X111175275Y-120791650D01*
X111612402Y-120878600D01*
X111907598Y-120878600D01*
X112344725Y-120791650D01*
X112840430Y-120460430D01*
X113030000Y-120176719D01*
X113219570Y-120460430D01*
X113715275Y-120791650D01*
X114152402Y-120878600D01*
X114447598Y-120878600D01*
X114884725Y-120791650D01*
X115380430Y-120460430D01*
X115570000Y-120176719D01*
X115759570Y-120460430D01*
X116255275Y-120791650D01*
X116692402Y-120878600D01*
X116987598Y-120878600D01*
X117424725Y-120791650D01*
X117920430Y-120460430D01*
X118110000Y-120176719D01*
X118299570Y-120460430D01*
X118795275Y-120791650D01*
X119232402Y-120878600D01*
X119527598Y-120878600D01*
X119964725Y-120791650D01*
X120460430Y-120460430D01*
X120650000Y-120176719D01*
X120839570Y-120460430D01*
X121335275Y-120791650D01*
X121772402Y-120878600D01*
X122067598Y-120878600D01*
X122504725Y-120791650D01*
X123000430Y-120460430D01*
X123331650Y-119964725D01*
X123447959Y-119380000D01*
X123331650Y-118795275D01*
X123000430Y-118299570D01*
X122504725Y-117968350D01*
X122067598Y-117881400D01*
X121772402Y-117881400D01*
X121335275Y-117968350D01*
X120839570Y-118299570D01*
X120650000Y-118583281D01*
X120460430Y-118299570D01*
X119964725Y-117968350D01*
X119527598Y-117881400D01*
X119232402Y-117881400D01*
X118795275Y-117968350D01*
X118299570Y-118299570D01*
X118110000Y-118583281D01*
X117920430Y-118299570D01*
X117424725Y-117968350D01*
X116987598Y-117881400D01*
X116692402Y-117881400D01*
X116255275Y-117968350D01*
X115759570Y-118299570D01*
X115570000Y-118583281D01*
X115380430Y-118299570D01*
X115235000Y-118202397D01*
X115235000Y-101971650D01*
X115478769Y-101808769D01*
X115589952Y-101642371D01*
X115773683Y-101875922D01*
X116331645Y-102189144D01*
X116459566Y-102220124D01*
X116713000Y-102100777D01*
X116713000Y-100457000D01*
X116693000Y-100457000D01*
X116693000Y-100203000D01*
X116713000Y-100203000D01*
X116713000Y-98559223D01*
X116967000Y-98559223D01*
X116967000Y-100203000D01*
X116987000Y-100203000D01*
X116987000Y-100457000D01*
X116967000Y-100457000D01*
X116967000Y-102100777D01*
X117220434Y-102220124D01*
X117348355Y-102189144D01*
X117906317Y-101875922D01*
X118090048Y-101642371D01*
X118201231Y-101808769D01*
X118620001Y-102088582D01*
X118620000Y-107875153D01*
X118605112Y-107950000D01*
X118620000Y-108024847D01*
X118620000Y-108024851D01*
X118664096Y-108246536D01*
X118832071Y-108497929D01*
X118895530Y-108540331D01*
X126240001Y-115884804D01*
X126240000Y-118085465D01*
X125919570Y-118299570D01*
X125588350Y-118795275D01*
X125472041Y-119380000D01*
X125588350Y-119964725D01*
X125919570Y-120460430D01*
X126415275Y-120791650D01*
X126852402Y-120878600D01*
X127147598Y-120878600D01*
X127584725Y-120791650D01*
X128080430Y-120460430D01*
X128270000Y-120176719D01*
X128459570Y-120460430D01*
X128955275Y-120791650D01*
X129392402Y-120878600D01*
X129687598Y-120878600D01*
X130124725Y-120791650D01*
X130620430Y-120460430D01*
X130810000Y-120176719D01*
X130999570Y-120460430D01*
X131495275Y-120791650D01*
X131932402Y-120878600D01*
X132227598Y-120878600D01*
X132664725Y-120791650D01*
X133160430Y-120460430D01*
X133350000Y-120176719D01*
X133539570Y-120460430D01*
X134035275Y-120791650D01*
X134472402Y-120878600D01*
X134767598Y-120878600D01*
X135204725Y-120791650D01*
X135700430Y-120460430D01*
X135890000Y-120176719D01*
X136079570Y-120460430D01*
X136575275Y-120791650D01*
X137012402Y-120878600D01*
X137307598Y-120878600D01*
X137744725Y-120791650D01*
X138240430Y-120460430D01*
X138430000Y-120176719D01*
X138619570Y-120460430D01*
X139115275Y-120791650D01*
X139552402Y-120878600D01*
X139847598Y-120878600D01*
X140284725Y-120791650D01*
X140780430Y-120460430D01*
X141111650Y-119964725D01*
X141227959Y-119380000D01*
X141111650Y-118795275D01*
X140780430Y-118299570D01*
X140284725Y-117968350D01*
X139847598Y-117881400D01*
X139552402Y-117881400D01*
X139115275Y-117968350D01*
X138619570Y-118299570D01*
X138430000Y-118583281D01*
X138240430Y-118299570D01*
X137920000Y-118085465D01*
X137920000Y-114374846D01*
X137934888Y-114299999D01*
X137920000Y-114225152D01*
X137920000Y-114225148D01*
X137875904Y-114003463D01*
X137834102Y-113940902D01*
X137750329Y-113815526D01*
X137750327Y-113815524D01*
X137707929Y-113752071D01*
X137644476Y-113709673D01*
X135250234Y-111315431D01*
X138735000Y-111315431D01*
X138735000Y-112204569D01*
X139075259Y-113026026D01*
X139703974Y-113654741D01*
X140525431Y-113995000D01*
X141414569Y-113995000D01*
X142236026Y-113654741D01*
X142864741Y-113026026D01*
X143205000Y-112204569D01*
X143205000Y-111315431D01*
X142864741Y-110493974D01*
X142236026Y-109865259D01*
X141414569Y-109525000D01*
X140525431Y-109525000D01*
X139703974Y-109865259D01*
X139075259Y-110493974D01*
X138735000Y-111315431D01*
X135250234Y-111315431D01*
X130300000Y-106365199D01*
X130300000Y-102277440D01*
X130540000Y-102277440D01*
X130787765Y-102228157D01*
X130997809Y-102087809D01*
X131138157Y-101877765D01*
X131187440Y-101630000D01*
X131187440Y-99030000D01*
X131138157Y-98782235D01*
X130997809Y-98572191D01*
X130787765Y-98431843D01*
X130540000Y-98382560D01*
X128540000Y-98382560D01*
X128292235Y-98431843D01*
X128082191Y-98572191D01*
X127983100Y-98720489D01*
X127637945Y-98489864D01*
X127000000Y-98362969D01*
X126362056Y-98489864D01*
X125821231Y-98851231D01*
X125730000Y-98987768D01*
X125638769Y-98851231D01*
X125097945Y-98489864D01*
X124460000Y-98362969D01*
X123822056Y-98489864D01*
X123281231Y-98851231D01*
X123190000Y-98987768D01*
X123098769Y-98851231D01*
X122557945Y-98489864D01*
X121920000Y-98362969D01*
X121282056Y-98489864D01*
X120741231Y-98851231D01*
X120650000Y-98987768D01*
X120558769Y-98851231D01*
X120017945Y-98489864D01*
X119380000Y-98362969D01*
X118742056Y-98489864D01*
X118201231Y-98851231D01*
X118090048Y-99017629D01*
X117906317Y-98784078D01*
X117348355Y-98470856D01*
X117220434Y-98439876D01*
X116967000Y-98559223D01*
X116713000Y-98559223D01*
X116459566Y-98439876D01*
X116331645Y-98470856D01*
X115773683Y-98784078D01*
X115589952Y-99017629D01*
X115478769Y-98851231D01*
X114937945Y-98489864D01*
X114300000Y-98362969D01*
X113662056Y-98489864D01*
X113121231Y-98851231D01*
X113030000Y-98987768D01*
X112938769Y-98851231D01*
X112397945Y-98489864D01*
X111760000Y-98362969D01*
X111122056Y-98489864D01*
X110581231Y-98851231D01*
X110219864Y-99392055D01*
X110125000Y-99868969D01*
X110125000Y-100791030D01*
X110219864Y-101267944D01*
X110581231Y-101808769D01*
X110825001Y-101971651D01*
X110825000Y-118202397D01*
X110679570Y-118299570D01*
X110490000Y-118583281D01*
X110300430Y-118299570D01*
X109804725Y-117968350D01*
X109367598Y-117881400D01*
X109072402Y-117881400D01*
X108635275Y-117968350D01*
X108139570Y-118299570D01*
X107808350Y-118795275D01*
X107692041Y-119380000D01*
X92405000Y-119380000D01*
X92405000Y-118935431D01*
X92064741Y-118113974D01*
X91436026Y-117485259D01*
X90614569Y-117145000D01*
X89725431Y-117145000D01*
X88903974Y-117485259D01*
X88392000Y-117997233D01*
X88392000Y-70675431D01*
X89205000Y-70675431D01*
X89205000Y-71564569D01*
X89545259Y-72386026D01*
X90173974Y-73014741D01*
X90995431Y-73355000D01*
X91884569Y-73355000D01*
X92706026Y-73014741D01*
X93334741Y-72386026D01*
X93675000Y-71564569D01*
X93675000Y-71120000D01*
X98548041Y-71120000D01*
X98664350Y-71704725D01*
X98995570Y-72200430D01*
X99491275Y-72531650D01*
X99928402Y-72618600D01*
X100223598Y-72618600D01*
X100660725Y-72531650D01*
X101156430Y-72200430D01*
X101349037Y-71912174D01*
X101727510Y-72326821D01*
X102256973Y-72574968D01*
X102489000Y-72454469D01*
X102489000Y-71247000D01*
X102469000Y-71247000D01*
X102469000Y-70993000D01*
X102489000Y-70993000D01*
X102489000Y-69785531D01*
X102743000Y-69785531D01*
X102743000Y-70993000D01*
X102763000Y-70993000D01*
X102763000Y-71247000D01*
X102743000Y-71247000D01*
X102743000Y-72454469D01*
X102975027Y-72574968D01*
X103504490Y-72326821D01*
X103882963Y-71912174D01*
X104075570Y-72200430D01*
X104571275Y-72531650D01*
X105008402Y-72618600D01*
X105303598Y-72618600D01*
X105740725Y-72531650D01*
X106236430Y-72200430D01*
X106426000Y-71916719D01*
X106615570Y-72200430D01*
X107111275Y-72531650D01*
X107548402Y-72618600D01*
X107843598Y-72618600D01*
X108280725Y-72531650D01*
X108776430Y-72200430D01*
X108966000Y-71916719D01*
X109155570Y-72200430D01*
X109651275Y-72531650D01*
X110088402Y-72618600D01*
X110383598Y-72618600D01*
X110820725Y-72531650D01*
X111316430Y-72200430D01*
X111506000Y-71916719D01*
X111695570Y-72200430D01*
X112191275Y-72531650D01*
X112628402Y-72618600D01*
X112742598Y-72618600D01*
X111275528Y-74085671D01*
X111212072Y-74128071D01*
X111169672Y-74191527D01*
X111169671Y-74191528D01*
X111044097Y-74379463D01*
X110985112Y-74676000D01*
X111000001Y-74750852D01*
X111000000Y-83777560D01*
X110760000Y-83777560D01*
X110512235Y-83826843D01*
X110302191Y-83967191D01*
X110161843Y-84177235D01*
X110112560Y-84425000D01*
X110112560Y-87025000D01*
X110161843Y-87272765D01*
X110302191Y-87482809D01*
X110512235Y-87623157D01*
X110760000Y-87672440D01*
X112760000Y-87672440D01*
X113007765Y-87623157D01*
X113217809Y-87482809D01*
X113316900Y-87334510D01*
X113662056Y-87565136D01*
X114300000Y-87692031D01*
X114937945Y-87565136D01*
X115478769Y-87203769D01*
X115570000Y-87067232D01*
X115661231Y-87203769D01*
X116202056Y-87565136D01*
X116840000Y-87692031D01*
X117477945Y-87565136D01*
X118018769Y-87203769D01*
X118110000Y-87067232D01*
X118201231Y-87203769D01*
X118742056Y-87565136D01*
X119380000Y-87692031D01*
X120017945Y-87565136D01*
X120558769Y-87203769D01*
X120650000Y-87067232D01*
X120741231Y-87203769D01*
X121282056Y-87565136D01*
X121920000Y-87692031D01*
X122557945Y-87565136D01*
X123098769Y-87203769D01*
X123190000Y-87067232D01*
X123281231Y-87203769D01*
X123822056Y-87565136D01*
X124460000Y-87692031D01*
X125097945Y-87565136D01*
X125638769Y-87203769D01*
X125730000Y-87067232D01*
X125821231Y-87203769D01*
X126362056Y-87565136D01*
X127000000Y-87692031D01*
X127637945Y-87565136D01*
X128178769Y-87203769D01*
X128270000Y-87067232D01*
X128361231Y-87203769D01*
X128902056Y-87565136D01*
X129540000Y-87692031D01*
X130177945Y-87565136D01*
X130718769Y-87203769D01*
X131080136Y-86662945D01*
X131175000Y-86186030D01*
X131175000Y-85263969D01*
X131080136Y-84787055D01*
X130718769Y-84246231D01*
X130300000Y-83966419D01*
X130300000Y-78295431D01*
X138735000Y-78295431D01*
X138735000Y-79184569D01*
X139075259Y-80006026D01*
X139703974Y-80634741D01*
X140525431Y-80975000D01*
X141414569Y-80975000D01*
X142236026Y-80634741D01*
X142864741Y-80006026D01*
X143205000Y-79184569D01*
X143205000Y-78295431D01*
X142864741Y-77473974D01*
X142236026Y-76845259D01*
X141414569Y-76505000D01*
X140525431Y-76505000D01*
X139703974Y-76845259D01*
X139075259Y-77473974D01*
X138735000Y-78295431D01*
X130300000Y-78295431D01*
X130300000Y-76514801D01*
X134242026Y-72572775D01*
X134472402Y-72618600D01*
X134767598Y-72618600D01*
X135204725Y-72531650D01*
X135700430Y-72200430D01*
X135890000Y-71916719D01*
X136079570Y-72200430D01*
X136575275Y-72531650D01*
X137012402Y-72618600D01*
X137307598Y-72618600D01*
X137744725Y-72531650D01*
X138240430Y-72200430D01*
X138430000Y-71916719D01*
X138619570Y-72200430D01*
X139115275Y-72531650D01*
X139552402Y-72618600D01*
X139847598Y-72618600D01*
X140284725Y-72531650D01*
X140780430Y-72200430D01*
X141111650Y-71704725D01*
X141227959Y-71120000D01*
X141111650Y-70535275D01*
X140780430Y-70039570D01*
X140284725Y-69708350D01*
X139847598Y-69621400D01*
X139552402Y-69621400D01*
X139115275Y-69708350D01*
X138619570Y-70039570D01*
X138430000Y-70323281D01*
X138240430Y-70039570D01*
X137744725Y-69708350D01*
X137307598Y-69621400D01*
X137012402Y-69621400D01*
X136575275Y-69708350D01*
X136079570Y-70039570D01*
X135890000Y-70323281D01*
X135700430Y-70039570D01*
X135204725Y-69708350D01*
X134767598Y-69621400D01*
X134472402Y-69621400D01*
X134035275Y-69708350D01*
X133539570Y-70039570D01*
X133350000Y-70323281D01*
X133160430Y-70039570D01*
X132664725Y-69708350D01*
X132227598Y-69621400D01*
X131932402Y-69621400D01*
X131495275Y-69708350D01*
X130999570Y-70039570D01*
X130810000Y-70323281D01*
X130620430Y-70039570D01*
X130124725Y-69708350D01*
X129687598Y-69621400D01*
X129392402Y-69621400D01*
X128955275Y-69708350D01*
X128459570Y-70039570D01*
X128270000Y-70323281D01*
X128080430Y-70039570D01*
X127584725Y-69708350D01*
X127147598Y-69621400D01*
X126852402Y-69621400D01*
X126415275Y-69708350D01*
X125919570Y-70039570D01*
X125730000Y-70323281D01*
X125540430Y-70039570D01*
X125044725Y-69708350D01*
X124607598Y-69621400D01*
X124312402Y-69621400D01*
X123875275Y-69708350D01*
X123379570Y-70039570D01*
X123190000Y-70323281D01*
X123000430Y-70039570D01*
X122504725Y-69708350D01*
X122067598Y-69621400D01*
X121772402Y-69621400D01*
X121335275Y-69708350D01*
X120839570Y-70039570D01*
X120508350Y-70535275D01*
X120392041Y-71120000D01*
X120467225Y-71497974D01*
X116355528Y-75609671D01*
X116292072Y-75652071D01*
X116249672Y-75715527D01*
X116249671Y-75715528D01*
X116124097Y-75903463D01*
X116065112Y-76200000D01*
X116080001Y-76274852D01*
X116080000Y-83966418D01*
X115661231Y-84246231D01*
X115570000Y-84382768D01*
X115478769Y-84246231D01*
X115060000Y-83966419D01*
X115060000Y-74990801D01*
X117478027Y-72572776D01*
X117708402Y-72618600D01*
X118003598Y-72618600D01*
X118440725Y-72531650D01*
X118936430Y-72200430D01*
X119267650Y-71704725D01*
X119383959Y-71120000D01*
X119267650Y-70535275D01*
X118936430Y-70039570D01*
X118440725Y-69708350D01*
X118003598Y-69621400D01*
X117708402Y-69621400D01*
X117271275Y-69708350D01*
X116775570Y-70039570D01*
X116586000Y-70323281D01*
X116396430Y-70039570D01*
X115900725Y-69708350D01*
X115463598Y-69621400D01*
X115168402Y-69621400D01*
X114731275Y-69708350D01*
X114235570Y-70039570D01*
X114046000Y-70323281D01*
X113856430Y-70039570D01*
X113360725Y-69708350D01*
X112923598Y-69621400D01*
X112628402Y-69621400D01*
X112191275Y-69708350D01*
X111695570Y-70039570D01*
X111506000Y-70323281D01*
X111316430Y-70039570D01*
X110820725Y-69708350D01*
X110383598Y-69621400D01*
X110088402Y-69621400D01*
X109651275Y-69708350D01*
X109155570Y-70039570D01*
X108966000Y-70323281D01*
X108776430Y-70039570D01*
X108280725Y-69708350D01*
X107843598Y-69621400D01*
X107548402Y-69621400D01*
X107111275Y-69708350D01*
X106615570Y-70039570D01*
X106426000Y-70323281D01*
X106236430Y-70039570D01*
X105740725Y-69708350D01*
X105303598Y-69621400D01*
X105008402Y-69621400D01*
X104571275Y-69708350D01*
X104075570Y-70039570D01*
X103882963Y-70327826D01*
X103504490Y-69913179D01*
X102975027Y-69665032D01*
X102743000Y-69785531D01*
X102489000Y-69785531D01*
X102256973Y-69665032D01*
X101727510Y-69913179D01*
X101349037Y-70327826D01*
X101156430Y-70039570D01*
X100660725Y-69708350D01*
X100223598Y-69621400D01*
X99928402Y-69621400D01*
X99491275Y-69708350D01*
X98995570Y-70039570D01*
X98664350Y-70535275D01*
X98548041Y-71120000D01*
X93675000Y-71120000D01*
X93675000Y-70675431D01*
X93334741Y-69853974D01*
X92706026Y-69225259D01*
X91884569Y-68885000D01*
X90995431Y-68885000D01*
X90173974Y-69225259D01*
X89545259Y-69853974D01*
X89205000Y-70675431D01*
X88392000Y-70675431D01*
X88392000Y-68707000D01*
X145288000Y-68707000D01*
X145288000Y-121793000D01*
X145288000Y-121793000D01*
G37*
X145288000Y-121793000D02*
X88392000Y-121793000D01*
X88392000Y-120762767D01*
X88903974Y-121274741D01*
X89725431Y-121615000D01*
X90614569Y-121615000D01*
X91436026Y-121274741D01*
X92064741Y-120646026D01*
X92405000Y-119824569D01*
X92405000Y-119380000D01*
X107692041Y-119380000D01*
X107808350Y-119964725D01*
X108139570Y-120460430D01*
X108635275Y-120791650D01*
X109072402Y-120878600D01*
X109367598Y-120878600D01*
X109804725Y-120791650D01*
X110300430Y-120460430D01*
X110490000Y-120176719D01*
X110679570Y-120460430D01*
X111175275Y-120791650D01*
X111612402Y-120878600D01*
X111907598Y-120878600D01*
X112344725Y-120791650D01*
X112840430Y-120460430D01*
X113030000Y-120176719D01*
X113219570Y-120460430D01*
X113715275Y-120791650D01*
X114152402Y-120878600D01*
X114447598Y-120878600D01*
X114884725Y-120791650D01*
X115380430Y-120460430D01*
X115570000Y-120176719D01*
X115759570Y-120460430D01*
X116255275Y-120791650D01*
X116692402Y-120878600D01*
X116987598Y-120878600D01*
X117424725Y-120791650D01*
X117920430Y-120460430D01*
X118110000Y-120176719D01*
X118299570Y-120460430D01*
X118795275Y-120791650D01*
X119232402Y-120878600D01*
X119527598Y-120878600D01*
X119964725Y-120791650D01*
X120460430Y-120460430D01*
X120650000Y-120176719D01*
X120839570Y-120460430D01*
X121335275Y-120791650D01*
X121772402Y-120878600D01*
X122067598Y-120878600D01*
X122504725Y-120791650D01*
X123000430Y-120460430D01*
X123331650Y-119964725D01*
X123447959Y-119380000D01*
X123331650Y-118795275D01*
X123000430Y-118299570D01*
X122504725Y-117968350D01*
X122067598Y-117881400D01*
X121772402Y-117881400D01*
X121335275Y-117968350D01*
X120839570Y-118299570D01*
X120650000Y-118583281D01*
X120460430Y-118299570D01*
X119964725Y-117968350D01*
X119527598Y-117881400D01*
X119232402Y-117881400D01*
X118795275Y-117968350D01*
X118299570Y-118299570D01*
X118110000Y-118583281D01*
X117920430Y-118299570D01*
X117424725Y-117968350D01*
X116987598Y-117881400D01*
X116692402Y-117881400D01*
X116255275Y-117968350D01*
X115759570Y-118299570D01*
X115570000Y-118583281D01*
X115380430Y-118299570D01*
X115235000Y-118202397D01*
X115235000Y-101971650D01*
X115478769Y-101808769D01*
X115589952Y-101642371D01*
X115773683Y-101875922D01*
X116331645Y-102189144D01*
X116459566Y-102220124D01*
X116713000Y-102100777D01*
X116713000Y-100457000D01*
X116693000Y-100457000D01*
X116693000Y-100203000D01*
X116713000Y-100203000D01*
X116713000Y-98559223D01*
X116967000Y-98559223D01*
X116967000Y-100203000D01*
X116987000Y-100203000D01*
X116987000Y-100457000D01*
X116967000Y-100457000D01*
X116967000Y-102100777D01*
X117220434Y-102220124D01*
X117348355Y-102189144D01*
X117906317Y-101875922D01*
X118090048Y-101642371D01*
X118201231Y-101808769D01*
X118620001Y-102088582D01*
X118620000Y-107875153D01*
X118605112Y-107950000D01*
X118620000Y-108024847D01*
X118620000Y-108024851D01*
X118664096Y-108246536D01*
X118832071Y-108497929D01*
X118895530Y-108540331D01*
X126240001Y-115884804D01*
X126240000Y-118085465D01*
X125919570Y-118299570D01*
X125588350Y-118795275D01*
X125472041Y-119380000D01*
X125588350Y-119964725D01*
X125919570Y-120460430D01*
X126415275Y-120791650D01*
X126852402Y-120878600D01*
X127147598Y-120878600D01*
X127584725Y-120791650D01*
X128080430Y-120460430D01*
X128270000Y-120176719D01*
X128459570Y-120460430D01*
X128955275Y-120791650D01*
X129392402Y-120878600D01*
X129687598Y-120878600D01*
X130124725Y-120791650D01*
X130620430Y-120460430D01*
X130810000Y-120176719D01*
X130999570Y-120460430D01*
X131495275Y-120791650D01*
X131932402Y-120878600D01*
X132227598Y-120878600D01*
X132664725Y-120791650D01*
X133160430Y-120460430D01*
X133350000Y-120176719D01*
X133539570Y-120460430D01*
X134035275Y-120791650D01*
X134472402Y-120878600D01*
X134767598Y-120878600D01*
X135204725Y-120791650D01*
X135700430Y-120460430D01*
X135890000Y-120176719D01*
X136079570Y-120460430D01*
X136575275Y-120791650D01*
X137012402Y-120878600D01*
X137307598Y-120878600D01*
X137744725Y-120791650D01*
X138240430Y-120460430D01*
X138430000Y-120176719D01*
X138619570Y-120460430D01*
X139115275Y-120791650D01*
X139552402Y-120878600D01*
X139847598Y-120878600D01*
X140284725Y-120791650D01*
X140780430Y-120460430D01*
X141111650Y-119964725D01*
X141227959Y-119380000D01*
X141111650Y-118795275D01*
X140780430Y-118299570D01*
X140284725Y-117968350D01*
X139847598Y-117881400D01*
X139552402Y-117881400D01*
X139115275Y-117968350D01*
X138619570Y-118299570D01*
X138430000Y-118583281D01*
X138240430Y-118299570D01*
X137920000Y-118085465D01*
X137920000Y-114374846D01*
X137934888Y-114299999D01*
X137920000Y-114225152D01*
X137920000Y-114225148D01*
X137875904Y-114003463D01*
X137834102Y-113940902D01*
X137750329Y-113815526D01*
X137750327Y-113815524D01*
X137707929Y-113752071D01*
X137644476Y-113709673D01*
X135250234Y-111315431D01*
X138735000Y-111315431D01*
X138735000Y-112204569D01*
X139075259Y-113026026D01*
X139703974Y-113654741D01*
X140525431Y-113995000D01*
X141414569Y-113995000D01*
X142236026Y-113654741D01*
X142864741Y-113026026D01*
X143205000Y-112204569D01*
X143205000Y-111315431D01*
X142864741Y-110493974D01*
X142236026Y-109865259D01*
X141414569Y-109525000D01*
X140525431Y-109525000D01*
X139703974Y-109865259D01*
X139075259Y-110493974D01*
X138735000Y-111315431D01*
X135250234Y-111315431D01*
X130300000Y-106365199D01*
X130300000Y-102277440D01*
X130540000Y-102277440D01*
X130787765Y-102228157D01*
X130997809Y-102087809D01*
X131138157Y-101877765D01*
X131187440Y-101630000D01*
X131187440Y-99030000D01*
X131138157Y-98782235D01*
X130997809Y-98572191D01*
X130787765Y-98431843D01*
X130540000Y-98382560D01*
X128540000Y-98382560D01*
X128292235Y-98431843D01*
X128082191Y-98572191D01*
X127983100Y-98720489D01*
X127637945Y-98489864D01*
X127000000Y-98362969D01*
X126362056Y-98489864D01*
X125821231Y-98851231D01*
X125730000Y-98987768D01*
X125638769Y-98851231D01*
X125097945Y-98489864D01*
X124460000Y-98362969D01*
X123822056Y-98489864D01*
X123281231Y-98851231D01*
X123190000Y-98987768D01*
X123098769Y-98851231D01*
X122557945Y-98489864D01*
X121920000Y-98362969D01*
X121282056Y-98489864D01*
X120741231Y-98851231D01*
X120650000Y-98987768D01*
X120558769Y-98851231D01*
X120017945Y-98489864D01*
X119380000Y-98362969D01*
X118742056Y-98489864D01*
X118201231Y-98851231D01*
X118090048Y-99017629D01*
X117906317Y-98784078D01*
X117348355Y-98470856D01*
X117220434Y-98439876D01*
X116967000Y-98559223D01*
X116713000Y-98559223D01*
X116459566Y-98439876D01*
X116331645Y-98470856D01*
X115773683Y-98784078D01*
X115589952Y-99017629D01*
X115478769Y-98851231D01*
X114937945Y-98489864D01*
X114300000Y-98362969D01*
X113662056Y-98489864D01*
X113121231Y-98851231D01*
X113030000Y-98987768D01*
X112938769Y-98851231D01*
X112397945Y-98489864D01*
X111760000Y-98362969D01*
X111122056Y-98489864D01*
X110581231Y-98851231D01*
X110219864Y-99392055D01*
X110125000Y-99868969D01*
X110125000Y-100791030D01*
X110219864Y-101267944D01*
X110581231Y-101808769D01*
X110825001Y-101971651D01*
X110825000Y-118202397D01*
X110679570Y-118299570D01*
X110490000Y-118583281D01*
X110300430Y-118299570D01*
X109804725Y-117968350D01*
X109367598Y-117881400D01*
X109072402Y-117881400D01*
X108635275Y-117968350D01*
X108139570Y-118299570D01*
X107808350Y-118795275D01*
X107692041Y-119380000D01*
X92405000Y-119380000D01*
X92405000Y-118935431D01*
X92064741Y-118113974D01*
X91436026Y-117485259D01*
X90614569Y-117145000D01*
X89725431Y-117145000D01*
X88903974Y-117485259D01*
X88392000Y-117997233D01*
X88392000Y-70675431D01*
X89205000Y-70675431D01*
X89205000Y-71564569D01*
X89545259Y-72386026D01*
X90173974Y-73014741D01*
X90995431Y-73355000D01*
X91884569Y-73355000D01*
X92706026Y-73014741D01*
X93334741Y-72386026D01*
X93675000Y-71564569D01*
X93675000Y-71120000D01*
X98548041Y-71120000D01*
X98664350Y-71704725D01*
X98995570Y-72200430D01*
X99491275Y-72531650D01*
X99928402Y-72618600D01*
X100223598Y-72618600D01*
X100660725Y-72531650D01*
X101156430Y-72200430D01*
X101349037Y-71912174D01*
X101727510Y-72326821D01*
X102256973Y-72574968D01*
X102489000Y-72454469D01*
X102489000Y-71247000D01*
X102469000Y-71247000D01*
X102469000Y-70993000D01*
X102489000Y-70993000D01*
X102489000Y-69785531D01*
X102743000Y-69785531D01*
X102743000Y-70993000D01*
X102763000Y-70993000D01*
X102763000Y-71247000D01*
X102743000Y-71247000D01*
X102743000Y-72454469D01*
X102975027Y-72574968D01*
X103504490Y-72326821D01*
X103882963Y-71912174D01*
X104075570Y-72200430D01*
X104571275Y-72531650D01*
X105008402Y-72618600D01*
X105303598Y-72618600D01*
X105740725Y-72531650D01*
X106236430Y-72200430D01*
X106426000Y-71916719D01*
X106615570Y-72200430D01*
X107111275Y-72531650D01*
X107548402Y-72618600D01*
X107843598Y-72618600D01*
X108280725Y-72531650D01*
X108776430Y-72200430D01*
X108966000Y-71916719D01*
X109155570Y-72200430D01*
X109651275Y-72531650D01*
X110088402Y-72618600D01*
X110383598Y-72618600D01*
X110820725Y-72531650D01*
X111316430Y-72200430D01*
X111506000Y-71916719D01*
X111695570Y-72200430D01*
X112191275Y-72531650D01*
X112628402Y-72618600D01*
X112742598Y-72618600D01*
X111275528Y-74085671D01*
X111212072Y-74128071D01*
X111169672Y-74191527D01*
X111169671Y-74191528D01*
X111044097Y-74379463D01*
X110985112Y-74676000D01*
X111000001Y-74750852D01*
X111000000Y-83777560D01*
X110760000Y-83777560D01*
X110512235Y-83826843D01*
X110302191Y-83967191D01*
X110161843Y-84177235D01*
X110112560Y-84425000D01*
X110112560Y-87025000D01*
X110161843Y-87272765D01*
X110302191Y-87482809D01*
X110512235Y-87623157D01*
X110760000Y-87672440D01*
X112760000Y-87672440D01*
X113007765Y-87623157D01*
X113217809Y-87482809D01*
X113316900Y-87334510D01*
X113662056Y-87565136D01*
X114300000Y-87692031D01*
X114937945Y-87565136D01*
X115478769Y-87203769D01*
X115570000Y-87067232D01*
X115661231Y-87203769D01*
X116202056Y-87565136D01*
X116840000Y-87692031D01*
X117477945Y-87565136D01*
X118018769Y-87203769D01*
X118110000Y-87067232D01*
X118201231Y-87203769D01*
X118742056Y-87565136D01*
X119380000Y-87692031D01*
X120017945Y-87565136D01*
X120558769Y-87203769D01*
X120650000Y-87067232D01*
X120741231Y-87203769D01*
X121282056Y-87565136D01*
X121920000Y-87692031D01*
X122557945Y-87565136D01*
X123098769Y-87203769D01*
X123190000Y-87067232D01*
X123281231Y-87203769D01*
X123822056Y-87565136D01*
X124460000Y-87692031D01*
X125097945Y-87565136D01*
X125638769Y-87203769D01*
X125730000Y-87067232D01*
X125821231Y-87203769D01*
X126362056Y-87565136D01*
X127000000Y-87692031D01*
X127637945Y-87565136D01*
X128178769Y-87203769D01*
X128270000Y-87067232D01*
X128361231Y-87203769D01*
X128902056Y-87565136D01*
X129540000Y-87692031D01*
X130177945Y-87565136D01*
X130718769Y-87203769D01*
X131080136Y-86662945D01*
X131175000Y-86186030D01*
X131175000Y-85263969D01*
X131080136Y-84787055D01*
X130718769Y-84246231D01*
X130300000Y-83966419D01*
X130300000Y-78295431D01*
X138735000Y-78295431D01*
X138735000Y-79184569D01*
X139075259Y-80006026D01*
X139703974Y-80634741D01*
X140525431Y-80975000D01*
X141414569Y-80975000D01*
X142236026Y-80634741D01*
X142864741Y-80006026D01*
X143205000Y-79184569D01*
X143205000Y-78295431D01*
X142864741Y-77473974D01*
X142236026Y-76845259D01*
X141414569Y-76505000D01*
X140525431Y-76505000D01*
X139703974Y-76845259D01*
X139075259Y-77473974D01*
X138735000Y-78295431D01*
X130300000Y-78295431D01*
X130300000Y-76514801D01*
X134242026Y-72572775D01*
X134472402Y-72618600D01*
X134767598Y-72618600D01*
X135204725Y-72531650D01*
X135700430Y-72200430D01*
X135890000Y-71916719D01*
X136079570Y-72200430D01*
X136575275Y-72531650D01*
X137012402Y-72618600D01*
X137307598Y-72618600D01*
X137744725Y-72531650D01*
X138240430Y-72200430D01*
X138430000Y-71916719D01*
X138619570Y-72200430D01*
X139115275Y-72531650D01*
X139552402Y-72618600D01*
X139847598Y-72618600D01*
X140284725Y-72531650D01*
X140780430Y-72200430D01*
X141111650Y-71704725D01*
X141227959Y-71120000D01*
X141111650Y-70535275D01*
X140780430Y-70039570D01*
X140284725Y-69708350D01*
X139847598Y-69621400D01*
X139552402Y-69621400D01*
X139115275Y-69708350D01*
X138619570Y-70039570D01*
X138430000Y-70323281D01*
X138240430Y-70039570D01*
X137744725Y-69708350D01*
X137307598Y-69621400D01*
X137012402Y-69621400D01*
X136575275Y-69708350D01*
X136079570Y-70039570D01*
X135890000Y-70323281D01*
X135700430Y-70039570D01*
X135204725Y-69708350D01*
X134767598Y-69621400D01*
X134472402Y-69621400D01*
X134035275Y-69708350D01*
X133539570Y-70039570D01*
X133350000Y-70323281D01*
X133160430Y-70039570D01*
X132664725Y-69708350D01*
X132227598Y-69621400D01*
X131932402Y-69621400D01*
X131495275Y-69708350D01*
X130999570Y-70039570D01*
X130810000Y-70323281D01*
X130620430Y-70039570D01*
X130124725Y-69708350D01*
X129687598Y-69621400D01*
X129392402Y-69621400D01*
X128955275Y-69708350D01*
X128459570Y-70039570D01*
X128270000Y-70323281D01*
X128080430Y-70039570D01*
X127584725Y-69708350D01*
X127147598Y-69621400D01*
X126852402Y-69621400D01*
X126415275Y-69708350D01*
X125919570Y-70039570D01*
X125730000Y-70323281D01*
X125540430Y-70039570D01*
X125044725Y-69708350D01*
X124607598Y-69621400D01*
X124312402Y-69621400D01*
X123875275Y-69708350D01*
X123379570Y-70039570D01*
X123190000Y-70323281D01*
X123000430Y-70039570D01*
X122504725Y-69708350D01*
X122067598Y-69621400D01*
X121772402Y-69621400D01*
X121335275Y-69708350D01*
X120839570Y-70039570D01*
X120508350Y-70535275D01*
X120392041Y-71120000D01*
X120467225Y-71497974D01*
X116355528Y-75609671D01*
X116292072Y-75652071D01*
X116249672Y-75715527D01*
X116249671Y-75715528D01*
X116124097Y-75903463D01*
X116065112Y-76200000D01*
X116080001Y-76274852D01*
X116080000Y-83966418D01*
X115661231Y-84246231D01*
X115570000Y-84382768D01*
X115478769Y-84246231D01*
X115060000Y-83966419D01*
X115060000Y-74990801D01*
X117478027Y-72572776D01*
X117708402Y-72618600D01*
X118003598Y-72618600D01*
X118440725Y-72531650D01*
X118936430Y-72200430D01*
X119267650Y-71704725D01*
X119383959Y-71120000D01*
X119267650Y-70535275D01*
X118936430Y-70039570D01*
X118440725Y-69708350D01*
X118003598Y-69621400D01*
X117708402Y-69621400D01*
X117271275Y-69708350D01*
X116775570Y-70039570D01*
X116586000Y-70323281D01*
X116396430Y-70039570D01*
X115900725Y-69708350D01*
X115463598Y-69621400D01*
X115168402Y-69621400D01*
X114731275Y-69708350D01*
X114235570Y-70039570D01*
X114046000Y-70323281D01*
X113856430Y-70039570D01*
X113360725Y-69708350D01*
X112923598Y-69621400D01*
X112628402Y-69621400D01*
X112191275Y-69708350D01*
X111695570Y-70039570D01*
X111506000Y-70323281D01*
X111316430Y-70039570D01*
X110820725Y-69708350D01*
X110383598Y-69621400D01*
X110088402Y-69621400D01*
X109651275Y-69708350D01*
X109155570Y-70039570D01*
X108966000Y-70323281D01*
X108776430Y-70039570D01*
X108280725Y-69708350D01*
X107843598Y-69621400D01*
X107548402Y-69621400D01*
X107111275Y-69708350D01*
X106615570Y-70039570D01*
X106426000Y-70323281D01*
X106236430Y-70039570D01*
X105740725Y-69708350D01*
X105303598Y-69621400D01*
X105008402Y-69621400D01*
X104571275Y-69708350D01*
X104075570Y-70039570D01*
X103882963Y-70327826D01*
X103504490Y-69913179D01*
X102975027Y-69665032D01*
X102743000Y-69785531D01*
X102489000Y-69785531D01*
X102256973Y-69665032D01*
X101727510Y-69913179D01*
X101349037Y-70327826D01*
X101156430Y-70039570D01*
X100660725Y-69708350D01*
X100223598Y-69621400D01*
X99928402Y-69621400D01*
X99491275Y-69708350D01*
X98995570Y-70039570D01*
X98664350Y-70535275D01*
X98548041Y-71120000D01*
X93675000Y-71120000D01*
X93675000Y-70675431D01*
X93334741Y-69853974D01*
X92706026Y-69225259D01*
X91884569Y-68885000D01*
X90995431Y-68885000D01*
X90173974Y-69225259D01*
X89545259Y-69853974D01*
X89205000Y-70675431D01*
X88392000Y-70675431D01*
X88392000Y-68707000D01*
X145288000Y-68707000D01*
X145288000Y-121793000D01*
G04 #@! TD*
M02*
