G04 #@! TF.GenerationSoftware,KiCad,Pcbnew,(5.0.1)-3*
G04 #@! TF.CreationDate,2019-01-09T12:59:27+01:00*
G04 #@! TF.ProjectId,P300_Display_IF,503330305F446973706C61795F49462E,rev?*
G04 #@! TF.SameCoordinates,Original*
G04 #@! TF.FileFunction,Soldermask,Top*
G04 #@! TF.FilePolarity,Negative*
%FSLAX46Y46*%
G04 Gerber Fmt 4.6, Leading zero omitted, Abs format (unit mm)*
G04 Created by KiCad (PCBNEW (5.0.1)-3) date 09.01.2019 12:59:27*
%MOMM*%
%LPD*%
G01*
G04 APERTURE LIST*
%ADD10C,0.100000*%
G04 APERTURE END LIST*
D10*
G36*
X90521163Y-117614587D02*
X90695041Y-117649173D01*
X91022620Y-117784861D01*
X91258152Y-117942238D01*
X91317435Y-117981850D01*
X91568150Y-118232565D01*
X91568151Y-118232567D01*
X91765139Y-118527380D01*
X91872361Y-118786237D01*
X91900827Y-118854960D01*
X91970000Y-119202715D01*
X91970000Y-119557285D01*
X91935414Y-119731162D01*
X91900827Y-119905041D01*
X91765139Y-120232620D01*
X91675086Y-120367393D01*
X91568150Y-120527435D01*
X91317435Y-120778150D01*
X91258152Y-120817762D01*
X91022620Y-120975139D01*
X90695041Y-121110827D01*
X90521162Y-121145414D01*
X90347285Y-121180000D01*
X89992715Y-121180000D01*
X89818838Y-121145414D01*
X89644959Y-121110827D01*
X89317380Y-120975139D01*
X89081848Y-120817762D01*
X89022565Y-120778150D01*
X88771850Y-120527435D01*
X88664914Y-120367393D01*
X88574861Y-120232620D01*
X88439173Y-119905041D01*
X88404586Y-119731162D01*
X88370000Y-119557285D01*
X88370000Y-119202715D01*
X88439173Y-118854960D01*
X88467639Y-118786237D01*
X88574861Y-118527380D01*
X88771849Y-118232567D01*
X88771850Y-118232565D01*
X89022565Y-117981850D01*
X89081848Y-117942238D01*
X89317380Y-117784861D01*
X89644959Y-117649173D01*
X89818837Y-117614587D01*
X89992715Y-117580000D01*
X90347285Y-117580000D01*
X90521163Y-117614587D01*
X90521163Y-117614587D01*
G37*
G36*
X127208502Y-118331789D02*
X127408991Y-118392607D01*
X127593761Y-118491368D01*
X127593763Y-118491370D01*
X127755718Y-118624282D01*
X127866758Y-118759586D01*
X127888632Y-118786239D01*
X127987393Y-118971009D01*
X128048211Y-119171498D01*
X128068746Y-119380000D01*
X128048211Y-119588502D01*
X127987393Y-119788991D01*
X127888632Y-119973761D01*
X127888630Y-119973763D01*
X127755718Y-120135718D01*
X127620414Y-120246758D01*
X127593761Y-120268632D01*
X127408991Y-120367393D01*
X127208502Y-120428211D01*
X127052251Y-120443600D01*
X126947749Y-120443600D01*
X126791498Y-120428211D01*
X126591009Y-120367393D01*
X126406239Y-120268632D01*
X126379586Y-120246758D01*
X126244282Y-120135718D01*
X126111370Y-119973763D01*
X126111368Y-119973761D01*
X126012607Y-119788991D01*
X125951789Y-119588502D01*
X125931254Y-119380000D01*
X125951789Y-119171498D01*
X126012607Y-118971009D01*
X126111368Y-118786239D01*
X126133242Y-118759586D01*
X126244282Y-118624282D01*
X126406237Y-118491370D01*
X126406239Y-118491368D01*
X126591009Y-118392607D01*
X126791498Y-118331789D01*
X126947749Y-118316400D01*
X127052251Y-118316400D01*
X127208502Y-118331789D01*
X127208502Y-118331789D01*
G37*
G36*
X142448502Y-118331789D02*
X142648991Y-118392607D01*
X142833761Y-118491368D01*
X142833763Y-118491370D01*
X142995718Y-118624282D01*
X143106758Y-118759586D01*
X143128632Y-118786239D01*
X143227393Y-118971009D01*
X143288211Y-119171498D01*
X143308746Y-119380000D01*
X143288211Y-119588502D01*
X143227393Y-119788991D01*
X143128632Y-119973761D01*
X143128630Y-119973763D01*
X142995718Y-120135718D01*
X142860414Y-120246758D01*
X142833761Y-120268632D01*
X142648991Y-120367393D01*
X142448502Y-120428211D01*
X142292251Y-120443600D01*
X142187749Y-120443600D01*
X142031498Y-120428211D01*
X141831009Y-120367393D01*
X141646239Y-120268632D01*
X141619586Y-120246758D01*
X141484282Y-120135718D01*
X141351370Y-119973763D01*
X141351368Y-119973761D01*
X141252607Y-119788991D01*
X141191789Y-119588502D01*
X141171254Y-119380000D01*
X141191789Y-119171498D01*
X141252607Y-118971009D01*
X141351368Y-118786239D01*
X141373242Y-118759586D01*
X141484282Y-118624282D01*
X141646237Y-118491370D01*
X141646239Y-118491368D01*
X141831009Y-118392607D01*
X142031498Y-118331789D01*
X142187749Y-118316400D01*
X142292251Y-118316400D01*
X142448502Y-118331789D01*
X142448502Y-118331789D01*
G37*
G36*
X139908502Y-118331789D02*
X140108991Y-118392607D01*
X140293761Y-118491368D01*
X140293763Y-118491370D01*
X140455718Y-118624282D01*
X140566758Y-118759586D01*
X140588632Y-118786239D01*
X140687393Y-118971009D01*
X140748211Y-119171498D01*
X140768746Y-119380000D01*
X140748211Y-119588502D01*
X140687393Y-119788991D01*
X140588632Y-119973761D01*
X140588630Y-119973763D01*
X140455718Y-120135718D01*
X140320414Y-120246758D01*
X140293761Y-120268632D01*
X140108991Y-120367393D01*
X139908502Y-120428211D01*
X139752251Y-120443600D01*
X139647749Y-120443600D01*
X139491498Y-120428211D01*
X139291009Y-120367393D01*
X139106239Y-120268632D01*
X139079586Y-120246758D01*
X138944282Y-120135718D01*
X138811370Y-119973763D01*
X138811368Y-119973761D01*
X138712607Y-119788991D01*
X138651789Y-119588502D01*
X138631254Y-119380000D01*
X138651789Y-119171498D01*
X138712607Y-118971009D01*
X138811368Y-118786239D01*
X138833242Y-118759586D01*
X138944282Y-118624282D01*
X139106237Y-118491370D01*
X139106239Y-118491368D01*
X139291009Y-118392607D01*
X139491498Y-118331789D01*
X139647749Y-118316400D01*
X139752251Y-118316400D01*
X139908502Y-118331789D01*
X139908502Y-118331789D01*
G37*
G36*
X137368502Y-118331789D02*
X137568991Y-118392607D01*
X137753761Y-118491368D01*
X137753763Y-118491370D01*
X137915718Y-118624282D01*
X138026758Y-118759586D01*
X138048632Y-118786239D01*
X138147393Y-118971009D01*
X138208211Y-119171498D01*
X138228746Y-119380000D01*
X138208211Y-119588502D01*
X138147393Y-119788991D01*
X138048632Y-119973761D01*
X138048630Y-119973763D01*
X137915718Y-120135718D01*
X137780414Y-120246758D01*
X137753761Y-120268632D01*
X137568991Y-120367393D01*
X137368502Y-120428211D01*
X137212251Y-120443600D01*
X137107749Y-120443600D01*
X136951498Y-120428211D01*
X136751009Y-120367393D01*
X136566239Y-120268632D01*
X136539586Y-120246758D01*
X136404282Y-120135718D01*
X136271370Y-119973763D01*
X136271368Y-119973761D01*
X136172607Y-119788991D01*
X136111789Y-119588502D01*
X136091254Y-119380000D01*
X136111789Y-119171498D01*
X136172607Y-118971009D01*
X136271368Y-118786239D01*
X136293242Y-118759586D01*
X136404282Y-118624282D01*
X136566237Y-118491370D01*
X136566239Y-118491368D01*
X136751009Y-118392607D01*
X136951498Y-118331789D01*
X137107749Y-118316400D01*
X137212251Y-118316400D01*
X137368502Y-118331789D01*
X137368502Y-118331789D01*
G37*
G36*
X134828502Y-118331789D02*
X135028991Y-118392607D01*
X135213761Y-118491368D01*
X135213763Y-118491370D01*
X135375718Y-118624282D01*
X135486758Y-118759586D01*
X135508632Y-118786239D01*
X135607393Y-118971009D01*
X135668211Y-119171498D01*
X135688746Y-119380000D01*
X135668211Y-119588502D01*
X135607393Y-119788991D01*
X135508632Y-119973761D01*
X135508630Y-119973763D01*
X135375718Y-120135718D01*
X135240414Y-120246758D01*
X135213761Y-120268632D01*
X135028991Y-120367393D01*
X134828502Y-120428211D01*
X134672251Y-120443600D01*
X134567749Y-120443600D01*
X134411498Y-120428211D01*
X134211009Y-120367393D01*
X134026239Y-120268632D01*
X133999586Y-120246758D01*
X133864282Y-120135718D01*
X133731370Y-119973763D01*
X133731368Y-119973761D01*
X133632607Y-119788991D01*
X133571789Y-119588502D01*
X133551254Y-119380000D01*
X133571789Y-119171498D01*
X133632607Y-118971009D01*
X133731368Y-118786239D01*
X133753242Y-118759586D01*
X133864282Y-118624282D01*
X134026237Y-118491370D01*
X134026239Y-118491368D01*
X134211009Y-118392607D01*
X134411498Y-118331789D01*
X134567749Y-118316400D01*
X134672251Y-118316400D01*
X134828502Y-118331789D01*
X134828502Y-118331789D01*
G37*
G36*
X132288502Y-118331789D02*
X132488991Y-118392607D01*
X132673761Y-118491368D01*
X132673763Y-118491370D01*
X132835718Y-118624282D01*
X132946758Y-118759586D01*
X132968632Y-118786239D01*
X133067393Y-118971009D01*
X133128211Y-119171498D01*
X133148746Y-119380000D01*
X133128211Y-119588502D01*
X133067393Y-119788991D01*
X132968632Y-119973761D01*
X132968630Y-119973763D01*
X132835718Y-120135718D01*
X132700414Y-120246758D01*
X132673761Y-120268632D01*
X132488991Y-120367393D01*
X132288502Y-120428211D01*
X132132251Y-120443600D01*
X132027749Y-120443600D01*
X131871498Y-120428211D01*
X131671009Y-120367393D01*
X131486239Y-120268632D01*
X131459586Y-120246758D01*
X131324282Y-120135718D01*
X131191370Y-119973763D01*
X131191368Y-119973761D01*
X131092607Y-119788991D01*
X131031789Y-119588502D01*
X131011254Y-119380000D01*
X131031789Y-119171498D01*
X131092607Y-118971009D01*
X131191368Y-118786239D01*
X131213242Y-118759586D01*
X131324282Y-118624282D01*
X131486237Y-118491370D01*
X131486239Y-118491368D01*
X131671009Y-118392607D01*
X131871498Y-118331789D01*
X132027749Y-118316400D01*
X132132251Y-118316400D01*
X132288502Y-118331789D01*
X132288502Y-118331789D01*
G37*
G36*
X129748502Y-118331789D02*
X129948991Y-118392607D01*
X130133761Y-118491368D01*
X130133763Y-118491370D01*
X130295718Y-118624282D01*
X130406758Y-118759586D01*
X130428632Y-118786239D01*
X130527393Y-118971009D01*
X130588211Y-119171498D01*
X130608746Y-119380000D01*
X130588211Y-119588502D01*
X130527393Y-119788991D01*
X130428632Y-119973761D01*
X130428630Y-119973763D01*
X130295718Y-120135718D01*
X130160414Y-120246758D01*
X130133761Y-120268632D01*
X129948991Y-120367393D01*
X129748502Y-120428211D01*
X129592251Y-120443600D01*
X129487749Y-120443600D01*
X129331498Y-120428211D01*
X129131009Y-120367393D01*
X128946239Y-120268632D01*
X128919586Y-120246758D01*
X128784282Y-120135718D01*
X128651370Y-119973763D01*
X128651368Y-119973761D01*
X128552607Y-119788991D01*
X128491789Y-119588502D01*
X128471254Y-119380000D01*
X128491789Y-119171498D01*
X128552607Y-118971009D01*
X128651368Y-118786239D01*
X128673242Y-118759586D01*
X128784282Y-118624282D01*
X128946237Y-118491370D01*
X128946239Y-118491368D01*
X129131009Y-118392607D01*
X129331498Y-118331789D01*
X129487749Y-118316400D01*
X129592251Y-118316400D01*
X129748502Y-118331789D01*
X129748502Y-118331789D01*
G37*
G36*
X104348502Y-118331789D02*
X104548991Y-118392607D01*
X104733761Y-118491368D01*
X104733763Y-118491370D01*
X104895718Y-118624282D01*
X105006758Y-118759586D01*
X105028632Y-118786239D01*
X105127393Y-118971009D01*
X105188211Y-119171498D01*
X105208746Y-119380000D01*
X105188211Y-119588502D01*
X105127393Y-119788991D01*
X105028632Y-119973761D01*
X105028630Y-119973763D01*
X104895718Y-120135718D01*
X104760414Y-120246758D01*
X104733761Y-120268632D01*
X104548991Y-120367393D01*
X104348502Y-120428211D01*
X104192251Y-120443600D01*
X104087749Y-120443600D01*
X103931498Y-120428211D01*
X103731009Y-120367393D01*
X103546239Y-120268632D01*
X103519586Y-120246758D01*
X103384282Y-120135718D01*
X103251370Y-119973763D01*
X103251368Y-119973761D01*
X103152607Y-119788991D01*
X103091789Y-119588502D01*
X103071254Y-119380000D01*
X103091789Y-119171498D01*
X103152607Y-118971009D01*
X103251368Y-118786239D01*
X103273242Y-118759586D01*
X103384282Y-118624282D01*
X103546237Y-118491370D01*
X103546239Y-118491368D01*
X103731009Y-118392607D01*
X103931498Y-118331789D01*
X104087749Y-118316400D01*
X104192251Y-118316400D01*
X104348502Y-118331789D01*
X104348502Y-118331789D01*
G37*
G36*
X109428502Y-118331789D02*
X109628991Y-118392607D01*
X109813761Y-118491368D01*
X109813763Y-118491370D01*
X109975718Y-118624282D01*
X110086758Y-118759586D01*
X110108632Y-118786239D01*
X110207393Y-118971009D01*
X110268211Y-119171498D01*
X110288746Y-119380000D01*
X110268211Y-119588502D01*
X110207393Y-119788991D01*
X110108632Y-119973761D01*
X110108630Y-119973763D01*
X109975718Y-120135718D01*
X109840414Y-120246758D01*
X109813761Y-120268632D01*
X109628991Y-120367393D01*
X109428502Y-120428211D01*
X109272251Y-120443600D01*
X109167749Y-120443600D01*
X109011498Y-120428211D01*
X108811009Y-120367393D01*
X108626239Y-120268632D01*
X108599586Y-120246758D01*
X108464282Y-120135718D01*
X108331370Y-119973763D01*
X108331368Y-119973761D01*
X108232607Y-119788991D01*
X108171789Y-119588502D01*
X108151254Y-119380000D01*
X108171789Y-119171498D01*
X108232607Y-118971009D01*
X108331368Y-118786239D01*
X108353242Y-118759586D01*
X108464282Y-118624282D01*
X108626237Y-118491370D01*
X108626239Y-118491368D01*
X108811009Y-118392607D01*
X109011498Y-118331789D01*
X109167749Y-118316400D01*
X109272251Y-118316400D01*
X109428502Y-118331789D01*
X109428502Y-118331789D01*
G37*
G36*
X111968502Y-118331789D02*
X112168991Y-118392607D01*
X112353761Y-118491368D01*
X112353763Y-118491370D01*
X112515718Y-118624282D01*
X112626758Y-118759586D01*
X112648632Y-118786239D01*
X112747393Y-118971009D01*
X112808211Y-119171498D01*
X112828746Y-119380000D01*
X112808211Y-119588502D01*
X112747393Y-119788991D01*
X112648632Y-119973761D01*
X112648630Y-119973763D01*
X112515718Y-120135718D01*
X112380414Y-120246758D01*
X112353761Y-120268632D01*
X112168991Y-120367393D01*
X111968502Y-120428211D01*
X111812251Y-120443600D01*
X111707749Y-120443600D01*
X111551498Y-120428211D01*
X111351009Y-120367393D01*
X111166239Y-120268632D01*
X111139586Y-120246758D01*
X111004282Y-120135718D01*
X110871370Y-119973763D01*
X110871368Y-119973761D01*
X110772607Y-119788991D01*
X110711789Y-119588502D01*
X110691254Y-119380000D01*
X110711789Y-119171498D01*
X110772607Y-118971009D01*
X110871368Y-118786239D01*
X110893242Y-118759586D01*
X111004282Y-118624282D01*
X111166237Y-118491370D01*
X111166239Y-118491368D01*
X111351009Y-118392607D01*
X111551498Y-118331789D01*
X111707749Y-118316400D01*
X111812251Y-118316400D01*
X111968502Y-118331789D01*
X111968502Y-118331789D01*
G37*
G36*
X114508502Y-118331789D02*
X114708991Y-118392607D01*
X114893761Y-118491368D01*
X114893763Y-118491370D01*
X115055718Y-118624282D01*
X115166758Y-118759586D01*
X115188632Y-118786239D01*
X115287393Y-118971009D01*
X115348211Y-119171498D01*
X115368746Y-119380000D01*
X115348211Y-119588502D01*
X115287393Y-119788991D01*
X115188632Y-119973761D01*
X115188630Y-119973763D01*
X115055718Y-120135718D01*
X114920414Y-120246758D01*
X114893761Y-120268632D01*
X114708991Y-120367393D01*
X114508502Y-120428211D01*
X114352251Y-120443600D01*
X114247749Y-120443600D01*
X114091498Y-120428211D01*
X113891009Y-120367393D01*
X113706239Y-120268632D01*
X113679586Y-120246758D01*
X113544282Y-120135718D01*
X113411370Y-119973763D01*
X113411368Y-119973761D01*
X113312607Y-119788991D01*
X113251789Y-119588502D01*
X113231254Y-119380000D01*
X113251789Y-119171498D01*
X113312607Y-118971009D01*
X113411368Y-118786239D01*
X113433242Y-118759586D01*
X113544282Y-118624282D01*
X113706237Y-118491370D01*
X113706239Y-118491368D01*
X113891009Y-118392607D01*
X114091498Y-118331789D01*
X114247749Y-118316400D01*
X114352251Y-118316400D01*
X114508502Y-118331789D01*
X114508502Y-118331789D01*
G37*
G36*
X117048502Y-118331789D02*
X117248991Y-118392607D01*
X117433761Y-118491368D01*
X117433763Y-118491370D01*
X117595718Y-118624282D01*
X117706758Y-118759586D01*
X117728632Y-118786239D01*
X117827393Y-118971009D01*
X117888211Y-119171498D01*
X117908746Y-119380000D01*
X117888211Y-119588502D01*
X117827393Y-119788991D01*
X117728632Y-119973761D01*
X117728630Y-119973763D01*
X117595718Y-120135718D01*
X117460414Y-120246758D01*
X117433761Y-120268632D01*
X117248991Y-120367393D01*
X117048502Y-120428211D01*
X116892251Y-120443600D01*
X116787749Y-120443600D01*
X116631498Y-120428211D01*
X116431009Y-120367393D01*
X116246239Y-120268632D01*
X116219586Y-120246758D01*
X116084282Y-120135718D01*
X115951370Y-119973763D01*
X115951368Y-119973761D01*
X115852607Y-119788991D01*
X115791789Y-119588502D01*
X115771254Y-119380000D01*
X115791789Y-119171498D01*
X115852607Y-118971009D01*
X115951368Y-118786239D01*
X115973242Y-118759586D01*
X116084282Y-118624282D01*
X116246237Y-118491370D01*
X116246239Y-118491368D01*
X116431009Y-118392607D01*
X116631498Y-118331789D01*
X116787749Y-118316400D01*
X116892251Y-118316400D01*
X117048502Y-118331789D01*
X117048502Y-118331789D01*
G37*
G36*
X119588502Y-118331789D02*
X119788991Y-118392607D01*
X119973761Y-118491368D01*
X119973763Y-118491370D01*
X120135718Y-118624282D01*
X120246758Y-118759586D01*
X120268632Y-118786239D01*
X120367393Y-118971009D01*
X120428211Y-119171498D01*
X120448746Y-119380000D01*
X120428211Y-119588502D01*
X120367393Y-119788991D01*
X120268632Y-119973761D01*
X120268630Y-119973763D01*
X120135718Y-120135718D01*
X120000414Y-120246758D01*
X119973761Y-120268632D01*
X119788991Y-120367393D01*
X119588502Y-120428211D01*
X119432251Y-120443600D01*
X119327749Y-120443600D01*
X119171498Y-120428211D01*
X118971009Y-120367393D01*
X118786239Y-120268632D01*
X118759586Y-120246758D01*
X118624282Y-120135718D01*
X118491370Y-119973763D01*
X118491368Y-119973761D01*
X118392607Y-119788991D01*
X118331789Y-119588502D01*
X118311254Y-119380000D01*
X118331789Y-119171498D01*
X118392607Y-118971009D01*
X118491368Y-118786239D01*
X118513242Y-118759586D01*
X118624282Y-118624282D01*
X118786237Y-118491370D01*
X118786239Y-118491368D01*
X118971009Y-118392607D01*
X119171498Y-118331789D01*
X119327749Y-118316400D01*
X119432251Y-118316400D01*
X119588502Y-118331789D01*
X119588502Y-118331789D01*
G37*
G36*
X122128502Y-118331789D02*
X122328991Y-118392607D01*
X122513761Y-118491368D01*
X122513763Y-118491370D01*
X122675718Y-118624282D01*
X122786758Y-118759586D01*
X122808632Y-118786239D01*
X122907393Y-118971009D01*
X122968211Y-119171498D01*
X122988746Y-119380000D01*
X122968211Y-119588502D01*
X122907393Y-119788991D01*
X122808632Y-119973761D01*
X122808630Y-119973763D01*
X122675718Y-120135718D01*
X122540414Y-120246758D01*
X122513761Y-120268632D01*
X122328991Y-120367393D01*
X122128502Y-120428211D01*
X121972251Y-120443600D01*
X121867749Y-120443600D01*
X121711498Y-120428211D01*
X121511009Y-120367393D01*
X121326239Y-120268632D01*
X121299586Y-120246758D01*
X121164282Y-120135718D01*
X121031370Y-119973763D01*
X121031368Y-119973761D01*
X120932607Y-119788991D01*
X120871789Y-119588502D01*
X120851254Y-119380000D01*
X120871789Y-119171498D01*
X120932607Y-118971009D01*
X121031368Y-118786239D01*
X121053242Y-118759586D01*
X121164282Y-118624282D01*
X121326237Y-118491370D01*
X121326239Y-118491368D01*
X121511009Y-118392607D01*
X121711498Y-118331789D01*
X121867749Y-118316400D01*
X121972251Y-118316400D01*
X122128502Y-118331789D01*
X122128502Y-118331789D01*
G37*
G36*
X144988502Y-118331789D02*
X145188991Y-118392607D01*
X145373761Y-118491368D01*
X145373763Y-118491370D01*
X145535718Y-118624282D01*
X145646758Y-118759586D01*
X145668632Y-118786239D01*
X145767393Y-118971009D01*
X145828211Y-119171498D01*
X145848746Y-119380000D01*
X145828211Y-119588502D01*
X145767393Y-119788991D01*
X145668632Y-119973761D01*
X145668630Y-119973763D01*
X145535718Y-120135718D01*
X145400414Y-120246758D01*
X145373761Y-120268632D01*
X145188991Y-120367393D01*
X144988502Y-120428211D01*
X144832251Y-120443600D01*
X144727749Y-120443600D01*
X144571498Y-120428211D01*
X144371009Y-120367393D01*
X144186239Y-120268632D01*
X144159586Y-120246758D01*
X144024282Y-120135718D01*
X143891370Y-119973763D01*
X143891368Y-119973761D01*
X143792607Y-119788991D01*
X143731789Y-119588502D01*
X143711254Y-119380000D01*
X143731789Y-119171498D01*
X143792607Y-118971009D01*
X143891368Y-118786239D01*
X143913242Y-118759586D01*
X144024282Y-118624282D01*
X144186237Y-118491370D01*
X144186239Y-118491368D01*
X144371009Y-118392607D01*
X144571498Y-118331789D01*
X144727749Y-118316400D01*
X144832251Y-118316400D01*
X144988502Y-118331789D01*
X144988502Y-118331789D01*
G37*
G36*
X106888502Y-118331789D02*
X107088991Y-118392607D01*
X107273761Y-118491368D01*
X107273763Y-118491370D01*
X107435718Y-118624282D01*
X107546758Y-118759586D01*
X107568632Y-118786239D01*
X107667393Y-118971009D01*
X107728211Y-119171498D01*
X107748746Y-119380000D01*
X107728211Y-119588502D01*
X107667393Y-119788991D01*
X107568632Y-119973761D01*
X107568630Y-119973763D01*
X107435718Y-120135718D01*
X107300414Y-120246758D01*
X107273761Y-120268632D01*
X107088991Y-120367393D01*
X106888502Y-120428211D01*
X106732251Y-120443600D01*
X106627749Y-120443600D01*
X106471498Y-120428211D01*
X106271009Y-120367393D01*
X106086239Y-120268632D01*
X106059586Y-120246758D01*
X105924282Y-120135718D01*
X105791370Y-119973763D01*
X105791368Y-119973761D01*
X105692607Y-119788991D01*
X105631789Y-119588502D01*
X105611254Y-119380000D01*
X105631789Y-119171498D01*
X105692607Y-118971009D01*
X105791368Y-118786239D01*
X105813242Y-118759586D01*
X105924282Y-118624282D01*
X106086237Y-118491370D01*
X106086239Y-118491368D01*
X106271009Y-118392607D01*
X106471498Y-118331789D01*
X106627749Y-118316400D01*
X106732251Y-118316400D01*
X106888502Y-118331789D01*
X106888502Y-118331789D01*
G37*
G36*
X141321162Y-109994586D02*
X141495041Y-110029173D01*
X141822620Y-110164861D01*
X142058152Y-110322238D01*
X142117435Y-110361850D01*
X142368150Y-110612565D01*
X142368151Y-110612567D01*
X142565139Y-110907380D01*
X142700827Y-111234959D01*
X142770000Y-111582716D01*
X142770000Y-111937284D01*
X142700827Y-112285041D01*
X142565139Y-112612620D01*
X142407762Y-112848152D01*
X142368150Y-112907435D01*
X142117435Y-113158150D01*
X142058152Y-113197762D01*
X141822620Y-113355139D01*
X141495041Y-113490827D01*
X141321163Y-113525413D01*
X141147285Y-113560000D01*
X140792715Y-113560000D01*
X140618837Y-113525413D01*
X140444959Y-113490827D01*
X140117380Y-113355139D01*
X139881848Y-113197762D01*
X139822565Y-113158150D01*
X139571850Y-112907435D01*
X139532238Y-112848152D01*
X139374861Y-112612620D01*
X139239173Y-112285041D01*
X139170000Y-111937284D01*
X139170000Y-111582716D01*
X139239173Y-111234959D01*
X139374861Y-110907380D01*
X139571849Y-110612567D01*
X139571850Y-110612565D01*
X139822565Y-110361850D01*
X139881848Y-110322238D01*
X140117380Y-110164861D01*
X140444959Y-110029173D01*
X140618838Y-109994586D01*
X140792715Y-109960000D01*
X141147285Y-109960000D01*
X141321162Y-109994586D01*
X141321162Y-109994586D01*
G37*
G36*
X124695241Y-98847363D02*
X124921442Y-98915980D01*
X125129911Y-99027409D01*
X125312634Y-99177366D01*
X125462591Y-99360089D01*
X125574020Y-99568558D01*
X125642637Y-99794760D01*
X125660000Y-99971050D01*
X125660000Y-100688951D01*
X125642637Y-100865241D01*
X125574020Y-101091442D01*
X125462591Y-101299911D01*
X125366649Y-101416816D01*
X125312634Y-101482634D01*
X125168070Y-101601274D01*
X125129907Y-101632593D01*
X124921441Y-101744020D01*
X124695240Y-101812637D01*
X124460000Y-101835806D01*
X124224759Y-101812637D01*
X123998558Y-101744020D01*
X123790089Y-101632591D01*
X123673184Y-101536649D01*
X123607366Y-101482634D01*
X123488726Y-101338070D01*
X123457407Y-101299907D01*
X123345980Y-101091441D01*
X123277363Y-100865240D01*
X123260000Y-100688950D01*
X123260000Y-99971049D01*
X123277363Y-99794759D01*
X123345980Y-99568558D01*
X123457410Y-99360089D01*
X123607367Y-99177366D01*
X123790090Y-99027409D01*
X123998559Y-98915980D01*
X124224760Y-98847363D01*
X124460000Y-98824194D01*
X124695241Y-98847363D01*
X124695241Y-98847363D01*
G37*
G36*
X111995241Y-98847363D02*
X112221442Y-98915980D01*
X112429911Y-99027409D01*
X112612634Y-99177366D01*
X112762591Y-99360089D01*
X112874020Y-99568558D01*
X112942637Y-99794760D01*
X112960000Y-99971050D01*
X112960000Y-100688951D01*
X112942637Y-100865241D01*
X112874020Y-101091442D01*
X112762591Y-101299911D01*
X112666649Y-101416816D01*
X112612634Y-101482634D01*
X112468070Y-101601274D01*
X112429907Y-101632593D01*
X112221441Y-101744020D01*
X111995240Y-101812637D01*
X111760000Y-101835806D01*
X111524759Y-101812637D01*
X111298558Y-101744020D01*
X111090089Y-101632591D01*
X110973184Y-101536649D01*
X110907366Y-101482634D01*
X110788726Y-101338070D01*
X110757407Y-101299907D01*
X110645980Y-101091441D01*
X110577363Y-100865240D01*
X110560000Y-100688950D01*
X110560000Y-99971049D01*
X110577363Y-99794759D01*
X110645980Y-99568558D01*
X110757410Y-99360089D01*
X110907367Y-99177366D01*
X111090090Y-99027409D01*
X111298559Y-98915980D01*
X111524760Y-98847363D01*
X111760000Y-98824194D01*
X111995241Y-98847363D01*
X111995241Y-98847363D01*
G37*
G36*
X114535241Y-98847363D02*
X114761442Y-98915980D01*
X114969911Y-99027409D01*
X115152634Y-99177366D01*
X115302591Y-99360089D01*
X115414020Y-99568558D01*
X115482637Y-99794760D01*
X115500000Y-99971050D01*
X115500000Y-100688951D01*
X115482637Y-100865241D01*
X115414020Y-101091442D01*
X115302591Y-101299911D01*
X115206649Y-101416816D01*
X115152634Y-101482634D01*
X115008070Y-101601274D01*
X114969907Y-101632593D01*
X114761441Y-101744020D01*
X114535240Y-101812637D01*
X114300000Y-101835806D01*
X114064759Y-101812637D01*
X113838558Y-101744020D01*
X113630089Y-101632591D01*
X113513184Y-101536649D01*
X113447366Y-101482634D01*
X113328726Y-101338070D01*
X113297407Y-101299907D01*
X113185980Y-101091441D01*
X113117363Y-100865240D01*
X113100000Y-100688950D01*
X113100000Y-99971049D01*
X113117363Y-99794759D01*
X113185980Y-99568558D01*
X113297410Y-99360089D01*
X113447367Y-99177366D01*
X113630090Y-99027409D01*
X113838559Y-98915980D01*
X114064760Y-98847363D01*
X114300000Y-98824194D01*
X114535241Y-98847363D01*
X114535241Y-98847363D01*
G37*
G36*
X117075241Y-98847363D02*
X117301442Y-98915980D01*
X117509911Y-99027409D01*
X117692634Y-99177366D01*
X117842591Y-99360089D01*
X117954020Y-99568558D01*
X118022637Y-99794760D01*
X118040000Y-99971050D01*
X118040000Y-100688951D01*
X118022637Y-100865241D01*
X117954020Y-101091442D01*
X117842591Y-101299911D01*
X117746649Y-101416816D01*
X117692634Y-101482634D01*
X117548070Y-101601274D01*
X117509907Y-101632593D01*
X117301441Y-101744020D01*
X117075240Y-101812637D01*
X116840000Y-101835806D01*
X116604759Y-101812637D01*
X116378558Y-101744020D01*
X116170089Y-101632591D01*
X116053184Y-101536649D01*
X115987366Y-101482634D01*
X115868726Y-101338070D01*
X115837407Y-101299907D01*
X115725980Y-101091441D01*
X115657363Y-100865240D01*
X115640000Y-100688950D01*
X115640000Y-99971049D01*
X115657363Y-99794759D01*
X115725980Y-99568558D01*
X115837410Y-99360089D01*
X115987367Y-99177366D01*
X116170090Y-99027409D01*
X116378559Y-98915980D01*
X116604760Y-98847363D01*
X116840000Y-98824194D01*
X117075241Y-98847363D01*
X117075241Y-98847363D01*
G37*
G36*
X119615241Y-98847363D02*
X119841442Y-98915980D01*
X120049911Y-99027409D01*
X120232634Y-99177366D01*
X120382591Y-99360089D01*
X120494020Y-99568558D01*
X120562637Y-99794760D01*
X120580000Y-99971050D01*
X120580000Y-100688951D01*
X120562637Y-100865241D01*
X120494020Y-101091442D01*
X120382591Y-101299911D01*
X120286649Y-101416816D01*
X120232634Y-101482634D01*
X120088070Y-101601274D01*
X120049907Y-101632593D01*
X119841441Y-101744020D01*
X119615240Y-101812637D01*
X119380000Y-101835806D01*
X119144759Y-101812637D01*
X118918558Y-101744020D01*
X118710089Y-101632591D01*
X118593184Y-101536649D01*
X118527366Y-101482634D01*
X118408726Y-101338070D01*
X118377407Y-101299907D01*
X118265980Y-101091441D01*
X118197363Y-100865240D01*
X118180000Y-100688950D01*
X118180000Y-99971049D01*
X118197363Y-99794759D01*
X118265980Y-99568558D01*
X118377410Y-99360089D01*
X118527367Y-99177366D01*
X118710090Y-99027409D01*
X118918559Y-98915980D01*
X119144760Y-98847363D01*
X119380000Y-98824194D01*
X119615241Y-98847363D01*
X119615241Y-98847363D01*
G37*
G36*
X122155241Y-98847363D02*
X122381442Y-98915980D01*
X122589911Y-99027409D01*
X122772634Y-99177366D01*
X122922591Y-99360089D01*
X123034020Y-99568558D01*
X123102637Y-99794760D01*
X123120000Y-99971050D01*
X123120000Y-100688951D01*
X123102637Y-100865241D01*
X123034020Y-101091442D01*
X122922591Y-101299911D01*
X122826649Y-101416816D01*
X122772634Y-101482634D01*
X122628070Y-101601274D01*
X122589907Y-101632593D01*
X122381441Y-101744020D01*
X122155240Y-101812637D01*
X121920000Y-101835806D01*
X121684759Y-101812637D01*
X121458558Y-101744020D01*
X121250089Y-101632591D01*
X121133184Y-101536649D01*
X121067366Y-101482634D01*
X120948726Y-101338070D01*
X120917407Y-101299907D01*
X120805980Y-101091441D01*
X120737363Y-100865240D01*
X120720000Y-100688950D01*
X120720000Y-99971049D01*
X120737363Y-99794759D01*
X120805980Y-99568558D01*
X120917410Y-99360089D01*
X121067367Y-99177366D01*
X121250090Y-99027409D01*
X121458559Y-98915980D01*
X121684760Y-98847363D01*
X121920000Y-98824194D01*
X122155241Y-98847363D01*
X122155241Y-98847363D01*
G37*
G36*
X127235241Y-98847363D02*
X127461442Y-98915980D01*
X127669911Y-99027409D01*
X127852634Y-99177366D01*
X128002591Y-99360089D01*
X128114020Y-99568558D01*
X128182637Y-99794760D01*
X128200000Y-99971050D01*
X128200000Y-100688951D01*
X128182637Y-100865241D01*
X128114020Y-101091442D01*
X128002591Y-101299911D01*
X127906649Y-101416816D01*
X127852634Y-101482634D01*
X127708070Y-101601274D01*
X127669907Y-101632593D01*
X127461441Y-101744020D01*
X127235240Y-101812637D01*
X127000000Y-101835806D01*
X126764759Y-101812637D01*
X126538558Y-101744020D01*
X126330089Y-101632591D01*
X126213184Y-101536649D01*
X126147366Y-101482634D01*
X126028726Y-101338070D01*
X125997407Y-101299907D01*
X125885980Y-101091441D01*
X125817363Y-100865240D01*
X125800000Y-100688950D01*
X125800000Y-99971049D01*
X125817363Y-99794759D01*
X125885980Y-99568558D01*
X125997410Y-99360089D01*
X126147367Y-99177366D01*
X126330090Y-99027409D01*
X126538559Y-98915980D01*
X126764760Y-98847363D01*
X127000000Y-98824194D01*
X127235241Y-98847363D01*
X127235241Y-98847363D01*
G37*
G36*
X130740000Y-101830000D02*
X128340000Y-101830000D01*
X128340000Y-98830000D01*
X130740000Y-98830000D01*
X130740000Y-101830000D01*
X130740000Y-101830000D01*
G37*
G36*
X122155240Y-84242363D02*
X122381441Y-84310980D01*
X122589907Y-84422407D01*
X122589909Y-84422409D01*
X122772634Y-84572366D01*
X122772636Y-84572369D01*
X122922591Y-84755089D01*
X123034020Y-84963558D01*
X123102637Y-85189759D01*
X123120000Y-85366049D01*
X123120000Y-86083950D01*
X123102637Y-86260240D01*
X123034020Y-86486442D01*
X122922591Y-86694911D01*
X122772634Y-86877634D01*
X122589911Y-87027591D01*
X122381442Y-87139020D01*
X122155241Y-87207637D01*
X121920000Y-87230806D01*
X121684760Y-87207637D01*
X121458559Y-87139020D01*
X121250090Y-87027591D01*
X121067367Y-86877634D01*
X120917410Y-86694911D01*
X120805980Y-86486442D01*
X120737363Y-86260241D01*
X120720000Y-86083951D01*
X120720000Y-85366050D01*
X120737363Y-85189760D01*
X120805980Y-84963559D01*
X120917407Y-84755093D01*
X120948726Y-84716930D01*
X121067366Y-84572366D01*
X121133184Y-84518351D01*
X121250089Y-84422409D01*
X121458558Y-84310980D01*
X121684759Y-84242363D01*
X121920000Y-84219194D01*
X122155240Y-84242363D01*
X122155240Y-84242363D01*
G37*
G36*
X117075240Y-84242363D02*
X117301441Y-84310980D01*
X117509907Y-84422407D01*
X117509909Y-84422409D01*
X117692634Y-84572366D01*
X117692636Y-84572369D01*
X117842591Y-84755089D01*
X117954020Y-84963558D01*
X118022637Y-85189759D01*
X118040000Y-85366049D01*
X118040000Y-86083950D01*
X118022637Y-86260240D01*
X117954020Y-86486442D01*
X117842591Y-86694911D01*
X117692634Y-86877634D01*
X117509911Y-87027591D01*
X117301442Y-87139020D01*
X117075241Y-87207637D01*
X116840000Y-87230806D01*
X116604760Y-87207637D01*
X116378559Y-87139020D01*
X116170090Y-87027591D01*
X115987367Y-86877634D01*
X115837410Y-86694911D01*
X115725980Y-86486442D01*
X115657363Y-86260241D01*
X115640000Y-86083951D01*
X115640000Y-85366050D01*
X115657363Y-85189760D01*
X115725980Y-84963559D01*
X115837407Y-84755093D01*
X115868726Y-84716930D01*
X115987366Y-84572366D01*
X116053184Y-84518351D01*
X116170089Y-84422409D01*
X116378558Y-84310980D01*
X116604759Y-84242363D01*
X116840000Y-84219194D01*
X117075240Y-84242363D01*
X117075240Y-84242363D01*
G37*
G36*
X114535240Y-84242363D02*
X114761441Y-84310980D01*
X114969907Y-84422407D01*
X114969909Y-84422409D01*
X115152634Y-84572366D01*
X115152636Y-84572369D01*
X115302591Y-84755089D01*
X115414020Y-84963558D01*
X115482637Y-85189759D01*
X115500000Y-85366049D01*
X115500000Y-86083950D01*
X115482637Y-86260240D01*
X115414020Y-86486442D01*
X115302591Y-86694911D01*
X115152634Y-86877634D01*
X114969911Y-87027591D01*
X114761442Y-87139020D01*
X114535241Y-87207637D01*
X114300000Y-87230806D01*
X114064760Y-87207637D01*
X113838559Y-87139020D01*
X113630090Y-87027591D01*
X113447367Y-86877634D01*
X113297410Y-86694911D01*
X113185980Y-86486442D01*
X113117363Y-86260241D01*
X113100000Y-86083951D01*
X113100000Y-85366050D01*
X113117363Y-85189760D01*
X113185980Y-84963559D01*
X113297407Y-84755093D01*
X113328726Y-84716930D01*
X113447366Y-84572366D01*
X113513184Y-84518351D01*
X113630089Y-84422409D01*
X113838558Y-84310980D01*
X114064759Y-84242363D01*
X114300000Y-84219194D01*
X114535240Y-84242363D01*
X114535240Y-84242363D01*
G37*
G36*
X119615240Y-84242363D02*
X119841441Y-84310980D01*
X120049907Y-84422407D01*
X120049909Y-84422409D01*
X120232634Y-84572366D01*
X120232636Y-84572369D01*
X120382591Y-84755089D01*
X120494020Y-84963558D01*
X120562637Y-85189759D01*
X120580000Y-85366049D01*
X120580000Y-86083950D01*
X120562637Y-86260240D01*
X120494020Y-86486442D01*
X120382591Y-86694911D01*
X120232634Y-86877634D01*
X120049911Y-87027591D01*
X119841442Y-87139020D01*
X119615241Y-87207637D01*
X119380000Y-87230806D01*
X119144760Y-87207637D01*
X118918559Y-87139020D01*
X118710090Y-87027591D01*
X118527367Y-86877634D01*
X118377410Y-86694911D01*
X118265980Y-86486442D01*
X118197363Y-86260241D01*
X118180000Y-86083951D01*
X118180000Y-85366050D01*
X118197363Y-85189760D01*
X118265980Y-84963559D01*
X118377407Y-84755093D01*
X118408726Y-84716930D01*
X118527366Y-84572366D01*
X118593184Y-84518351D01*
X118710089Y-84422409D01*
X118918558Y-84310980D01*
X119144759Y-84242363D01*
X119380000Y-84219194D01*
X119615240Y-84242363D01*
X119615240Y-84242363D01*
G37*
G36*
X127235240Y-84242363D02*
X127461441Y-84310980D01*
X127669907Y-84422407D01*
X127669909Y-84422409D01*
X127852634Y-84572366D01*
X127852636Y-84572369D01*
X128002591Y-84755089D01*
X128114020Y-84963558D01*
X128182637Y-85189759D01*
X128200000Y-85366049D01*
X128200000Y-86083950D01*
X128182637Y-86260240D01*
X128114020Y-86486442D01*
X128002591Y-86694911D01*
X127852634Y-86877634D01*
X127669911Y-87027591D01*
X127461442Y-87139020D01*
X127235241Y-87207637D01*
X127000000Y-87230806D01*
X126764760Y-87207637D01*
X126538559Y-87139020D01*
X126330090Y-87027591D01*
X126147367Y-86877634D01*
X125997410Y-86694911D01*
X125885980Y-86486442D01*
X125817363Y-86260241D01*
X125800000Y-86083951D01*
X125800000Y-85366050D01*
X125817363Y-85189760D01*
X125885980Y-84963559D01*
X125997407Y-84755093D01*
X126028726Y-84716930D01*
X126147366Y-84572366D01*
X126213184Y-84518351D01*
X126330089Y-84422409D01*
X126538558Y-84310980D01*
X126764759Y-84242363D01*
X127000000Y-84219194D01*
X127235240Y-84242363D01*
X127235240Y-84242363D01*
G37*
G36*
X129775240Y-84242363D02*
X130001441Y-84310980D01*
X130209907Y-84422407D01*
X130209909Y-84422409D01*
X130392634Y-84572366D01*
X130392636Y-84572369D01*
X130542591Y-84755089D01*
X130654020Y-84963558D01*
X130722637Y-85189759D01*
X130740000Y-85366049D01*
X130740000Y-86083950D01*
X130722637Y-86260240D01*
X130654020Y-86486442D01*
X130542591Y-86694911D01*
X130392634Y-86877634D01*
X130209911Y-87027591D01*
X130001442Y-87139020D01*
X129775241Y-87207637D01*
X129540000Y-87230806D01*
X129304760Y-87207637D01*
X129078559Y-87139020D01*
X128870090Y-87027591D01*
X128687367Y-86877634D01*
X128537410Y-86694911D01*
X128425980Y-86486442D01*
X128357363Y-86260241D01*
X128340000Y-86083951D01*
X128340000Y-85366050D01*
X128357363Y-85189760D01*
X128425980Y-84963559D01*
X128537407Y-84755093D01*
X128568726Y-84716930D01*
X128687366Y-84572366D01*
X128753184Y-84518351D01*
X128870089Y-84422409D01*
X129078558Y-84310980D01*
X129304759Y-84242363D01*
X129540000Y-84219194D01*
X129775240Y-84242363D01*
X129775240Y-84242363D01*
G37*
G36*
X124695240Y-84242363D02*
X124921441Y-84310980D01*
X125129907Y-84422407D01*
X125129909Y-84422409D01*
X125312634Y-84572366D01*
X125312636Y-84572369D01*
X125462591Y-84755089D01*
X125574020Y-84963558D01*
X125642637Y-85189759D01*
X125660000Y-85366049D01*
X125660000Y-86083950D01*
X125642637Y-86260240D01*
X125574020Y-86486442D01*
X125462591Y-86694911D01*
X125312634Y-86877634D01*
X125129911Y-87027591D01*
X124921442Y-87139020D01*
X124695241Y-87207637D01*
X124460000Y-87230806D01*
X124224760Y-87207637D01*
X123998559Y-87139020D01*
X123790090Y-87027591D01*
X123607367Y-86877634D01*
X123457410Y-86694911D01*
X123345980Y-86486442D01*
X123277363Y-86260241D01*
X123260000Y-86083951D01*
X123260000Y-85366050D01*
X123277363Y-85189760D01*
X123345980Y-84963559D01*
X123457407Y-84755093D01*
X123488726Y-84716930D01*
X123607366Y-84572366D01*
X123673184Y-84518351D01*
X123790089Y-84422409D01*
X123998558Y-84310980D01*
X124224759Y-84242363D01*
X124460000Y-84219194D01*
X124695240Y-84242363D01*
X124695240Y-84242363D01*
G37*
G36*
X112960000Y-87225000D02*
X110560000Y-87225000D01*
X110560000Y-84225000D01*
X112960000Y-84225000D01*
X112960000Y-87225000D01*
X112960000Y-87225000D01*
G37*
G36*
X141321163Y-76974587D02*
X141495041Y-77009173D01*
X141822620Y-77144861D01*
X142058152Y-77302238D01*
X142117435Y-77341850D01*
X142368150Y-77592565D01*
X142368151Y-77592567D01*
X142565139Y-77887380D01*
X142700827Y-78214959D01*
X142770000Y-78562716D01*
X142770000Y-78917284D01*
X142700827Y-79265041D01*
X142565139Y-79592620D01*
X142407762Y-79828152D01*
X142368150Y-79887435D01*
X142117435Y-80138150D01*
X142058152Y-80177762D01*
X141822620Y-80335139D01*
X141495041Y-80470827D01*
X141321162Y-80505414D01*
X141147285Y-80540000D01*
X140792715Y-80540000D01*
X140618838Y-80505414D01*
X140444959Y-80470827D01*
X140117380Y-80335139D01*
X139881848Y-80177762D01*
X139822565Y-80138150D01*
X139571850Y-79887435D01*
X139532238Y-79828152D01*
X139374861Y-79592620D01*
X139239173Y-79265041D01*
X139170000Y-78917284D01*
X139170000Y-78562716D01*
X139239173Y-78214959D01*
X139374861Y-77887380D01*
X139571849Y-77592567D01*
X139571850Y-77592565D01*
X139822565Y-77341850D01*
X139881848Y-77302238D01*
X140117380Y-77144861D01*
X140444959Y-77009173D01*
X140618837Y-76974587D01*
X140792715Y-76940000D01*
X141147285Y-76940000D01*
X141321163Y-76974587D01*
X141321163Y-76974587D01*
G37*
G36*
X91791163Y-69354587D02*
X91965041Y-69389173D01*
X92292620Y-69524861D01*
X92528152Y-69682238D01*
X92587435Y-69721850D01*
X92838150Y-69972565D01*
X92838151Y-69972567D01*
X93035139Y-70267380D01*
X93142361Y-70526237D01*
X93170827Y-70594960D01*
X93240000Y-70942715D01*
X93240000Y-71297285D01*
X93205413Y-71471163D01*
X93170827Y-71645041D01*
X93035139Y-71972620D01*
X92945086Y-72107393D01*
X92838150Y-72267435D01*
X92587435Y-72518150D01*
X92528152Y-72557762D01*
X92292620Y-72715139D01*
X91965041Y-72850827D01*
X91791163Y-72885413D01*
X91617285Y-72920000D01*
X91262715Y-72920000D01*
X91088837Y-72885413D01*
X90914959Y-72850827D01*
X90587380Y-72715139D01*
X90351848Y-72557762D01*
X90292565Y-72518150D01*
X90041850Y-72267435D01*
X89934914Y-72107393D01*
X89844861Y-71972620D01*
X89709173Y-71645041D01*
X89674587Y-71471163D01*
X89640000Y-71297285D01*
X89640000Y-70942715D01*
X89709173Y-70594960D01*
X89737639Y-70526237D01*
X89844861Y-70267380D01*
X90041849Y-69972567D01*
X90041850Y-69972565D01*
X90292565Y-69721850D01*
X90351848Y-69682238D01*
X90587380Y-69524861D01*
X90914959Y-69389173D01*
X91088837Y-69354587D01*
X91262715Y-69320000D01*
X91617285Y-69320000D01*
X91791163Y-69354587D01*
X91791163Y-69354587D01*
G37*
G36*
X115524502Y-70071789D02*
X115724991Y-70132607D01*
X115909761Y-70231368D01*
X115909763Y-70231370D01*
X116071718Y-70364282D01*
X116182758Y-70499586D01*
X116204632Y-70526239D01*
X116303393Y-70711009D01*
X116364211Y-70911498D01*
X116384746Y-71120000D01*
X116364211Y-71328502D01*
X116303393Y-71528991D01*
X116204632Y-71713761D01*
X116204630Y-71713763D01*
X116071718Y-71875718D01*
X115936414Y-71986758D01*
X115909761Y-72008632D01*
X115724991Y-72107393D01*
X115524502Y-72168211D01*
X115368251Y-72183600D01*
X115263749Y-72183600D01*
X115107498Y-72168211D01*
X114907009Y-72107393D01*
X114722239Y-72008632D01*
X114695586Y-71986758D01*
X114560282Y-71875718D01*
X114427370Y-71713763D01*
X114427368Y-71713761D01*
X114328607Y-71528991D01*
X114267789Y-71328502D01*
X114247254Y-71120000D01*
X114267789Y-70911498D01*
X114328607Y-70711009D01*
X114427368Y-70526239D01*
X114449242Y-70499586D01*
X114560282Y-70364282D01*
X114722237Y-70231370D01*
X114722239Y-70231368D01*
X114907009Y-70132607D01*
X115107498Y-70071789D01*
X115263749Y-70056400D01*
X115368251Y-70056400D01*
X115524502Y-70071789D01*
X115524502Y-70071789D01*
G37*
G36*
X137368502Y-70071789D02*
X137568991Y-70132607D01*
X137753761Y-70231368D01*
X137753763Y-70231370D01*
X137915718Y-70364282D01*
X138026758Y-70499586D01*
X138048632Y-70526239D01*
X138147393Y-70711009D01*
X138208211Y-70911498D01*
X138228746Y-71120000D01*
X138208211Y-71328502D01*
X138147393Y-71528991D01*
X138048632Y-71713761D01*
X138048630Y-71713763D01*
X137915718Y-71875718D01*
X137780414Y-71986758D01*
X137753761Y-72008632D01*
X137568991Y-72107393D01*
X137368502Y-72168211D01*
X137212251Y-72183600D01*
X137107749Y-72183600D01*
X136951498Y-72168211D01*
X136751009Y-72107393D01*
X136566239Y-72008632D01*
X136539586Y-71986758D01*
X136404282Y-71875718D01*
X136271370Y-71713763D01*
X136271368Y-71713761D01*
X136172607Y-71528991D01*
X136111789Y-71328502D01*
X136091254Y-71120000D01*
X136111789Y-70911498D01*
X136172607Y-70711009D01*
X136271368Y-70526239D01*
X136293242Y-70499586D01*
X136404282Y-70364282D01*
X136566237Y-70231370D01*
X136566239Y-70231368D01*
X136751009Y-70132607D01*
X136951498Y-70071789D01*
X137107749Y-70056400D01*
X137212251Y-70056400D01*
X137368502Y-70071789D01*
X137368502Y-70071789D01*
G37*
G36*
X134828502Y-70071789D02*
X135028991Y-70132607D01*
X135213761Y-70231368D01*
X135213763Y-70231370D01*
X135375718Y-70364282D01*
X135486758Y-70499586D01*
X135508632Y-70526239D01*
X135607393Y-70711009D01*
X135668211Y-70911498D01*
X135688746Y-71120000D01*
X135668211Y-71328502D01*
X135607393Y-71528991D01*
X135508632Y-71713761D01*
X135508630Y-71713763D01*
X135375718Y-71875718D01*
X135240414Y-71986758D01*
X135213761Y-72008632D01*
X135028991Y-72107393D01*
X134828502Y-72168211D01*
X134672251Y-72183600D01*
X134567749Y-72183600D01*
X134411498Y-72168211D01*
X134211009Y-72107393D01*
X134026239Y-72008632D01*
X133999586Y-71986758D01*
X133864282Y-71875718D01*
X133731370Y-71713763D01*
X133731368Y-71713761D01*
X133632607Y-71528991D01*
X133571789Y-71328502D01*
X133551254Y-71120000D01*
X133571789Y-70911498D01*
X133632607Y-70711009D01*
X133731368Y-70526239D01*
X133753242Y-70499586D01*
X133864282Y-70364282D01*
X134026237Y-70231370D01*
X134026239Y-70231368D01*
X134211009Y-70132607D01*
X134411498Y-70071789D01*
X134567749Y-70056400D01*
X134672251Y-70056400D01*
X134828502Y-70071789D01*
X134828502Y-70071789D01*
G37*
G36*
X132288502Y-70071789D02*
X132488991Y-70132607D01*
X132673761Y-70231368D01*
X132673763Y-70231370D01*
X132835718Y-70364282D01*
X132946758Y-70499586D01*
X132968632Y-70526239D01*
X133067393Y-70711009D01*
X133128211Y-70911498D01*
X133148746Y-71120000D01*
X133128211Y-71328502D01*
X133067393Y-71528991D01*
X132968632Y-71713761D01*
X132968630Y-71713763D01*
X132835718Y-71875718D01*
X132700414Y-71986758D01*
X132673761Y-72008632D01*
X132488991Y-72107393D01*
X132288502Y-72168211D01*
X132132251Y-72183600D01*
X132027749Y-72183600D01*
X131871498Y-72168211D01*
X131671009Y-72107393D01*
X131486239Y-72008632D01*
X131459586Y-71986758D01*
X131324282Y-71875718D01*
X131191370Y-71713763D01*
X131191368Y-71713761D01*
X131092607Y-71528991D01*
X131031789Y-71328502D01*
X131011254Y-71120000D01*
X131031789Y-70911498D01*
X131092607Y-70711009D01*
X131191368Y-70526239D01*
X131213242Y-70499586D01*
X131324282Y-70364282D01*
X131486237Y-70231370D01*
X131486239Y-70231368D01*
X131671009Y-70132607D01*
X131871498Y-70071789D01*
X132027749Y-70056400D01*
X132132251Y-70056400D01*
X132288502Y-70071789D01*
X132288502Y-70071789D01*
G37*
G36*
X129748502Y-70071789D02*
X129948991Y-70132607D01*
X130133761Y-70231368D01*
X130133763Y-70231370D01*
X130295718Y-70364282D01*
X130406758Y-70499586D01*
X130428632Y-70526239D01*
X130527393Y-70711009D01*
X130588211Y-70911498D01*
X130608746Y-71120000D01*
X130588211Y-71328502D01*
X130527393Y-71528991D01*
X130428632Y-71713761D01*
X130428630Y-71713763D01*
X130295718Y-71875718D01*
X130160414Y-71986758D01*
X130133761Y-72008632D01*
X129948991Y-72107393D01*
X129748502Y-72168211D01*
X129592251Y-72183600D01*
X129487749Y-72183600D01*
X129331498Y-72168211D01*
X129131009Y-72107393D01*
X128946239Y-72008632D01*
X128919586Y-71986758D01*
X128784282Y-71875718D01*
X128651370Y-71713763D01*
X128651368Y-71713761D01*
X128552607Y-71528991D01*
X128491789Y-71328502D01*
X128471254Y-71120000D01*
X128491789Y-70911498D01*
X128552607Y-70711009D01*
X128651368Y-70526239D01*
X128673242Y-70499586D01*
X128784282Y-70364282D01*
X128946237Y-70231370D01*
X128946239Y-70231368D01*
X129131009Y-70132607D01*
X129331498Y-70071789D01*
X129487749Y-70056400D01*
X129592251Y-70056400D01*
X129748502Y-70071789D01*
X129748502Y-70071789D01*
G37*
G36*
X127208502Y-70071789D02*
X127408991Y-70132607D01*
X127593761Y-70231368D01*
X127593763Y-70231370D01*
X127755718Y-70364282D01*
X127866758Y-70499586D01*
X127888632Y-70526239D01*
X127987393Y-70711009D01*
X128048211Y-70911498D01*
X128068746Y-71120000D01*
X128048211Y-71328502D01*
X127987393Y-71528991D01*
X127888632Y-71713761D01*
X127888630Y-71713763D01*
X127755718Y-71875718D01*
X127620414Y-71986758D01*
X127593761Y-72008632D01*
X127408991Y-72107393D01*
X127208502Y-72168211D01*
X127052251Y-72183600D01*
X126947749Y-72183600D01*
X126791498Y-72168211D01*
X126591009Y-72107393D01*
X126406239Y-72008632D01*
X126379586Y-71986758D01*
X126244282Y-71875718D01*
X126111370Y-71713763D01*
X126111368Y-71713761D01*
X126012607Y-71528991D01*
X125951789Y-71328502D01*
X125931254Y-71120000D01*
X125951789Y-70911498D01*
X126012607Y-70711009D01*
X126111368Y-70526239D01*
X126133242Y-70499586D01*
X126244282Y-70364282D01*
X126406237Y-70231370D01*
X126406239Y-70231368D01*
X126591009Y-70132607D01*
X126791498Y-70071789D01*
X126947749Y-70056400D01*
X127052251Y-70056400D01*
X127208502Y-70071789D01*
X127208502Y-70071789D01*
G37*
G36*
X124668502Y-70071789D02*
X124868991Y-70132607D01*
X125053761Y-70231368D01*
X125053763Y-70231370D01*
X125215718Y-70364282D01*
X125326758Y-70499586D01*
X125348632Y-70526239D01*
X125447393Y-70711009D01*
X125508211Y-70911498D01*
X125528746Y-71120000D01*
X125508211Y-71328502D01*
X125447393Y-71528991D01*
X125348632Y-71713761D01*
X125348630Y-71713763D01*
X125215718Y-71875718D01*
X125080414Y-71986758D01*
X125053761Y-72008632D01*
X124868991Y-72107393D01*
X124668502Y-72168211D01*
X124512251Y-72183600D01*
X124407749Y-72183600D01*
X124251498Y-72168211D01*
X124051009Y-72107393D01*
X123866239Y-72008632D01*
X123839586Y-71986758D01*
X123704282Y-71875718D01*
X123571370Y-71713763D01*
X123571368Y-71713761D01*
X123472607Y-71528991D01*
X123411789Y-71328502D01*
X123391254Y-71120000D01*
X123411789Y-70911498D01*
X123472607Y-70711009D01*
X123571368Y-70526239D01*
X123593242Y-70499586D01*
X123704282Y-70364282D01*
X123866237Y-70231370D01*
X123866239Y-70231368D01*
X124051009Y-70132607D01*
X124251498Y-70071789D01*
X124407749Y-70056400D01*
X124512251Y-70056400D01*
X124668502Y-70071789D01*
X124668502Y-70071789D01*
G37*
G36*
X122128502Y-70071789D02*
X122328991Y-70132607D01*
X122513761Y-70231368D01*
X122513763Y-70231370D01*
X122675718Y-70364282D01*
X122786758Y-70499586D01*
X122808632Y-70526239D01*
X122907393Y-70711009D01*
X122968211Y-70911498D01*
X122988746Y-71120000D01*
X122968211Y-71328502D01*
X122907393Y-71528991D01*
X122808632Y-71713761D01*
X122808630Y-71713763D01*
X122675718Y-71875718D01*
X122540414Y-71986758D01*
X122513761Y-72008632D01*
X122328991Y-72107393D01*
X122128502Y-72168211D01*
X121972251Y-72183600D01*
X121867749Y-72183600D01*
X121711498Y-72168211D01*
X121511009Y-72107393D01*
X121326239Y-72008632D01*
X121299586Y-71986758D01*
X121164282Y-71875718D01*
X121031370Y-71713763D01*
X121031368Y-71713761D01*
X120932607Y-71528991D01*
X120871789Y-71328502D01*
X120851254Y-71120000D01*
X120871789Y-70911498D01*
X120932607Y-70711009D01*
X121031368Y-70526239D01*
X121053242Y-70499586D01*
X121164282Y-70364282D01*
X121326237Y-70231370D01*
X121326239Y-70231368D01*
X121511009Y-70132607D01*
X121711498Y-70071789D01*
X121867749Y-70056400D01*
X121972251Y-70056400D01*
X122128502Y-70071789D01*
X122128502Y-70071789D01*
G37*
G36*
X118064502Y-70071789D02*
X118264991Y-70132607D01*
X118449761Y-70231368D01*
X118449763Y-70231370D01*
X118611718Y-70364282D01*
X118722758Y-70499586D01*
X118744632Y-70526239D01*
X118843393Y-70711009D01*
X118904211Y-70911498D01*
X118924746Y-71120000D01*
X118904211Y-71328502D01*
X118843393Y-71528991D01*
X118744632Y-71713761D01*
X118744630Y-71713763D01*
X118611718Y-71875718D01*
X118476414Y-71986758D01*
X118449761Y-72008632D01*
X118264991Y-72107393D01*
X118064502Y-72168211D01*
X117908251Y-72183600D01*
X117803749Y-72183600D01*
X117647498Y-72168211D01*
X117447009Y-72107393D01*
X117262239Y-72008632D01*
X117235586Y-71986758D01*
X117100282Y-71875718D01*
X116967370Y-71713763D01*
X116967368Y-71713761D01*
X116868607Y-71528991D01*
X116807789Y-71328502D01*
X116787254Y-71120000D01*
X116807789Y-70911498D01*
X116868607Y-70711009D01*
X116967368Y-70526239D01*
X116989242Y-70499586D01*
X117100282Y-70364282D01*
X117262237Y-70231370D01*
X117262239Y-70231368D01*
X117447009Y-70132607D01*
X117647498Y-70071789D01*
X117803749Y-70056400D01*
X117908251Y-70056400D01*
X118064502Y-70071789D01*
X118064502Y-70071789D01*
G37*
G36*
X100284502Y-70071789D02*
X100484991Y-70132607D01*
X100669761Y-70231368D01*
X100669763Y-70231370D01*
X100831718Y-70364282D01*
X100942758Y-70499586D01*
X100964632Y-70526239D01*
X101063393Y-70711009D01*
X101124211Y-70911498D01*
X101144746Y-71120000D01*
X101124211Y-71328502D01*
X101063393Y-71528991D01*
X100964632Y-71713761D01*
X100964630Y-71713763D01*
X100831718Y-71875718D01*
X100696414Y-71986758D01*
X100669761Y-72008632D01*
X100484991Y-72107393D01*
X100284502Y-72168211D01*
X100128251Y-72183600D01*
X100023749Y-72183600D01*
X99867498Y-72168211D01*
X99667009Y-72107393D01*
X99482239Y-72008632D01*
X99455586Y-71986758D01*
X99320282Y-71875718D01*
X99187370Y-71713763D01*
X99187368Y-71713761D01*
X99088607Y-71528991D01*
X99027789Y-71328502D01*
X99007254Y-71120000D01*
X99027789Y-70911498D01*
X99088607Y-70711009D01*
X99187368Y-70526239D01*
X99209242Y-70499586D01*
X99320282Y-70364282D01*
X99482237Y-70231370D01*
X99482239Y-70231368D01*
X99667009Y-70132607D01*
X99867498Y-70071789D01*
X100023749Y-70056400D01*
X100128251Y-70056400D01*
X100284502Y-70071789D01*
X100284502Y-70071789D01*
G37*
G36*
X102824502Y-70071789D02*
X103024991Y-70132607D01*
X103209761Y-70231368D01*
X103209763Y-70231370D01*
X103371718Y-70364282D01*
X103482758Y-70499586D01*
X103504632Y-70526239D01*
X103603393Y-70711009D01*
X103664211Y-70911498D01*
X103684746Y-71120000D01*
X103664211Y-71328502D01*
X103603393Y-71528991D01*
X103504632Y-71713761D01*
X103504630Y-71713763D01*
X103371718Y-71875718D01*
X103236414Y-71986758D01*
X103209761Y-72008632D01*
X103024991Y-72107393D01*
X102824502Y-72168211D01*
X102668251Y-72183600D01*
X102563749Y-72183600D01*
X102407498Y-72168211D01*
X102207009Y-72107393D01*
X102022239Y-72008632D01*
X101995586Y-71986758D01*
X101860282Y-71875718D01*
X101727370Y-71713763D01*
X101727368Y-71713761D01*
X101628607Y-71528991D01*
X101567789Y-71328502D01*
X101547254Y-71120000D01*
X101567789Y-70911498D01*
X101628607Y-70711009D01*
X101727368Y-70526239D01*
X101749242Y-70499586D01*
X101860282Y-70364282D01*
X102022237Y-70231370D01*
X102022239Y-70231368D01*
X102207009Y-70132607D01*
X102407498Y-70071789D01*
X102563749Y-70056400D01*
X102668251Y-70056400D01*
X102824502Y-70071789D01*
X102824502Y-70071789D01*
G37*
G36*
X112984502Y-70071789D02*
X113184991Y-70132607D01*
X113369761Y-70231368D01*
X113369763Y-70231370D01*
X113531718Y-70364282D01*
X113642758Y-70499586D01*
X113664632Y-70526239D01*
X113763393Y-70711009D01*
X113824211Y-70911498D01*
X113844746Y-71120000D01*
X113824211Y-71328502D01*
X113763393Y-71528991D01*
X113664632Y-71713761D01*
X113664630Y-71713763D01*
X113531718Y-71875718D01*
X113396414Y-71986758D01*
X113369761Y-72008632D01*
X113184991Y-72107393D01*
X112984502Y-72168211D01*
X112828251Y-72183600D01*
X112723749Y-72183600D01*
X112567498Y-72168211D01*
X112367009Y-72107393D01*
X112182239Y-72008632D01*
X112155586Y-71986758D01*
X112020282Y-71875718D01*
X111887370Y-71713763D01*
X111887368Y-71713761D01*
X111788607Y-71528991D01*
X111727789Y-71328502D01*
X111707254Y-71120000D01*
X111727789Y-70911498D01*
X111788607Y-70711009D01*
X111887368Y-70526239D01*
X111909242Y-70499586D01*
X112020282Y-70364282D01*
X112182237Y-70231370D01*
X112182239Y-70231368D01*
X112367009Y-70132607D01*
X112567498Y-70071789D01*
X112723749Y-70056400D01*
X112828251Y-70056400D01*
X112984502Y-70071789D01*
X112984502Y-70071789D01*
G37*
G36*
X139908502Y-70071789D02*
X140108991Y-70132607D01*
X140293761Y-70231368D01*
X140293763Y-70231370D01*
X140455718Y-70364282D01*
X140566758Y-70499586D01*
X140588632Y-70526239D01*
X140687393Y-70711009D01*
X140748211Y-70911498D01*
X140768746Y-71120000D01*
X140748211Y-71328502D01*
X140687393Y-71528991D01*
X140588632Y-71713761D01*
X140588630Y-71713763D01*
X140455718Y-71875718D01*
X140320414Y-71986758D01*
X140293761Y-72008632D01*
X140108991Y-72107393D01*
X139908502Y-72168211D01*
X139752251Y-72183600D01*
X139647749Y-72183600D01*
X139491498Y-72168211D01*
X139291009Y-72107393D01*
X139106239Y-72008632D01*
X139079586Y-71986758D01*
X138944282Y-71875718D01*
X138811370Y-71713763D01*
X138811368Y-71713761D01*
X138712607Y-71528991D01*
X138651789Y-71328502D01*
X138631254Y-71120000D01*
X138651789Y-70911498D01*
X138712607Y-70711009D01*
X138811368Y-70526239D01*
X138833242Y-70499586D01*
X138944282Y-70364282D01*
X139106237Y-70231370D01*
X139106239Y-70231368D01*
X139291009Y-70132607D01*
X139491498Y-70071789D01*
X139647749Y-70056400D01*
X139752251Y-70056400D01*
X139908502Y-70071789D01*
X139908502Y-70071789D01*
G37*
G36*
X107904502Y-70071789D02*
X108104991Y-70132607D01*
X108289761Y-70231368D01*
X108289763Y-70231370D01*
X108451718Y-70364282D01*
X108562758Y-70499586D01*
X108584632Y-70526239D01*
X108683393Y-70711009D01*
X108744211Y-70911498D01*
X108764746Y-71120000D01*
X108744211Y-71328502D01*
X108683393Y-71528991D01*
X108584632Y-71713761D01*
X108584630Y-71713763D01*
X108451718Y-71875718D01*
X108316414Y-71986758D01*
X108289761Y-72008632D01*
X108104991Y-72107393D01*
X107904502Y-72168211D01*
X107748251Y-72183600D01*
X107643749Y-72183600D01*
X107487498Y-72168211D01*
X107287009Y-72107393D01*
X107102239Y-72008632D01*
X107075586Y-71986758D01*
X106940282Y-71875718D01*
X106807370Y-71713763D01*
X106807368Y-71713761D01*
X106708607Y-71528991D01*
X106647789Y-71328502D01*
X106627254Y-71120000D01*
X106647789Y-70911498D01*
X106708607Y-70711009D01*
X106807368Y-70526239D01*
X106829242Y-70499586D01*
X106940282Y-70364282D01*
X107102237Y-70231370D01*
X107102239Y-70231368D01*
X107287009Y-70132607D01*
X107487498Y-70071789D01*
X107643749Y-70056400D01*
X107748251Y-70056400D01*
X107904502Y-70071789D01*
X107904502Y-70071789D01*
G37*
G36*
X110444502Y-70071789D02*
X110644991Y-70132607D01*
X110829761Y-70231368D01*
X110829763Y-70231370D01*
X110991718Y-70364282D01*
X111102758Y-70499586D01*
X111124632Y-70526239D01*
X111223393Y-70711009D01*
X111284211Y-70911498D01*
X111304746Y-71120000D01*
X111284211Y-71328502D01*
X111223393Y-71528991D01*
X111124632Y-71713761D01*
X111124630Y-71713763D01*
X110991718Y-71875718D01*
X110856414Y-71986758D01*
X110829761Y-72008632D01*
X110644991Y-72107393D01*
X110444502Y-72168211D01*
X110288251Y-72183600D01*
X110183749Y-72183600D01*
X110027498Y-72168211D01*
X109827009Y-72107393D01*
X109642239Y-72008632D01*
X109615586Y-71986758D01*
X109480282Y-71875718D01*
X109347370Y-71713763D01*
X109347368Y-71713761D01*
X109248607Y-71528991D01*
X109187789Y-71328502D01*
X109167254Y-71120000D01*
X109187789Y-70911498D01*
X109248607Y-70711009D01*
X109347368Y-70526239D01*
X109369242Y-70499586D01*
X109480282Y-70364282D01*
X109642237Y-70231370D01*
X109642239Y-70231368D01*
X109827009Y-70132607D01*
X110027498Y-70071789D01*
X110183749Y-70056400D01*
X110288251Y-70056400D01*
X110444502Y-70071789D01*
X110444502Y-70071789D01*
G37*
G36*
X105364502Y-70071789D02*
X105564991Y-70132607D01*
X105749761Y-70231368D01*
X105749763Y-70231370D01*
X105911718Y-70364282D01*
X106022758Y-70499586D01*
X106044632Y-70526239D01*
X106143393Y-70711009D01*
X106204211Y-70911498D01*
X106224746Y-71120000D01*
X106204211Y-71328502D01*
X106143393Y-71528991D01*
X106044632Y-71713761D01*
X106044630Y-71713763D01*
X105911718Y-71875718D01*
X105776414Y-71986758D01*
X105749761Y-72008632D01*
X105564991Y-72107393D01*
X105364502Y-72168211D01*
X105208251Y-72183600D01*
X105103749Y-72183600D01*
X104947498Y-72168211D01*
X104747009Y-72107393D01*
X104562239Y-72008632D01*
X104535586Y-71986758D01*
X104400282Y-71875718D01*
X104267370Y-71713763D01*
X104267368Y-71713761D01*
X104168607Y-71528991D01*
X104107789Y-71328502D01*
X104087254Y-71120000D01*
X104107789Y-70911498D01*
X104168607Y-70711009D01*
X104267368Y-70526239D01*
X104289242Y-70499586D01*
X104400282Y-70364282D01*
X104562237Y-70231370D01*
X104562239Y-70231368D01*
X104747009Y-70132607D01*
X104947498Y-70071789D01*
X105103749Y-70056400D01*
X105208251Y-70056400D01*
X105364502Y-70071789D01*
X105364502Y-70071789D01*
G37*
M02*
