<svg xmlns="http://www.w3.org/2000/svg" xmlns:xlink="http://www.w3.org/1999/xlink" xml:space="preserve" version="1.1" style="shape-rendering:geometricPrecision;text-rendering:geometricPrecision;image-rendering:optimizeQuality;" viewBox="0 0 306 335" x="0px" y="0px" fill-rule="evenodd" clip-rule="evenodd"><defs><style type="text/css">
   
    .fil0 {fill:black}
   
  </style></defs><g><path class="fil0" d="M153 120c27,0 48,21 48,47 0,27 -21,48 -48,48 -26,0 -48,-21 -48,-48 0,-26 22,-47 48,-47zm0 27c11,0 20,9 20,20 0,12 -9,21 -20,21 -11,0 -20,-9 -20,-21 0,-11 9,-20 20,-20zm-13 78c-8,9 -48,49 -91,51 -41,2 -53,-43 -47,-77 5,-26 60,17 102,0 8,13 21,22 36,26zm-43 -40c-12,-3 -67,-17 -90,-54 -22,-34 11,-67 43,-78 25,-9 15,60 51,87 -4,8 -7,18 -7,27 0,6 1,12 3,18zm13 -58c-3,-11 -18,-66 2,-104 18,-36 63,-24 89,-2 20,17 -44,43 -51,88 -15,0 -30,7 -40,18zm56 -17c8,-9 48,-49 92,-51 40,-2 52,43 46,77 -5,26 -59,-17 -101,0 -8,-13 -21,-22 -37,-26zm43 40c12,3 67,17 90,54 22,34 -11,67 -43,78 -25,9 -15,-60 -51,-87 5,-9 7,-18 7,-28 0,-6 -1,-11 -3,-17zm-13 58c4,11 19,66 -1,104 -19,36 -64,24 -90,2 -20,-17 45,-43 51,-88 16,0 30,-7 40,-18zm-43 -71c17,0 30,14 30,30 0,17 -13,31 -30,31 -16,0 -30,-14 -30,-31 0,-16 14,-30 30,-30z"/></g><text x="0" y="350" fill="#000000" font-size="5px" font-weight="bold" font-family="'Helvetica Neue', Helvetica, Arial-Unicode, Arial, Sans-serif">Created by kamalstb</text><text x="0" y="355" fill="#000000" font-size="5px" font-weight="bold" font-family="'Helvetica Neue', Helvetica, Arial-Unicode, Arial, Sans-serif">from the Noun Project</text></svg>
