<svg xmlns="http://www.w3.org/2000/svg" xmlns:xlink="http://www.w3.org/1999/xlink" version="1.1" x="0px" y="0px" viewBox="10 10 80 80" style="enable-background:new 0 0 100 100;" xml:space="preserve"><path d="M89.4,78.2L55.1,15.4c-0.5-0.9-1.2-1.7-2.1-2.2c-0.9-0.5-1.9-0.8-2.9-0.8c-1,0-2,0.3-2.9,0.8c-0.9,0.5-1.6,1.3-2.1,2.2  L10.8,78.2c-1,1.9-1,3.8,0.1,5.6c0.5,0.9,1.2,2.2,2.1,2.7c0.9,0.5,1.8,1.4,2.8,1.4h68.6c1,0,2-0.9,2.8-1.4c0.9-0.5,1.6-1.5,2.1-2.4  C90.4,82.3,90.4,80.1,89.4,78.2z M44,40.8c0-3.1,2.4-5.6,5.5-5.6s5.5,2.5,5.5,5.6v16.8c0,3.1-2.4,5.6-5.5,5.6S44,60.7,44,57.6V40.8z   M50.2,77.4c-3.1,0-5.6-2.5-5.6-5.6s2.5-5.6,5.6-5.6s5.6,2.5,5.6,5.6S53.3,77.4,50.2,77.4z"/><text x="0" y="115" fill="#000000" font-size="5px" font-weight="bold" font-family="'Helvetica Neue', Helvetica, Arial-Unicode, Arial, Sans-serif">Created by Loudoun Design Co.</text><text x="0" y="120" fill="#000000" font-size="5px" font-weight="bold" font-family="'Helvetica Neue', Helvetica, Arial-Unicode, Arial, Sans-serif">from the Noun Project</text></svg>
