<svg xmlns="http://www.w3.org/2000/svg" xmlns:xlink="http://www.w3.org/1999/xlink" version="1.1" x="0px" y="0px" viewBox="0 0 100 100" style="enable-background:new 0 0 100 100;" xml:space="preserve"><g><path d="M35,32.503c0,1.382,1.118,2.5,2.5,2.5h24.998c1.382,0,2.501-1.118,2.501-2.5s-1.119-2.5-2.501-2.5h7.5V0.007H30.001v29.996   h7.5C36.119,30.003,35,31.121,35,32.503z M35,25.003V5.007h30v19.997H35z M0.002,94.994h7.5c-1.382,0-2.5,1.117-2.5,2.499   s1.118,2.499,2.5,2.499h24.999c1.382,0,2.5-1.117,2.5-2.499s-1.118-2.499-2.5-2.499H40V64.998H0.002V94.994z M5.002,69.997H35   v19.997H5.002V69.997z M60,94.994h7.499c-1.382,0-2.499,1.117-2.499,2.499s1.117,2.499,2.499,2.499h24.999   c1.382,0,2.5-1.117,2.5-2.499s-1.118-2.499-2.5-2.499h7.5V64.998H60V94.994z M65,69.997h29.998v19.997H65V69.997z M99.998,47.5v5   h-17.5v7.498h-4.999V52.5H22.501v7.498h-4.999V52.5h-17.5v-5H47.5v-7.499h5V47.5H99.998z"/></g><text x="0" y="115" fill="#000000" font-size="5px" font-weight="bold" font-family="'Helvetica Neue', Helvetica, Arial-Unicode, Arial, Sans-serif">Created by b farias</text><text x="0" y="120" fill="#000000" font-size="5px" font-weight="bold" font-family="'Helvetica Neue', Helvetica, Arial-Unicode, Arial, Sans-serif">from the Noun Project</text></svg>
