<svg xmlns="http://www.w3.org/2000/svg" xmlns:xlink="http://www.w3.org/1999/xlink" version="1.1" x="0px" y="0px" viewBox="0 0 87.57 87.57" enable-background="new 0 0 87.57 87.572" xml:space="preserve"><path fill="#000000" d="M72.63,41.366c0.062,0.026,0.131,0.044,0.193,0.07C71.62,27.341,60.355,16.132,46.232,15.019  C42.677,6.219,34.068,0.002,23.995,0C10.74,0.003,0.003,10.744,0,23.995c0.002,10.075,6.216,18.68,15.017,22.236  c1.113,14.121,12.321,25.391,26.419,26.592c-0.021-0.05-0.035-0.104-0.055-0.153c3.583,8.738,12.164,14.899,22.198,14.902  C76.831,87.569,87.57,76.831,87.57,63.578C87.57,53.531,81.392,44.94,72.63,41.366z M70.64,40.646  c-0.018-0.006-0.039-0.01-0.059-0.015C70.601,40.636,70.622,40.64,70.64,40.646z M7.315,23.995  c0.015-9.21,7.469-16.664,16.68-16.684c6.087,0.014,11.391,3.284,14.304,8.153C26.789,17.728,17.728,26.79,15.463,38.298  C10.595,35.386,7.325,30.082,7.315,23.995z M63.579,80.256c-9.215-0.016-16.666-7.467-16.683-16.679  c0.017-9.212,7.468-16.663,16.683-16.681c9.208,0.018,16.663,7.473,16.679,16.681C80.242,72.786,72.787,80.241,63.579,80.256z"/><text x="0" y="102.572" fill="#000000" font-size="5px" font-weight="bold" font-family="'Helvetica Neue', Helvetica, Arial-Unicode, Arial, Sans-serif">Created by Nicholas DeForest</text><text x="0" y="107.572" fill="#000000" font-size="5px" font-weight="bold" font-family="'Helvetica Neue', Helvetica, Arial-Unicode, Arial, Sans-serif">from the Noun Project</text></svg>
