<svg xmlns:dc="http://purl.org/dc/elements/1.1/" xmlns:cc="http://creativecommons.org/ns#" xmlns:rdf="http://www.w3.org/1999/02/22-rdf-syntax-ns#" xmlns:svg="http://www.w3.org/2000/svg" xmlns="http://www.w3.org/2000/svg" xmlns:sodipodi="http://sodipodi.sourceforge.net/DTD/sodipodi-0.dtd" xmlns:inkscape="http://www.inkscape.org/namespaces/inkscape" version="1.1" x="0px" y="0px" viewBox="0 0 100 100"><g transform="translate(0,-952.36218)"><path d="m 76.000098,960.3622 0,33.28117 -10,5.375 0,-10.65621 c 0.02,-1.37036 -1.6844,-2.43346 -2.9062,-1.81246 l -25.0938,12.56246 0,-10.75 c 0.02,-1.37036 -1.6844,-2.43346 -2.9062,-1.81246 l -27.9999991,14 c -0.6629,0.3369 -1.1047,1.069 -1.0937999,1.8125 l 0,42 c 1e-4,1.0472 0.9527999,1.9999 1.9999999,2 l 83.9999991,0 c 1.0472,-10e-5 1.9999,-0.9528 2,-2 l 0,-84 c -10e-5,-1.0472 -0.9528,-1.9999 -2,-2 l -14,0 c -1.1207,0.01 -1.9754,1.0991 -2,2 z m 4,2 10,0 0,80 -79.999999,0 0,-38.75 23.999999,-12.00004 0,10.75004 c 0,1.36 1.6937,2.3972 2.9062,1.7812 l 25.0938,-12.53124 0,10.75004 c 0.012,1.3668 1.73,2.3906 2.9375,1.75 l 14,-7.50004 c 0.6328,-0.33579 1.0565,-1.03359 1.0625,-1.75 z m -60.999999,53 c -1.0472,10e-5 -1.9999,0.9528 -2,2 l 0,10 c 10e-5,1.0472 0.9528,1.9999 2,2 l 13.999999,0 c 1.0472,-10e-5 1.9999,-0.9528 2,-2 l 0,-10 c -1e-4,-1.0472 -0.9528,-1.9999 -2,-2 z m 23.999999,0 c -1.0472,10e-5 -1.9999,0.9528 -2,2 l 0,10 c 10e-5,1.0472 0.9528,1.9999 2,2 l 14,0 c 1.0472,-10e-5 1.9999,-0.9528 2,-2 l 0,-10 c -1e-4,-1.0472 -0.9528,-1.9999 -2,-2 z m 24,0 c -1.0472,10e-5 -1.9999,0.9528 -2,2 l 0,10 c 1e-4,1.0472 0.9528,1.9999 2,2 l 14,0 c 1.0472,-10e-5 1.9999,-0.9528 2,-2 l 0,-10 c -10e-5,-1.0472 -0.9528,-1.9999 -2,-2 z m -45.999999,4 9.999999,0 0,6 -9.999999,0 z m 23.999999,0 10,0 0,6 -10,0 z m 24,0 10,0 0,6 -10,0 z" style="text-indent:0;text-transform:none;direction:ltr;block-progression:tb;baseline-shift:baseline;color:#000000;enable-background:accumulate;" fill="#000000" fill-opacity="1" stroke="none" marker="none" visibility="visible" display="inline" overflow="visible"/></g><text x="0" y="115" fill="#000000" font-size="5px" font-weight="bold" font-family="'Helvetica Neue', Helvetica, Arial-Unicode, Arial, Sans-serif">Created by iconsphere</text><text x="0" y="120" fill="#000000" font-size="5px" font-weight="bold" font-family="'Helvetica Neue', Helvetica, Arial-Unicode, Arial, Sans-serif">from the Noun Project</text></svg>
