<svg xmlns="http://www.w3.org/2000/svg" xmlns:xlink="http://www.w3.org/1999/xlink" version="1.1" x="0px" y="0px" viewBox="0 0 100 100" style="enable-background:new 0 0 100 100;" xml:space="preserve"><path d="M57.9,21.4h-13V6.5C43.6,5.8,43.3,5.7,42,5L2.9,32.4L42,59.9c1.3-0.7,1.6-0.8,2.9-1.5V43.4l13.2,0c8,0,14.9,6.1,15.3,14.1  c0.4,7.9-5.5,14.6-13.1,15.5c-0.7,0.8-1.1,1.2-1.8,2v18.1c0.8,0.8,1.3,1.2,2.1,2C80.4,94,95.9,77.5,95.5,57.4  C95,37.3,78,21.4,57.9,21.4z"/><text x="0" y="115" fill="#000000" font-size="5px" font-weight="bold" font-family="'Helvetica Neue', Helvetica, Arial-Unicode, Arial, Sans-serif">Created by Vladimir</text><text x="0" y="120" fill="#000000" font-size="5px" font-weight="bold" font-family="'Helvetica Neue', Helvetica, Arial-Unicode, Arial, Sans-serif">from the Noun Project</text></svg>
