<svg xmlns="http://www.w3.org/2000/svg" xmlns:xlink="http://www.w3.org/1999/xlink" version="1.1" x="0px" y="0px" viewBox="0 0 29 29" style="enable-background:new 0 0 29 28;" xml:space="preserve"><g><path d="M29,15.5c0-1.381-1.12-2.5-2.5-2.5c-0.928,0-1.728,0.511-2.16,1.262l-1.525-0.826C22.932,13.146,23,12.831,23,12.5   c0-1.21-0.859-2.218-2-2.45V7.95c1.141-0.231,2-1.24,2-2.45C23,4.119,21.88,3,20.5,3c-1.006,0-1.868,0.598-2.265,1.455   l-1.518-0.823C16.892,3.291,17,2.91,17,2.5C17,1.119,15.88,0,14.5,0S12,1.119,12,2.5c0,0.41,0.108,0.791,0.283,1.132l-1.518,0.823   C10.368,3.598,9.506,3,8.5,3C7.12,3,6,4.119,6,5.5c0,1.209,0.859,2.218,1.999,2.45v2.101C6.859,10.282,6,11.29,6,12.5   c0,0.332,0.068,0.646,0.185,0.936L4.66,14.262C4.228,13.511,3.428,13,2.5,13C1.12,13,0,14.119,0,15.5c0,1.209,0.859,2.218,2,2.45   v2.101c-1.141,0.232-2,1.24-2,2.45C0,23.881,1.12,25,2.5,25c0.768,0,1.447-0.354,1.905-0.899l1.646,0.892   C6.018,25.156,6,25.326,6,25.5C6,26.881,7.12,28,8.5,28s2.5-1.119,2.5-2.5c0-0.174-0.018-0.343-0.052-0.507l1.646-0.892   C13.053,24.646,13.732,25,14.5,25s1.447-0.354,1.905-0.899l1.646,0.892C18.018,25.156,18,25.326,18,25.5c0,1.381,1.12,2.5,2.5,2.5   s2.5-1.119,2.5-2.5c0-0.174-0.018-0.343-0.052-0.507l1.646-0.892C25.053,24.646,25.732,25,26.5,25c1.38,0,2.5-1.119,2.5-2.5   c0-1.209-0.859-2.218-2-2.45V17.95C28.141,17.718,29,16.709,29,15.5z M14,20.05c-1.141,0.232-2,1.24-2,2.45   c0,0.252,0.049,0.492,0.118,0.722l-1.57,0.851C10.096,23.425,9.349,23,8.5,23s-1.596,0.425-2.048,1.072l-1.57-0.851   C4.951,22.991,5,22.752,5,22.5c0-1.209-0.859-2.218-2-2.45V17.95c1.141-0.232,2-1.24,2-2.45c0-0.093-0.018-0.181-0.027-0.271   l1.766-0.957C7.19,14.722,7.813,15,8.5,15s1.31-0.278,1.761-0.727l1.766,0.957C12.018,15.319,12,15.407,12,15.5   c0,1.209,0.859,2.218,2,2.45V20.05z M12.34,14.262l-1.525-0.826C10.932,13.146,11,12.832,11,12.5c0-1.21-0.859-2.218-2-2.45V7.95   c1.141-0.231,2-1.24,2-2.45c0-0.012-0.003-0.023-0.003-0.034l1.925-1.043C13.353,4.778,13.898,5,14.5,5s1.147-0.222,1.579-0.576   l1.925,1.043C18.003,5.478,18,5.488,18,5.5c0,1.209,0.859,2.218,2,2.45v2.101c-1.141,0.232-2,1.24-2,2.45   c0,0.331,0.068,0.646,0.185,0.935l-1.525,0.826C16.228,13.511,15.427,13,14.5,13C13.572,13,12.772,13.511,12.34,14.262z M26,20.05   c-1.141,0.232-2,1.24-2,2.45c0,0.252,0.049,0.492,0.118,0.722l-1.57,0.851C22.096,23.425,21.349,23,20.5,23   s-1.596,0.425-2.048,1.072l-1.57-0.851C16.951,22.991,17,22.752,17,22.5c0-1.209-0.859-2.218-2-2.45V17.95   c1.141-0.232,2-1.24,2-2.45c0-0.093-0.018-0.181-0.027-0.271l1.766-0.957C19.19,14.722,19.813,15,20.5,15s1.31-0.278,1.762-0.727   l1.766,0.957C24.018,15.319,24,15.407,24,15.5c0,1.209,0.859,2.218,2,2.45V20.05z"/></g><text x="0" y="43" fill="#000000" font-size="5px" font-weight="bold" font-family="'Helvetica Neue', Helvetica, Arial-Unicode, Arial, Sans-serif">Created by Hea Poh Lin</text><text x="0" y="48" fill="#000000" font-size="5px" font-weight="bold" font-family="'Helvetica Neue', Helvetica, Arial-Unicode, Arial, Sans-serif">from the Noun Project</text></svg>
