<svg xmlns="http://www.w3.org/2000/svg" xmlns:xlink="http://www.w3.org/1999/xlink" version="1.1" x="0px" y="0px" viewBox="0 0 100 100" enable-background="new 0 0 100 100" xml:space="preserve"><path fill-rule="evenodd" clip-rule="evenodd" d="M95,65c0,16.57-13.43,30-30,30S35,81.57,35,65c0-16.564,13.43-30,30-30  S95,48.436,95,65z M89,65c0,13.254-10.746,24-24,24S41,78.254,41,65s10.746-24,24-24S89,51.746,89,65z M71,47c-1.652,0-3,1.348-3,3  v15H56c-1.652,0-3,1.348-3,3s1.348,3,3,3h15c1.652,0,3-1.348,3-3V50C74,48.348,72.652,47,71,47z M26,41h9.803  c-1.354,1.875-2.52,3.879-3.498,6H26V41z M26,59h3.152c0.17-2.057,0.527-4.055,1.031-6H26V59z M65,5H11c-3.299,0-6,2.701-6,6v60  c0,3.305,2.701,6,6,6h20.092c-0.686-1.934-1.213-3.938-1.564-6H11V11h54v18c2.051,0,4.043,0.211,6,0.539V11C71,7.701,68.299,5,65,5z   M14,23h6v-6h-6V23z M14,47h6v-6h-6V47z M14,35h6v-6h-6V35z M62,17H26v6h36V17z M26,35h15.246c2.789-2.455,5.941-4.494,9.387-6H26  V35z M14,59h6v-6h-6V59z"/><text x="0" y="115" fill="#000000" font-size="5px" font-weight="bold" font-family="'Helvetica Neue', Helvetica, Arial-Unicode, Arial, Sans-serif">Created by Mark Shorter</text><text x="0" y="120" fill="#000000" font-size="5px" font-weight="bold" font-family="'Helvetica Neue', Helvetica, Arial-Unicode, Arial, Sans-serif">from the Noun Project</text></svg>
