<svg xmlns="http://www.w3.org/2000/svg" xmlns:xlink="http://www.w3.org/1999/xlink" version="1.1" x="0px" y="0px" viewBox="0 0 512 512" enable-background="new 0 0 512 512" xml:space="preserve"><g><rect x="373.6" y="165.9" width="54.4" height="16.4"/><path d="M337.9,355V198.6h-16.4V355c-27.7,4-49.2,27.9-49.2,56.7c0,31.6,25.7,57.4,57.4,57.4c31.6,0,57.4-25.7,57.4-57.4   C387.1,382.8,365.7,359,337.9,355z M329.7,452.6c-22.6,0-41-18.4-41-41c0-22.6,18.4-41,41-41c22.6,0,41,18.4,41,41   C370.7,434.3,352.3,452.6,329.7,452.6z"/><path d="M370.7,322.4V43c0-22.6-18.4-41-41-41c-22.6,0-41,18.4-41,41v70.3l-37.9,37.9c-3.4-2.2-7.2-3.8-11.3-4.7V100L280,59.6   L268.4,48l-28.8,28.8V34.8h-16.4v42.1L194.4,48l-11.6,11.6l40.4,40.4v46.5c-4.9,1.1-9.3,3.2-13.3,6.1l-34.3-34.3V61.1h-16.4v40.8   l-29.7-29.7L118,83.8l29.7,29.7h-40.8v16.4h57.2l35.1,35.1c-1.5,2.8-2.8,5.8-3.5,9.1h-51.3L104,133.6l-11.6,11.6l28.8,28.8H83.9   v16.4h37.3l-28.8,28.8l11.6,11.6l40.4-40.4h51.3c0.9,4.1,2.5,7.8,4.7,11.2L164.1,238h-57.2v16.4h40.8l-26.4,26.4l11.6,11.6   l26.4-26.4v40.8h16.4v-57.2l36.3-36.3c3.4,2.2,7.2,3.8,11.3,4.7v51.3l-40.4,40.4l11.6,11.6l28.8-28.8v37.3h16.4v-37.3l28.8,28.8   l11.6-11.6l-40.4-40.4V218c3.2-0.7,6.2-2,9.1-3.5l40.1,40.1v67.8c-35,16-57.4,50.5-57.4,89.3c0,54.2,44.1,98.3,98.3,98.3   s98.3-44.1,98.3-98.3C428.1,372.8,405.7,338.4,370.7,322.4z M288.8,136.5v37.6h-21.6c-0.9-4.1-2.5-7.8-4.7-11.2L288.8,136.5z    M231.4,202.6c-11.2,0-20.3-9.1-20.3-20.3c0-11.2,9.1-20.3,20.3-20.3c11.2,0,20.3,9.1,20.3,20.3   C251.8,193.5,242.6,202.6,231.4,202.6z M261.1,203.7c2.8-3.9,4.9-8.4,6.1-13.3h21.6v40.9L261.1,203.7z M329.7,493.6   c-45.2,0-81.9-36.8-81.9-81.9c0-60.6,57.4-78.3,57.4-78.3V43c0-13.6,11-24.6,24.6-24.6c13.6,0,24.6,11,24.6,24.6v290.4   c0,0,57.4,17,57.4,78.3C411.7,456.9,374.9,493.6,329.7,493.6z"/><rect x="387.1" y="67.5" width="41" height="16.4"/><rect x="387.1" y="116.7" width="24.6" height="16.4"/><rect x="387.1" y="215" width="24.6" height="16.4"/><rect x="387.1" y="264.2" width="41" height="16.4"/></g><text x="0" y="527" fill="#000000" font-size="5px" font-weight="bold" font-family="'Helvetica Neue', Helvetica, Arial-Unicode, Arial, Sans-serif">Created by ProSymbols</text><text x="0" y="532" fill="#000000" font-size="5px" font-weight="bold" font-family="'Helvetica Neue', Helvetica, Arial-Unicode, Arial, Sans-serif">from the Noun Project</text></svg>
