<svg xmlns="http://www.w3.org/2000/svg" xmlns:xlink="http://www.w3.org/1999/xlink" version="1.1" x="0px" y="0px" viewBox="0 0 100 100" enable-background="new 0 0 100 100" xml:space="preserve"><path d="M5,50"/><path d="M50,96.875C24.152,96.875,3.125,75.848,3.125,50S24.152,3.125,50,3.125S96.875,24.152,96.875,50S75.848,96.875,50,96.875z   M50,6.875C26.221,6.875,6.875,26.221,6.875,50S26.221,93.125,50,93.125S93.125,73.779,93.125,50S73.779,6.875,50,6.875z"/><rect x="81.44" y="28.738" transform="matrix(0.4956 0.8685 -0.8685 0.4956 68.7424 -56.8465)" width="3.75" height="4.05"/><rect x="86.45" y="48.125" width="4.05" height="3.75"/><rect x="47.974" y="85.625" transform="matrix(0.0048 1 -1 0.0048 137.258 37.0789)" width="4.053" height="3.75"/><rect x="28.889" y="81.291" transform="matrix(0.866 0.5001 -0.5001 0.866 45.7857 -4.2188)" width="3.75" height="4.05"/><rect x="81.292" y="67.36" transform="matrix(0.8651 0.5015 -0.5015 0.8651 45.9595 -32.4489)" width="4.05" height="3.75"/><rect x="67.209" y="81.441" transform="matrix(0.5001 0.8659 -0.8659 0.5001 106.755 -18.3061)" width="4.05" height="3.75"/><rect x="67.36" y="14.66" transform="matrix(0.8659 0.5002 -0.5002 0.8659 17.6273 -32.3923)" width="3.749" height="4.048"/><rect x="14.613" y="66.868" transform="matrix(0.4957 0.8685 -0.8685 0.4957 68.1474 20.4224)" width="3.749" height="4.05"/><rect x="9.5" y="48.125" width="4.05" height="3.75"/><rect x="14.729" y="28.769" transform="matrix(0.8651 0.5016 -0.5016 0.8651 17.6325 -4.2696)" width="4.049" height="3.751"/><rect x="28.739" y="14.809" transform="matrix(0.5 0.8661 -0.8661 0.5 29.8326 -18.3001)" width="4.049" height="3.75"/><path d="M75.971,62.83L52.93,49.526c-0.118-0.732-0.504-1.369-1.055-1.82V10.58c0-1.036-0.839-1.875-1.875-1.875  s-1.875,0.839-1.875,1.875v37.127c-0.666,0.547-1.102,1.366-1.102,2.294c0,1.641,1.335,2.977,2.977,2.977  c0.373,0,0.727-0.077,1.056-0.203l23.04,13.302c0.295,0.172,0.617,0.252,0.936,0.252c0.647,0,1.278-0.336,1.625-0.938  C77.174,64.493,76.867,63.348,75.971,62.83z"/><text x="0" y="115" fill="#000000" font-size="5px" font-weight="bold" font-family="'Helvetica Neue', Helvetica, Arial-Unicode, Arial, Sans-serif">Created by Michael Thompson</text><text x="0" y="120" fill="#000000" font-size="5px" font-weight="bold" font-family="'Helvetica Neue', Helvetica, Arial-Unicode, Arial, Sans-serif">from the Noun Project</text></svg>
