<svg xmlns="http://www.w3.org/2000/svg" xmlns:xlink="http://www.w3.org/1999/xlink" version="1.1" x="0px" y="0px" viewBox="0 0 1024 1024" style="enable-background:new 0 0 1024 1024;" xml:space="preserve"><style type="text/css">
	.st0{fill:none;stroke:#000000;stroke-width:80;stroke-miterlimit:10;}
</style><g><path class="st0" d="M693.5,721.3c0,100.4-81.2,181.8-181.6,181.8S330,821.7,330,721.3c0-70.2,40-131.2,98-161.4   v-357c0-46,37.7-83.7,83.7-83.7c23,0,43.8,9.4,59,24.6c15.2,15.2,24.7,36.1,24.7,59.1l-0.4,357C654,590.2,693.5,651.1,693.5,721.3z   "/><line class="st0" x1="512" y1="302.8" x2="595.7" y2="302.8"/><circle class="st0" cx="512" cy="721.3" r="27"/><line class="st0" x1="512" y1="458.8" x2="595.7" y2="458.8"/></g><text x="0" y="1039" fill="#000000" font-size="5px" font-weight="bold" font-family="'Helvetica Neue', Helvetica, Arial-Unicode, Arial, Sans-serif">Created by shashank singh</text><text x="0" y="1044" fill="#000000" font-size="5px" font-weight="bold" font-family="'Helvetica Neue', Helvetica, Arial-Unicode, Arial, Sans-serif">from the Noun Project</text></svg>
