<svg xmlns="http://www.w3.org/2000/svg" xmlns:xlink="http://www.w3.org/1999/xlink" xml:space="preserve" version="1.1" style="shape-rendering:geometricPrecision;text-rendering:geometricPrecision;image-rendering:optimizeQuality;" viewBox="0 0 369 420" x="0px" y="0px" fill-rule="evenodd" clip-rule="evenodd"><defs><style type="text/css">
   
    .fil0 {fill:black}
   
  </style></defs><g><path class="fil0" d="M237 52c77,22 132,93 132,177 0,102 -82,185 -184,185 -102,0 -185,-83 -185,-185 0,-84 56,-155 133,-177l0 53c-49,20 -83,68 -83,124 0,75 60,135 135,135 74,0 135,-60 135,-135 0,-56 -35,-104 -83,-124l0 -53z"/><path class="fil0" d="M185 0c16,0 30,14 30,30l0 168c0,17 -14,30 -30,30 -17,0 -31,-13 -31,-30l0 -168c0,-16 14,-30 31,-30z"/></g><text x="0" y="429" fill="#000000" font-size="5px" font-weight="bold" font-family="'Helvetica Neue', Helvetica, Arial-Unicode, Arial, Sans-serif">Created by labbaik icon</text><text x="0" y="434" fill="#000000" font-size="5px" font-weight="bold" font-family="'Helvetica Neue', Helvetica, Arial-Unicode, Arial, Sans-serif">from the Noun Project</text></svg>
