<svg xmlns:dc="http://purl.org/dc/elements/1.1/" xmlns:cc="http://creativecommons.org/ns#" xmlns:rdf="http://www.w3.org/1999/02/22-rdf-syntax-ns#" xmlns:svg="http://www.w3.org/2000/svg" xmlns="http://www.w3.org/2000/svg" xmlns:sodipodi="http://sodipodi.sourceforge.net/DTD/sodipodi-0.dtd" xmlns:inkscape="http://www.inkscape.org/namespaces/inkscape" version="1.1" x="0px" y="0px" viewBox="0 0 100 100"><g transform="translate(0,-952.36218)"><path style="text-indent:0;text-transform:none;direction:ltr;block-progression:tb;baseline-shift:baseline;color:#000000;enable-background:accumulate;" d="m 22.771218,966.79372 a 3.0003,3.0003 0 0 0 -1.5938,0.5 c -8.6421,5.48711 -17.5652,12.31932 -19.9999999,21.40622 -2.4067001,8.982 2.3663999,18.40536 10.9999999,20.71876 8.6337,2.3134 17.4995,-3.4556 19.9062,-12.43746 2.4348,-9.087 -1.8842,-19.48951 -6.625,-28.56252 a 3.0003,3.0003 0 0 0 -2.0937,-1.5625 3.0003,3.0003 0 0 0 -0.5937,-0.0625 z m 66.6562,0 a 3.0003,3.0003 0 0 0 -1.5625,0.5 c -8.6421,5.48711 -17.5965,12.31932 -20.0313,21.40622 -2.4067,8.982 2.3977,18.40536 11.0313,20.71876 8.6337,2.3134 17.4683,-3.4556 19.875,-12.43746 2.434802,-9.087 -1.853,-19.48951 -6.5937,-28.56252 a 3.0003,3.0003 0 0 0 -2.125,-1.5625 3.0003,3.0003 0 0 0 -0.5938,-0.0625 z m -67.8438,7.53125 c 3.66,7.74967 6.1346,15.84117 4.7188,21.12497 -1.6343,6.09926 -7.3339,9.58846 -12.5625,8.18746 -5.2284,-1.4009 -8.4155,-7.27566 -6.7813,-13.37496 1.4158,-5.2838 7.5806,-11.05607 14.625,-15.93747 z m 66.6876,0 c 3.6599,7.74967 6.1032,15.84117 4.6874,21.12497 -1.6342,6.09926 -7.3338,9.58846 -12.5624,8.18746 -5.2284,-1.4009 -8.3843,-7.27566 -6.75,-13.37496 1.4157,-5.2838 7.5805,-11.05607 14.625,-15.93747 z m -32.8438,20.46877 a 3.0003,3.0003 0 0 0 -1.5625,0.5 c -8.6421,5.48706 -17.5965,12.31926 -20.0313,21.40616 -2.4067,8.982 2.3977,18.4054 11.0313,20.7188 8.6337,2.3134 17.4683,-3.4556 19.875,-12.4375 2.4348,-9.087 -1.853,-19.4895 -6.5937,-28.56246 a 3.0003,3.0003 0 0 0 -2.125,-1.5625 3.0003,3.0003 0 0 0 -0.5938,-0.062 z m -1.1562,7.53116 c 3.6599,7.7497 6.1032,15.8412 4.6874,21.125 -1.6342,6.0993 -7.3338,9.5885 -12.5624,8.1875 -5.2284,-1.4009 -8.3843,-7.2757 -6.75,-13.375 1.4157,-5.2838 7.5805,-11.0561 14.625,-15.9375 z" fill="#000000" fill-opacity="1" stroke="none" marker="none" visibility="visible" display="inline" overflow="visible"/></g><text x="0" y="115" fill="#000000" font-size="5px" font-weight="bold" font-family="'Helvetica Neue', Helvetica, Arial-Unicode, Arial, Sans-serif">Created by iconsphere</text><text x="0" y="120" fill="#000000" font-size="5px" font-weight="bold" font-family="'Helvetica Neue', Helvetica, Arial-Unicode, Arial, Sans-serif">from the Noun Project</text></svg>
