<svg xmlns="http://www.w3.org/2000/svg" xmlns:xlink="http://www.w3.org/1999/xlink" version="1.1" x="0px" y="0px" viewBox="0 0 103 100" style="enable-background:new 0 0 100 100;" xml:space="preserve"><path d="M56.6164551,49.9468384l31.1745605-30.7587891c1.3759766-1.3574219,1.390625-3.5732422,0.0332031-4.9492188  C86.4667969,12.8623657,84.25,12.8477173,82.875,14.2056274L51.6335449,45.0303955L20.3920898,14.2056274  c-1.3754883-1.3579102-3.5922852-1.3442383-4.9492188,0.0332031c-1.3579102,1.3759766-1.3427734,3.5917969,0.0332031,4.9492188  l31.1745605,30.7587891L15.4760742,80.7056274c-1.3759766,1.3574219-1.3911133,3.5732422-0.0332031,4.9492188  c0.6845703,0.6943359,1.5878906,1.0419922,2.4912109,1.0419922c0.8876953,0,1.7763672-0.3359375,2.4580078-1.0087891  l31.2414551-30.8247681L82.875,85.6880493c0.6816406,0.6728516,1.5703125,1.0087891,2.4580078,1.0087891  c0.9033203,0,1.8066406-0.3476562,2.4912109-1.0419922c1.3574219-1.3759766,1.3427734-3.5917969-0.0332031-4.9492188  L56.6164551,49.9468384z"/><text x="0" y="115" fill="#000000" font-size="5px" font-weight="bold" font-family="'Helvetica Neue', Helvetica, Arial-Unicode, Arial, Sans-serif">Created by Tereza Moravcová</text><text x="0" y="120" fill="#000000" font-size="5px" font-weight="bold" font-family="'Helvetica Neue', Helvetica, Arial-Unicode, Arial, Sans-serif">from the Noun Project</text></svg>
