M48
;DRILL file {KiCad (5.0.1)-3} date 07.01.2019 08:59:35
;FORMAT={-:-/ absolute / metric / decimal}
FMAT,2
METRIC,TZ
T1C0.400
T2C0.800
T3C1.000
T4C1.016
T5C1.200
%
G90
G05
M71
T1
X152.4Y-77.47
X175.341Y-88.981
X177.165Y-88.265
X182.88Y-88.265
X183.388Y-96.012
X184.15Y-113.111
X185.42Y-97.282
T2
X215.265Y-91.44
X217.805Y-91.44
X215.265Y-79.375
X215.265Y-86.995
X217.805Y-79.375
X217.805Y-86.995
X233.045Y-110.49
X235.585Y-110.49
X182.88Y-100.33
X182.88Y-102.87
X233.045Y-113.665
X235.585Y-113.665
X182.88Y-90.805
X182.88Y-93.345
X225.425Y-91.44
X227.965Y-91.44
X225.425Y-79.375
X225.425Y-86.995
X227.965Y-79.375
X227.965Y-86.995
X227.965Y-110.49
X230.505Y-110.49
X196.85Y-100.33
X196.85Y-102.87
X227.965Y-113.665
X230.505Y-113.665
X196.85Y-90.805
X196.85Y-93.345
T3
X230.505Y-100.33
X230.505Y-102.87
X139.827Y-91.44
X139.827Y-93.98
X139.827Y-96.52
X142.367Y-91.44
X142.367Y-93.98
X142.367Y-96.52
T4
X94.996Y-71.12
X97.536Y-71.12
X100.076Y-71.12
X102.616Y-71.12
X104.14Y-119.38
X105.156Y-71.12
X106.68Y-119.38
X107.696Y-71.12
X109.22Y-119.38
X110.236Y-71.12
X111.76Y-119.38
X112.776Y-71.12
X114.3Y-119.38
X115.316Y-71.12
X116.84Y-119.38
X117.856Y-71.12
X119.38Y-119.38
X121.92Y-71.12
X121.92Y-119.38
X124.46Y-71.12
X127.Y-71.12
X127.Y-119.38
X129.54Y-71.12
X129.54Y-119.38
X132.08Y-71.12
X132.08Y-119.38
X134.62Y-71.12
X134.62Y-119.38
X137.16Y-71.12
X137.16Y-119.38
X139.7Y-71.12
X139.7Y-119.38
X142.24Y-119.38
X144.78Y-71.12
X144.78Y-119.38
X147.32Y-71.12
X149.86Y-71.12
X149.86Y-119.38
X152.4Y-71.12
X152.4Y-119.38
X154.94Y-71.12
X154.94Y-119.38
X157.48Y-71.12
X157.48Y-119.38
X160.02Y-71.12
X160.02Y-119.38
X162.56Y-71.12
X162.56Y-119.38
X165.1Y-119.38
X167.64Y-119.38
X170.18Y-71.12
X170.18Y-73.66
X170.18Y-76.2
X170.18Y-78.74
X170.18Y-81.28
X170.18Y-83.82
X170.18Y-86.36
X170.18Y-88.9
X170.18Y-91.44
X170.18Y-93.98
X170.18Y-96.52
X170.18Y-99.06
X170.18Y-101.6
X170.18Y-104.14
X170.18Y-106.68
X170.18Y-109.22
X170.18Y-111.76
X170.18Y-114.3
X172.72Y-71.12
X172.72Y-73.66
X172.72Y-76.2
X172.72Y-78.74
X172.72Y-81.28
X172.72Y-83.82
X172.72Y-86.36
X172.72Y-88.9
X172.72Y-91.44
X172.72Y-93.98
X172.72Y-96.52
X172.72Y-99.06
X172.72Y-101.6
X172.72Y-104.14
X172.72Y-106.68
X172.72Y-109.22
X172.72Y-111.76
X172.72Y-114.3
T5
X200.66Y-101.6
X203.2Y-101.6
X205.74Y-101.6
X153.67Y-85.725
X153.67Y-88.265
X153.67Y-90.805
X153.67Y-93.345
X153.67Y-95.885
X153.67Y-98.425
X153.67Y-100.965
X153.67Y-103.505
X186.69Y-112.395
X189.23Y-112.395
X191.77Y-112.395
X194.31Y-112.395
X196.85Y-112.395
X199.39Y-112.395
X216.535Y-112.395
X219.075Y-112.395
X221.615Y-112.395
X224.155Y-112.395
X200.66Y-83.185
X203.2Y-83.185
X205.74Y-83.185
X205.74Y-112.395
X208.28Y-112.395
X210.82Y-112.395
X198.12Y-73.66
X200.66Y-73.66
X203.2Y-73.66
X205.74Y-73.66
X223.52Y-101.6
X226.06Y-101.6
X200.66Y-92.075
X203.2Y-92.075
X205.74Y-92.075
X186.69Y-83.185
X189.23Y-83.185
X191.77Y-83.185
X164.465Y-85.725
X164.465Y-88.265
X164.465Y-90.805
X164.465Y-93.345
X164.465Y-95.885
X164.465Y-98.425
X164.465Y-100.965
X164.465Y-103.505
X186.69Y-92.075
X189.23Y-92.075
X191.77Y-92.075
X212.725Y-73.66
X215.265Y-73.66
X217.805Y-73.66
X220.345Y-73.66
X222.885Y-73.66
X225.425Y-73.66
X227.965Y-73.66
X230.505Y-73.66
X184.15Y-73.66
X186.69Y-73.66
X189.23Y-73.66
X191.77Y-73.66
X213.995Y-101.6
X216.535Y-101.6
X186.69Y-101.6
X189.23Y-101.6
X191.77Y-101.6
T0
M30
