G04 #@! TF.GenerationSoftware,KiCad,Pcbnew,(5.0.1)-3*
G04 #@! TF.CreationDate,2019-01-07T08:59:27+01:00*
G04 #@! TF.ProjectId,P300_Arduino_IF,503330305F41726475696E6F5F49462E,rev?*
G04 #@! TF.SameCoordinates,Original*
G04 #@! TF.FileFunction,Legend,Top*
G04 #@! TF.FilePolarity,Positive*
%FSLAX46Y46*%
G04 Gerber Fmt 4.6, Leading zero omitted, Abs format (unit mm)*
G04 Created by KiCad (PCBNEW (5.0.1)-3) date 07.01.2019 08:59:27*
%MOMM*%
%LPD*%
G01*
G04 APERTURE LIST*
%ADD10C,0.150000*%
%ADD11C,0.250000*%
%ADD12C,0.300000*%
%ADD13C,0.120000*%
G04 APERTURE END LIST*
D10*
X226322000Y-97535904D02*
X226274380Y-97631142D01*
X226274380Y-97774000D01*
X226322000Y-97916857D01*
X226417238Y-98012095D01*
X226512476Y-98059714D01*
X226702952Y-98107333D01*
X226845809Y-98107333D01*
X227036285Y-98059714D01*
X227131523Y-98012095D01*
X227226761Y-97916857D01*
X227274380Y-97774000D01*
X227274380Y-97678761D01*
X227226761Y-97535904D01*
X227179142Y-97488285D01*
X226845809Y-97488285D01*
X226845809Y-97678761D01*
X227274380Y-97059714D02*
X226274380Y-97059714D01*
X227274380Y-96488285D01*
X226274380Y-96488285D01*
X227274380Y-96012095D02*
X226274380Y-96012095D01*
X226274380Y-95774000D01*
X226322000Y-95631142D01*
X226417238Y-95535904D01*
X226512476Y-95488285D01*
X226702952Y-95440666D01*
X226845809Y-95440666D01*
X227036285Y-95488285D01*
X227131523Y-95535904D01*
X227226761Y-95631142D01*
X227274380Y-95774000D01*
X227274380Y-96012095D01*
X216670000Y-97535904D02*
X216622380Y-97631142D01*
X216622380Y-97774000D01*
X216670000Y-97916857D01*
X216765238Y-98012095D01*
X216860476Y-98059714D01*
X217050952Y-98107333D01*
X217193809Y-98107333D01*
X217384285Y-98059714D01*
X217479523Y-98012095D01*
X217574761Y-97916857D01*
X217622380Y-97774000D01*
X217622380Y-97678761D01*
X217574761Y-97535904D01*
X217527142Y-97488285D01*
X217193809Y-97488285D01*
X217193809Y-97678761D01*
X217622380Y-97059714D02*
X216622380Y-97059714D01*
X217622380Y-96488285D01*
X216622380Y-96488285D01*
X217622380Y-96012095D02*
X216622380Y-96012095D01*
X216622380Y-95774000D01*
X216670000Y-95631142D01*
X216765238Y-95535904D01*
X216860476Y-95488285D01*
X217050952Y-95440666D01*
X217193809Y-95440666D01*
X217384285Y-95488285D01*
X217479523Y-95535904D01*
X217574761Y-95631142D01*
X217622380Y-95774000D01*
X217622380Y-96012095D01*
D11*
X99460595Y-103322380D02*
X99460595Y-102322380D01*
X99889166Y-103322380D02*
X99889166Y-102798571D01*
X99841547Y-102703333D01*
X99746309Y-102655714D01*
X99603452Y-102655714D01*
X99508214Y-102703333D01*
X99460595Y-102750952D01*
X100222500Y-102655714D02*
X100603452Y-102655714D01*
X100365357Y-102322380D02*
X100365357Y-103179523D01*
X100412976Y-103274761D01*
X100508214Y-103322380D01*
X100603452Y-103322380D01*
X100793928Y-102655714D02*
X101174880Y-102655714D01*
X100936785Y-102322380D02*
X100936785Y-103179523D01*
X100984404Y-103274761D01*
X101079642Y-103322380D01*
X101174880Y-103322380D01*
X101508214Y-102655714D02*
X101508214Y-103655714D01*
X101508214Y-102703333D02*
X101603452Y-102655714D01*
X101793928Y-102655714D01*
X101889166Y-102703333D01*
X101936785Y-102750952D01*
X101984404Y-102846190D01*
X101984404Y-103131904D01*
X101936785Y-103227142D01*
X101889166Y-103274761D01*
X101793928Y-103322380D01*
X101603452Y-103322380D01*
X101508214Y-103274761D01*
X102365357Y-103274761D02*
X102460595Y-103322380D01*
X102651071Y-103322380D01*
X102746309Y-103274761D01*
X102793928Y-103179523D01*
X102793928Y-103131904D01*
X102746309Y-103036666D01*
X102651071Y-102989047D01*
X102508214Y-102989047D01*
X102412976Y-102941428D01*
X102365357Y-102846190D01*
X102365357Y-102798571D01*
X102412976Y-102703333D01*
X102508214Y-102655714D01*
X102651071Y-102655714D01*
X102746309Y-102703333D01*
X103222500Y-103227142D02*
X103270119Y-103274761D01*
X103222500Y-103322380D01*
X103174880Y-103274761D01*
X103222500Y-103227142D01*
X103222500Y-103322380D01*
X103222500Y-102703333D02*
X103270119Y-102750952D01*
X103222500Y-102798571D01*
X103174880Y-102750952D01*
X103222500Y-102703333D01*
X103222500Y-102798571D01*
X104412976Y-102274761D02*
X103555833Y-103560476D01*
X105460595Y-102274761D02*
X104603452Y-103560476D01*
X106222500Y-102655714D02*
X106222500Y-103465238D01*
X106174880Y-103560476D01*
X106127261Y-103608095D01*
X106032023Y-103655714D01*
X105889166Y-103655714D01*
X105793928Y-103608095D01*
X106222500Y-103274761D02*
X106127261Y-103322380D01*
X105936785Y-103322380D01*
X105841547Y-103274761D01*
X105793928Y-103227142D01*
X105746309Y-103131904D01*
X105746309Y-102846190D01*
X105793928Y-102750952D01*
X105841547Y-102703333D01*
X105936785Y-102655714D01*
X106127261Y-102655714D01*
X106222500Y-102703333D01*
X106698690Y-103322380D02*
X106698690Y-102655714D01*
X106698690Y-102322380D02*
X106651071Y-102370000D01*
X106698690Y-102417619D01*
X106746309Y-102370000D01*
X106698690Y-102322380D01*
X106698690Y-102417619D01*
X107032023Y-102655714D02*
X107412976Y-102655714D01*
X107174880Y-102322380D02*
X107174880Y-103179523D01*
X107222500Y-103274761D01*
X107317738Y-103322380D01*
X107412976Y-103322380D01*
X107746309Y-103322380D02*
X107746309Y-102322380D01*
X108174880Y-103322380D02*
X108174880Y-102798571D01*
X108127261Y-102703333D01*
X108032023Y-102655714D01*
X107889166Y-102655714D01*
X107793928Y-102703333D01*
X107746309Y-102750952D01*
X109079642Y-102655714D02*
X109079642Y-103322380D01*
X108651071Y-102655714D02*
X108651071Y-103179523D01*
X108698690Y-103274761D01*
X108793928Y-103322380D01*
X108936785Y-103322380D01*
X109032023Y-103274761D01*
X109079642Y-103227142D01*
X109555833Y-103322380D02*
X109555833Y-102322380D01*
X109555833Y-102703333D02*
X109651071Y-102655714D01*
X109841547Y-102655714D01*
X109936785Y-102703333D01*
X109984404Y-102750952D01*
X110032023Y-102846190D01*
X110032023Y-103131904D01*
X109984404Y-103227142D01*
X109936785Y-103274761D01*
X109841547Y-103322380D01*
X109651071Y-103322380D01*
X109555833Y-103274761D01*
X110460595Y-103227142D02*
X110508214Y-103274761D01*
X110460595Y-103322380D01*
X110412976Y-103274761D01*
X110460595Y-103227142D01*
X110460595Y-103322380D01*
X111365357Y-103274761D02*
X111270119Y-103322380D01*
X111079642Y-103322380D01*
X110984404Y-103274761D01*
X110936785Y-103227142D01*
X110889166Y-103131904D01*
X110889166Y-102846190D01*
X110936785Y-102750952D01*
X110984404Y-102703333D01*
X111079642Y-102655714D01*
X111270119Y-102655714D01*
X111365357Y-102703333D01*
X111936785Y-103322380D02*
X111841547Y-103274761D01*
X111793928Y-103227142D01*
X111746309Y-103131904D01*
X111746309Y-102846190D01*
X111793928Y-102750952D01*
X111841547Y-102703333D01*
X111936785Y-102655714D01*
X112079642Y-102655714D01*
X112174880Y-102703333D01*
X112222500Y-102750952D01*
X112270119Y-102846190D01*
X112270119Y-103131904D01*
X112222500Y-103227142D01*
X112174880Y-103274761D01*
X112079642Y-103322380D01*
X111936785Y-103322380D01*
X112698690Y-103322380D02*
X112698690Y-102655714D01*
X112698690Y-102750952D02*
X112746309Y-102703333D01*
X112841547Y-102655714D01*
X112984404Y-102655714D01*
X113079642Y-102703333D01*
X113127261Y-102798571D01*
X113127261Y-103322380D01*
X113127261Y-102798571D02*
X113174880Y-102703333D01*
X113270119Y-102655714D01*
X113412976Y-102655714D01*
X113508214Y-102703333D01*
X113555833Y-102798571D01*
X113555833Y-103322380D01*
X114746309Y-102274761D02*
X113889166Y-103560476D01*
X115032023Y-103274761D02*
X115127261Y-103322380D01*
X115317738Y-103322380D01*
X115412976Y-103274761D01*
X115460595Y-103179523D01*
X115460595Y-103131904D01*
X115412976Y-103036666D01*
X115317738Y-102989047D01*
X115174880Y-102989047D01*
X115079642Y-102941428D01*
X115032023Y-102846190D01*
X115032023Y-102798571D01*
X115079642Y-102703333D01*
X115174880Y-102655714D01*
X115317738Y-102655714D01*
X115412976Y-102703333D01*
X115793928Y-102655714D02*
X116032023Y-103322380D01*
X116270119Y-102655714D01*
X117032023Y-103274761D02*
X116936785Y-103322380D01*
X116746309Y-103322380D01*
X116651071Y-103274761D01*
X116603452Y-103179523D01*
X116603452Y-102798571D01*
X116651071Y-102703333D01*
X116746309Y-102655714D01*
X116936785Y-102655714D01*
X117032023Y-102703333D01*
X117079642Y-102798571D01*
X117079642Y-102893809D01*
X116603452Y-102989047D01*
X117508214Y-102655714D02*
X117508214Y-103322380D01*
X117508214Y-102750952D02*
X117555833Y-102703333D01*
X117651071Y-102655714D01*
X117793928Y-102655714D01*
X117889166Y-102703333D01*
X117936785Y-102798571D01*
X117936785Y-103322380D01*
X118412976Y-102655714D02*
X118412976Y-103512857D01*
X118365357Y-103608095D01*
X118270119Y-103655714D01*
X118222500Y-103655714D01*
X118412976Y-102322380D02*
X118365357Y-102370000D01*
X118412976Y-102417619D01*
X118460595Y-102370000D01*
X118412976Y-102322380D01*
X118412976Y-102417619D01*
X119317738Y-102655714D02*
X119317738Y-103322380D01*
X118889166Y-102655714D02*
X118889166Y-103179523D01*
X118936785Y-103274761D01*
X119032023Y-103322380D01*
X119174880Y-103322380D01*
X119270119Y-103274761D01*
X119317738Y-103227142D01*
X119746309Y-103274761D02*
X119841547Y-103322380D01*
X120032023Y-103322380D01*
X120127261Y-103274761D01*
X120174880Y-103179523D01*
X120174880Y-103131904D01*
X120127261Y-103036666D01*
X120032023Y-102989047D01*
X119889166Y-102989047D01*
X119793928Y-102941428D01*
X119746309Y-102846190D01*
X119746309Y-102798571D01*
X119793928Y-102703333D01*
X119889166Y-102655714D01*
X120032023Y-102655714D01*
X120127261Y-102703333D01*
X120460595Y-102655714D02*
X120841547Y-102655714D01*
X120603452Y-102322380D02*
X120603452Y-103179523D01*
X120651071Y-103274761D01*
X120746309Y-103322380D01*
X120841547Y-103322380D01*
X121889166Y-102274761D02*
X121032023Y-103560476D01*
X122222500Y-103322380D02*
X122222500Y-102655714D01*
X122222500Y-102846190D02*
X122270119Y-102750952D01*
X122317738Y-102703333D01*
X122412976Y-102655714D01*
X122508214Y-102655714D01*
X122984404Y-103322380D02*
X122889166Y-103274761D01*
X122841547Y-103227142D01*
X122793928Y-103131904D01*
X122793928Y-102846190D01*
X122841547Y-102750952D01*
X122889166Y-102703333D01*
X122984404Y-102655714D01*
X123127261Y-102655714D01*
X123222500Y-102703333D01*
X123270119Y-102750952D01*
X123317738Y-102846190D01*
X123317738Y-103131904D01*
X123270119Y-103227142D01*
X123222500Y-103274761D01*
X123127261Y-103322380D01*
X122984404Y-103322380D01*
X123889166Y-103322380D02*
X123793928Y-103274761D01*
X123746309Y-103227142D01*
X123698690Y-103131904D01*
X123698690Y-102846190D01*
X123746309Y-102750952D01*
X123793928Y-102703333D01*
X123889166Y-102655714D01*
X124032023Y-102655714D01*
X124127261Y-102703333D01*
X124174880Y-102750952D01*
X124222500Y-102846190D01*
X124222500Y-103131904D01*
X124174880Y-103227142D01*
X124127261Y-103274761D01*
X124032023Y-103322380D01*
X123889166Y-103322380D01*
X124651071Y-103322380D02*
X124651071Y-102655714D01*
X124651071Y-102750952D02*
X124698690Y-102703333D01*
X124793928Y-102655714D01*
X124936785Y-102655714D01*
X125032023Y-102703333D01*
X125079642Y-102798571D01*
X125079642Y-103322380D01*
X125079642Y-102798571D02*
X125127261Y-102703333D01*
X125222500Y-102655714D01*
X125365357Y-102655714D01*
X125460595Y-102703333D01*
X125508214Y-102798571D01*
X125508214Y-103322380D01*
X125984404Y-102941428D02*
X126746309Y-102941428D01*
X127127261Y-102655714D02*
X127365357Y-103322380D01*
X127603452Y-102655714D01*
X128365357Y-103274761D02*
X128270119Y-103322380D01*
X128079642Y-103322380D01*
X127984404Y-103274761D01*
X127936785Y-103179523D01*
X127936785Y-102798571D01*
X127984404Y-102703333D01*
X128079642Y-102655714D01*
X128270119Y-102655714D01*
X128365357Y-102703333D01*
X128412976Y-102798571D01*
X128412976Y-102893809D01*
X127936785Y-102989047D01*
X128841547Y-102655714D02*
X128841547Y-103322380D01*
X128841547Y-102750952D02*
X128889166Y-102703333D01*
X128984404Y-102655714D01*
X129127261Y-102655714D01*
X129222500Y-102703333D01*
X129270119Y-102798571D01*
X129270119Y-103322380D01*
X129603452Y-102655714D02*
X129984404Y-102655714D01*
X129746309Y-102322380D02*
X129746309Y-103179523D01*
X129793928Y-103274761D01*
X129889166Y-103322380D01*
X129984404Y-103322380D01*
X130317738Y-103322380D02*
X130317738Y-102655714D01*
X130317738Y-102322380D02*
X130270119Y-102370000D01*
X130317738Y-102417619D01*
X130365357Y-102370000D01*
X130317738Y-102322380D01*
X130317738Y-102417619D01*
X130936785Y-103322380D02*
X130841547Y-103274761D01*
X130793928Y-103179523D01*
X130793928Y-102322380D01*
X131746309Y-103322380D02*
X131746309Y-102798571D01*
X131698690Y-102703333D01*
X131603452Y-102655714D01*
X131412976Y-102655714D01*
X131317738Y-102703333D01*
X131746309Y-103274761D02*
X131651071Y-103322380D01*
X131412976Y-103322380D01*
X131317738Y-103274761D01*
X131270119Y-103179523D01*
X131270119Y-103084285D01*
X131317738Y-102989047D01*
X131412976Y-102941428D01*
X131651071Y-102941428D01*
X131746309Y-102893809D01*
X132079642Y-102655714D02*
X132460595Y-102655714D01*
X132222500Y-102322380D02*
X132222500Y-103179523D01*
X132270119Y-103274761D01*
X132365357Y-103322380D01*
X132460595Y-103322380D01*
X132793928Y-103322380D02*
X132793928Y-102655714D01*
X132793928Y-102322380D02*
X132746309Y-102370000D01*
X132793928Y-102417619D01*
X132841547Y-102370000D01*
X132793928Y-102322380D01*
X132793928Y-102417619D01*
X133412976Y-103322380D02*
X133317738Y-103274761D01*
X133270119Y-103227142D01*
X133222500Y-103131904D01*
X133222500Y-102846190D01*
X133270119Y-102750952D01*
X133317738Y-102703333D01*
X133412976Y-102655714D01*
X133555833Y-102655714D01*
X133651071Y-102703333D01*
X133698690Y-102750952D01*
X133746309Y-102846190D01*
X133746309Y-103131904D01*
X133698690Y-103227142D01*
X133651071Y-103274761D01*
X133555833Y-103322380D01*
X133412976Y-103322380D01*
X134174880Y-102655714D02*
X134174880Y-103322380D01*
X134174880Y-102750952D02*
X134222500Y-102703333D01*
X134317738Y-102655714D01*
X134460595Y-102655714D01*
X134555833Y-102703333D01*
X134603452Y-102798571D01*
X134603452Y-103322380D01*
X135079642Y-102941428D02*
X135841547Y-102941428D01*
X136270119Y-103274761D02*
X136365357Y-103322380D01*
X136555833Y-103322380D01*
X136651071Y-103274761D01*
X136698690Y-103179523D01*
X136698690Y-103131904D01*
X136651071Y-103036666D01*
X136555833Y-102989047D01*
X136412976Y-102989047D01*
X136317738Y-102941428D01*
X136270119Y-102846190D01*
X136270119Y-102798571D01*
X136317738Y-102703333D01*
X136412976Y-102655714D01*
X136555833Y-102655714D01*
X136651071Y-102703333D01*
X137032023Y-102655714D02*
X137270119Y-103322380D01*
X137508214Y-102655714D02*
X137270119Y-103322380D01*
X137174880Y-103560476D01*
X137127261Y-103608095D01*
X137032023Y-103655714D01*
X137841547Y-103274761D02*
X137936785Y-103322380D01*
X138127261Y-103322380D01*
X138222500Y-103274761D01*
X138270119Y-103179523D01*
X138270119Y-103131904D01*
X138222500Y-103036666D01*
X138127261Y-102989047D01*
X137984404Y-102989047D01*
X137889166Y-102941428D01*
X137841547Y-102846190D01*
X137841547Y-102798571D01*
X137889166Y-102703333D01*
X137984404Y-102655714D01*
X138127261Y-102655714D01*
X138222500Y-102703333D01*
X138555833Y-102655714D02*
X138936785Y-102655714D01*
X138698690Y-102322380D02*
X138698690Y-103179523D01*
X138746309Y-103274761D01*
X138841547Y-103322380D01*
X138936785Y-103322380D01*
X139651071Y-103274761D02*
X139555833Y-103322380D01*
X139365357Y-103322380D01*
X139270119Y-103274761D01*
X139222500Y-103179523D01*
X139222500Y-102798571D01*
X139270119Y-102703333D01*
X139365357Y-102655714D01*
X139555833Y-102655714D01*
X139651071Y-102703333D01*
X139698690Y-102798571D01*
X139698690Y-102893809D01*
X139222500Y-102989047D01*
X140127261Y-103322380D02*
X140127261Y-102655714D01*
X140127261Y-102750952D02*
X140174880Y-102703333D01*
X140270119Y-102655714D01*
X140412976Y-102655714D01*
X140508214Y-102703333D01*
X140555833Y-102798571D01*
X140555833Y-103322380D01*
X140555833Y-102798571D02*
X140603452Y-102703333D01*
X140698690Y-102655714D01*
X140841547Y-102655714D01*
X140936785Y-102703333D01*
X140984404Y-102798571D01*
X140984404Y-103322380D01*
D12*
X99397857Y-90603571D02*
X100255000Y-90603571D01*
X99826428Y-92103571D02*
X99826428Y-90603571D01*
X100755000Y-91317857D02*
X101255000Y-91317857D01*
X101469285Y-92103571D02*
X100755000Y-92103571D01*
X100755000Y-90603571D01*
X101469285Y-90603571D01*
X102112142Y-92103571D02*
X102112142Y-90603571D01*
X102612142Y-91675000D01*
X103112142Y-90603571D01*
X103112142Y-92103571D01*
X103826428Y-92103571D02*
X103826428Y-90603571D01*
X104397857Y-90603571D01*
X104540714Y-90675000D01*
X104612142Y-90746428D01*
X104683571Y-90889285D01*
X104683571Y-91103571D01*
X104612142Y-91246428D01*
X104540714Y-91317857D01*
X104397857Y-91389285D01*
X103826428Y-91389285D01*
X106112142Y-92103571D02*
X105255000Y-92103571D01*
X105683571Y-92103571D02*
X105683571Y-90603571D01*
X105540714Y-90817857D01*
X105397857Y-90960714D01*
X105255000Y-91032142D01*
X107897857Y-91532142D02*
X109040714Y-91532142D01*
X111183571Y-90603571D02*
X111469285Y-90603571D01*
X111612142Y-90675000D01*
X111755000Y-90817857D01*
X111826428Y-91103571D01*
X111826428Y-91603571D01*
X111755000Y-91889285D01*
X111612142Y-92032142D01*
X111469285Y-92103571D01*
X111183571Y-92103571D01*
X111040714Y-92032142D01*
X110897857Y-91889285D01*
X110826428Y-91603571D01*
X110826428Y-91103571D01*
X110897857Y-90817857D01*
X111040714Y-90675000D01*
X111183571Y-90603571D01*
X113112142Y-91103571D02*
X113112142Y-92103571D01*
X112469285Y-91103571D02*
X112469285Y-91889285D01*
X112540714Y-92032142D01*
X112683571Y-92103571D01*
X112897857Y-92103571D01*
X113040714Y-92032142D01*
X113112142Y-91960714D01*
X113612142Y-91103571D02*
X114183571Y-91103571D01*
X113826428Y-90603571D02*
X113826428Y-91889285D01*
X113897857Y-92032142D01*
X114040714Y-92103571D01*
X114183571Y-92103571D01*
X114612142Y-92032142D02*
X114755000Y-92103571D01*
X115040714Y-92103571D01*
X115183571Y-92032142D01*
X115255000Y-91889285D01*
X115255000Y-91817857D01*
X115183571Y-91675000D01*
X115040714Y-91603571D01*
X114826428Y-91603571D01*
X114683571Y-91532142D01*
X114612142Y-91389285D01*
X114612142Y-91317857D01*
X114683571Y-91175000D01*
X114826428Y-91103571D01*
X115040714Y-91103571D01*
X115183571Y-91175000D01*
X115897857Y-92103571D02*
X115897857Y-91103571D01*
X115897857Y-90603571D02*
X115826428Y-90675000D01*
X115897857Y-90746428D01*
X115969285Y-90675000D01*
X115897857Y-90603571D01*
X115897857Y-90746428D01*
X117255000Y-92103571D02*
X117255000Y-90603571D01*
X117255000Y-92032142D02*
X117112142Y-92103571D01*
X116826428Y-92103571D01*
X116683571Y-92032142D01*
X116612142Y-91960714D01*
X116540714Y-91817857D01*
X116540714Y-91389285D01*
X116612142Y-91246428D01*
X116683571Y-91175000D01*
X116826428Y-91103571D01*
X117112142Y-91103571D01*
X117255000Y-91175000D01*
X118540714Y-92032142D02*
X118397857Y-92103571D01*
X118112142Y-92103571D01*
X117969285Y-92032142D01*
X117897857Y-91889285D01*
X117897857Y-91317857D01*
X117969285Y-91175000D01*
X118112142Y-91103571D01*
X118397857Y-91103571D01*
X118540714Y-91175000D01*
X118612142Y-91317857D01*
X118612142Y-91460714D01*
X117897857Y-91603571D01*
X121040714Y-92103571D02*
X121040714Y-91317857D01*
X120969285Y-91175000D01*
X120826428Y-91103571D01*
X120540714Y-91103571D01*
X120397857Y-91175000D01*
X121040714Y-92032142D02*
X120897857Y-92103571D01*
X120540714Y-92103571D01*
X120397857Y-92032142D01*
X120326428Y-91889285D01*
X120326428Y-91746428D01*
X120397857Y-91603571D01*
X120540714Y-91532142D01*
X120897857Y-91532142D01*
X121040714Y-91460714D01*
X121755000Y-92103571D02*
X121755000Y-91103571D01*
X121755000Y-90603571D02*
X121683571Y-90675000D01*
X121755000Y-90746428D01*
X121826428Y-90675000D01*
X121755000Y-90603571D01*
X121755000Y-90746428D01*
X122469285Y-92103571D02*
X122469285Y-91103571D01*
X122469285Y-91389285D02*
X122540714Y-91246428D01*
X122612142Y-91175000D01*
X122755000Y-91103571D01*
X122897857Y-91103571D01*
X99397857Y-93153571D02*
X100255000Y-93153571D01*
X99826428Y-94653571D02*
X99826428Y-93153571D01*
X100755000Y-93867857D02*
X101255000Y-93867857D01*
X101469285Y-94653571D02*
X100755000Y-94653571D01*
X100755000Y-93153571D01*
X101469285Y-93153571D01*
X102112142Y-94653571D02*
X102112142Y-93153571D01*
X102612142Y-94225000D01*
X103112142Y-93153571D01*
X103112142Y-94653571D01*
X103826428Y-94653571D02*
X103826428Y-93153571D01*
X104397857Y-93153571D01*
X104540714Y-93225000D01*
X104612142Y-93296428D01*
X104683571Y-93439285D01*
X104683571Y-93653571D01*
X104612142Y-93796428D01*
X104540714Y-93867857D01*
X104397857Y-93939285D01*
X103826428Y-93939285D01*
X105255000Y-93296428D02*
X105326428Y-93225000D01*
X105469285Y-93153571D01*
X105826428Y-93153571D01*
X105969285Y-93225000D01*
X106040714Y-93296428D01*
X106112142Y-93439285D01*
X106112142Y-93582142D01*
X106040714Y-93796428D01*
X105183571Y-94653571D01*
X106112142Y-94653571D01*
X107897857Y-94082142D02*
X109040714Y-94082142D01*
X111397857Y-93867857D02*
X110897857Y-93867857D01*
X110897857Y-94653571D02*
X110897857Y-93153571D01*
X111612142Y-93153571D01*
X112183571Y-94653571D02*
X112183571Y-93653571D01*
X112183571Y-93939285D02*
X112255000Y-93796428D01*
X112326428Y-93725000D01*
X112469285Y-93653571D01*
X112612142Y-93653571D01*
X113683571Y-94582142D02*
X113540714Y-94653571D01*
X113255000Y-94653571D01*
X113112142Y-94582142D01*
X113040714Y-94439285D01*
X113040714Y-93867857D01*
X113112142Y-93725000D01*
X113255000Y-93653571D01*
X113540714Y-93653571D01*
X113683571Y-93725000D01*
X113755000Y-93867857D01*
X113755000Y-94010714D01*
X113040714Y-94153571D01*
X114326428Y-94582142D02*
X114469285Y-94653571D01*
X114755000Y-94653571D01*
X114897857Y-94582142D01*
X114969285Y-94439285D01*
X114969285Y-94367857D01*
X114897857Y-94225000D01*
X114755000Y-94153571D01*
X114540714Y-94153571D01*
X114397857Y-94082142D01*
X114326428Y-93939285D01*
X114326428Y-93867857D01*
X114397857Y-93725000D01*
X114540714Y-93653571D01*
X114755000Y-93653571D01*
X114897857Y-93725000D01*
X115612142Y-94653571D02*
X115612142Y-93153571D01*
X116255000Y-94653571D02*
X116255000Y-93867857D01*
X116183571Y-93725000D01*
X116040714Y-93653571D01*
X115826428Y-93653571D01*
X115683571Y-93725000D01*
X115612142Y-93796428D01*
X118755000Y-94653571D02*
X118755000Y-93867857D01*
X118683571Y-93725000D01*
X118540714Y-93653571D01*
X118255000Y-93653571D01*
X118112142Y-93725000D01*
X118755000Y-94582142D02*
X118612142Y-94653571D01*
X118255000Y-94653571D01*
X118112142Y-94582142D01*
X118040714Y-94439285D01*
X118040714Y-94296428D01*
X118112142Y-94153571D01*
X118255000Y-94082142D01*
X118612142Y-94082142D01*
X118755000Y-94010714D01*
X119469285Y-94653571D02*
X119469285Y-93653571D01*
X119469285Y-93153571D02*
X119397857Y-93225000D01*
X119469285Y-93296428D01*
X119540714Y-93225000D01*
X119469285Y-93153571D01*
X119469285Y-93296428D01*
X120183571Y-94653571D02*
X120183571Y-93653571D01*
X120183571Y-93939285D02*
X120255000Y-93796428D01*
X120326428Y-93725000D01*
X120469285Y-93653571D01*
X120612142Y-93653571D01*
X99397857Y-95703571D02*
X100255000Y-95703571D01*
X99826428Y-97203571D02*
X99826428Y-95703571D01*
X100755000Y-96417857D02*
X101255000Y-96417857D01*
X101469285Y-97203571D02*
X100755000Y-97203571D01*
X100755000Y-95703571D01*
X101469285Y-95703571D01*
X102112142Y-97203571D02*
X102112142Y-95703571D01*
X102612142Y-96775000D01*
X103112142Y-95703571D01*
X103112142Y-97203571D01*
X103826428Y-97203571D02*
X103826428Y-95703571D01*
X104397857Y-95703571D01*
X104540714Y-95775000D01*
X104612142Y-95846428D01*
X104683571Y-95989285D01*
X104683571Y-96203571D01*
X104612142Y-96346428D01*
X104540714Y-96417857D01*
X104397857Y-96489285D01*
X103826428Y-96489285D01*
X105183571Y-95703571D02*
X106112142Y-95703571D01*
X105612142Y-96275000D01*
X105826428Y-96275000D01*
X105969285Y-96346428D01*
X106040714Y-96417857D01*
X106112142Y-96560714D01*
X106112142Y-96917857D01*
X106040714Y-97060714D01*
X105969285Y-97132142D01*
X105826428Y-97203571D01*
X105397857Y-97203571D01*
X105255000Y-97132142D01*
X105183571Y-97060714D01*
X107897857Y-96632142D02*
X109040714Y-96632142D01*
X110897857Y-96417857D02*
X111397857Y-96417857D01*
X111612142Y-97203571D02*
X110897857Y-97203571D01*
X110897857Y-95703571D01*
X111612142Y-95703571D01*
X112112142Y-97203571D02*
X112897857Y-96203571D01*
X112112142Y-96203571D02*
X112897857Y-97203571D01*
X113469285Y-97203571D02*
X113469285Y-95703571D01*
X114112142Y-97203571D02*
X114112142Y-96417857D01*
X114040714Y-96275000D01*
X113897857Y-96203571D01*
X113683571Y-96203571D01*
X113540714Y-96275000D01*
X113469285Y-96346428D01*
X115469285Y-97203571D02*
X115469285Y-96417857D01*
X115397857Y-96275000D01*
X115255000Y-96203571D01*
X114969285Y-96203571D01*
X114826428Y-96275000D01*
X115469285Y-97132142D02*
X115326428Y-97203571D01*
X114969285Y-97203571D01*
X114826428Y-97132142D01*
X114755000Y-96989285D01*
X114755000Y-96846428D01*
X114826428Y-96703571D01*
X114969285Y-96632142D01*
X115326428Y-96632142D01*
X115469285Y-96560714D01*
X116826428Y-96203571D02*
X116826428Y-97203571D01*
X116183571Y-96203571D02*
X116183571Y-96989285D01*
X116255000Y-97132142D01*
X116397857Y-97203571D01*
X116612142Y-97203571D01*
X116755000Y-97132142D01*
X116826428Y-97060714D01*
X117469285Y-97132142D02*
X117612142Y-97203571D01*
X117897857Y-97203571D01*
X118040714Y-97132142D01*
X118112142Y-96989285D01*
X118112142Y-96917857D01*
X118040714Y-96775000D01*
X117897857Y-96703571D01*
X117683571Y-96703571D01*
X117540714Y-96632142D01*
X117469285Y-96489285D01*
X117469285Y-96417857D01*
X117540714Y-96275000D01*
X117683571Y-96203571D01*
X117897857Y-96203571D01*
X118040714Y-96275000D01*
X118540714Y-96203571D02*
X119112142Y-96203571D01*
X118755000Y-95703571D02*
X118755000Y-96989285D01*
X118826428Y-97132142D01*
X118969285Y-97203571D01*
X119112142Y-97203571D01*
X121397857Y-97203571D02*
X121397857Y-96417857D01*
X121326428Y-96275000D01*
X121183571Y-96203571D01*
X120897857Y-96203571D01*
X120755000Y-96275000D01*
X121397857Y-97132142D02*
X121255000Y-97203571D01*
X120897857Y-97203571D01*
X120755000Y-97132142D01*
X120683571Y-96989285D01*
X120683571Y-96846428D01*
X120755000Y-96703571D01*
X120897857Y-96632142D01*
X121255000Y-96632142D01*
X121397857Y-96560714D01*
X122112142Y-97203571D02*
X122112142Y-96203571D01*
X122112142Y-95703571D02*
X122040714Y-95775000D01*
X122112142Y-95846428D01*
X122183571Y-95775000D01*
X122112142Y-95703571D01*
X122112142Y-95846428D01*
X122826428Y-97203571D02*
X122826428Y-96203571D01*
X122826428Y-96489285D02*
X122897857Y-96346428D01*
X122969285Y-96275000D01*
X123112142Y-96203571D01*
X123255000Y-96203571D01*
X99397857Y-98253571D02*
X100255000Y-98253571D01*
X99826428Y-99753571D02*
X99826428Y-98253571D01*
X100755000Y-98967857D02*
X101255000Y-98967857D01*
X101469285Y-99753571D02*
X100755000Y-99753571D01*
X100755000Y-98253571D01*
X101469285Y-98253571D01*
X102112142Y-99753571D02*
X102112142Y-98253571D01*
X102612142Y-99325000D01*
X103112142Y-98253571D01*
X103112142Y-99753571D01*
X103826428Y-99753571D02*
X103826428Y-98253571D01*
X104397857Y-98253571D01*
X104540714Y-98325000D01*
X104612142Y-98396428D01*
X104683571Y-98539285D01*
X104683571Y-98753571D01*
X104612142Y-98896428D01*
X104540714Y-98967857D01*
X104397857Y-99039285D01*
X103826428Y-99039285D01*
X105969285Y-98753571D02*
X105969285Y-99753571D01*
X105612142Y-98182142D02*
X105255000Y-99253571D01*
X106183571Y-99253571D01*
X107897857Y-99182142D02*
X109040714Y-99182142D01*
X111183571Y-98253571D02*
X111469285Y-98253571D01*
X111612142Y-98325000D01*
X111755000Y-98467857D01*
X111826428Y-98753571D01*
X111826428Y-99253571D01*
X111755000Y-99539285D01*
X111612142Y-99682142D01*
X111469285Y-99753571D01*
X111183571Y-99753571D01*
X111040714Y-99682142D01*
X110897857Y-99539285D01*
X110826428Y-99253571D01*
X110826428Y-98753571D01*
X110897857Y-98467857D01*
X111040714Y-98325000D01*
X111183571Y-98253571D01*
X113112142Y-98753571D02*
X113112142Y-99753571D01*
X112469285Y-98753571D02*
X112469285Y-99539285D01*
X112540714Y-99682142D01*
X112683571Y-99753571D01*
X112897857Y-99753571D01*
X113040714Y-99682142D01*
X113112142Y-99610714D01*
X113612142Y-98753571D02*
X114183571Y-98753571D01*
X113826428Y-98253571D02*
X113826428Y-99539285D01*
X113897857Y-99682142D01*
X114040714Y-99753571D01*
X114183571Y-99753571D01*
X114897857Y-99753571D02*
X114755000Y-99682142D01*
X114683571Y-99539285D01*
X114683571Y-98253571D01*
X116040714Y-99682142D02*
X115897857Y-99753571D01*
X115612142Y-99753571D01*
X115469285Y-99682142D01*
X115397857Y-99539285D01*
X115397857Y-98967857D01*
X115469285Y-98825000D01*
X115612142Y-98753571D01*
X115897857Y-98753571D01*
X116040714Y-98825000D01*
X116112142Y-98967857D01*
X116112142Y-99110714D01*
X115397857Y-99253571D01*
X116540714Y-98753571D02*
X117112142Y-98753571D01*
X116755000Y-98253571D02*
X116755000Y-99539285D01*
X116826428Y-99682142D01*
X116969285Y-99753571D01*
X117112142Y-99753571D01*
X119397857Y-99753571D02*
X119397857Y-98967857D01*
X119326428Y-98825000D01*
X119183571Y-98753571D01*
X118897857Y-98753571D01*
X118755000Y-98825000D01*
X119397857Y-99682142D02*
X119255000Y-99753571D01*
X118897857Y-99753571D01*
X118755000Y-99682142D01*
X118683571Y-99539285D01*
X118683571Y-99396428D01*
X118755000Y-99253571D01*
X118897857Y-99182142D01*
X119255000Y-99182142D01*
X119397857Y-99110714D01*
X120112142Y-99753571D02*
X120112142Y-98753571D01*
X120112142Y-98253571D02*
X120040714Y-98325000D01*
X120112142Y-98396428D01*
X120183571Y-98325000D01*
X120112142Y-98253571D01*
X120112142Y-98396428D01*
X120826428Y-99753571D02*
X120826428Y-98753571D01*
X120826428Y-99039285D02*
X120897857Y-98896428D01*
X120969285Y-98825000D01*
X121112142Y-98753571D01*
X121255000Y-98753571D01*
X99000952Y-77678333D02*
X99953333Y-77678333D01*
X98810476Y-78249761D02*
X99477142Y-76249761D01*
X100143809Y-78249761D01*
X100810476Y-78249761D02*
X100810476Y-76916428D01*
X100810476Y-77297380D02*
X100905714Y-77106904D01*
X101000952Y-77011666D01*
X101191428Y-76916428D01*
X101381904Y-76916428D01*
X102905714Y-78249761D02*
X102905714Y-76249761D01*
X102905714Y-78154523D02*
X102715238Y-78249761D01*
X102334285Y-78249761D01*
X102143809Y-78154523D01*
X102048571Y-78059285D01*
X101953333Y-77868809D01*
X101953333Y-77297380D01*
X102048571Y-77106904D01*
X102143809Y-77011666D01*
X102334285Y-76916428D01*
X102715238Y-76916428D01*
X102905714Y-77011666D01*
X104715238Y-76916428D02*
X104715238Y-78249761D01*
X103858095Y-76916428D02*
X103858095Y-77964047D01*
X103953333Y-78154523D01*
X104143809Y-78249761D01*
X104429523Y-78249761D01*
X104620000Y-78154523D01*
X104715238Y-78059285D01*
X105667619Y-78249761D02*
X105667619Y-76916428D01*
X105667619Y-76249761D02*
X105572380Y-76345000D01*
X105667619Y-76440238D01*
X105762857Y-76345000D01*
X105667619Y-76249761D01*
X105667619Y-76440238D01*
X106620000Y-76916428D02*
X106620000Y-78249761D01*
X106620000Y-77106904D02*
X106715238Y-77011666D01*
X106905714Y-76916428D01*
X107191428Y-76916428D01*
X107381904Y-77011666D01*
X107477142Y-77202142D01*
X107477142Y-78249761D01*
X108715238Y-78249761D02*
X108524761Y-78154523D01*
X108429523Y-78059285D01*
X108334285Y-77868809D01*
X108334285Y-77297380D01*
X108429523Y-77106904D01*
X108524761Y-77011666D01*
X108715238Y-76916428D01*
X109000952Y-76916428D01*
X109191428Y-77011666D01*
X109286666Y-77106904D01*
X109381904Y-77297380D01*
X109381904Y-77868809D01*
X109286666Y-78059285D01*
X109191428Y-78154523D01*
X109000952Y-78249761D01*
X108715238Y-78249761D01*
X110239047Y-77487857D02*
X111762857Y-77487857D01*
X113858095Y-78059285D02*
X113762857Y-78154523D01*
X113477142Y-78249761D01*
X113286666Y-78249761D01*
X113000952Y-78154523D01*
X112810476Y-77964047D01*
X112715238Y-77773571D01*
X112620000Y-77392619D01*
X112620000Y-77106904D01*
X112715238Y-76725952D01*
X112810476Y-76535476D01*
X113000952Y-76345000D01*
X113286666Y-76249761D01*
X113477142Y-76249761D01*
X113762857Y-76345000D01*
X113858095Y-76440238D01*
X114429523Y-76916428D02*
X115191428Y-76916428D01*
X114715238Y-76249761D02*
X114715238Y-77964047D01*
X114810476Y-78154523D01*
X115000952Y-78249761D01*
X115191428Y-78249761D01*
X115858095Y-78249761D02*
X115858095Y-76916428D01*
X115858095Y-77297380D02*
X115953333Y-77106904D01*
X116048571Y-77011666D01*
X116239047Y-76916428D01*
X116429523Y-76916428D01*
X117381904Y-78249761D02*
X117191428Y-78154523D01*
X117096190Y-77964047D01*
X117096190Y-76249761D01*
X99096190Y-81549761D02*
X99096190Y-79549761D01*
X99858095Y-79549761D01*
X100048571Y-79645000D01*
X100143809Y-79740238D01*
X100239047Y-79930714D01*
X100239047Y-80216428D01*
X100143809Y-80406904D01*
X100048571Y-80502142D01*
X99858095Y-80597380D01*
X99096190Y-80597380D01*
X101381904Y-81549761D02*
X101191428Y-81454523D01*
X101096190Y-81264047D01*
X101096190Y-79549761D01*
X103000952Y-80216428D02*
X103000952Y-81549761D01*
X102143809Y-80216428D02*
X102143809Y-81264047D01*
X102239047Y-81454523D01*
X102429523Y-81549761D01*
X102715238Y-81549761D01*
X102905714Y-81454523D01*
X103000952Y-81359285D01*
X104810476Y-80216428D02*
X104810476Y-81835476D01*
X104715238Y-82025952D01*
X104620000Y-82121190D01*
X104429523Y-82216428D01*
X104143809Y-82216428D01*
X103953333Y-82121190D01*
X104810476Y-81454523D02*
X104620000Y-81549761D01*
X104239047Y-81549761D01*
X104048571Y-81454523D01*
X103953333Y-81359285D01*
X103858095Y-81168809D01*
X103858095Y-80597380D01*
X103953333Y-80406904D01*
X104048571Y-80311666D01*
X104239047Y-80216428D01*
X104620000Y-80216428D01*
X104810476Y-80311666D01*
X106620000Y-80216428D02*
X106620000Y-81835476D01*
X106524761Y-82025952D01*
X106429523Y-82121190D01*
X106239047Y-82216428D01*
X105953333Y-82216428D01*
X105762857Y-82121190D01*
X106620000Y-81454523D02*
X106429523Y-81549761D01*
X106048571Y-81549761D01*
X105858095Y-81454523D01*
X105762857Y-81359285D01*
X105667619Y-81168809D01*
X105667619Y-80597380D01*
X105762857Y-80406904D01*
X105858095Y-80311666D01*
X106048571Y-80216428D01*
X106429523Y-80216428D01*
X106620000Y-80311666D01*
X107572380Y-81549761D02*
X107572380Y-80216428D01*
X107572380Y-79549761D02*
X107477142Y-79645000D01*
X107572380Y-79740238D01*
X107667619Y-79645000D01*
X107572380Y-79549761D01*
X107572380Y-79740238D01*
X108239047Y-80216428D02*
X109000952Y-80216428D01*
X108524761Y-79549761D02*
X108524761Y-81264047D01*
X108620000Y-81454523D01*
X108810476Y-81549761D01*
X109000952Y-81549761D01*
X111191428Y-81549761D02*
X111191428Y-79549761D01*
X111953333Y-79549761D01*
X112143809Y-79645000D01*
X112239047Y-79740238D01*
X112334285Y-79930714D01*
X112334285Y-80216428D01*
X112239047Y-80406904D01*
X112143809Y-80502142D01*
X111953333Y-80597380D01*
X111191428Y-80597380D01*
X113000952Y-79549761D02*
X114239047Y-79549761D01*
X113572380Y-80311666D01*
X113858095Y-80311666D01*
X114048571Y-80406904D01*
X114143809Y-80502142D01*
X114239047Y-80692619D01*
X114239047Y-81168809D01*
X114143809Y-81359285D01*
X114048571Y-81454523D01*
X113858095Y-81549761D01*
X113286666Y-81549761D01*
X113096190Y-81454523D01*
X113000952Y-81359285D01*
X115477142Y-79549761D02*
X115667619Y-79549761D01*
X115858095Y-79645000D01*
X115953333Y-79740238D01*
X116048571Y-79930714D01*
X116143809Y-80311666D01*
X116143809Y-80787857D01*
X116048571Y-81168809D01*
X115953333Y-81359285D01*
X115858095Y-81454523D01*
X115667619Y-81549761D01*
X115477142Y-81549761D01*
X115286666Y-81454523D01*
X115191428Y-81359285D01*
X115096190Y-81168809D01*
X115000952Y-80787857D01*
X115000952Y-80311666D01*
X115096190Y-79930714D01*
X115191428Y-79740238D01*
X115286666Y-79645000D01*
X115477142Y-79549761D01*
X117381904Y-79549761D02*
X117572380Y-79549761D01*
X117762857Y-79645000D01*
X117858095Y-79740238D01*
X117953333Y-79930714D01*
X118048571Y-80311666D01*
X118048571Y-80787857D01*
X117953333Y-81168809D01*
X117858095Y-81359285D01*
X117762857Y-81454523D01*
X117572380Y-81549761D01*
X117381904Y-81549761D01*
X117191428Y-81454523D01*
X117096190Y-81359285D01*
X117000952Y-81168809D01*
X116905714Y-80787857D01*
X116905714Y-80311666D01*
X117000952Y-79930714D01*
X117096190Y-79740238D01*
X117191428Y-79645000D01*
X117381904Y-79549761D01*
X120334285Y-79454523D02*
X118620000Y-82025952D01*
X121000952Y-81549761D02*
X121000952Y-79549761D01*
X121762857Y-79549761D01*
X121953333Y-79645000D01*
X122048571Y-79740238D01*
X122143809Y-79930714D01*
X122143809Y-80216428D01*
X122048571Y-80406904D01*
X121953333Y-80502142D01*
X121762857Y-80597380D01*
X121000952Y-80597380D01*
X123858095Y-80216428D02*
X123858095Y-81549761D01*
X123381904Y-79454523D02*
X122905714Y-80883095D01*
X124143809Y-80883095D01*
X125858095Y-79549761D02*
X124905714Y-79549761D01*
X124810476Y-80502142D01*
X124905714Y-80406904D01*
X125096190Y-80311666D01*
X125572380Y-80311666D01*
X125762857Y-80406904D01*
X125858095Y-80502142D01*
X125953333Y-80692619D01*
X125953333Y-81168809D01*
X125858095Y-81359285D01*
X125762857Y-81454523D01*
X125572380Y-81549761D01*
X125096190Y-81549761D01*
X124905714Y-81454523D01*
X124810476Y-81359285D01*
X127191428Y-79549761D02*
X127381904Y-79549761D01*
X127572380Y-79645000D01*
X127667619Y-79740238D01*
X127762857Y-79930714D01*
X127858095Y-80311666D01*
X127858095Y-80787857D01*
X127762857Y-81168809D01*
X127667619Y-81359285D01*
X127572380Y-81454523D01*
X127381904Y-81549761D01*
X127191428Y-81549761D01*
X127000952Y-81454523D01*
X126905714Y-81359285D01*
X126810476Y-81168809D01*
X126715238Y-80787857D01*
X126715238Y-80311666D01*
X126810476Y-79930714D01*
X126905714Y-79740238D01*
X127000952Y-79645000D01*
X127191428Y-79549761D01*
X100239047Y-84849761D02*
X99572380Y-83897380D01*
X99096190Y-84849761D02*
X99096190Y-82849761D01*
X99858095Y-82849761D01*
X100048571Y-82945000D01*
X100143809Y-83040238D01*
X100239047Y-83230714D01*
X100239047Y-83516428D01*
X100143809Y-83706904D01*
X100048571Y-83802142D01*
X99858095Y-83897380D01*
X99096190Y-83897380D01*
X101858095Y-84754523D02*
X101667619Y-84849761D01*
X101286666Y-84849761D01*
X101096190Y-84754523D01*
X101000952Y-84564047D01*
X101000952Y-83802142D01*
X101096190Y-83611666D01*
X101286666Y-83516428D01*
X101667619Y-83516428D01*
X101858095Y-83611666D01*
X101953333Y-83802142D01*
X101953333Y-83992619D01*
X101000952Y-84183095D01*
X102620000Y-83516428D02*
X103096190Y-84849761D01*
X103572380Y-83516428D01*
X106239047Y-82849761D02*
X106429523Y-82849761D01*
X106620000Y-82945000D01*
X106715238Y-83040238D01*
X106810476Y-83230714D01*
X106905714Y-83611666D01*
X106905714Y-84087857D01*
X106810476Y-84468809D01*
X106715238Y-84659285D01*
X106620000Y-84754523D01*
X106429523Y-84849761D01*
X106239047Y-84849761D01*
X106048571Y-84754523D01*
X105953333Y-84659285D01*
X105858095Y-84468809D01*
X105762857Y-84087857D01*
X105762857Y-83611666D01*
X105858095Y-83230714D01*
X105953333Y-83040238D01*
X106048571Y-82945000D01*
X106239047Y-82849761D01*
X107762857Y-84659285D02*
X107858095Y-84754523D01*
X107762857Y-84849761D01*
X107667619Y-84754523D01*
X107762857Y-84659285D01*
X107762857Y-84849761D01*
X108620000Y-83040238D02*
X108715238Y-82945000D01*
X108905714Y-82849761D01*
X109381904Y-82849761D01*
X109572380Y-82945000D01*
X109667619Y-83040238D01*
X109762857Y-83230714D01*
X109762857Y-83421190D01*
X109667619Y-83706904D01*
X108524761Y-84849761D01*
X109762857Y-84849761D01*
X110429523Y-82849761D02*
X111667619Y-82849761D01*
X111000952Y-83611666D01*
X111286666Y-83611666D01*
X111477142Y-83706904D01*
X111572380Y-83802142D01*
X111667619Y-83992619D01*
X111667619Y-84468809D01*
X111572380Y-84659285D01*
X111477142Y-84754523D01*
X111286666Y-84849761D01*
X110715238Y-84849761D01*
X110524761Y-84754523D01*
X110429523Y-84659285D01*
X112524761Y-84087857D02*
X114048571Y-84087857D01*
X115858095Y-84849761D02*
X115858095Y-82849761D01*
X115858095Y-84754523D02*
X115667619Y-84849761D01*
X115286666Y-84849761D01*
X115096190Y-84754523D01*
X115000952Y-84659285D01*
X114905714Y-84468809D01*
X114905714Y-83897380D01*
X115000952Y-83706904D01*
X115096190Y-83611666D01*
X115286666Y-83516428D01*
X115667619Y-83516428D01*
X115858095Y-83611666D01*
X117572380Y-84754523D02*
X117381904Y-84849761D01*
X117000952Y-84849761D01*
X116810476Y-84754523D01*
X116715238Y-84564047D01*
X116715238Y-83802142D01*
X116810476Y-83611666D01*
X117000952Y-83516428D01*
X117381904Y-83516428D01*
X117572380Y-83611666D01*
X117667619Y-83802142D01*
X117667619Y-83992619D01*
X116715238Y-84183095D01*
X118334285Y-83516428D02*
X118810476Y-84849761D01*
X119286666Y-83516428D01*
D13*
G04 #@! TO.C,J16*
X150650000Y-104875000D02*
X156650000Y-104875000D01*
X156650000Y-104875000D02*
X156650000Y-84355000D01*
X156650000Y-84355000D02*
X150650000Y-84355000D01*
X150650000Y-84355000D02*
X150650000Y-104875000D01*
X156650000Y-103505000D02*
X155650000Y-103505000D01*
X155650000Y-103505000D02*
X155650000Y-98425000D01*
X155650000Y-98425000D02*
X156650000Y-98425000D01*
X155650000Y-103505000D02*
X155220000Y-103255000D01*
X155220000Y-103255000D02*
X155220000Y-98425000D01*
X155220000Y-98425000D02*
X155650000Y-98425000D01*
X156650000Y-103255000D02*
X155650000Y-103255000D01*
X156650000Y-85725000D02*
X155650000Y-85725000D01*
X155650000Y-85725000D02*
X155650000Y-90805000D01*
X155650000Y-90805000D02*
X156650000Y-90805000D01*
X155650000Y-85725000D02*
X155220000Y-85975000D01*
X155220000Y-85975000D02*
X155220000Y-90805000D01*
X155220000Y-90805000D02*
X155650000Y-90805000D01*
X156650000Y-85975000D02*
X155650000Y-85975000D01*
X150650000Y-104305000D02*
X151270000Y-104305000D01*
X151270000Y-104305000D02*
X151270000Y-102705000D01*
X151270000Y-102705000D02*
X150650000Y-102705000D01*
X150650000Y-101765000D02*
X151270000Y-101765000D01*
X151270000Y-101765000D02*
X151270000Y-100165000D01*
X151270000Y-100165000D02*
X150650000Y-100165000D01*
X150650000Y-99225000D02*
X151270000Y-99225000D01*
X151270000Y-99225000D02*
X151270000Y-97625000D01*
X151270000Y-97625000D02*
X150650000Y-97625000D01*
X150650000Y-96685000D02*
X151270000Y-96685000D01*
X151270000Y-96685000D02*
X151270000Y-95085000D01*
X151270000Y-95085000D02*
X150650000Y-95085000D01*
X150650000Y-94145000D02*
X151270000Y-94145000D01*
X151270000Y-94145000D02*
X151270000Y-92545000D01*
X151270000Y-92545000D02*
X150650000Y-92545000D01*
X150650000Y-91605000D02*
X151270000Y-91605000D01*
X151270000Y-91605000D02*
X151270000Y-90005000D01*
X151270000Y-90005000D02*
X150650000Y-90005000D01*
X150650000Y-89065000D02*
X151270000Y-89065000D01*
X151270000Y-89065000D02*
X151270000Y-87465000D01*
X151270000Y-87465000D02*
X150650000Y-87465000D01*
X150650000Y-86525000D02*
X151270000Y-86525000D01*
X151270000Y-86525000D02*
X151270000Y-84925000D01*
X151270000Y-84925000D02*
X150650000Y-84925000D01*
G04 #@! TO.C,J15*
X161445000Y-104875000D02*
X167445000Y-104875000D01*
X167445000Y-104875000D02*
X167445000Y-84355000D01*
X167445000Y-84355000D02*
X161445000Y-84355000D01*
X161445000Y-84355000D02*
X161445000Y-104875000D01*
X167445000Y-103505000D02*
X166445000Y-103505000D01*
X166445000Y-103505000D02*
X166445000Y-98425000D01*
X166445000Y-98425000D02*
X167445000Y-98425000D01*
X166445000Y-103505000D02*
X166015000Y-103255000D01*
X166015000Y-103255000D02*
X166015000Y-98425000D01*
X166015000Y-98425000D02*
X166445000Y-98425000D01*
X167445000Y-103255000D02*
X166445000Y-103255000D01*
X167445000Y-85725000D02*
X166445000Y-85725000D01*
X166445000Y-85725000D02*
X166445000Y-90805000D01*
X166445000Y-90805000D02*
X167445000Y-90805000D01*
X166445000Y-85725000D02*
X166015000Y-85975000D01*
X166015000Y-85975000D02*
X166015000Y-90805000D01*
X166015000Y-90805000D02*
X166445000Y-90805000D01*
X167445000Y-85975000D02*
X166445000Y-85975000D01*
X161445000Y-104305000D02*
X162065000Y-104305000D01*
X162065000Y-104305000D02*
X162065000Y-102705000D01*
X162065000Y-102705000D02*
X161445000Y-102705000D01*
X161445000Y-101765000D02*
X162065000Y-101765000D01*
X162065000Y-101765000D02*
X162065000Y-100165000D01*
X162065000Y-100165000D02*
X161445000Y-100165000D01*
X161445000Y-99225000D02*
X162065000Y-99225000D01*
X162065000Y-99225000D02*
X162065000Y-97625000D01*
X162065000Y-97625000D02*
X161445000Y-97625000D01*
X161445000Y-96685000D02*
X162065000Y-96685000D01*
X162065000Y-96685000D02*
X162065000Y-95085000D01*
X162065000Y-95085000D02*
X161445000Y-95085000D01*
X161445000Y-94145000D02*
X162065000Y-94145000D01*
X162065000Y-94145000D02*
X162065000Y-92545000D01*
X162065000Y-92545000D02*
X161445000Y-92545000D01*
X161445000Y-91605000D02*
X162065000Y-91605000D01*
X162065000Y-91605000D02*
X162065000Y-90005000D01*
X162065000Y-90005000D02*
X161445000Y-90005000D01*
X161445000Y-89065000D02*
X162065000Y-89065000D01*
X162065000Y-89065000D02*
X162065000Y-87465000D01*
X162065000Y-87465000D02*
X161445000Y-87465000D01*
X161445000Y-86525000D02*
X162065000Y-86525000D01*
X162065000Y-86525000D02*
X162065000Y-84925000D01*
X162065000Y-84925000D02*
X161445000Y-84925000D01*
G04 #@! TO.C,JP1*
X231835000Y-99000000D02*
X229175000Y-99000000D01*
X231835000Y-101600000D02*
X231835000Y-99000000D01*
X229175000Y-101600000D02*
X229175000Y-99000000D01*
X231835000Y-101600000D02*
X229175000Y-101600000D01*
X231835000Y-102870000D02*
X231835000Y-104200000D01*
X231835000Y-104200000D02*
X230505000Y-104200000D01*
G04 #@! TO.C,J14*
X217915000Y-104630000D02*
X217915000Y-98610000D01*
X217915000Y-98610000D02*
X212615000Y-98610000D01*
X212615000Y-98610000D02*
X212615000Y-104630000D01*
X212615000Y-104630000D02*
X217915000Y-104630000D01*
X218205000Y-103600000D02*
X218205000Y-99600000D01*
X216535000Y-98610000D02*
X216535000Y-99610000D01*
X216535000Y-99610000D02*
X213995000Y-99610000D01*
X213995000Y-99610000D02*
X213995000Y-98610000D01*
X216535000Y-99610000D02*
X216285000Y-100140000D01*
X216285000Y-100140000D02*
X214245000Y-100140000D01*
X214245000Y-100140000D02*
X213995000Y-99610000D01*
X216285000Y-98610000D02*
X216285000Y-99610000D01*
X214245000Y-98610000D02*
X214245000Y-99610000D01*
X217335000Y-104630000D02*
X217335000Y-104030000D01*
X217335000Y-104030000D02*
X215735000Y-104030000D01*
X215735000Y-104030000D02*
X215735000Y-104630000D01*
X214795000Y-104630000D02*
X214795000Y-104030000D01*
X214795000Y-104030000D02*
X213195000Y-104030000D01*
X213195000Y-104030000D02*
X213195000Y-104630000D01*
G04 #@! TO.C,J9*
X227440000Y-104630000D02*
X227440000Y-98610000D01*
X227440000Y-98610000D02*
X222140000Y-98610000D01*
X222140000Y-98610000D02*
X222140000Y-104630000D01*
X222140000Y-104630000D02*
X227440000Y-104630000D01*
X227730000Y-103600000D02*
X227730000Y-99600000D01*
X226060000Y-98610000D02*
X226060000Y-99610000D01*
X226060000Y-99610000D02*
X223520000Y-99610000D01*
X223520000Y-99610000D02*
X223520000Y-98610000D01*
X226060000Y-99610000D02*
X225810000Y-100140000D01*
X225810000Y-100140000D02*
X223770000Y-100140000D01*
X223770000Y-100140000D02*
X223520000Y-99610000D01*
X225810000Y-98610000D02*
X225810000Y-99610000D01*
X223770000Y-98610000D02*
X223770000Y-99610000D01*
X226860000Y-104630000D02*
X226860000Y-104030000D01*
X226860000Y-104030000D02*
X225260000Y-104030000D01*
X225260000Y-104030000D02*
X225260000Y-104630000D01*
X224320000Y-104630000D02*
X224320000Y-104030000D01*
X224320000Y-104030000D02*
X222720000Y-104030000D01*
X222720000Y-104030000D02*
X222720000Y-104630000D01*
G04 #@! TO.C,R4*
X198160000Y-102870000D02*
G75*
G03X198160000Y-102870000I-1310000J0D01*
G01*
X196850000Y-101560000D02*
X196850000Y-101430000D01*
G04 #@! TO.C,R2*
X184190000Y-102870000D02*
G75*
G03X184190000Y-102870000I-1310000J0D01*
G01*
X182880000Y-101560000D02*
X182880000Y-101430000D01*
G04 #@! TO.C,R3*
X198160000Y-93345000D02*
G75*
G03X198160000Y-93345000I-1310000J0D01*
G01*
X196850000Y-92035000D02*
X196850000Y-91905000D01*
G04 #@! TO.C,R1*
X184190000Y-93345000D02*
G75*
G03X184190000Y-93345000I-1310000J0D01*
G01*
X182880000Y-92035000D02*
X182880000Y-91905000D01*
G04 #@! TO.C,R6*
X216575000Y-91440000D02*
G75*
G03X216575000Y-91440000I-1310000J0D01*
G01*
X216575000Y-91440000D02*
X216705000Y-91440000D01*
G04 #@! TO.C,R5*
X226735000Y-91440000D02*
G75*
G03X226735000Y-91440000I-1310000J0D01*
G01*
X226735000Y-91440000D02*
X226865000Y-91440000D01*
G04 #@! TO.C,J13*
X207120000Y-76690000D02*
X207120000Y-70670000D01*
X207120000Y-70670000D02*
X196740000Y-70670000D01*
X196740000Y-70670000D02*
X196740000Y-76690000D01*
X196740000Y-76690000D02*
X207120000Y-76690000D01*
X207410000Y-75660000D02*
X207410000Y-71660000D01*
X205740000Y-70670000D02*
X205740000Y-71670000D01*
X205740000Y-71670000D02*
X198120000Y-71670000D01*
X198120000Y-71670000D02*
X198120000Y-70670000D01*
X205740000Y-71670000D02*
X205490000Y-72200000D01*
X205490000Y-72200000D02*
X198370000Y-72200000D01*
X198370000Y-72200000D02*
X198120000Y-71670000D01*
X205490000Y-70670000D02*
X205490000Y-71670000D01*
X198370000Y-70670000D02*
X198370000Y-71670000D01*
X206540000Y-76690000D02*
X206540000Y-76090000D01*
X206540000Y-76090000D02*
X204940000Y-76090000D01*
X204940000Y-76090000D02*
X204940000Y-76690000D01*
X204000000Y-76690000D02*
X204000000Y-76090000D01*
X204000000Y-76090000D02*
X202400000Y-76090000D01*
X202400000Y-76090000D02*
X202400000Y-76690000D01*
X201460000Y-76690000D02*
X201460000Y-76090000D01*
X201460000Y-76090000D02*
X199860000Y-76090000D01*
X199860000Y-76090000D02*
X199860000Y-76690000D01*
X198920000Y-76690000D02*
X198920000Y-76090000D01*
X198920000Y-76090000D02*
X197320000Y-76090000D01*
X197320000Y-76090000D02*
X197320000Y-76690000D01*
G04 #@! TO.C,J12*
X193150000Y-76690000D02*
X193150000Y-70670000D01*
X193150000Y-70670000D02*
X182770000Y-70670000D01*
X182770000Y-70670000D02*
X182770000Y-76690000D01*
X182770000Y-76690000D02*
X193150000Y-76690000D01*
X193440000Y-75660000D02*
X193440000Y-71660000D01*
X191770000Y-70670000D02*
X191770000Y-71670000D01*
X191770000Y-71670000D02*
X184150000Y-71670000D01*
X184150000Y-71670000D02*
X184150000Y-70670000D01*
X191770000Y-71670000D02*
X191520000Y-72200000D01*
X191520000Y-72200000D02*
X184400000Y-72200000D01*
X184400000Y-72200000D02*
X184150000Y-71670000D01*
X191520000Y-70670000D02*
X191520000Y-71670000D01*
X184400000Y-70670000D02*
X184400000Y-71670000D01*
X192570000Y-76690000D02*
X192570000Y-76090000D01*
X192570000Y-76090000D02*
X190970000Y-76090000D01*
X190970000Y-76090000D02*
X190970000Y-76690000D01*
X190030000Y-76690000D02*
X190030000Y-76090000D01*
X190030000Y-76090000D02*
X188430000Y-76090000D01*
X188430000Y-76090000D02*
X188430000Y-76690000D01*
X187490000Y-76690000D02*
X187490000Y-76090000D01*
X187490000Y-76090000D02*
X185890000Y-76090000D01*
X185890000Y-76090000D02*
X185890000Y-76690000D01*
X184950000Y-76690000D02*
X184950000Y-76090000D01*
X184950000Y-76090000D02*
X183350000Y-76090000D01*
X183350000Y-76090000D02*
X183350000Y-76690000D01*
G04 #@! TO.C,J11*
X212200000Y-115425000D02*
X212200000Y-109405000D01*
X212200000Y-109405000D02*
X204360000Y-109405000D01*
X204360000Y-109405000D02*
X204360000Y-115425000D01*
X204360000Y-115425000D02*
X212200000Y-115425000D01*
X212490000Y-114395000D02*
X212490000Y-110395000D01*
X210820000Y-109405000D02*
X210820000Y-110405000D01*
X210820000Y-110405000D02*
X205740000Y-110405000D01*
X205740000Y-110405000D02*
X205740000Y-109405000D01*
X210820000Y-110405000D02*
X210570000Y-110935000D01*
X210570000Y-110935000D02*
X205990000Y-110935000D01*
X205990000Y-110935000D02*
X205740000Y-110405000D01*
X210570000Y-109405000D02*
X210570000Y-110405000D01*
X205990000Y-109405000D02*
X205990000Y-110405000D01*
X211620000Y-115425000D02*
X211620000Y-114825000D01*
X211620000Y-114825000D02*
X210020000Y-114825000D01*
X210020000Y-114825000D02*
X210020000Y-115425000D01*
X209080000Y-115425000D02*
X209080000Y-114825000D01*
X209080000Y-114825000D02*
X207480000Y-114825000D01*
X207480000Y-114825000D02*
X207480000Y-115425000D01*
X206540000Y-115425000D02*
X206540000Y-114825000D01*
X206540000Y-114825000D02*
X204940000Y-114825000D01*
X204940000Y-114825000D02*
X204940000Y-115425000D01*
G04 #@! TO.C,R10*
X229335000Y-110490000D02*
G75*
G03X229335000Y-110490000I-1370000J0D01*
G01*
X229335000Y-110490000D02*
X229405000Y-110490000D01*
G04 #@! TO.C,R8*
X236955000Y-110490000D02*
G75*
G03X236955000Y-110490000I-1370000J0D01*
G01*
X234215000Y-110490000D02*
X234145000Y-110490000D01*
G04 #@! TO.C,R9*
X229335000Y-113665000D02*
X229405000Y-113665000D01*
X229335000Y-113665000D02*
G75*
G03X229335000Y-113665000I-1370000J0D01*
G01*
G04 #@! TO.C,R7*
X236955000Y-113665000D02*
G75*
G03X236955000Y-113665000I-1370000J0D01*
G01*
X234215000Y-113665000D02*
X234145000Y-113665000D01*
G04 #@! TO.C,J10*
X225535000Y-115425000D02*
X225535000Y-109405000D01*
X225535000Y-109405000D02*
X215155000Y-109405000D01*
X215155000Y-109405000D02*
X215155000Y-115425000D01*
X215155000Y-115425000D02*
X225535000Y-115425000D01*
X225825000Y-114395000D02*
X225825000Y-110395000D01*
X224155000Y-109405000D02*
X224155000Y-110405000D01*
X224155000Y-110405000D02*
X216535000Y-110405000D01*
X216535000Y-110405000D02*
X216535000Y-109405000D01*
X224155000Y-110405000D02*
X223905000Y-110935000D01*
X223905000Y-110935000D02*
X216785000Y-110935000D01*
X216785000Y-110935000D02*
X216535000Y-110405000D01*
X223905000Y-109405000D02*
X223905000Y-110405000D01*
X216785000Y-109405000D02*
X216785000Y-110405000D01*
X224955000Y-115425000D02*
X224955000Y-114825000D01*
X224955000Y-114825000D02*
X223355000Y-114825000D01*
X223355000Y-114825000D02*
X223355000Y-115425000D01*
X222415000Y-115425000D02*
X222415000Y-114825000D01*
X222415000Y-114825000D02*
X220815000Y-114825000D01*
X220815000Y-114825000D02*
X220815000Y-115425000D01*
X219875000Y-115425000D02*
X219875000Y-114825000D01*
X219875000Y-114825000D02*
X218275000Y-114825000D01*
X218275000Y-114825000D02*
X218275000Y-115425000D01*
X217335000Y-115425000D02*
X217335000Y-114825000D01*
X217335000Y-114825000D02*
X215735000Y-114825000D01*
X215735000Y-114825000D02*
X215735000Y-115425000D01*
G04 #@! TO.C,J4*
X231885000Y-76690000D02*
X231885000Y-70670000D01*
X231885000Y-70670000D02*
X211345000Y-70670000D01*
X211345000Y-70670000D02*
X211345000Y-76690000D01*
X211345000Y-76690000D02*
X231885000Y-76690000D01*
X232175000Y-75660000D02*
X232175000Y-71660000D01*
X230505000Y-70670000D02*
X230505000Y-71670000D01*
X230505000Y-71670000D02*
X225425000Y-71670000D01*
X225425000Y-71670000D02*
X225425000Y-70670000D01*
X230505000Y-71670000D02*
X230255000Y-72200000D01*
X230255000Y-72200000D02*
X225425000Y-72200000D01*
X225425000Y-72200000D02*
X225425000Y-71670000D01*
X230255000Y-70670000D02*
X230255000Y-71670000D01*
X212725000Y-70670000D02*
X212725000Y-71670000D01*
X212725000Y-71670000D02*
X217805000Y-71670000D01*
X217805000Y-71670000D02*
X217805000Y-70670000D01*
X212725000Y-71670000D02*
X212975000Y-72200000D01*
X212975000Y-72200000D02*
X217805000Y-72200000D01*
X217805000Y-72200000D02*
X217805000Y-71670000D01*
X212975000Y-70670000D02*
X212975000Y-71670000D01*
X231305000Y-76690000D02*
X231305000Y-76090000D01*
X231305000Y-76090000D02*
X229705000Y-76090000D01*
X229705000Y-76090000D02*
X229705000Y-76690000D01*
X228765000Y-76690000D02*
X228765000Y-76090000D01*
X228765000Y-76090000D02*
X227165000Y-76090000D01*
X227165000Y-76090000D02*
X227165000Y-76690000D01*
X226225000Y-76690000D02*
X226225000Y-76090000D01*
X226225000Y-76090000D02*
X224625000Y-76090000D01*
X224625000Y-76090000D02*
X224625000Y-76690000D01*
X223685000Y-76690000D02*
X223685000Y-76090000D01*
X223685000Y-76090000D02*
X222085000Y-76090000D01*
X222085000Y-76090000D02*
X222085000Y-76690000D01*
X221145000Y-76690000D02*
X221145000Y-76090000D01*
X221145000Y-76090000D02*
X219545000Y-76090000D01*
X219545000Y-76090000D02*
X219545000Y-76690000D01*
X218605000Y-76690000D02*
X218605000Y-76090000D01*
X218605000Y-76090000D02*
X217005000Y-76090000D01*
X217005000Y-76090000D02*
X217005000Y-76690000D01*
X216065000Y-76690000D02*
X216065000Y-76090000D01*
X216065000Y-76090000D02*
X214465000Y-76090000D01*
X214465000Y-76090000D02*
X214465000Y-76690000D01*
X213525000Y-76690000D02*
X213525000Y-76090000D01*
X213525000Y-76090000D02*
X211925000Y-76090000D01*
X211925000Y-76090000D02*
X211925000Y-76690000D01*
G04 #@! TO.C,J3*
X207120000Y-86215000D02*
X207120000Y-80195000D01*
X207120000Y-80195000D02*
X199280000Y-80195000D01*
X199280000Y-80195000D02*
X199280000Y-86215000D01*
X199280000Y-86215000D02*
X207120000Y-86215000D01*
X207410000Y-85185000D02*
X207410000Y-81185000D01*
X205740000Y-80195000D02*
X205740000Y-81195000D01*
X205740000Y-81195000D02*
X200660000Y-81195000D01*
X200660000Y-81195000D02*
X200660000Y-80195000D01*
X205740000Y-81195000D02*
X205490000Y-81725000D01*
X205490000Y-81725000D02*
X200910000Y-81725000D01*
X200910000Y-81725000D02*
X200660000Y-81195000D01*
X205490000Y-80195000D02*
X205490000Y-81195000D01*
X200910000Y-80195000D02*
X200910000Y-81195000D01*
X206540000Y-86215000D02*
X206540000Y-85615000D01*
X206540000Y-85615000D02*
X204940000Y-85615000D01*
X204940000Y-85615000D02*
X204940000Y-86215000D01*
X204000000Y-86215000D02*
X204000000Y-85615000D01*
X204000000Y-85615000D02*
X202400000Y-85615000D01*
X202400000Y-85615000D02*
X202400000Y-86215000D01*
X201460000Y-86215000D02*
X201460000Y-85615000D01*
X201460000Y-85615000D02*
X199860000Y-85615000D01*
X199860000Y-85615000D02*
X199860000Y-86215000D01*
G04 #@! TO.C,J6*
X185890000Y-104030000D02*
X185890000Y-104630000D01*
X187490000Y-104030000D02*
X185890000Y-104030000D01*
X187490000Y-104630000D02*
X187490000Y-104030000D01*
X188430000Y-104030000D02*
X188430000Y-104630000D01*
X190030000Y-104030000D02*
X188430000Y-104030000D01*
X190030000Y-104630000D02*
X190030000Y-104030000D01*
X190970000Y-104030000D02*
X190970000Y-104630000D01*
X192570000Y-104030000D02*
X190970000Y-104030000D01*
X192570000Y-104630000D02*
X192570000Y-104030000D01*
X186940000Y-98610000D02*
X186940000Y-99610000D01*
X191520000Y-98610000D02*
X191520000Y-99610000D01*
X186940000Y-100140000D02*
X186690000Y-99610000D01*
X191520000Y-100140000D02*
X186940000Y-100140000D01*
X191770000Y-99610000D02*
X191520000Y-100140000D01*
X186690000Y-99610000D02*
X186690000Y-98610000D01*
X191770000Y-99610000D02*
X186690000Y-99610000D01*
X191770000Y-98610000D02*
X191770000Y-99610000D01*
X193440000Y-103600000D02*
X193440000Y-99600000D01*
X185310000Y-104630000D02*
X193150000Y-104630000D01*
X185310000Y-98610000D02*
X185310000Y-104630000D01*
X193150000Y-98610000D02*
X185310000Y-98610000D01*
X193150000Y-104630000D02*
X193150000Y-98610000D01*
G04 #@! TO.C,J7*
X207120000Y-95105000D02*
X207120000Y-89085000D01*
X207120000Y-89085000D02*
X199280000Y-89085000D01*
X199280000Y-89085000D02*
X199280000Y-95105000D01*
X199280000Y-95105000D02*
X207120000Y-95105000D01*
X207410000Y-94075000D02*
X207410000Y-90075000D01*
X205740000Y-89085000D02*
X205740000Y-90085000D01*
X205740000Y-90085000D02*
X200660000Y-90085000D01*
X200660000Y-90085000D02*
X200660000Y-89085000D01*
X205740000Y-90085000D02*
X205490000Y-90615000D01*
X205490000Y-90615000D02*
X200910000Y-90615000D01*
X200910000Y-90615000D02*
X200660000Y-90085000D01*
X205490000Y-89085000D02*
X205490000Y-90085000D01*
X200910000Y-89085000D02*
X200910000Y-90085000D01*
X206540000Y-95105000D02*
X206540000Y-94505000D01*
X206540000Y-94505000D02*
X204940000Y-94505000D01*
X204940000Y-94505000D02*
X204940000Y-95105000D01*
X204000000Y-95105000D02*
X204000000Y-94505000D01*
X204000000Y-94505000D02*
X202400000Y-94505000D01*
X202400000Y-94505000D02*
X202400000Y-95105000D01*
X201460000Y-95105000D02*
X201460000Y-94505000D01*
X201460000Y-94505000D02*
X199860000Y-94505000D01*
X199860000Y-94505000D02*
X199860000Y-95105000D01*
G04 #@! TO.C,J8*
X199860000Y-104030000D02*
X199860000Y-104630000D01*
X201460000Y-104030000D02*
X199860000Y-104030000D01*
X201460000Y-104630000D02*
X201460000Y-104030000D01*
X202400000Y-104030000D02*
X202400000Y-104630000D01*
X204000000Y-104030000D02*
X202400000Y-104030000D01*
X204000000Y-104630000D02*
X204000000Y-104030000D01*
X204940000Y-104030000D02*
X204940000Y-104630000D01*
X206540000Y-104030000D02*
X204940000Y-104030000D01*
X206540000Y-104630000D02*
X206540000Y-104030000D01*
X200910000Y-98610000D02*
X200910000Y-99610000D01*
X205490000Y-98610000D02*
X205490000Y-99610000D01*
X200910000Y-100140000D02*
X200660000Y-99610000D01*
X205490000Y-100140000D02*
X200910000Y-100140000D01*
X205740000Y-99610000D02*
X205490000Y-100140000D01*
X200660000Y-99610000D02*
X200660000Y-98610000D01*
X205740000Y-99610000D02*
X200660000Y-99610000D01*
X205740000Y-98610000D02*
X205740000Y-99610000D01*
X207410000Y-103600000D02*
X207410000Y-99600000D01*
X199280000Y-104630000D02*
X207120000Y-104630000D01*
X199280000Y-98610000D02*
X199280000Y-104630000D01*
X207120000Y-98610000D02*
X199280000Y-98610000D01*
X207120000Y-104630000D02*
X207120000Y-98610000D01*
G04 #@! TO.C,J2*
X193150000Y-86215000D02*
X193150000Y-80195000D01*
X193150000Y-80195000D02*
X185310000Y-80195000D01*
X185310000Y-80195000D02*
X185310000Y-86215000D01*
X185310000Y-86215000D02*
X193150000Y-86215000D01*
X193440000Y-85185000D02*
X193440000Y-81185000D01*
X191770000Y-80195000D02*
X191770000Y-81195000D01*
X191770000Y-81195000D02*
X186690000Y-81195000D01*
X186690000Y-81195000D02*
X186690000Y-80195000D01*
X191770000Y-81195000D02*
X191520000Y-81725000D01*
X191520000Y-81725000D02*
X186940000Y-81725000D01*
X186940000Y-81725000D02*
X186690000Y-81195000D01*
X191520000Y-80195000D02*
X191520000Y-81195000D01*
X186940000Y-80195000D02*
X186940000Y-81195000D01*
X192570000Y-86215000D02*
X192570000Y-85615000D01*
X192570000Y-85615000D02*
X190970000Y-85615000D01*
X190970000Y-85615000D02*
X190970000Y-86215000D01*
X190030000Y-86215000D02*
X190030000Y-85615000D01*
X190030000Y-85615000D02*
X188430000Y-85615000D01*
X188430000Y-85615000D02*
X188430000Y-86215000D01*
X187490000Y-86215000D02*
X187490000Y-85615000D01*
X187490000Y-85615000D02*
X185890000Y-85615000D01*
X185890000Y-85615000D02*
X185890000Y-86215000D01*
G04 #@! TO.C,J1*
X200770000Y-115425000D02*
X200770000Y-109405000D01*
X200770000Y-109405000D02*
X185310000Y-109405000D01*
X185310000Y-109405000D02*
X185310000Y-115425000D01*
X185310000Y-115425000D02*
X200770000Y-115425000D01*
X201060000Y-114395000D02*
X201060000Y-110395000D01*
X199390000Y-109405000D02*
X199390000Y-110405000D01*
X199390000Y-110405000D02*
X186690000Y-110405000D01*
X186690000Y-110405000D02*
X186690000Y-109405000D01*
X199390000Y-110405000D02*
X199140000Y-110935000D01*
X199140000Y-110935000D02*
X186940000Y-110935000D01*
X186940000Y-110935000D02*
X186690000Y-110405000D01*
X199140000Y-109405000D02*
X199140000Y-110405000D01*
X186940000Y-109405000D02*
X186940000Y-110405000D01*
X200190000Y-115425000D02*
X200190000Y-114825000D01*
X200190000Y-114825000D02*
X198590000Y-114825000D01*
X198590000Y-114825000D02*
X198590000Y-115425000D01*
X197650000Y-115425000D02*
X197650000Y-114825000D01*
X197650000Y-114825000D02*
X196050000Y-114825000D01*
X196050000Y-114825000D02*
X196050000Y-115425000D01*
X195110000Y-115425000D02*
X195110000Y-114825000D01*
X195110000Y-114825000D02*
X193510000Y-114825000D01*
X193510000Y-114825000D02*
X193510000Y-115425000D01*
X192570000Y-115425000D02*
X192570000Y-114825000D01*
X192570000Y-114825000D02*
X190970000Y-114825000D01*
X190970000Y-114825000D02*
X190970000Y-115425000D01*
X190030000Y-115425000D02*
X190030000Y-114825000D01*
X190030000Y-114825000D02*
X188430000Y-114825000D01*
X188430000Y-114825000D02*
X188430000Y-115425000D01*
X187490000Y-115425000D02*
X187490000Y-114825000D01*
X187490000Y-114825000D02*
X185890000Y-114825000D01*
X185890000Y-114825000D02*
X185890000Y-115425000D01*
G04 #@! TO.C,J5*
X193150000Y-95105000D02*
X193150000Y-89085000D01*
X193150000Y-89085000D02*
X185310000Y-89085000D01*
X185310000Y-89085000D02*
X185310000Y-95105000D01*
X185310000Y-95105000D02*
X193150000Y-95105000D01*
X193440000Y-94075000D02*
X193440000Y-90075000D01*
X191770000Y-89085000D02*
X191770000Y-90085000D01*
X191770000Y-90085000D02*
X186690000Y-90085000D01*
X186690000Y-90085000D02*
X186690000Y-89085000D01*
X191770000Y-90085000D02*
X191520000Y-90615000D01*
X191520000Y-90615000D02*
X186940000Y-90615000D01*
X186940000Y-90615000D02*
X186690000Y-90085000D01*
X191520000Y-89085000D02*
X191520000Y-90085000D01*
X186940000Y-89085000D02*
X186940000Y-90085000D01*
X192570000Y-95105000D02*
X192570000Y-94505000D01*
X192570000Y-94505000D02*
X190970000Y-94505000D01*
X190970000Y-94505000D02*
X190970000Y-95105000D01*
X190030000Y-95105000D02*
X190030000Y-94505000D01*
X190030000Y-94505000D02*
X188430000Y-94505000D01*
X188430000Y-94505000D02*
X188430000Y-95105000D01*
X187490000Y-95105000D02*
X187490000Y-94505000D01*
X187490000Y-94505000D02*
X185890000Y-94505000D01*
X185890000Y-94505000D02*
X185890000Y-95105000D01*
G04 #@! TO.C,U2*
X213935000Y-80535000D02*
X213935000Y-82185000D01*
X219135000Y-80535000D02*
X213935000Y-80535000D01*
X219135000Y-85835000D02*
X219135000Y-80535000D01*
X213935000Y-85835000D02*
X219135000Y-85835000D01*
X213935000Y-84185000D02*
X213935000Y-85835000D01*
X213935000Y-82185000D02*
G75*
G02X213935000Y-84185000I0J-1000000D01*
G01*
G04 #@! TO.C,U1*
X224095000Y-82185000D02*
G75*
G02X224095000Y-84185000I0J-1000000D01*
G01*
X224095000Y-84185000D02*
X224095000Y-85835000D01*
X224095000Y-85835000D02*
X229295000Y-85835000D01*
X229295000Y-85835000D02*
X229295000Y-80535000D01*
X229295000Y-80535000D02*
X224095000Y-80535000D01*
X224095000Y-80535000D02*
X224095000Y-82185000D01*
G04 #@! TO.C,ICSP*
X138497000Y-97850000D02*
X143697000Y-97850000D01*
X138497000Y-92710000D02*
X138497000Y-97850000D01*
X143697000Y-90110000D02*
X143697000Y-97850000D01*
X138497000Y-92710000D02*
X141097000Y-92710000D01*
X141097000Y-92710000D02*
X141097000Y-90110000D01*
X141097000Y-90110000D02*
X143697000Y-90110000D01*
X138497000Y-91440000D02*
X138497000Y-90110000D01*
X138497000Y-90110000D02*
X139827000Y-90110000D01*
G04 #@! TD*
G04 #@! TO.C,XA1*
D10*
X138684000Y-90273142D02*
X138731619Y-90320761D01*
X138684000Y-90368380D01*
X138636380Y-90320761D01*
X138684000Y-90273142D01*
X138684000Y-90368380D01*
G04 #@! TO.C,*
G04 #@! TO.C,J16*
X148622380Y-103314523D02*
X149336666Y-103314523D01*
X149479523Y-103362142D01*
X149574761Y-103457380D01*
X149622380Y-103600238D01*
X149622380Y-103695476D01*
X149622380Y-102314523D02*
X149622380Y-102885952D01*
X149622380Y-102600238D02*
X148622380Y-102600238D01*
X148765238Y-102695476D01*
X148860476Y-102790714D01*
X148908095Y-102885952D01*
X148622380Y-101457380D02*
X148622380Y-101647857D01*
X148670000Y-101743095D01*
X148717619Y-101790714D01*
X148860476Y-101885952D01*
X149050952Y-101933571D01*
X149431904Y-101933571D01*
X149527142Y-101885952D01*
X149574761Y-101838333D01*
X149622380Y-101743095D01*
X149622380Y-101552619D01*
X149574761Y-101457380D01*
X149527142Y-101409761D01*
X149431904Y-101362142D01*
X149193809Y-101362142D01*
X149098571Y-101409761D01*
X149050952Y-101457380D01*
X149003333Y-101552619D01*
X149003333Y-101743095D01*
X149050952Y-101838333D01*
X149098571Y-101885952D01*
X149193809Y-101933571D01*
G04 #@! TO.C,J15*
X159417380Y-103314523D02*
X160131666Y-103314523D01*
X160274523Y-103362142D01*
X160369761Y-103457380D01*
X160417380Y-103600238D01*
X160417380Y-103695476D01*
X160417380Y-102314523D02*
X160417380Y-102885952D01*
X160417380Y-102600238D02*
X159417380Y-102600238D01*
X159560238Y-102695476D01*
X159655476Y-102790714D01*
X159703095Y-102885952D01*
X159417380Y-101409761D02*
X159417380Y-101885952D01*
X159893571Y-101933571D01*
X159845952Y-101885952D01*
X159798333Y-101790714D01*
X159798333Y-101552619D01*
X159845952Y-101457380D01*
X159893571Y-101409761D01*
X159988809Y-101362142D01*
X160226904Y-101362142D01*
X160322142Y-101409761D01*
X160369761Y-101457380D01*
X160417380Y-101552619D01*
X160417380Y-101790714D01*
X160369761Y-101885952D01*
X160322142Y-101933571D01*
G04 #@! TO.C,JP1*
X232971666Y-100522380D02*
X232971666Y-101236666D01*
X232924047Y-101379523D01*
X232828809Y-101474761D01*
X232685952Y-101522380D01*
X232590714Y-101522380D01*
X233447857Y-101522380D02*
X233447857Y-100522380D01*
X233828809Y-100522380D01*
X233924047Y-100570000D01*
X233971666Y-100617619D01*
X234019285Y-100712857D01*
X234019285Y-100855714D01*
X233971666Y-100950952D01*
X233924047Y-100998571D01*
X233828809Y-101046190D01*
X233447857Y-101046190D01*
X234971666Y-101522380D02*
X234400238Y-101522380D01*
X234685952Y-101522380D02*
X234685952Y-100522380D01*
X234590714Y-100665238D01*
X234495476Y-100760476D01*
X234400238Y-100808095D01*
X233024047Y-103222380D02*
X232452619Y-103222380D01*
X232738333Y-103222380D02*
X232738333Y-102222380D01*
X232643095Y-102365238D01*
X232547857Y-102460476D01*
X232452619Y-102508095D01*
X233405000Y-102317619D02*
X233452619Y-102270000D01*
X233547857Y-102222380D01*
X233785952Y-102222380D01*
X233881190Y-102270000D01*
X233928809Y-102317619D01*
X233976428Y-102412857D01*
X233976428Y-102508095D01*
X233928809Y-102650952D01*
X233357380Y-103222380D01*
X233976428Y-103222380D01*
X234262142Y-102222380D02*
X234595476Y-103222380D01*
X234928809Y-102222380D01*
X235024047Y-103317619D02*
X235785952Y-103317619D01*
X236405000Y-103174761D02*
X236309761Y-103222380D01*
X236119285Y-103222380D01*
X236024047Y-103174761D01*
X235976428Y-103079523D01*
X235976428Y-102698571D01*
X236024047Y-102603333D01*
X236119285Y-102555714D01*
X236309761Y-102555714D01*
X236405000Y-102603333D01*
X236452619Y-102698571D01*
X236452619Y-102793809D01*
X235976428Y-102889047D01*
X236881190Y-102555714D02*
X236881190Y-103222380D01*
X236881190Y-102650952D02*
X236928809Y-102603333D01*
X237024047Y-102555714D01*
X237166904Y-102555714D01*
X237262142Y-102603333D01*
X237309761Y-102698571D01*
X237309761Y-103222380D01*
G04 #@! TO.C,J14*
X214455476Y-105172380D02*
X214455476Y-105886666D01*
X214407857Y-106029523D01*
X214312619Y-106124761D01*
X214169761Y-106172380D01*
X214074523Y-106172380D01*
X215455476Y-106172380D02*
X214884047Y-106172380D01*
X215169761Y-106172380D02*
X215169761Y-105172380D01*
X215074523Y-105315238D01*
X214979285Y-105410476D01*
X214884047Y-105458095D01*
X216312619Y-105505714D02*
X216312619Y-106172380D01*
X216074523Y-105124761D02*
X215836428Y-105839047D01*
X216455476Y-105839047D01*
X213169523Y-96972380D02*
X212693333Y-96972380D01*
X212645714Y-97448571D01*
X212693333Y-97400952D01*
X212788571Y-97353333D01*
X213026666Y-97353333D01*
X213121904Y-97400952D01*
X213169523Y-97448571D01*
X213217142Y-97543809D01*
X213217142Y-97781904D01*
X213169523Y-97877142D01*
X213121904Y-97924761D01*
X213026666Y-97972380D01*
X212788571Y-97972380D01*
X212693333Y-97924761D01*
X212645714Y-97877142D01*
X213502857Y-96972380D02*
X213836190Y-97972380D01*
X214169523Y-96972380D01*
G04 #@! TO.C,J9*
X224456666Y-105172380D02*
X224456666Y-105886666D01*
X224409047Y-106029523D01*
X224313809Y-106124761D01*
X224170952Y-106172380D01*
X224075714Y-106172380D01*
X224980476Y-106172380D02*
X225170952Y-106172380D01*
X225266190Y-106124761D01*
X225313809Y-106077142D01*
X225409047Y-105934285D01*
X225456666Y-105743809D01*
X225456666Y-105362857D01*
X225409047Y-105267619D01*
X225361428Y-105220000D01*
X225266190Y-105172380D01*
X225075714Y-105172380D01*
X224980476Y-105220000D01*
X224932857Y-105267619D01*
X224885238Y-105362857D01*
X224885238Y-105600952D01*
X224932857Y-105696190D01*
X224980476Y-105743809D01*
X225075714Y-105791428D01*
X225266190Y-105791428D01*
X225361428Y-105743809D01*
X225409047Y-105696190D01*
X225456666Y-105600952D01*
X222392952Y-97972380D02*
X221821523Y-97972380D01*
X222107238Y-97972380D02*
X222107238Y-96972380D01*
X222012000Y-97115238D01*
X221916761Y-97210476D01*
X221821523Y-97258095D01*
X222773904Y-97067619D02*
X222821523Y-97020000D01*
X222916761Y-96972380D01*
X223154857Y-96972380D01*
X223250095Y-97020000D01*
X223297714Y-97067619D01*
X223345333Y-97162857D01*
X223345333Y-97258095D01*
X223297714Y-97400952D01*
X222726285Y-97972380D01*
X223345333Y-97972380D01*
X223631047Y-96972380D02*
X223964380Y-97972380D01*
X224297714Y-96972380D01*
G04 #@! TO.C,R4*
X196683333Y-98877380D02*
X196350000Y-98401190D01*
X196111904Y-98877380D02*
X196111904Y-97877380D01*
X196492857Y-97877380D01*
X196588095Y-97925000D01*
X196635714Y-97972619D01*
X196683333Y-98067857D01*
X196683333Y-98210714D01*
X196635714Y-98305952D01*
X196588095Y-98353571D01*
X196492857Y-98401190D01*
X196111904Y-98401190D01*
X197540476Y-98210714D02*
X197540476Y-98877380D01*
X197302380Y-97829761D02*
X197064285Y-98544047D01*
X197683333Y-98544047D01*
G04 #@! TO.C,R2*
X179919333Y-102052380D02*
X179586000Y-101576190D01*
X179347904Y-102052380D02*
X179347904Y-101052380D01*
X179728857Y-101052380D01*
X179824095Y-101100000D01*
X179871714Y-101147619D01*
X179919333Y-101242857D01*
X179919333Y-101385714D01*
X179871714Y-101480952D01*
X179824095Y-101528571D01*
X179728857Y-101576190D01*
X179347904Y-101576190D01*
X180300285Y-101147619D02*
X180347904Y-101100000D01*
X180443142Y-101052380D01*
X180681238Y-101052380D01*
X180776476Y-101100000D01*
X180824095Y-101147619D01*
X180871714Y-101242857D01*
X180871714Y-101338095D01*
X180824095Y-101480952D01*
X180252666Y-102052380D01*
X180871714Y-102052380D01*
G04 #@! TO.C,R3*
X196683333Y-89352380D02*
X196350000Y-88876190D01*
X196111904Y-89352380D02*
X196111904Y-88352380D01*
X196492857Y-88352380D01*
X196588095Y-88400000D01*
X196635714Y-88447619D01*
X196683333Y-88542857D01*
X196683333Y-88685714D01*
X196635714Y-88780952D01*
X196588095Y-88828571D01*
X196492857Y-88876190D01*
X196111904Y-88876190D01*
X197016666Y-88352380D02*
X197635714Y-88352380D01*
X197302380Y-88733333D01*
X197445238Y-88733333D01*
X197540476Y-88780952D01*
X197588095Y-88828571D01*
X197635714Y-88923809D01*
X197635714Y-89161904D01*
X197588095Y-89257142D01*
X197540476Y-89304761D01*
X197445238Y-89352380D01*
X197159523Y-89352380D01*
X197064285Y-89304761D01*
X197016666Y-89257142D01*
G04 #@! TO.C,R1*
X179919333Y-92654380D02*
X179586000Y-92178190D01*
X179347904Y-92654380D02*
X179347904Y-91654380D01*
X179728857Y-91654380D01*
X179824095Y-91702000D01*
X179871714Y-91749619D01*
X179919333Y-91844857D01*
X179919333Y-91987714D01*
X179871714Y-92082952D01*
X179824095Y-92130571D01*
X179728857Y-92178190D01*
X179347904Y-92178190D01*
X180871714Y-92654380D02*
X180300285Y-92654380D01*
X180586000Y-92654380D02*
X180586000Y-91654380D01*
X180490761Y-91797238D01*
X180395523Y-91892476D01*
X180300285Y-91940095D01*
G04 #@! TO.C,R6*
X220178333Y-91892380D02*
X219845000Y-91416190D01*
X219606904Y-91892380D02*
X219606904Y-90892380D01*
X219987857Y-90892380D01*
X220083095Y-90940000D01*
X220130714Y-90987619D01*
X220178333Y-91082857D01*
X220178333Y-91225714D01*
X220130714Y-91320952D01*
X220083095Y-91368571D01*
X219987857Y-91416190D01*
X219606904Y-91416190D01*
X221035476Y-90892380D02*
X220845000Y-90892380D01*
X220749761Y-90940000D01*
X220702142Y-90987619D01*
X220606904Y-91130476D01*
X220559285Y-91320952D01*
X220559285Y-91701904D01*
X220606904Y-91797142D01*
X220654523Y-91844761D01*
X220749761Y-91892380D01*
X220940238Y-91892380D01*
X221035476Y-91844761D01*
X221083095Y-91797142D01*
X221130714Y-91701904D01*
X221130714Y-91463809D01*
X221083095Y-91368571D01*
X221035476Y-91320952D01*
X220940238Y-91273333D01*
X220749761Y-91273333D01*
X220654523Y-91320952D01*
X220606904Y-91368571D01*
X220559285Y-91463809D01*
G04 #@! TO.C,R5*
X230338333Y-91892380D02*
X230005000Y-91416190D01*
X229766904Y-91892380D02*
X229766904Y-90892380D01*
X230147857Y-90892380D01*
X230243095Y-90940000D01*
X230290714Y-90987619D01*
X230338333Y-91082857D01*
X230338333Y-91225714D01*
X230290714Y-91320952D01*
X230243095Y-91368571D01*
X230147857Y-91416190D01*
X229766904Y-91416190D01*
X231243095Y-90892380D02*
X230766904Y-90892380D01*
X230719285Y-91368571D01*
X230766904Y-91320952D01*
X230862142Y-91273333D01*
X231100238Y-91273333D01*
X231195476Y-91320952D01*
X231243095Y-91368571D01*
X231290714Y-91463809D01*
X231290714Y-91701904D01*
X231243095Y-91797142D01*
X231195476Y-91844761D01*
X231100238Y-91892380D01*
X230862142Y-91892380D01*
X230766904Y-91844761D01*
X230719285Y-91797142D01*
G04 #@! TO.C,J13*
X201120476Y-69302380D02*
X201120476Y-70016666D01*
X201072857Y-70159523D01*
X200977619Y-70254761D01*
X200834761Y-70302380D01*
X200739523Y-70302380D01*
X202120476Y-70302380D02*
X201549047Y-70302380D01*
X201834761Y-70302380D02*
X201834761Y-69302380D01*
X201739523Y-69445238D01*
X201644285Y-69540476D01*
X201549047Y-69588095D01*
X202453809Y-69302380D02*
X203072857Y-69302380D01*
X202739523Y-69683333D01*
X202882380Y-69683333D01*
X202977619Y-69730952D01*
X203025238Y-69778571D01*
X203072857Y-69873809D01*
X203072857Y-70111904D01*
X203025238Y-70207142D01*
X202977619Y-70254761D01*
X202882380Y-70302380D01*
X202596666Y-70302380D01*
X202501428Y-70254761D01*
X202453809Y-70207142D01*
X201259523Y-78317142D02*
X201211904Y-78364761D01*
X201069047Y-78412380D01*
X200973809Y-78412380D01*
X200830952Y-78364761D01*
X200735714Y-78269523D01*
X200688095Y-78174285D01*
X200640476Y-77983809D01*
X200640476Y-77840952D01*
X200688095Y-77650476D01*
X200735714Y-77555238D01*
X200830952Y-77460000D01*
X200973809Y-77412380D01*
X201069047Y-77412380D01*
X201211904Y-77460000D01*
X201259523Y-77507619D01*
X201878571Y-77412380D02*
X202069047Y-77412380D01*
X202164285Y-77460000D01*
X202259523Y-77555238D01*
X202307142Y-77745714D01*
X202307142Y-78079047D01*
X202259523Y-78269523D01*
X202164285Y-78364761D01*
X202069047Y-78412380D01*
X201878571Y-78412380D01*
X201783333Y-78364761D01*
X201688095Y-78269523D01*
X201640476Y-78079047D01*
X201640476Y-77745714D01*
X201688095Y-77555238D01*
X201783333Y-77460000D01*
X201878571Y-77412380D01*
X202688095Y-77507619D02*
X202735714Y-77460000D01*
X202830952Y-77412380D01*
X203069047Y-77412380D01*
X203164285Y-77460000D01*
X203211904Y-77507619D01*
X203259523Y-77602857D01*
X203259523Y-77698095D01*
X203211904Y-77840952D01*
X202640476Y-78412380D01*
X203259523Y-78412380D01*
G04 #@! TO.C,J12*
X187150476Y-69302380D02*
X187150476Y-70016666D01*
X187102857Y-70159523D01*
X187007619Y-70254761D01*
X186864761Y-70302380D01*
X186769523Y-70302380D01*
X188150476Y-70302380D02*
X187579047Y-70302380D01*
X187864761Y-70302380D02*
X187864761Y-69302380D01*
X187769523Y-69445238D01*
X187674285Y-69540476D01*
X187579047Y-69588095D01*
X188531428Y-69397619D02*
X188579047Y-69350000D01*
X188674285Y-69302380D01*
X188912380Y-69302380D01*
X189007619Y-69350000D01*
X189055238Y-69397619D01*
X189102857Y-69492857D01*
X189102857Y-69588095D01*
X189055238Y-69730952D01*
X188483809Y-70302380D01*
X189102857Y-70302380D01*
X187003809Y-78342380D02*
X187003809Y-77342380D01*
X187432380Y-77437619D02*
X187480000Y-77390000D01*
X187575238Y-77342380D01*
X187813333Y-77342380D01*
X187908571Y-77390000D01*
X187956190Y-77437619D01*
X188003809Y-77532857D01*
X188003809Y-77628095D01*
X187956190Y-77770952D01*
X187384761Y-78342380D01*
X188003809Y-78342380D01*
X189003809Y-78247142D02*
X188956190Y-78294761D01*
X188813333Y-78342380D01*
X188718095Y-78342380D01*
X188575238Y-78294761D01*
X188480000Y-78199523D01*
X188432380Y-78104285D01*
X188384761Y-77913809D01*
X188384761Y-77770952D01*
X188432380Y-77580476D01*
X188480000Y-77485238D01*
X188575238Y-77390000D01*
X188718095Y-77342380D01*
X188813333Y-77342380D01*
X188956190Y-77390000D01*
X189003809Y-77437619D01*
G04 #@! TO.C,J11*
X206835476Y-108037380D02*
X206835476Y-108751666D01*
X206787857Y-108894523D01*
X206692619Y-108989761D01*
X206549761Y-109037380D01*
X206454523Y-109037380D01*
X207835476Y-109037380D02*
X207264047Y-109037380D01*
X207549761Y-109037380D02*
X207549761Y-108037380D01*
X207454523Y-108180238D01*
X207359285Y-108275476D01*
X207264047Y-108323095D01*
X208787857Y-109037380D02*
X208216428Y-109037380D01*
X208502142Y-109037380D02*
X208502142Y-108037380D01*
X208406904Y-108180238D01*
X208311666Y-108275476D01*
X208216428Y-108323095D01*
X205113333Y-116292380D02*
X205684761Y-116292380D01*
X205399047Y-117292380D02*
X205399047Y-116292380D01*
X206541904Y-116340000D02*
X206446666Y-116292380D01*
X206303809Y-116292380D01*
X206160952Y-116340000D01*
X206065714Y-116435238D01*
X206018095Y-116530476D01*
X205970476Y-116720952D01*
X205970476Y-116863809D01*
X206018095Y-117054285D01*
X206065714Y-117149523D01*
X206160952Y-117244761D01*
X206303809Y-117292380D01*
X206399047Y-117292380D01*
X206541904Y-117244761D01*
X206589523Y-117197142D01*
X206589523Y-116863809D01*
X206399047Y-116863809D01*
X206970476Y-117244761D02*
X207113333Y-117292380D01*
X207351428Y-117292380D01*
X207446666Y-117244761D01*
X207494285Y-117197142D01*
X207541904Y-117101904D01*
X207541904Y-117006666D01*
X207494285Y-116911428D01*
X207446666Y-116863809D01*
X207351428Y-116816190D01*
X207160952Y-116768571D01*
X207065714Y-116720952D01*
X207018095Y-116673333D01*
X206970476Y-116578095D01*
X206970476Y-116482857D01*
X207018095Y-116387619D01*
X207065714Y-116340000D01*
X207160952Y-116292380D01*
X207399047Y-116292380D01*
X207541904Y-116340000D01*
X207922857Y-116387619D02*
X207970476Y-116340000D01*
X208065714Y-116292380D01*
X208303809Y-116292380D01*
X208399047Y-116340000D01*
X208446666Y-116387619D01*
X208494285Y-116482857D01*
X208494285Y-116578095D01*
X208446666Y-116720952D01*
X207875238Y-117292380D01*
X208494285Y-117292380D01*
X209351428Y-116292380D02*
X209160952Y-116292380D01*
X209065714Y-116340000D01*
X209018095Y-116387619D01*
X208922857Y-116530476D01*
X208875238Y-116720952D01*
X208875238Y-117101904D01*
X208922857Y-117197142D01*
X208970476Y-117244761D01*
X209065714Y-117292380D01*
X209256190Y-117292380D01*
X209351428Y-117244761D01*
X209399047Y-117197142D01*
X209446666Y-117101904D01*
X209446666Y-116863809D01*
X209399047Y-116768571D01*
X209351428Y-116720952D01*
X209256190Y-116673333D01*
X209065714Y-116673333D01*
X208970476Y-116720952D01*
X208922857Y-116768571D01*
X208875238Y-116863809D01*
X210065714Y-116292380D02*
X210160952Y-116292380D01*
X210256190Y-116340000D01*
X210303809Y-116387619D01*
X210351428Y-116482857D01*
X210399047Y-116673333D01*
X210399047Y-116911428D01*
X210351428Y-117101904D01*
X210303809Y-117197142D01*
X210256190Y-117244761D01*
X210160952Y-117292380D01*
X210065714Y-117292380D01*
X209970476Y-117244761D01*
X209922857Y-117197142D01*
X209875238Y-117101904D01*
X209827619Y-116911428D01*
X209827619Y-116673333D01*
X209875238Y-116482857D01*
X209922857Y-116387619D01*
X209970476Y-116340000D01*
X210065714Y-116292380D01*
X211018095Y-116292380D02*
X211113333Y-116292380D01*
X211208571Y-116340000D01*
X211256190Y-116387619D01*
X211303809Y-116482857D01*
X211351428Y-116673333D01*
X211351428Y-116911428D01*
X211303809Y-117101904D01*
X211256190Y-117197142D01*
X211208571Y-117244761D01*
X211113333Y-117292380D01*
X211018095Y-117292380D01*
X210922857Y-117244761D01*
X210875238Y-117197142D01*
X210827619Y-117101904D01*
X210780000Y-116911428D01*
X210780000Y-116673333D01*
X210827619Y-116482857D01*
X210875238Y-116387619D01*
X210922857Y-116340000D01*
X211018095Y-116292380D01*
G04 #@! TO.C,R10*
X228592142Y-107132380D02*
X228258809Y-106656190D01*
X228020714Y-107132380D02*
X228020714Y-106132380D01*
X228401666Y-106132380D01*
X228496904Y-106180000D01*
X228544523Y-106227619D01*
X228592142Y-106322857D01*
X228592142Y-106465714D01*
X228544523Y-106560952D01*
X228496904Y-106608571D01*
X228401666Y-106656190D01*
X228020714Y-106656190D01*
X229544523Y-107132380D02*
X228973095Y-107132380D01*
X229258809Y-107132380D02*
X229258809Y-106132380D01*
X229163571Y-106275238D01*
X229068333Y-106370476D01*
X228973095Y-106418095D01*
X230163571Y-106132380D02*
X230258809Y-106132380D01*
X230354047Y-106180000D01*
X230401666Y-106227619D01*
X230449285Y-106322857D01*
X230496904Y-106513333D01*
X230496904Y-106751428D01*
X230449285Y-106941904D01*
X230401666Y-107037142D01*
X230354047Y-107084761D01*
X230258809Y-107132380D01*
X230163571Y-107132380D01*
X230068333Y-107084761D01*
X230020714Y-107037142D01*
X229973095Y-106941904D01*
X229925476Y-106751428D01*
X229925476Y-106513333D01*
X229973095Y-106322857D01*
X230020714Y-106227619D01*
X230068333Y-106180000D01*
X230163571Y-106132380D01*
G04 #@! TO.C,R8*
X235418333Y-113482380D02*
X235085000Y-113006190D01*
X234846904Y-113482380D02*
X234846904Y-112482380D01*
X235227857Y-112482380D01*
X235323095Y-112530000D01*
X235370714Y-112577619D01*
X235418333Y-112672857D01*
X235418333Y-112815714D01*
X235370714Y-112910952D01*
X235323095Y-112958571D01*
X235227857Y-113006190D01*
X234846904Y-113006190D01*
X235989761Y-112910952D02*
X235894523Y-112863333D01*
X235846904Y-112815714D01*
X235799285Y-112720476D01*
X235799285Y-112672857D01*
X235846904Y-112577619D01*
X235894523Y-112530000D01*
X235989761Y-112482380D01*
X236180238Y-112482380D01*
X236275476Y-112530000D01*
X236323095Y-112577619D01*
X236370714Y-112672857D01*
X236370714Y-112720476D01*
X236323095Y-112815714D01*
X236275476Y-112863333D01*
X236180238Y-112910952D01*
X235989761Y-112910952D01*
X235894523Y-112958571D01*
X235846904Y-113006190D01*
X235799285Y-113101428D01*
X235799285Y-113291904D01*
X235846904Y-113387142D01*
X235894523Y-113434761D01*
X235989761Y-113482380D01*
X236180238Y-113482380D01*
X236275476Y-113434761D01*
X236323095Y-113387142D01*
X236370714Y-113291904D01*
X236370714Y-113101428D01*
X236323095Y-113006190D01*
X236275476Y-112958571D01*
X236180238Y-112910952D01*
G04 #@! TO.C,R9*
X229068333Y-116657380D02*
X228735000Y-116181190D01*
X228496904Y-116657380D02*
X228496904Y-115657380D01*
X228877857Y-115657380D01*
X228973095Y-115705000D01*
X229020714Y-115752619D01*
X229068333Y-115847857D01*
X229068333Y-115990714D01*
X229020714Y-116085952D01*
X228973095Y-116133571D01*
X228877857Y-116181190D01*
X228496904Y-116181190D01*
X229544523Y-116657380D02*
X229735000Y-116657380D01*
X229830238Y-116609761D01*
X229877857Y-116562142D01*
X229973095Y-116419285D01*
X230020714Y-116228809D01*
X230020714Y-115847857D01*
X229973095Y-115752619D01*
X229925476Y-115705000D01*
X229830238Y-115657380D01*
X229639761Y-115657380D01*
X229544523Y-115705000D01*
X229496904Y-115752619D01*
X229449285Y-115847857D01*
X229449285Y-116085952D01*
X229496904Y-116181190D01*
X229544523Y-116228809D01*
X229639761Y-116276428D01*
X229830238Y-116276428D01*
X229925476Y-116228809D01*
X229973095Y-116181190D01*
X230020714Y-116085952D01*
G04 #@! TO.C,R7*
X234148333Y-116487380D02*
X233815000Y-116011190D01*
X233576904Y-116487380D02*
X233576904Y-115487380D01*
X233957857Y-115487380D01*
X234053095Y-115535000D01*
X234100714Y-115582619D01*
X234148333Y-115677857D01*
X234148333Y-115820714D01*
X234100714Y-115915952D01*
X234053095Y-115963571D01*
X233957857Y-116011190D01*
X233576904Y-116011190D01*
X234481666Y-115487380D02*
X235148333Y-115487380D01*
X234719761Y-116487380D01*
G04 #@! TO.C,J10*
X218900476Y-108037380D02*
X218900476Y-108751666D01*
X218852857Y-108894523D01*
X218757619Y-108989761D01*
X218614761Y-109037380D01*
X218519523Y-109037380D01*
X219900476Y-109037380D02*
X219329047Y-109037380D01*
X219614761Y-109037380D02*
X219614761Y-108037380D01*
X219519523Y-108180238D01*
X219424285Y-108275476D01*
X219329047Y-108323095D01*
X220519523Y-108037380D02*
X220614761Y-108037380D01*
X220710000Y-108085000D01*
X220757619Y-108132619D01*
X220805238Y-108227857D01*
X220852857Y-108418333D01*
X220852857Y-108656428D01*
X220805238Y-108846904D01*
X220757619Y-108942142D01*
X220710000Y-108989761D01*
X220614761Y-109037380D01*
X220519523Y-109037380D01*
X220424285Y-108989761D01*
X220376666Y-108942142D01*
X220329047Y-108846904D01*
X220281428Y-108656428D01*
X220281428Y-108418333D01*
X220329047Y-108227857D01*
X220376666Y-108132619D01*
X220424285Y-108085000D01*
X220519523Y-108037380D01*
X217980000Y-117292380D02*
X217980000Y-116292380D01*
X218360952Y-116292380D01*
X218456190Y-116340000D01*
X218503809Y-116387619D01*
X218551428Y-116482857D01*
X218551428Y-116625714D01*
X218503809Y-116720952D01*
X218456190Y-116768571D01*
X218360952Y-116816190D01*
X217980000Y-116816190D01*
X218980000Y-117292380D02*
X218980000Y-116625714D01*
X218980000Y-116816190D02*
X219027619Y-116720952D01*
X219075238Y-116673333D01*
X219170476Y-116625714D01*
X219265714Y-116625714D01*
X219980000Y-117244761D02*
X219884761Y-117292380D01*
X219694285Y-117292380D01*
X219599047Y-117244761D01*
X219551428Y-117149523D01*
X219551428Y-116768571D01*
X219599047Y-116673333D01*
X219694285Y-116625714D01*
X219884761Y-116625714D01*
X219980000Y-116673333D01*
X220027619Y-116768571D01*
X220027619Y-116863809D01*
X219551428Y-116959047D01*
X220408571Y-117244761D02*
X220503809Y-117292380D01*
X220694285Y-117292380D01*
X220789523Y-117244761D01*
X220837142Y-117149523D01*
X220837142Y-117101904D01*
X220789523Y-117006666D01*
X220694285Y-116959047D01*
X220551428Y-116959047D01*
X220456190Y-116911428D01*
X220408571Y-116816190D01*
X220408571Y-116768571D01*
X220456190Y-116673333D01*
X220551428Y-116625714D01*
X220694285Y-116625714D01*
X220789523Y-116673333D01*
X221218095Y-117244761D02*
X221313333Y-117292380D01*
X221503809Y-117292380D01*
X221599047Y-117244761D01*
X221646666Y-117149523D01*
X221646666Y-117101904D01*
X221599047Y-117006666D01*
X221503809Y-116959047D01*
X221360952Y-116959047D01*
X221265714Y-116911428D01*
X221218095Y-116816190D01*
X221218095Y-116768571D01*
X221265714Y-116673333D01*
X221360952Y-116625714D01*
X221503809Y-116625714D01*
X221599047Y-116673333D01*
X222503809Y-116625714D02*
X222503809Y-117292380D01*
X222075238Y-116625714D02*
X222075238Y-117149523D01*
X222122857Y-117244761D01*
X222218095Y-117292380D01*
X222360952Y-117292380D01*
X222456190Y-117244761D01*
X222503809Y-117197142D01*
X222980000Y-117292380D02*
X222980000Y-116625714D01*
X222980000Y-116816190D02*
X223027619Y-116720952D01*
X223075238Y-116673333D01*
X223170476Y-116625714D01*
X223265714Y-116625714D01*
X223980000Y-117244761D02*
X223884761Y-117292380D01*
X223694285Y-117292380D01*
X223599047Y-117244761D01*
X223551428Y-117149523D01*
X223551428Y-116768571D01*
X223599047Y-116673333D01*
X223694285Y-116625714D01*
X223884761Y-116625714D01*
X223980000Y-116673333D01*
X224027619Y-116768571D01*
X224027619Y-116863809D01*
X223551428Y-116959047D01*
G04 #@! TO.C,J4*
X221281666Y-69302380D02*
X221281666Y-70016666D01*
X221234047Y-70159523D01*
X221138809Y-70254761D01*
X220995952Y-70302380D01*
X220900714Y-70302380D01*
X222186428Y-69635714D02*
X222186428Y-70302380D01*
X221948333Y-69254761D02*
X221710238Y-69969047D01*
X222329285Y-69969047D01*
X218464285Y-77398571D02*
X218130952Y-77398571D01*
X218130952Y-77922380D02*
X218130952Y-76922380D01*
X218607142Y-76922380D01*
X219416666Y-77922380D02*
X219416666Y-77398571D01*
X219369047Y-77303333D01*
X219273809Y-77255714D01*
X219083333Y-77255714D01*
X218988095Y-77303333D01*
X219416666Y-77874761D02*
X219321428Y-77922380D01*
X219083333Y-77922380D01*
X218988095Y-77874761D01*
X218940476Y-77779523D01*
X218940476Y-77684285D01*
X218988095Y-77589047D01*
X219083333Y-77541428D01*
X219321428Y-77541428D01*
X219416666Y-77493809D01*
X219892857Y-77255714D02*
X219892857Y-77922380D01*
X219892857Y-77350952D02*
X219940476Y-77303333D01*
X220035714Y-77255714D01*
X220178571Y-77255714D01*
X220273809Y-77303333D01*
X220321428Y-77398571D01*
X220321428Y-77922380D01*
X221988095Y-77874761D02*
X221892857Y-77922380D01*
X221702380Y-77922380D01*
X221607142Y-77874761D01*
X221559523Y-77827142D01*
X221511904Y-77731904D01*
X221511904Y-77446190D01*
X221559523Y-77350952D01*
X221607142Y-77303333D01*
X221702380Y-77255714D01*
X221892857Y-77255714D01*
X221988095Y-77303333D01*
X222559523Y-77922380D02*
X222464285Y-77874761D01*
X222416666Y-77827142D01*
X222369047Y-77731904D01*
X222369047Y-77446190D01*
X222416666Y-77350952D01*
X222464285Y-77303333D01*
X222559523Y-77255714D01*
X222702380Y-77255714D01*
X222797619Y-77303333D01*
X222845238Y-77350952D01*
X222892857Y-77446190D01*
X222892857Y-77731904D01*
X222845238Y-77827142D01*
X222797619Y-77874761D01*
X222702380Y-77922380D01*
X222559523Y-77922380D01*
X223321428Y-77255714D02*
X223321428Y-77922380D01*
X223321428Y-77350952D02*
X223369047Y-77303333D01*
X223464285Y-77255714D01*
X223607142Y-77255714D01*
X223702380Y-77303333D01*
X223750000Y-77398571D01*
X223750000Y-77922380D01*
X224083333Y-77255714D02*
X224464285Y-77255714D01*
X224226190Y-76922380D02*
X224226190Y-77779523D01*
X224273809Y-77874761D01*
X224369047Y-77922380D01*
X224464285Y-77922380D01*
X224797619Y-77922380D02*
X224797619Y-77255714D01*
X224797619Y-77446190D02*
X224845238Y-77350952D01*
X224892857Y-77303333D01*
X224988095Y-77255714D01*
X225083333Y-77255714D01*
X225559523Y-77922380D02*
X225464285Y-77874761D01*
X225416666Y-77827142D01*
X225369047Y-77731904D01*
X225369047Y-77446190D01*
X225416666Y-77350952D01*
X225464285Y-77303333D01*
X225559523Y-77255714D01*
X225702380Y-77255714D01*
X225797619Y-77303333D01*
X225845238Y-77350952D01*
X225892857Y-77446190D01*
X225892857Y-77731904D01*
X225845238Y-77827142D01*
X225797619Y-77874761D01*
X225702380Y-77922380D01*
X225559523Y-77922380D01*
X226464285Y-77922380D02*
X226369047Y-77874761D01*
X226321428Y-77779523D01*
X226321428Y-76922380D01*
G04 #@! TO.C,J3*
X207946666Y-82637380D02*
X207946666Y-83351666D01*
X207899047Y-83494523D01*
X207803809Y-83589761D01*
X207660952Y-83637380D01*
X207565714Y-83637380D01*
X208327619Y-82637380D02*
X208946666Y-82637380D01*
X208613333Y-83018333D01*
X208756190Y-83018333D01*
X208851428Y-83065952D01*
X208899047Y-83113571D01*
X208946666Y-83208809D01*
X208946666Y-83446904D01*
X208899047Y-83542142D01*
X208851428Y-83589761D01*
X208756190Y-83637380D01*
X208470476Y-83637380D01*
X208375238Y-83589761D01*
X208327619Y-83542142D01*
X201557142Y-87447380D02*
X201557142Y-86447380D01*
X201795238Y-86447380D01*
X201938095Y-86495000D01*
X202033333Y-86590238D01*
X202080952Y-86685476D01*
X202128571Y-86875952D01*
X202128571Y-87018809D01*
X202080952Y-87209285D01*
X202033333Y-87304523D01*
X201938095Y-87399761D01*
X201795238Y-87447380D01*
X201557142Y-87447380D01*
X202557142Y-87447380D02*
X202557142Y-86447380D01*
X202557142Y-86923571D02*
X203128571Y-86923571D01*
X203128571Y-87447380D02*
X203128571Y-86447380D01*
X203461904Y-86447380D02*
X204033333Y-86447380D01*
X203747619Y-87447380D02*
X203747619Y-86447380D01*
X204319047Y-86542619D02*
X204366666Y-86495000D01*
X204461904Y-86447380D01*
X204700000Y-86447380D01*
X204795238Y-86495000D01*
X204842857Y-86542619D01*
X204890476Y-86637857D01*
X204890476Y-86733095D01*
X204842857Y-86875952D01*
X204271428Y-87447380D01*
X204890476Y-87447380D01*
G04 #@! TO.C,J6*
X193976666Y-101052380D02*
X193976666Y-101766666D01*
X193929047Y-101909523D01*
X193833809Y-102004761D01*
X193690952Y-102052380D01*
X193595714Y-102052380D01*
X194881428Y-101052380D02*
X194690952Y-101052380D01*
X194595714Y-101100000D01*
X194548095Y-101147619D01*
X194452857Y-101290476D01*
X194405238Y-101480952D01*
X194405238Y-101861904D01*
X194452857Y-101957142D01*
X194500476Y-102004761D01*
X194595714Y-102052380D01*
X194786190Y-102052380D01*
X194881428Y-102004761D01*
X194929047Y-101957142D01*
X194976666Y-101861904D01*
X194976666Y-101623809D01*
X194929047Y-101528571D01*
X194881428Y-101480952D01*
X194786190Y-101433333D01*
X194595714Y-101433333D01*
X194500476Y-101480952D01*
X194452857Y-101528571D01*
X194405238Y-101623809D01*
X186944285Y-104862380D02*
X187515714Y-104862380D01*
X187230000Y-105862380D02*
X187230000Y-104862380D01*
X187849047Y-105338571D02*
X188182380Y-105338571D01*
X188325238Y-105862380D02*
X187849047Y-105862380D01*
X187849047Y-104862380D01*
X188325238Y-104862380D01*
X188753809Y-105862380D02*
X188753809Y-104862380D01*
X189087142Y-105576666D01*
X189420476Y-104862380D01*
X189420476Y-105862380D01*
X189896666Y-105862380D02*
X189896666Y-104862380D01*
X190277619Y-104862380D01*
X190372857Y-104910000D01*
X190420476Y-104957619D01*
X190468095Y-105052857D01*
X190468095Y-105195714D01*
X190420476Y-105290952D01*
X190372857Y-105338571D01*
X190277619Y-105386190D01*
X189896666Y-105386190D01*
X190849047Y-104957619D02*
X190896666Y-104910000D01*
X190991904Y-104862380D01*
X191230000Y-104862380D01*
X191325238Y-104910000D01*
X191372857Y-104957619D01*
X191420476Y-105052857D01*
X191420476Y-105148095D01*
X191372857Y-105290952D01*
X190801428Y-105862380D01*
X191420476Y-105862380D01*
G04 #@! TO.C,J7*
X207946666Y-91527380D02*
X207946666Y-92241666D01*
X207899047Y-92384523D01*
X207803809Y-92479761D01*
X207660952Y-92527380D01*
X207565714Y-92527380D01*
X208327619Y-91527380D02*
X208994285Y-91527380D01*
X208565714Y-92527380D01*
X200914285Y-95337380D02*
X201485714Y-95337380D01*
X201200000Y-96337380D02*
X201200000Y-95337380D01*
X201819047Y-95813571D02*
X202152380Y-95813571D01*
X202295238Y-96337380D02*
X201819047Y-96337380D01*
X201819047Y-95337380D01*
X202295238Y-95337380D01*
X202723809Y-96337380D02*
X202723809Y-95337380D01*
X203057142Y-96051666D01*
X203390476Y-95337380D01*
X203390476Y-96337380D01*
X203866666Y-96337380D02*
X203866666Y-95337380D01*
X204247619Y-95337380D01*
X204342857Y-95385000D01*
X204390476Y-95432619D01*
X204438095Y-95527857D01*
X204438095Y-95670714D01*
X204390476Y-95765952D01*
X204342857Y-95813571D01*
X204247619Y-95861190D01*
X203866666Y-95861190D01*
X204771428Y-95337380D02*
X205390476Y-95337380D01*
X205057142Y-95718333D01*
X205200000Y-95718333D01*
X205295238Y-95765952D01*
X205342857Y-95813571D01*
X205390476Y-95908809D01*
X205390476Y-96146904D01*
X205342857Y-96242142D01*
X205295238Y-96289761D01*
X205200000Y-96337380D01*
X204914285Y-96337380D01*
X204819047Y-96289761D01*
X204771428Y-96242142D01*
G04 #@! TO.C,J8*
X207946666Y-101052380D02*
X207946666Y-101766666D01*
X207899047Y-101909523D01*
X207803809Y-102004761D01*
X207660952Y-102052380D01*
X207565714Y-102052380D01*
X208565714Y-101480952D02*
X208470476Y-101433333D01*
X208422857Y-101385714D01*
X208375238Y-101290476D01*
X208375238Y-101242857D01*
X208422857Y-101147619D01*
X208470476Y-101100000D01*
X208565714Y-101052380D01*
X208756190Y-101052380D01*
X208851428Y-101100000D01*
X208899047Y-101147619D01*
X208946666Y-101242857D01*
X208946666Y-101290476D01*
X208899047Y-101385714D01*
X208851428Y-101433333D01*
X208756190Y-101480952D01*
X208565714Y-101480952D01*
X208470476Y-101528571D01*
X208422857Y-101576190D01*
X208375238Y-101671428D01*
X208375238Y-101861904D01*
X208422857Y-101957142D01*
X208470476Y-102004761D01*
X208565714Y-102052380D01*
X208756190Y-102052380D01*
X208851428Y-102004761D01*
X208899047Y-101957142D01*
X208946666Y-101861904D01*
X208946666Y-101671428D01*
X208899047Y-101576190D01*
X208851428Y-101528571D01*
X208756190Y-101480952D01*
X200914285Y-104862380D02*
X201485714Y-104862380D01*
X201200000Y-105862380D02*
X201200000Y-104862380D01*
X201819047Y-105338571D02*
X202152380Y-105338571D01*
X202295238Y-105862380D02*
X201819047Y-105862380D01*
X201819047Y-104862380D01*
X202295238Y-104862380D01*
X202723809Y-105862380D02*
X202723809Y-104862380D01*
X203057142Y-105576666D01*
X203390476Y-104862380D01*
X203390476Y-105862380D01*
X203866666Y-105862380D02*
X203866666Y-104862380D01*
X204247619Y-104862380D01*
X204342857Y-104910000D01*
X204390476Y-104957619D01*
X204438095Y-105052857D01*
X204438095Y-105195714D01*
X204390476Y-105290952D01*
X204342857Y-105338571D01*
X204247619Y-105386190D01*
X203866666Y-105386190D01*
X205295238Y-105195714D02*
X205295238Y-105862380D01*
X205057142Y-104814761D02*
X204819047Y-105529047D01*
X205438095Y-105529047D01*
G04 #@! TO.C,J2*
X193976666Y-82637380D02*
X193976666Y-83351666D01*
X193929047Y-83494523D01*
X193833809Y-83589761D01*
X193690952Y-83637380D01*
X193595714Y-83637380D01*
X194405238Y-82732619D02*
X194452857Y-82685000D01*
X194548095Y-82637380D01*
X194786190Y-82637380D01*
X194881428Y-82685000D01*
X194929047Y-82732619D01*
X194976666Y-82827857D01*
X194976666Y-82923095D01*
X194929047Y-83065952D01*
X194357619Y-83637380D01*
X194976666Y-83637380D01*
X187587142Y-87447380D02*
X187587142Y-86447380D01*
X187825238Y-86447380D01*
X187968095Y-86495000D01*
X188063333Y-86590238D01*
X188110952Y-86685476D01*
X188158571Y-86875952D01*
X188158571Y-87018809D01*
X188110952Y-87209285D01*
X188063333Y-87304523D01*
X187968095Y-87399761D01*
X187825238Y-87447380D01*
X187587142Y-87447380D01*
X188587142Y-87447380D02*
X188587142Y-86447380D01*
X188587142Y-86923571D02*
X189158571Y-86923571D01*
X189158571Y-87447380D02*
X189158571Y-86447380D01*
X189491904Y-86447380D02*
X190063333Y-86447380D01*
X189777619Y-87447380D02*
X189777619Y-86447380D01*
X190920476Y-87447380D02*
X190349047Y-87447380D01*
X190634761Y-87447380D02*
X190634761Y-86447380D01*
X190539523Y-86590238D01*
X190444285Y-86685476D01*
X190349047Y-86733095D01*
G04 #@! TO.C,J1*
X192071666Y-107607380D02*
X192071666Y-108321666D01*
X192024047Y-108464523D01*
X191928809Y-108559761D01*
X191785952Y-108607380D01*
X191690714Y-108607380D01*
X193071666Y-108607380D02*
X192500238Y-108607380D01*
X192785952Y-108607380D02*
X192785952Y-107607380D01*
X192690714Y-107750238D01*
X192595476Y-107845476D01*
X192500238Y-107893095D01*
X190230476Y-117292380D02*
X189897142Y-116816190D01*
X189659047Y-117292380D02*
X189659047Y-116292380D01*
X190040000Y-116292380D01*
X190135238Y-116340000D01*
X190182857Y-116387619D01*
X190230476Y-116482857D01*
X190230476Y-116625714D01*
X190182857Y-116720952D01*
X190135238Y-116768571D01*
X190040000Y-116816190D01*
X189659047Y-116816190D01*
X191040000Y-117244761D02*
X190944761Y-117292380D01*
X190754285Y-117292380D01*
X190659047Y-117244761D01*
X190611428Y-117149523D01*
X190611428Y-116768571D01*
X190659047Y-116673333D01*
X190754285Y-116625714D01*
X190944761Y-116625714D01*
X191040000Y-116673333D01*
X191087619Y-116768571D01*
X191087619Y-116863809D01*
X190611428Y-116959047D01*
X191659047Y-117292380D02*
X191563809Y-117244761D01*
X191516190Y-117149523D01*
X191516190Y-116292380D01*
X192468571Y-117292380D02*
X192468571Y-116768571D01*
X192420952Y-116673333D01*
X192325714Y-116625714D01*
X192135238Y-116625714D01*
X192040000Y-116673333D01*
X192468571Y-117244761D02*
X192373333Y-117292380D01*
X192135238Y-117292380D01*
X192040000Y-117244761D01*
X191992380Y-117149523D01*
X191992380Y-117054285D01*
X192040000Y-116959047D01*
X192135238Y-116911428D01*
X192373333Y-116911428D01*
X192468571Y-116863809D01*
X192849523Y-116625714D02*
X193087619Y-117292380D01*
X193325714Y-116625714D02*
X193087619Y-117292380D01*
X192992380Y-117530476D01*
X192944761Y-117578095D01*
X192849523Y-117625714D01*
X194468571Y-117292380D02*
X194468571Y-116292380D01*
X194468571Y-116673333D02*
X194563809Y-116625714D01*
X194754285Y-116625714D01*
X194849523Y-116673333D01*
X194897142Y-116720952D01*
X194944761Y-116816190D01*
X194944761Y-117101904D01*
X194897142Y-117197142D01*
X194849523Y-117244761D01*
X194754285Y-117292380D01*
X194563809Y-117292380D01*
X194468571Y-117244761D01*
X195373333Y-117292380D02*
X195373333Y-116625714D01*
X195373333Y-116816190D02*
X195420952Y-116720952D01*
X195468571Y-116673333D01*
X195563809Y-116625714D01*
X195659047Y-116625714D01*
X196420952Y-117292380D02*
X196420952Y-116292380D01*
X196420952Y-117244761D02*
X196325714Y-117292380D01*
X196135238Y-117292380D01*
X196040000Y-117244761D01*
X195992380Y-117197142D01*
X195944761Y-117101904D01*
X195944761Y-116816190D01*
X195992380Y-116720952D01*
X196040000Y-116673333D01*
X196135238Y-116625714D01*
X196325714Y-116625714D01*
X196420952Y-116673333D01*
G04 #@! TO.C,J5*
X193976666Y-91527380D02*
X193976666Y-92241666D01*
X193929047Y-92384523D01*
X193833809Y-92479761D01*
X193690952Y-92527380D01*
X193595714Y-92527380D01*
X194929047Y-91527380D02*
X194452857Y-91527380D01*
X194405238Y-92003571D01*
X194452857Y-91955952D01*
X194548095Y-91908333D01*
X194786190Y-91908333D01*
X194881428Y-91955952D01*
X194929047Y-92003571D01*
X194976666Y-92098809D01*
X194976666Y-92336904D01*
X194929047Y-92432142D01*
X194881428Y-92479761D01*
X194786190Y-92527380D01*
X194548095Y-92527380D01*
X194452857Y-92479761D01*
X194405238Y-92432142D01*
X186944285Y-95337380D02*
X187515714Y-95337380D01*
X187230000Y-96337380D02*
X187230000Y-95337380D01*
X187849047Y-95813571D02*
X188182380Y-95813571D01*
X188325238Y-96337380D02*
X187849047Y-96337380D01*
X187849047Y-95337380D01*
X188325238Y-95337380D01*
X188753809Y-96337380D02*
X188753809Y-95337380D01*
X189087142Y-96051666D01*
X189420476Y-95337380D01*
X189420476Y-96337380D01*
X189896666Y-96337380D02*
X189896666Y-95337380D01*
X190277619Y-95337380D01*
X190372857Y-95385000D01*
X190420476Y-95432619D01*
X190468095Y-95527857D01*
X190468095Y-95670714D01*
X190420476Y-95765952D01*
X190372857Y-95813571D01*
X190277619Y-95861190D01*
X189896666Y-95861190D01*
X191420476Y-96337380D02*
X190849047Y-96337380D01*
X191134761Y-96337380D02*
X191134761Y-95337380D01*
X191039523Y-95480238D01*
X190944285Y-95575476D01*
X190849047Y-95623095D01*
G04 #@! TO.C,U2*
X219583095Y-82637380D02*
X219583095Y-83446904D01*
X219630714Y-83542142D01*
X219678333Y-83589761D01*
X219773571Y-83637380D01*
X219964047Y-83637380D01*
X220059285Y-83589761D01*
X220106904Y-83542142D01*
X220154523Y-83446904D01*
X220154523Y-82637380D01*
X220583095Y-82732619D02*
X220630714Y-82685000D01*
X220725952Y-82637380D01*
X220964047Y-82637380D01*
X221059285Y-82685000D01*
X221106904Y-82732619D01*
X221154523Y-82827857D01*
X221154523Y-82923095D01*
X221106904Y-83065952D01*
X220535476Y-83637380D01*
X221154523Y-83637380D01*
G04 #@! TO.C,U1*
X229743095Y-82637380D02*
X229743095Y-83446904D01*
X229790714Y-83542142D01*
X229838333Y-83589761D01*
X229933571Y-83637380D01*
X230124047Y-83637380D01*
X230219285Y-83589761D01*
X230266904Y-83542142D01*
X230314523Y-83446904D01*
X230314523Y-82637380D01*
X231314523Y-83637380D02*
X230743095Y-83637380D01*
X231028809Y-83637380D02*
X231028809Y-82637380D01*
X230933571Y-82780238D01*
X230838333Y-82875476D01*
X230743095Y-82923095D01*
G04 #@! TO.C,ICSP*
X137104380Y-95710190D02*
X136104380Y-95710190D01*
X137009142Y-94662571D02*
X137056761Y-94710190D01*
X137104380Y-94853047D01*
X137104380Y-94948285D01*
X137056761Y-95091142D01*
X136961523Y-95186380D01*
X136866285Y-95234000D01*
X136675809Y-95281619D01*
X136532952Y-95281619D01*
X136342476Y-95234000D01*
X136247238Y-95186380D01*
X136152000Y-95091142D01*
X136104380Y-94948285D01*
X136104380Y-94853047D01*
X136152000Y-94710190D01*
X136199619Y-94662571D01*
X137056761Y-94281619D02*
X137104380Y-94138761D01*
X137104380Y-93900666D01*
X137056761Y-93805428D01*
X137009142Y-93757809D01*
X136913904Y-93710190D01*
X136818666Y-93710190D01*
X136723428Y-93757809D01*
X136675809Y-93805428D01*
X136628190Y-93900666D01*
X136580571Y-94091142D01*
X136532952Y-94186380D01*
X136485333Y-94234000D01*
X136390095Y-94281619D01*
X136294857Y-94281619D01*
X136199619Y-94234000D01*
X136152000Y-94186380D01*
X136104380Y-94091142D01*
X136104380Y-93853047D01*
X136152000Y-93710190D01*
X137104380Y-93281619D02*
X136104380Y-93281619D01*
X136104380Y-92900666D01*
X136152000Y-92805428D01*
X136199619Y-92757809D01*
X136294857Y-92710190D01*
X136437714Y-92710190D01*
X136532952Y-92757809D01*
X136580571Y-92805428D01*
X136628190Y-92900666D01*
X136628190Y-93281619D01*
G04 #@! TO.C,*
G04 #@! TD*
M02*
