G04 #@! TF.GenerationSoftware,KiCad,Pcbnew,(5.0.1)-3*
G04 #@! TF.CreationDate,2019-01-09T09:01:37+01:00*
G04 #@! TF.ProjectId,P300_Arduino_IF,503330305F41726475696E6F5F49462E,rev?*
G04 #@! TF.SameCoordinates,Original*
G04 #@! TF.FileFunction,Copper,L1,Top,Signal*
G04 #@! TF.FilePolarity,Positive*
%FSLAX46Y46*%
G04 Gerber Fmt 4.6, Leading zero omitted, Abs format (unit mm)*
G04 Created by KiCad (PCBNEW (5.0.1)-3) date 09.01.2019 09:01:37*
%MOMM*%
%LPD*%
G01*
G04 APERTURE LIST*
G04 #@! TA.AperFunction,ComponentPad*
%ADD10O,1.727200X1.727200*%
G04 #@! TD*
G04 #@! TA.AperFunction,WasherPad*
%ADD11C,3.500000*%
G04 #@! TD*
G04 #@! TA.AperFunction,ComponentPad*
%ADD12R,2.600000X2.000000*%
G04 #@! TD*
G04 #@! TA.AperFunction,ComponentPad*
%ADD13O,2.600000X2.000000*%
G04 #@! TD*
G04 #@! TA.AperFunction,ComponentPad*
%ADD14R,1.700000X1.700000*%
G04 #@! TD*
G04 #@! TA.AperFunction,ComponentPad*
%ADD15O,1.700000X1.700000*%
G04 #@! TD*
G04 #@! TA.AperFunction,ComponentPad*
%ADD16R,1.740000X2.200000*%
G04 #@! TD*
G04 #@! TA.AperFunction,ComponentPad*
%ADD17O,1.740000X2.200000*%
G04 #@! TD*
G04 #@! TA.AperFunction,ComponentPad*
%ADD18C,1.600000*%
G04 #@! TD*
G04 #@! TA.AperFunction,ComponentPad*
%ADD19O,1.600000X1.600000*%
G04 #@! TD*
G04 #@! TA.AperFunction,ComponentPad*
%ADD20R,1.600000X1.600000*%
G04 #@! TD*
G04 #@! TA.AperFunction,ViaPad*
%ADD21C,0.800000*%
G04 #@! TD*
G04 #@! TA.AperFunction,Conductor*
%ADD22C,0.600000*%
G04 #@! TD*
G04 #@! TA.AperFunction,Conductor*
%ADD23C,0.250000*%
G04 #@! TD*
G04 APERTURE END LIST*
D10*
G04 #@! TO.P,XA1,A0*
G04 #@! TO.N,LCD_RD*
X127000000Y-119380000D03*
G04 #@! TO.P,XA1,VIN*
G04 #@! TO.N,Net-(JP1-Pad1)*
X121920000Y-119380000D03*
G04 #@! TO.P,XA1,GND3*
G04 #@! TO.N,Net-(XA1-PadGND3)*
X119380000Y-119380000D03*
G04 #@! TO.P,XA1,GND2*
G04 #@! TO.N,Net-(XA1-PadGND2)*
X116840000Y-119380000D03*
G04 #@! TO.P,XA1,5V1*
G04 #@! TO.N,+5V*
X114300000Y-119380000D03*
G04 #@! TO.P,XA1,3V3*
G04 #@! TO.N,+3V3*
X111760000Y-119380000D03*
G04 #@! TO.P,XA1,RST1*
G04 #@! TO.N,Net-(XA1-PadRST1)*
X109220000Y-119380000D03*
G04 #@! TO.P,XA1,IORF*
G04 #@! TO.N,Net-(XA1-PadIORF)*
X106680000Y-119380000D03*
G04 #@! TO.P,XA1,D21*
G04 #@! TO.N,SCL*
X162560000Y-71120000D03*
G04 #@! TO.P,XA1,D20*
G04 #@! TO.N,SDA*
X160020000Y-71120000D03*
G04 #@! TO.P,XA1,D19*
G04 #@! TO.N,Tacho_L2*
X157480000Y-71120000D03*
G04 #@! TO.P,XA1,D18*
G04 #@! TO.N,Tacho_L1*
X154940000Y-71120000D03*
G04 #@! TO.P,XA1,D17*
G04 #@! TO.N,CO2_TX*
X152400000Y-71120000D03*
G04 #@! TO.P,XA1,D16*
G04 #@! TO.N,CO2_RX*
X149860000Y-71120000D03*
G04 #@! TO.P,XA1,D15*
G04 #@! TO.N,Net-(XA1-PadD15)*
X147320000Y-71120000D03*
G04 #@! TO.P,XA1,D14*
G04 #@! TO.N,Net-(XA1-PadD14)*
X144780000Y-71120000D03*
G04 #@! TO.P,XA1,D0*
G04 #@! TO.N,Net-(XA1-PadD0)*
X139700000Y-71120000D03*
G04 #@! TO.P,XA1,D1*
G04 #@! TO.N,Net-(XA1-PadD1)*
X137160000Y-71120000D03*
G04 #@! TO.P,XA1,D2*
G04 #@! TO.N,Net-(XA1-PadD2)*
X134620000Y-71120000D03*
G04 #@! TO.P,XA1,D3*
G04 #@! TO.N,Net-(XA1-PadD3)*
X132080000Y-71120000D03*
G04 #@! TO.P,XA1,D4*
G04 #@! TO.N,Net-(XA1-PadD4)*
X129540000Y-71120000D03*
G04 #@! TO.P,XA1,D5*
G04 #@! TO.N,Net-(XA1-PadD5)*
X127000000Y-71120000D03*
G04 #@! TO.P,XA1,D6*
G04 #@! TO.N,LCD_D1*
X124460000Y-71120000D03*
G04 #@! TO.P,XA1,D7*
G04 #@! TO.N,LCD_D0*
X121920000Y-71120000D03*
G04 #@! TO.P,XA1,GND1*
G04 #@! TO.N,GND*
X102616000Y-71120000D03*
G04 #@! TO.P,XA1,D8*
G04 #@! TO.N,LCD_D7*
X117856000Y-71120000D03*
G04 #@! TO.P,XA1,D9*
G04 #@! TO.N,LCD_D6*
X115316000Y-71120000D03*
G04 #@! TO.P,XA1,D10*
G04 #@! TO.N,LCD_D5*
X112776000Y-71120000D03*
G04 #@! TO.P,XA1,SCL*
G04 #@! TO.N,Net-(XA1-PadSCL)*
X94996000Y-71120000D03*
G04 #@! TO.P,XA1,SDA*
G04 #@! TO.N,Net-(XA1-PadSDA)*
X97536000Y-71120000D03*
G04 #@! TO.P,XA1,AREF*
G04 #@! TO.N,Net-(XA1-PadAREF)*
X100076000Y-71120000D03*
G04 #@! TO.P,XA1,D13*
G04 #@! TO.N,LCD_D2*
X105156000Y-71120000D03*
G04 #@! TO.P,XA1,D12*
G04 #@! TO.N,LCD_D3*
X107696000Y-71120000D03*
G04 #@! TO.P,XA1,D11*
G04 #@! TO.N,LCD_D4*
X110236000Y-71120000D03*
G04 #@! TO.P,XA1,*
G04 #@! TO.N,*
X104140000Y-119380000D03*
G04 #@! TO.P,XA1,A1*
G04 #@! TO.N,LCD_WR*
X129540000Y-119380000D03*
G04 #@! TO.P,XA1,A2*
G04 #@! TO.N,LCD_RS*
X132080000Y-119380000D03*
G04 #@! TO.P,XA1,A3*
G04 #@! TO.N,LCD_CS*
X134620000Y-119380000D03*
G04 #@! TO.P,XA1,A4*
G04 #@! TO.N,LCD_RST*
X137160000Y-119380000D03*
G04 #@! TO.P,XA1,A5*
G04 #@! TO.N,Net-(XA1-PadA5)*
X139700000Y-119380000D03*
G04 #@! TO.P,XA1,A6*
G04 #@! TO.N,Net-(XA1-PadA6)*
X142240000Y-119380000D03*
G04 #@! TO.P,XA1,A7*
G04 #@! TO.N,Net-(XA1-PadA7)*
X144780000Y-119380000D03*
G04 #@! TO.P,XA1,A8*
G04 #@! TO.N,Net-(XA1-PadA8)*
X149860000Y-119380000D03*
G04 #@! TO.P,XA1,A9*
G04 #@! TO.N,DRUCK1*
X152400000Y-119380000D03*
G04 #@! TO.P,XA1,A10*
G04 #@! TO.N,DRUCK2*
X154940000Y-119380000D03*
G04 #@! TO.P,XA1,A11*
G04 #@! TO.N,Net-(XA1-PadA11)*
X157480000Y-119380000D03*
G04 #@! TO.P,XA1,A12*
G04 #@! TO.N,Net-(XA1-PadA12)*
X160020000Y-119380000D03*
G04 #@! TO.P,XA1,A13*
G04 #@! TO.N,Net-(XA1-PadA13)*
X162560000Y-119380000D03*
G04 #@! TO.P,XA1,A14*
G04 #@! TO.N,Net-(XA1-PadA14)*
X165100000Y-119380000D03*
G04 #@! TO.P,XA1,A15*
G04 #@! TO.N,TGS2600*
X167640000Y-119380000D03*
G04 #@! TO.P,XA1,5V3*
G04 #@! TO.N,Net-(XA1-Pad5V3)*
X170180000Y-71120000D03*
G04 #@! TO.P,XA1,5V4*
G04 #@! TO.N,Net-(XA1-Pad5V4)*
X172720000Y-71120000D03*
G04 #@! TO.P,XA1,D22*
G04 #@! TO.N,Net-(XA1-PadD22)*
X170180000Y-73660000D03*
G04 #@! TO.P,XA1,D23*
G04 #@! TO.N,Net-(XA1-PadD23)*
X172720000Y-73660000D03*
G04 #@! TO.P,XA1,D24*
G04 #@! TO.N,Net-(XA1-PadD24)*
X170180000Y-76200000D03*
G04 #@! TO.P,XA1,D25*
G04 #@! TO.N,Net-(XA1-PadD25)*
X172720000Y-76200000D03*
G04 #@! TO.P,XA1,D26*
G04 #@! TO.N,Net-(XA1-PadD26)*
X170180000Y-78740000D03*
G04 #@! TO.P,XA1,D27*
G04 #@! TO.N,Net-(XA1-PadD27)*
X172720000Y-78740000D03*
G04 #@! TO.P,XA1,D28*
G04 #@! TO.N,DHT1*
X170180000Y-81280000D03*
G04 #@! TO.P,XA1,D29*
G04 #@! TO.N,DHT2*
X172720000Y-81280000D03*
G04 #@! TO.P,XA1,D30*
G04 #@! TO.N,TEMP1*
X170180000Y-83820000D03*
G04 #@! TO.P,XA1,D31*
G04 #@! TO.N,TEMP2*
X172720000Y-83820000D03*
G04 #@! TO.P,XA1,D32*
G04 #@! TO.N,TEMP3*
X170180000Y-86360000D03*
G04 #@! TO.P,XA1,D33*
G04 #@! TO.N,TEMP4*
X172720000Y-86360000D03*
G04 #@! TO.P,XA1,D34*
G04 #@! TO.N,Net-(XA1-PadD34)*
X170180000Y-88900000D03*
G04 #@! TO.P,XA1,D35*
G04 #@! TO.N,Net-(XA1-PadD35)*
X172720000Y-88900000D03*
G04 #@! TO.P,XA1,D36*
G04 #@! TO.N,Net-(XA1-PadD36)*
X170180000Y-91440000D03*
G04 #@! TO.P,XA1,D37*
G04 #@! TO.N,Net-(XA1-PadD37)*
X172720000Y-91440000D03*
G04 #@! TO.P,XA1,D38*
G04 #@! TO.N,Net-(XA1-PadD38)*
X170180000Y-93980000D03*
G04 #@! TO.P,XA1,D39*
G04 #@! TO.N,Net-(XA1-PadD39)*
X172720000Y-93980000D03*
G04 #@! TO.P,XA1,D40*
G04 #@! TO.N,BP_POW*
X170180000Y-96520000D03*
G04 #@! TO.P,XA1,D41*
G04 #@! TO.N,BP_DIR*
X172720000Y-96520000D03*
G04 #@! TO.P,XA1,D42*
G04 #@! TO.N,L1*
X170180000Y-99060000D03*
G04 #@! TO.P,XA1,D43*
G04 #@! TO.N,L2*
X172720000Y-99060000D03*
G04 #@! TO.P,XA1,D44*
G04 #@! TO.N,PWM_L1*
X170180000Y-101600000D03*
G04 #@! TO.P,XA1,D45*
G04 #@! TO.N,Net-(XA1-PadD45)*
X172720000Y-101600000D03*
G04 #@! TO.P,XA1,D46*
G04 #@! TO.N,PWM_L2*
X170180000Y-104140000D03*
G04 #@! TO.P,XA1,D47*
G04 #@! TO.N,Net-(XA1-PadD47)*
X172720000Y-104140000D03*
G04 #@! TO.P,XA1,D48*
G04 #@! TO.N,Net-(XA1-PadD48)*
X170180000Y-106680000D03*
G04 #@! TO.P,XA1,D49*
G04 #@! TO.N,Net-(XA1-PadD49)*
X172720000Y-106680000D03*
G04 #@! TO.P,XA1,D50*
G04 #@! TO.N,Net-(XA1-PadD50)*
X170180000Y-109220000D03*
G04 #@! TO.P,XA1,D51*
G04 #@! TO.N,Net-(XA1-PadD51)*
X172720000Y-109220000D03*
G04 #@! TO.P,XA1,D52*
G04 #@! TO.N,Net-(XA1-PadD52)*
X170180000Y-111760000D03*
G04 #@! TO.P,XA1,D53*
G04 #@! TO.N,Net-(XA1-PadD53)*
X172720000Y-111760000D03*
G04 #@! TO.P,XA1,GND5*
G04 #@! TO.N,Net-(XA1-PadGND5)*
X170180000Y-114300000D03*
G04 #@! TO.P,XA1,GND6*
G04 #@! TO.N,Net-(XA1-PadGND6)*
X172720000Y-114300000D03*
G04 #@! TD*
D11*
G04 #@! TO.P,,*
G04 #@! TO.N,*
X237490000Y-119380000D03*
G04 #@! TD*
G04 #@! TO.P,,*
G04 #@! TO.N,*
X237490000Y-71120000D03*
G04 #@! TD*
D12*
G04 #@! TO.P,J16,1*
G04 #@! TO.N,LCD_D2*
X153670000Y-103505000D03*
D13*
G04 #@! TO.P,J16,2*
G04 #@! TO.N,LCD_D3*
X153670000Y-100965000D03*
G04 #@! TO.P,J16,3*
G04 #@! TO.N,LCD_D4*
X153670000Y-98425000D03*
G04 #@! TO.P,J16,4*
G04 #@! TO.N,LCD_D5*
X153670000Y-95885000D03*
G04 #@! TO.P,J16,5*
G04 #@! TO.N,LCD_D6*
X153670000Y-93345000D03*
G04 #@! TO.P,J16,6*
G04 #@! TO.N,LCD_D7*
X153670000Y-90805000D03*
G04 #@! TO.P,J16,7*
G04 #@! TO.N,LCD_D0*
X153670000Y-88265000D03*
G04 #@! TO.P,J16,8*
G04 #@! TO.N,LCD_D1*
X153670000Y-85725000D03*
G04 #@! TD*
D12*
G04 #@! TO.P,J15,1*
G04 #@! TO.N,LCD_RST*
X164465000Y-103505000D03*
D13*
G04 #@! TO.P,J15,2*
G04 #@! TO.N,LCD_CS*
X164465000Y-100965000D03*
G04 #@! TO.P,J15,3*
G04 #@! TO.N,LCD_RS*
X164465000Y-98425000D03*
G04 #@! TO.P,J15,4*
G04 #@! TO.N,LCD_WR*
X164465000Y-95885000D03*
G04 #@! TO.P,J15,5*
G04 #@! TO.N,LCD_RD*
X164465000Y-93345000D03*
G04 #@! TO.P,J15,6*
G04 #@! TO.N,GND*
X164465000Y-90805000D03*
G04 #@! TO.P,J15,7*
G04 #@! TO.N,+5V*
X164465000Y-88265000D03*
G04 #@! TO.P,J15,8*
G04 #@! TO.N,+3V3*
X164465000Y-85725000D03*
G04 #@! TD*
D14*
G04 #@! TO.P,JP1,1*
G04 #@! TO.N,Net-(JP1-Pad1)*
X230505000Y-102870000D03*
D15*
G04 #@! TO.P,JP1,2*
G04 #@! TO.N,+12V*
X230505000Y-100330000D03*
G04 #@! TD*
D16*
G04 #@! TO.P,J14,1*
G04 #@! TO.N,GND*
X216535000Y-101600000D03*
D17*
G04 #@! TO.P,J14,2*
G04 #@! TO.N,+5V*
X213995000Y-101600000D03*
G04 #@! TD*
D16*
G04 #@! TO.P,J9,1*
G04 #@! TO.N,GND*
X226060000Y-101600000D03*
D17*
G04 #@! TO.P,J9,2*
G04 #@! TO.N,+12V*
X223520000Y-101600000D03*
G04 #@! TD*
D18*
G04 #@! TO.P,R4,1*
G04 #@! TO.N,+5V*
X196850000Y-102870000D03*
D19*
G04 #@! TO.P,R4,2*
G04 #@! TO.N,TEMP4*
X196850000Y-100330000D03*
G04 #@! TD*
D18*
G04 #@! TO.P,R2,1*
G04 #@! TO.N,+5V*
X182880000Y-102870000D03*
D19*
G04 #@! TO.P,R2,2*
G04 #@! TO.N,TEMP2*
X182880000Y-100330000D03*
G04 #@! TD*
D18*
G04 #@! TO.P,R3,1*
G04 #@! TO.N,+5V*
X196850000Y-93345000D03*
D19*
G04 #@! TO.P,R3,2*
G04 #@! TO.N,TEMP3*
X196850000Y-90805000D03*
G04 #@! TD*
D18*
G04 #@! TO.P,R1,1*
G04 #@! TO.N,+5V*
X182880000Y-93345000D03*
D19*
G04 #@! TO.P,R1,2*
G04 #@! TO.N,TEMP1*
X182880000Y-90805000D03*
G04 #@! TD*
D18*
G04 #@! TO.P,R6,1*
G04 #@! TO.N,Net-(R6-Pad1)*
X215265000Y-91440000D03*
D19*
G04 #@! TO.P,R6,2*
G04 #@! TO.N,PWM_L1*
X217805000Y-91440000D03*
G04 #@! TD*
D18*
G04 #@! TO.P,R5,1*
G04 #@! TO.N,Net-(R5-Pad1)*
X225425000Y-91440000D03*
D19*
G04 #@! TO.P,R5,2*
G04 #@! TO.N,PWM_L2*
X227965000Y-91440000D03*
G04 #@! TD*
D16*
G04 #@! TO.P,J13,1*
G04 #@! TO.N,GND*
X205740000Y-73660000D03*
D17*
G04 #@! TO.P,J13,2*
G04 #@! TO.N,CO2_RX*
X203200000Y-73660000D03*
G04 #@! TO.P,J13,3*
G04 #@! TO.N,CO2_TX*
X200660000Y-73660000D03*
G04 #@! TO.P,J13,4*
G04 #@! TO.N,+5V*
X198120000Y-73660000D03*
G04 #@! TD*
D16*
G04 #@! TO.P,J12,1*
G04 #@! TO.N,GND*
X191770000Y-73660000D03*
D17*
G04 #@! TO.P,J12,2*
G04 #@! TO.N,SDA*
X189230000Y-73660000D03*
G04 #@! TO.P,J12,3*
G04 #@! TO.N,SCL*
X186690000Y-73660000D03*
G04 #@! TO.P,J12,4*
G04 #@! TO.N,+5V*
X184150000Y-73660000D03*
G04 #@! TD*
D16*
G04 #@! TO.P,J11,1*
G04 #@! TO.N,GND*
X210820000Y-112395000D03*
D17*
G04 #@! TO.P,J11,2*
G04 #@! TO.N,TGS2600*
X208280000Y-112395000D03*
G04 #@! TO.P,J11,3*
G04 #@! TO.N,+5V*
X205740000Y-112395000D03*
G04 #@! TD*
D18*
G04 #@! TO.P,R10,1*
G04 #@! TO.N,Net-(J10-Pad3)*
X227965000Y-110490000D03*
D19*
G04 #@! TO.P,R10,2*
G04 #@! TO.N,DRUCK2*
X230505000Y-110490000D03*
G04 #@! TD*
D18*
G04 #@! TO.P,R8,1*
G04 #@! TO.N,GND*
X235585000Y-110490000D03*
D19*
G04 #@! TO.P,R8,2*
G04 #@! TO.N,DRUCK2*
X233045000Y-110490000D03*
G04 #@! TD*
G04 #@! TO.P,R9,2*
G04 #@! TO.N,DRUCK1*
X230505000Y-113665000D03*
D18*
G04 #@! TO.P,R9,1*
G04 #@! TO.N,Net-(J10-Pad2)*
X227965000Y-113665000D03*
G04 #@! TD*
G04 #@! TO.P,R7,1*
G04 #@! TO.N,GND*
X235585000Y-113665000D03*
D19*
G04 #@! TO.P,R7,2*
G04 #@! TO.N,DRUCK1*
X233045000Y-113665000D03*
G04 #@! TD*
D16*
G04 #@! TO.P,J10,1*
G04 #@! TO.N,+12V*
X224155000Y-112395000D03*
D17*
G04 #@! TO.P,J10,2*
G04 #@! TO.N,Net-(J10-Pad2)*
X221615000Y-112395000D03*
G04 #@! TO.P,J10,3*
G04 #@! TO.N,Net-(J10-Pad3)*
X219075000Y-112395000D03*
G04 #@! TO.P,J10,4*
G04 #@! TO.N,GND*
X216535000Y-112395000D03*
G04 #@! TD*
D16*
G04 #@! TO.P,J4,1*
G04 #@! TO.N,Tacho_L2*
X230505000Y-73660000D03*
D17*
G04 #@! TO.P,J4,2*
G04 #@! TO.N,Net-(J4-Pad2)*
X227965000Y-73660000D03*
G04 #@! TO.P,J4,3*
G04 #@! TO.N,Net-(J4-Pad3)*
X225425000Y-73660000D03*
G04 #@! TO.P,J4,4*
G04 #@! TO.N,GND*
X222885000Y-73660000D03*
G04 #@! TO.P,J4,5*
G04 #@! TO.N,Tacho_L1*
X220345000Y-73660000D03*
G04 #@! TO.P,J4,6*
G04 #@! TO.N,Net-(J4-Pad6)*
X217805000Y-73660000D03*
G04 #@! TO.P,J4,7*
G04 #@! TO.N,Net-(J4-Pad7)*
X215265000Y-73660000D03*
G04 #@! TO.P,J4,8*
G04 #@! TO.N,GND*
X212725000Y-73660000D03*
G04 #@! TD*
D16*
G04 #@! TO.P,J3,1*
G04 #@! TO.N,GND*
X205740000Y-83185000D03*
D17*
G04 #@! TO.P,J3,2*
G04 #@! TO.N,DHT2*
X203200000Y-83185000D03*
G04 #@! TO.P,J3,3*
G04 #@! TO.N,+5V*
X200660000Y-83185000D03*
G04 #@! TD*
G04 #@! TO.P,J6,3*
G04 #@! TO.N,+5V*
X186690000Y-101600000D03*
G04 #@! TO.P,J6,2*
G04 #@! TO.N,TEMP2*
X189230000Y-101600000D03*
D16*
G04 #@! TO.P,J6,1*
G04 #@! TO.N,GND*
X191770000Y-101600000D03*
G04 #@! TD*
G04 #@! TO.P,J7,1*
G04 #@! TO.N,GND*
X205740000Y-92075000D03*
D17*
G04 #@! TO.P,J7,2*
G04 #@! TO.N,TEMP3*
X203200000Y-92075000D03*
G04 #@! TO.P,J7,3*
G04 #@! TO.N,+5V*
X200660000Y-92075000D03*
G04 #@! TD*
G04 #@! TO.P,J8,3*
G04 #@! TO.N,+5V*
X200660000Y-101600000D03*
G04 #@! TO.P,J8,2*
G04 #@! TO.N,TEMP4*
X203200000Y-101600000D03*
D16*
G04 #@! TO.P,J8,1*
G04 #@! TO.N,GND*
X205740000Y-101600000D03*
G04 #@! TD*
G04 #@! TO.P,J2,1*
G04 #@! TO.N,GND*
X191770000Y-83185000D03*
D17*
G04 #@! TO.P,J2,2*
G04 #@! TO.N,DHT1*
X189230000Y-83185000D03*
G04 #@! TO.P,J2,3*
G04 #@! TO.N,+5V*
X186690000Y-83185000D03*
G04 #@! TD*
D16*
G04 #@! TO.P,J1,1*
G04 #@! TO.N,GND*
X199390000Y-112395000D03*
D17*
G04 #@! TO.P,J1,2*
G04 #@! TO.N,BP_POW*
X196850000Y-112395000D03*
G04 #@! TO.P,J1,3*
G04 #@! TO.N,BP_DIR*
X194310000Y-112395000D03*
G04 #@! TO.P,J1,4*
G04 #@! TO.N,L1*
X191770000Y-112395000D03*
G04 #@! TO.P,J1,5*
G04 #@! TO.N,L2*
X189230000Y-112395000D03*
G04 #@! TO.P,J1,6*
G04 #@! TO.N,+5V*
X186690000Y-112395000D03*
G04 #@! TD*
D16*
G04 #@! TO.P,J5,1*
G04 #@! TO.N,GND*
X191770000Y-92075000D03*
D17*
G04 #@! TO.P,J5,2*
G04 #@! TO.N,TEMP1*
X189230000Y-92075000D03*
G04 #@! TO.P,J5,3*
G04 #@! TO.N,+5V*
X186690000Y-92075000D03*
G04 #@! TD*
D19*
G04 #@! TO.P,U2,4*
G04 #@! TO.N,Net-(J4-Pad7)*
X215265000Y-79375000D03*
G04 #@! TO.P,U2,2*
G04 #@! TO.N,GND*
X217805000Y-86995000D03*
G04 #@! TO.P,U2,3*
G04 #@! TO.N,Net-(J4-Pad6)*
X217805000Y-79375000D03*
D20*
G04 #@! TO.P,U2,1*
G04 #@! TO.N,Net-(R6-Pad1)*
X215265000Y-86995000D03*
G04 #@! TD*
G04 #@! TO.P,U1,1*
G04 #@! TO.N,Net-(R5-Pad1)*
X225425000Y-86995000D03*
D19*
G04 #@! TO.P,U1,3*
G04 #@! TO.N,Net-(J4-Pad2)*
X227965000Y-79375000D03*
G04 #@! TO.P,U1,2*
G04 #@! TO.N,GND*
X227965000Y-86995000D03*
G04 #@! TO.P,U1,4*
G04 #@! TO.N,Net-(J4-Pad3)*
X225425000Y-79375000D03*
G04 #@! TD*
D14*
G04 #@! TO.P,ICSP,1*
G04 #@! TO.N,N/C*
X139827000Y-91440000D03*
D15*
G04 #@! TO.P,ICSP,2*
X142367000Y-91440000D03*
G04 #@! TO.P,ICSP,3*
X139827000Y-93980000D03*
G04 #@! TO.P,ICSP,4*
X142367000Y-93980000D03*
G04 #@! TO.P,ICSP,5*
X139827000Y-96520000D03*
G04 #@! TO.P,ICSP,6*
X142367000Y-96520000D03*
G04 #@! TD*
D11*
G04 #@! TO.P,,*
G04 #@! TO.N,*
X142240000Y-114300000D03*
G04 #@! TD*
D21*
G04 #@! TO.N,PWM_L2*
X185420000Y-97282000D03*
G04 #@! TO.N,PWM_L1*
X183388000Y-96012000D03*
G04 #@! TO.N,TEMP2*
X175341399Y-88981399D03*
G04 #@! TO.N,TEMP3*
X177165000Y-88265000D03*
X182880000Y-88265000D03*
G04 #@! TO.N,DRUCK1*
X184150000Y-113111399D03*
G04 #@! TO.N,CO2_TX*
X152400000Y-77470000D03*
G04 #@! TD*
D22*
G04 #@! TO.N,+5V*
X186690000Y-101600000D02*
X186690000Y-92075000D01*
X186690000Y-92075000D02*
X186690000Y-83185000D01*
X186690000Y-107950000D02*
X186690000Y-101600000D01*
X186690000Y-112395000D02*
X186690000Y-107950000D01*
X200660000Y-107315000D02*
X200660000Y-101600000D01*
X200025000Y-107950000D02*
X200660000Y-107315000D01*
X200660000Y-101600000D02*
X200660000Y-92075000D01*
X200660000Y-92075000D02*
X200660000Y-83185000D01*
X200660000Y-83185000D02*
X200660000Y-79375000D01*
X198120000Y-76835000D02*
X198120000Y-73660000D01*
X200660000Y-79375000D02*
X198120000Y-76835000D01*
X184150000Y-101600000D02*
X182880000Y-102870000D01*
X186690000Y-101600000D02*
X184150000Y-101600000D01*
X184150000Y-92075000D02*
X182880000Y-93345000D01*
X186690000Y-92075000D02*
X184150000Y-92075000D01*
X198120000Y-92075000D02*
X196850000Y-93345000D01*
X200660000Y-92075000D02*
X198120000Y-92075000D01*
X198120000Y-101600000D02*
X196850000Y-102870000D01*
X200660000Y-101600000D02*
X198120000Y-101600000D01*
X186690000Y-107950000D02*
X203962000Y-107950000D01*
X205740000Y-110490000D02*
X205740000Y-112395000D01*
X203200000Y-107950000D02*
X205740000Y-110490000D01*
X212725000Y-107950000D02*
X213995000Y-106680000D01*
X213995000Y-106680000D02*
X213995000Y-101600000D01*
X186690000Y-107950000D02*
X186394999Y-107950000D01*
X186394999Y-107950000D02*
X178435000Y-115909999D01*
X114300000Y-119380000D02*
X125984000Y-107696000D01*
X163407999Y-115909999D02*
X155194000Y-107696000D01*
X164338000Y-115909999D02*
X163407999Y-115909999D01*
X125984000Y-107696000D02*
X155194000Y-107696000D01*
X164338000Y-115909999D02*
X178435000Y-115909999D01*
X163830000Y-115909999D02*
X164338000Y-115909999D01*
X164165000Y-88265000D02*
X164465000Y-88265000D01*
X159904010Y-92525990D02*
X164165000Y-88265000D01*
X159904010Y-103750796D02*
X159904010Y-92525990D01*
X155958806Y-107696000D02*
X159904010Y-103750796D01*
X155194000Y-107696000D02*
X155958806Y-107696000D01*
X186690000Y-83185000D02*
X186690000Y-81280000D01*
X184150000Y-78740000D02*
X184150000Y-73660000D01*
X186690000Y-81280000D02*
X184150000Y-78740000D01*
X203200000Y-107950000D02*
X203962000Y-107950000D01*
X203962000Y-107950000D02*
X212725000Y-107950000D01*
D23*
G04 #@! TO.N,Net-(R5-Pad1)*
X225425000Y-91440000D02*
X225425000Y-86995000D01*
G04 #@! TO.N,Net-(J4-Pad2)*
X227965000Y-79375000D02*
X227965000Y-73660000D01*
G04 #@! TO.N,Net-(J4-Pad3)*
X225425000Y-79375000D02*
X225425000Y-73660000D01*
G04 #@! TO.N,Net-(J4-Pad7)*
X215265000Y-79375000D02*
X215265000Y-73660000D01*
G04 #@! TO.N,Net-(J4-Pad6)*
X217805000Y-79375000D02*
X217805000Y-73660000D01*
G04 #@! TO.N,Net-(R6-Pad1)*
X215265000Y-91440000D02*
X215265000Y-86995000D01*
G04 #@! TO.N,PWM_L2*
X183388000Y-97282000D02*
X185420000Y-97282000D01*
X177881399Y-102788601D02*
X183388000Y-97282000D01*
X170180000Y-104140000D02*
X171531399Y-102788601D01*
X171531399Y-102788601D02*
X177881399Y-102788601D01*
G04 #@! TO.N,PWM_L1*
X178988601Y-100411399D02*
X183388000Y-96012000D01*
X171368601Y-100411399D02*
X178988601Y-100411399D01*
X170180000Y-101600000D02*
X171368601Y-100411399D01*
D22*
G04 #@! TO.N,+12V*
X229655001Y-99480001D02*
X230505000Y-100330000D01*
X223939999Y-99480001D02*
X229655001Y-99480001D01*
X223520000Y-99900000D02*
X223939999Y-99480001D01*
X223520000Y-101600000D02*
X223520000Y-99900000D01*
X223520000Y-103300000D02*
X224155000Y-103935000D01*
X223520000Y-101600000D02*
X223520000Y-103300000D01*
X224155000Y-103935000D02*
X224155000Y-112395000D01*
D23*
G04 #@! TO.N,TEMP2*
X175341399Y-86441399D02*
X172720000Y-83820000D01*
X175341399Y-88981399D02*
X175341399Y-86441399D01*
G04 #@! TO.N,TEMP3*
X177165000Y-88265000D02*
X182880000Y-88265000D01*
G04 #@! TO.N,DRUCK1*
X230505000Y-114796370D02*
X229477370Y-115824000D01*
X230505000Y-113665000D02*
X230505000Y-114796370D01*
X186862601Y-115824000D02*
X201930000Y-115824000D01*
X184150000Y-113111399D02*
X186862601Y-115824000D01*
X229477370Y-115824000D02*
X201930000Y-115824000D01*
X201930000Y-115824000D02*
X199009000Y-115824000D01*
G04 #@! TO.N,CO2_RX*
X203200000Y-72310000D02*
X201375000Y-70485000D01*
X203200000Y-73660000D02*
X203200000Y-72310000D01*
X150723599Y-71983599D02*
X149860000Y-71120000D01*
X153588601Y-74848601D02*
X150723599Y-71983599D01*
X173290529Y-74848601D02*
X153588601Y-74848601D01*
X177654130Y-70485000D02*
X173290529Y-74848601D01*
X201375000Y-70485000D02*
X177654130Y-70485000D01*
G04 #@! TO.N,CO2_TX*
X200660000Y-72310000D02*
X200105000Y-71755000D01*
X200660000Y-73660000D02*
X200660000Y-72310000D01*
X178924130Y-71755000D02*
X173209130Y-77470000D01*
X200105000Y-71755000D02*
X178924130Y-71755000D01*
X173209130Y-77470000D02*
X152400000Y-77470000D01*
D22*
G04 #@! TO.N,Net-(JP1-Pad1)*
X231955000Y-102870000D02*
X230505000Y-102870000D01*
X237620001Y-108535001D02*
X231955000Y-102870000D01*
X132588000Y-108712000D02*
X153838001Y-108712000D01*
X121920000Y-119380000D02*
X132588000Y-108712000D01*
X153838001Y-108712000D02*
X162306000Y-117179999D01*
X162306000Y-117179999D02*
X234777003Y-117179999D01*
X234777003Y-117179999D02*
X237620001Y-114337001D01*
X237620001Y-114337001D02*
X237620001Y-108535001D01*
G04 #@! TO.N,+3V3*
X115570000Y-115570000D02*
X116130011Y-115009989D01*
X111760000Y-119380000D02*
X115570000Y-115570000D01*
X164165000Y-85725000D02*
X164465000Y-85725000D01*
X159004000Y-90886000D02*
X164165000Y-85725000D01*
X159004000Y-103378000D02*
X159004000Y-90886000D01*
X155702000Y-106680000D02*
X159004000Y-103378000D01*
X115570000Y-115570000D02*
X124460000Y-106680000D01*
X124460000Y-106680000D02*
X155702000Y-106680000D01*
G04 #@! TD*
M02*
